<svg width="1620" height="2160" viewBox="0 0 1620 2160" fill="none" xmlns="http://www.w3.org/2000/svg">
<g clip-path="url(#clip0_101_2893)">
<path fill-rule="evenodd" clip-rule="evenodd" d="M1621 146.75H1V146.25H1621V146.75Z" fill="black"/>
<path fill-rule="evenodd" clip-rule="evenodd" d="M1621 312.75H1V312.25H1621V312.75Z" fill="black"/>
<path fill-rule="evenodd" clip-rule="evenodd" d="M1621 223.75H1V223.25H1621V223.75Z" fill="black"/>
<path fill-rule="evenodd" clip-rule="evenodd" d="M231.75 2160V224H232.25V2160H231.75Z" fill="black"/>
<path fill-rule="evenodd" clip-rule="evenodd" d="M463.75 2160V224H464.25V2160H463.75Z" fill="black"/>
<path fill-rule="evenodd" clip-rule="evenodd" d="M695.75 2160V224H696.25V2160H695.75Z" fill="black"/>
<path fill-rule="evenodd" clip-rule="evenodd" d="M927.75 2160V224H928.25V2160H927.75Z" fill="black"/>
<path fill-rule="evenodd" clip-rule="evenodd" d="M1159.75 2160V224H1160.25V2160H1159.75Z" fill="black"/>
<path fill-rule="evenodd" clip-rule="evenodd" d="M1391.75 2160V224H1392.25V2160H1391.75Z" fill="black"/>
<path d="M870.674 43.1602H878.594V76.0642L894.866 57.5602H902.93L889.106 72.6802L904.586 95.0002H895.73L884.21 78.0082L878.594 84.1282V95.0002H870.674V43.1602Z" fill="black"/>
<path d="M845.787 96.08C842.283 96.08 839.187 95.312 836.499 93.776C833.859 92.192 831.795 89.936 830.307 87.008C828.819 84.08 828.075 80.648 828.075 76.712C828.075 72.92 828.795 69.488 830.235 66.416C831.723 63.344 833.787 60.92 836.427 59.144C839.067 57.368 842.091 56.48 845.499 56.48C849.147 56.48 852.267 57.368 854.859 59.144C857.499 60.92 859.467 63.368 860.763 66.488C862.059 69.608 862.611 73.136 862.419 77.072H835.995C836.187 81.392 837.291 84.704 839.307 87.008C841.323 89.264 843.795 90.392 846.723 90.392C849.075 90.392 851.019 89.816 852.555 88.664C854.091 87.464 855.267 85.808 856.083 83.696H862.131C860.931 88.016 858.867 91.16 855.939 93.128C853.011 95.096 849.627 96.08 845.787 96.08ZM854.283 72.32C854.043 68.864 853.107 66.2 851.475 64.328C849.891 62.456 847.803 61.52 845.211 61.52C842.715 61.52 840.651 62.48 839.019 64.4C837.435 66.272 836.451 68.912 836.067 72.32H854.283Z" fill="black"/>
<path d="M805.709 96.08C802.205 96.08 799.109 95.312 796.421 93.776C793.781 92.192 791.717 89.936 790.229 87.008C788.741 84.08 787.997 80.648 787.997 76.712C787.997 72.92 788.717 69.488 790.157 66.416C791.645 63.344 793.709 60.92 796.349 59.144C798.989 57.368 802.013 56.48 805.421 56.48C809.069 56.48 812.189 57.368 814.781 59.144C817.421 60.92 819.389 63.368 820.685 66.488C821.981 69.608 822.533 73.136 822.341 77.072H795.917C796.109 81.392 797.213 84.704 799.229 87.008C801.245 89.264 803.717 90.392 806.645 90.392C808.997 90.392 810.941 89.816 812.477 88.664C814.013 87.464 815.189 85.808 816.005 83.696H822.053C820.853 88.016 818.789 91.16 815.861 93.128C812.933 95.096 809.549 96.08 805.709 96.08ZM814.205 72.32C813.965 68.864 813.029 66.2 811.397 64.328C809.813 62.456 807.725 61.52 805.133 61.52C802.637 61.52 800.573 62.48 798.941 64.4C797.357 66.272 796.373 68.912 795.989 72.32H814.205Z" fill="black"/>
<path d="M719.595 45.3203H728.091L738.459 89.0243L748.611 45.3203H757.539L767.979 89.0963L778.275 45.3203H785.403L772.803 95.0003H762.003L752.499 55.2563L743.067 95.0003H732.051L719.595 45.3203Z" fill="black"/>
<path d="M207.459 193.24C206.995 193.24 206.595 193.08 206.259 192.76C205.939 192.44 205.779 192.056 205.779 191.608C205.779 191.144 205.939 190.752 206.259 190.432C206.595 190.112 206.995 189.952 207.459 189.952C207.923 189.952 208.315 190.112 208.635 190.432C208.971 190.752 209.139 191.144 209.139 191.608C209.139 192.056 208.971 192.44 208.635 192.76C208.315 193.08 207.923 193.24 207.459 193.24ZM207.459 184.336C206.995 184.336 206.595 184.176 206.259 183.856C205.939 183.536 205.779 183.152 205.779 182.704C205.779 182.24 205.939 181.848 206.259 181.528C206.595 181.208 206.995 181.048 207.459 181.048C207.923 181.048 208.315 181.208 208.635 181.528C208.971 181.848 209.139 182.24 209.139 182.704C209.139 183.152 208.971 183.536 208.635 183.856C208.315 184.176 207.923 184.336 207.459 184.336Z" fill="black"/>
<path d="M190.374 176.44H197.886C198.862 176.44 199.742 176.64 200.526 177.04C201.31 177.424 201.926 177.96 202.374 178.648C202.822 179.336 203.046 180.104 203.046 180.952C203.046 182.056 202.67 183 201.918 183.784C201.166 184.568 200.174 185.04 198.942 185.2C199.566 185.328 200.086 185.6 200.502 186.016C200.918 186.416 201.254 186.88 201.51 187.408C201.782 187.936 202.078 188.64 202.398 189.52L203.67 193H200.646L199.71 189.976C199.406 188.968 199.118 188.208 198.846 187.696C198.59 187.168 198.246 186.776 197.814 186.52C197.398 186.248 196.822 186.112 196.086 186.112H193.086V193H190.374V176.44ZM197.19 184.144C198.038 184.144 198.766 183.904 199.374 183.424C199.982 182.928 200.286 182.216 200.286 181.288C200.286 180.344 199.99 179.632 199.398 179.152C198.822 178.656 198.094 178.408 197.214 178.408H193.086V184.144H197.19Z" fill="black"/>
<path d="M176.2 176.44H187.072V178.432H178.936V183.424H186.472V185.416H178.936V191.008H187.312V193H176.2V176.44Z" fill="black"/>
<path d="M160.526 176.44H167.846C168.822 176.44 169.678 176.616 170.414 176.968C171.15 177.304 171.718 177.784 172.118 178.408C172.518 179.016 172.718 179.696 172.718 180.448C172.718 181.36 172.422 182.136 171.83 182.776C171.254 183.4 170.486 183.808 169.526 184C170.694 184.256 171.614 184.76 172.286 185.512C172.958 186.264 173.294 187.2 173.294 188.32C173.294 189.2 173.078 190 172.646 190.72C172.23 191.424 171.614 191.984 170.798 192.4C169.998 192.8 169.062 193 167.99 193H160.526V176.44ZM167.342 191.104C168.318 191.104 169.094 190.848 169.67 190.336C170.246 189.824 170.534 189.08 170.534 188.104C170.534 187.224 170.222 186.536 169.598 186.04C168.99 185.528 168.222 185.272 167.294 185.272H163.166V191.104H167.342ZM167.15 183.352C167.966 183.352 168.638 183.144 169.166 182.728C169.71 182.296 169.982 181.672 169.982 180.856C169.982 180.024 169.726 179.4 169.214 178.984C168.702 178.552 168.014 178.336 167.15 178.336H163.166V183.352H167.15Z" fill="black"/>
<path d="M139.555 176.44H143.587L148.051 189.328L152.515 176.44H156.691V193H153.955V178.552L149.011 193H146.731L141.787 178.624V193H139.555V176.44Z" fill="black"/>
<path d="M129.168 193.36C127.776 193.36 126.576 193.096 125.568 192.568C124.56 192.04 123.792 191.304 123.264 190.36C122.752 189.416 122.496 188.328 122.496 187.096V176.44H125.232V187.096C125.232 188.376 125.56 189.416 126.216 190.216C126.872 191 127.856 191.392 129.168 191.392C130.48 191.392 131.456 191 132.096 190.216C132.752 189.416 133.08 188.376 133.08 187.096V176.44H135.816V187.096C135.816 188.328 135.552 189.416 135.024 190.36C134.512 191.304 133.752 192.04 132.744 192.568C131.752 193.096 130.56 193.36 129.168 193.36Z" fill="black"/>
<path d="M104.973 176.44H108.885L116.493 190.624V176.44H118.749V193H114.885L107.205 178.696V193H104.973V176.44Z" fill="black"/>
<path d="M84.3591 176.44H87.0951V185.368L94.7991 176.44H97.6791L91.7991 182.92L98.1591 193H94.8951L89.9271 184.96L87.0951 188.128V193H84.3591V176.44Z" fill="black"/>
<path d="M70.1851 176.44H81.0571V178.432H72.9211V183.424H80.4571V185.416H72.9211V191.008H81.2971V193H70.1851V176.44Z" fill="black"/>
<path d="M56.011 176.44H66.883V178.432H58.747V183.424H66.283V185.416H58.747V191.008H67.123V193H56.011V176.44Z" fill="black"/>
<path d="M31.1281 176.44H33.9601L37.4161 191.008L40.8001 176.44H43.7761L47.2561 191.032L50.6881 176.44H53.0641L48.8641 193H45.2641L42.0961 179.752L38.9521 193H35.2801L31.1281 176.44Z" fill="black"/>
<path d="M396.912 284.92C396.187 284.92 395.515 284.835 394.896 284.664V282.04C395.429 282.189 395.995 282.264 396.592 282.264C397.467 282.264 398.213 282.04 398.832 281.592C399.472 281.144 400.069 280.419 400.624 279.416L393.84 262.36H397.744L402.448 275.224L406.992 262.36H410.032L404.08 277.976C403.461 279.597 402.843 280.899 402.224 281.88C401.605 282.883 400.869 283.64 400.016 284.152C399.163 284.664 398.128 284.92 396.912 284.92Z" fill="black"/>
<path d="M382.576 279.384C381.126 279.384 379.899 279.021 378.896 278.296C377.915 277.571 377.424 276.493 377.424 275.064C377.424 272.547 379.312 270.851 383.088 269.976C384.326 269.699 385.275 269.443 385.936 269.208C386.598 268.973 387.067 268.696 387.344 268.376C387.643 268.035 387.792 267.608 387.792 267.096C387.792 266.328 387.494 265.667 386.896 265.112C386.32 264.536 385.478 264.248 384.368 264.248C383.408 264.248 382.598 264.504 381.936 265.016C381.275 265.507 380.827 266.2 380.592 267.096H377.776C378.096 265.475 378.875 264.195 380.112 263.256C381.35 262.317 382.832 261.848 384.56 261.848C386.758 261.848 388.422 262.413 389.552 263.544C390.683 264.675 391.248 266.157 391.248 267.992V275.192C391.248 275.96 391.387 276.493 391.664 276.792C391.963 277.069 392.379 277.187 392.912 277.144V278.936C392.464 279.107 391.963 279.192 391.408 279.192C389.254 279.192 388.134 278.157 388.048 276.088C387.664 276.941 387.003 277.709 386.064 278.392C385.147 279.053 383.984 279.384 382.576 279.384ZM380.976 274.776C380.976 275.437 381.222 275.971 381.712 276.376C382.203 276.76 382.875 276.952 383.728 276.952C384.88 276.952 385.84 276.568 386.608 275.8C387.376 275.032 387.76 273.912 387.76 272.44V269.848C387.504 270.317 387.088 270.712 386.512 271.032C385.958 271.331 385.264 271.597 384.432 271.832C383.152 272.195 382.256 272.611 381.744 273.08C381.232 273.528 380.976 274.093 380.976 274.776Z" fill="black"/>
<path d="M364.89 279.48C362.821 279.48 361.189 278.701 359.994 277.144C358.821 275.587 358.234 273.453 358.234 270.744C358.234 268.952 358.511 267.395 359.066 266.072C359.621 264.728 360.41 263.693 361.434 262.968C362.479 262.243 363.685 261.88 365.05 261.88C366.159 261.88 367.141 262.157 367.994 262.712C368.847 263.267 369.541 264.067 370.074 265.112V255.96H373.594V279H370.234V275.96C369.701 277.091 368.975 277.965 368.058 278.584C367.141 279.181 366.085 279.48 364.89 279.48ZM361.914 270.616C361.914 272.685 362.266 274.285 362.97 275.416C363.695 276.547 364.709 277.112 366.01 277.112C367.311 277.112 368.335 276.557 369.082 275.448C369.829 274.339 370.202 272.781 370.202 270.776C370.202 268.749 369.807 267.16 369.018 266.008C368.25 264.835 367.215 264.248 365.914 264.248C364.634 264.248 363.642 264.803 362.938 265.912C362.255 267 361.914 268.568 361.914 270.616Z" fill="black"/>
<path d="M349.217 279.48C347.169 279.48 345.473 278.989 344.129 278.008C342.785 277.005 342.017 275.587 341.825 273.752H344.577C344.747 274.84 345.259 275.693 346.113 276.312C346.987 276.909 348.011 277.208 349.185 277.208C350.273 277.208 351.126 276.984 351.745 276.536C352.363 276.067 352.673 275.437 352.673 274.648C352.673 273.944 352.417 273.411 351.905 273.048C351.393 272.664 350.603 272.365 349.537 272.152L347.617 271.736C345.889 271.352 344.566 270.787 343.649 270.04C342.731 269.293 342.273 268.259 342.273 266.936C342.273 266.04 342.529 265.208 343.041 264.44C343.553 263.651 344.278 263.032 345.217 262.584C346.177 262.115 347.297 261.88 348.577 261.88C350.262 261.88 351.702 262.264 352.897 263.032C354.091 263.8 354.902 264.888 355.329 266.296L352.257 266.904C352.001 266.008 351.542 265.325 350.881 264.856C350.219 264.365 349.409 264.12 348.449 264.12C347.51 264.12 346.763 264.333 346.209 264.76C345.675 265.187 345.409 265.752 345.409 266.456C345.409 267.053 345.643 267.533 346.113 267.896C346.603 268.237 347.425 268.536 348.577 268.792L350.369 269.176C352.246 269.603 353.633 270.2 354.529 270.968C355.425 271.736 355.873 272.835 355.873 274.264C355.873 275.288 355.585 276.195 355.009 276.984C354.454 277.773 353.665 278.392 352.641 278.84C351.638 279.267 350.497 279.48 349.217 279.48Z" fill="black"/>
<path d="M331.98 279.48C330.423 279.48 329.047 279.139 327.852 278.456C326.679 277.752 325.761 276.749 325.1 275.448C324.439 274.147 324.108 272.621 324.108 270.872C324.108 269.187 324.428 267.661 325.068 266.296C325.729 264.931 326.647 263.853 327.82 263.064C328.993 262.275 330.337 261.88 331.852 261.88C333.473 261.88 334.86 262.275 336.012 263.064C337.185 263.853 338.06 264.941 338.636 266.328C339.212 267.715 339.457 269.283 339.372 271.032H327.628C327.713 272.952 328.204 274.424 329.1 275.448C329.996 276.451 331.095 276.952 332.396 276.952C333.441 276.952 334.305 276.696 334.988 276.184C335.671 275.651 336.193 274.915 336.556 273.976H339.244C338.711 275.896 337.793 277.293 336.492 278.168C335.191 279.043 333.687 279.48 331.98 279.48ZM335.756 268.92C335.649 267.384 335.233 266.2 334.508 265.368C333.804 264.536 332.876 264.12 331.724 264.12C330.615 264.12 329.697 264.547 328.972 265.4C328.268 266.232 327.831 267.405 327.66 268.92H335.756Z" fill="black"/>
<path d="M311.346 279.384C309.746 279.384 308.487 278.904 307.57 277.944C306.674 276.963 306.226 275.555 306.226 273.72V262.36H309.746V272.888C309.746 274.253 309.991 275.245 310.482 275.864C310.994 276.483 311.719 276.792 312.658 276.792C313.404 276.792 314.098 276.568 314.738 276.12C315.399 275.672 315.922 275.021 316.306 274.168C316.711 273.293 316.914 272.269 316.914 271.096V262.36H320.434V279H316.914V275.512C316.466 276.621 315.74 277.549 314.738 278.296C313.756 279.021 312.626 279.384 311.346 279.384Z" fill="black"/>
<path d="M294.133 259.576H287.413V256.92H304.469V259.576H297.781V279H294.133V259.576Z" fill="black"/>
<path d="M162.037 284.92C161.312 284.92 160.64 284.835 160.021 284.664V282.04C160.554 282.189 161.12 282.264 161.717 282.264C162.592 282.264 163.338 282.04 163.957 281.592C164.597 281.144 165.194 280.419 165.749 279.416L158.965 262.36H162.869L167.573 275.224L172.117 262.36H175.157L169.205 277.976C168.586 279.597 167.968 280.899 167.349 281.88C166.73 282.883 165.994 283.64 165.141 284.152C164.288 284.664 163.253 284.92 162.037 284.92Z" fill="black"/>
<path d="M147.701 279.384C146.251 279.384 145.024 279.021 144.021 278.296C143.04 277.571 142.549 276.493 142.549 275.064C142.549 272.547 144.437 270.851 148.213 269.976C149.451 269.699 150.4 269.443 151.061 269.208C151.723 268.973 152.192 268.696 152.469 268.376C152.768 268.035 152.917 267.608 152.917 267.096C152.917 266.328 152.619 265.667 152.021 265.112C151.445 264.536 150.603 264.248 149.493 264.248C148.533 264.248 147.723 264.504 147.061 265.016C146.4 265.507 145.952 266.2 145.717 267.096H142.901C143.221 265.475 144 264.195 145.237 263.256C146.475 262.317 147.957 261.848 149.685 261.848C151.883 261.848 153.547 262.413 154.677 263.544C155.808 264.675 156.373 266.157 156.373 267.992V275.192C156.373 275.96 156.512 276.493 156.789 276.792C157.088 277.069 157.504 277.187 158.037 277.144V278.936C157.589 279.107 157.088 279.192 156.533 279.192C154.379 279.192 153.259 278.157 153.173 276.088C152.789 276.941 152.128 277.709 151.189 278.392C150.272 279.053 149.109 279.384 147.701 279.384ZM146.101 274.776C146.101 275.437 146.347 275.971 146.837 276.376C147.328 276.76 148 276.952 148.853 276.952C150.005 276.952 150.965 276.568 151.733 275.8C152.501 275.032 152.885 273.912 152.885 272.44V269.848C152.629 270.317 152.213 270.712 151.637 271.032C151.083 271.331 150.389 271.597 149.557 271.832C148.277 272.195 147.381 272.611 146.869 273.08C146.357 273.528 146.101 274.093 146.101 274.776Z" fill="black"/>
<path d="M130.015 279.48C127.946 279.48 126.314 278.701 125.119 277.144C123.946 275.587 123.359 273.453 123.359 270.744C123.359 268.952 123.636 267.395 124.191 266.072C124.746 264.728 125.535 263.693 126.559 262.968C127.604 262.243 128.81 261.88 130.175 261.88C131.284 261.88 132.266 262.157 133.119 262.712C133.972 263.267 134.666 264.067 135.199 265.112V255.96H138.719V279H135.359V275.96C134.826 277.091 134.1 277.965 133.183 278.584C132.266 279.181 131.21 279.48 130.015 279.48ZM127.039 270.616C127.039 272.685 127.391 274.285 128.095 275.416C128.82 276.547 129.834 277.112 131.135 277.112C132.436 277.112 133.46 276.557 134.207 275.448C134.954 274.339 135.327 272.781 135.327 270.776C135.327 268.749 134.932 267.16 134.143 266.008C133.375 264.835 132.34 264.248 131.039 264.248C129.759 264.248 128.767 264.803 128.063 265.912C127.38 267 127.039 268.568 127.039 270.616Z" fill="black"/>
<path d="M105.416 262.36H108.936V265.848C109.362 264.739 110.077 263.821 111.08 263.096C112.104 262.349 113.266 261.976 114.568 261.976C116.189 261.976 117.458 262.467 118.376 263.448C119.293 264.408 119.752 265.805 119.752 267.64V279H116.232V268.472C116.232 265.869 115.24 264.568 113.256 264.568C112.509 264.568 111.805 264.792 111.144 265.24C110.482 265.688 109.949 266.349 109.544 267.224C109.138 268.077 108.936 269.091 108.936 270.264V279H105.416V262.36Z" fill="black"/>
<path d="M93.7934 279.48C92.2147 279.48 90.8281 279.128 89.6334 278.424C88.4387 277.699 87.5107 276.675 86.8494 275.352C86.2094 274.029 85.8894 272.493 85.8894 270.744C85.8894 268.995 86.2094 267.448 86.8494 266.104C87.5107 264.76 88.4387 263.725 89.6334 263C90.8281 262.253 92.2147 261.88 93.7934 261.88C95.3721 261.88 96.7587 262.243 97.9534 262.968C99.1481 263.693 100.076 264.717 100.737 266.04C101.399 267.363 101.729 268.899 101.729 270.648C101.729 272.397 101.399 273.944 100.737 275.288C100.076 276.611 99.1481 277.645 97.9534 278.392C96.7587 279.117 95.3721 279.48 93.7934 279.48ZM89.5694 270.584C89.5694 272.632 89.9427 274.253 90.6894 275.448C91.4574 276.621 92.5027 277.208 93.8254 277.208C95.1267 277.208 96.1507 276.653 96.8974 275.544C97.6654 274.413 98.0494 272.835 98.0494 270.808C98.0494 268.739 97.6654 267.117 96.8974 265.944C96.1294 264.749 95.0841 264.152 93.7614 264.152C92.4387 264.152 91.4041 264.717 90.6574 265.848C89.9321 266.979 89.5694 268.557 89.5694 270.584Z" fill="black"/>
<path d="M59.0481 256.92H64.4241L70.3761 274.104L76.3281 256.92H81.8961V279H78.2481V259.736L71.6561 279H68.6161L62.0241 259.832V279H59.0481V256.92Z" fill="black"/>
<path d="M652.99 284.92C652.265 284.92 651.593 284.835 650.974 284.664V282.04C651.508 282.189 652.073 282.264 652.67 282.264C653.545 282.264 654.292 282.04 654.91 281.592C655.55 281.144 656.148 280.419 656.702 279.416L649.918 262.36H653.822L658.526 275.224L663.07 262.36H666.11L660.158 277.976C659.54 279.597 658.921 280.899 658.302 281.88C657.684 282.883 656.948 283.64 656.094 284.152C655.241 284.664 654.206 284.92 652.99 284.92Z" fill="black"/>
<path d="M638.654 279.384C637.204 279.384 635.977 279.021 634.974 278.296C633.993 277.571 633.502 276.493 633.502 275.064C633.502 272.547 635.39 270.851 639.166 269.976C640.404 269.699 641.353 269.443 642.014 269.208C642.676 268.973 643.145 268.696 643.422 268.376C643.721 268.035 643.87 267.608 643.87 267.096C643.87 266.328 643.572 265.667 642.974 265.112C642.398 264.536 641.556 264.248 640.446 264.248C639.486 264.248 638.676 264.504 638.014 265.016C637.353 265.507 636.905 266.2 636.67 267.096H633.854C634.174 265.475 634.953 264.195 636.19 263.256C637.428 262.317 638.91 261.848 640.638 261.848C642.836 261.848 644.5 262.413 645.63 263.544C646.761 264.675 647.326 266.157 647.326 267.992V275.192C647.326 275.96 647.465 276.493 647.742 276.792C648.041 277.069 648.457 277.187 648.99 277.144V278.936C648.542 279.107 648.041 279.192 647.486 279.192C645.332 279.192 644.212 278.157 644.126 276.088C643.742 276.941 643.081 277.709 642.142 278.392C641.225 279.053 640.062 279.384 638.654 279.384ZM637.054 274.776C637.054 275.437 637.3 275.971 637.79 276.376C638.281 276.76 638.953 276.952 639.806 276.952C640.958 276.952 641.918 276.568 642.686 275.8C643.454 275.032 643.838 273.912 643.838 272.44V269.848C643.582 270.317 643.166 270.712 642.59 271.032C642.036 271.331 641.342 271.597 640.51 271.832C639.23 272.195 638.334 272.611 637.822 273.08C637.31 273.528 637.054 274.093 637.054 274.776Z" fill="black"/>
<path d="M620.968 279.48C618.899 279.48 617.267 278.701 616.072 277.144C614.899 275.587 614.312 273.453 614.312 270.744C614.312 268.952 614.589 267.395 615.144 266.072C615.699 264.728 616.488 263.693 617.512 262.968C618.557 262.243 619.763 261.88 621.128 261.88C622.237 261.88 623.219 262.157 624.072 262.712C624.925 263.267 625.619 264.067 626.152 265.112V255.96H629.672V279H626.312V275.96C625.779 277.091 625.053 277.965 624.136 278.584C623.219 279.181 622.163 279.48 620.968 279.48ZM617.992 270.616C617.992 272.685 618.344 274.285 619.048 275.416C619.773 276.547 620.787 277.112 622.088 277.112C623.389 277.112 624.413 276.557 625.16 275.448C625.907 274.339 626.28 272.781 626.28 270.776C626.28 268.749 625.885 267.16 625.096 266.008C624.328 264.835 623.293 264.248 621.992 264.248C620.712 264.248 619.72 264.803 619.016 265.912C618.333 267 617.992 268.568 617.992 270.616Z" fill="black"/>
<path d="M605.295 279.48C603.247 279.48 601.551 278.989 600.207 278.008C598.863 277.005 598.095 275.587 597.903 273.752H600.655C600.825 274.84 601.337 275.693 602.191 276.312C603.065 276.909 604.089 277.208 605.263 277.208C606.351 277.208 607.204 276.984 607.823 276.536C608.441 276.067 608.751 275.437 608.751 274.648C608.751 273.944 608.495 273.411 607.983 273.048C607.471 272.664 606.681 272.365 605.615 272.152L603.695 271.736C601.967 271.352 600.644 270.787 599.727 270.04C598.809 269.293 598.351 268.259 598.351 266.936C598.351 266.04 598.607 265.208 599.119 264.44C599.631 263.651 600.356 263.032 601.295 262.584C602.255 262.115 603.375 261.88 604.655 261.88C606.34 261.88 607.78 262.264 608.975 263.032C610.169 263.8 610.98 264.888 611.407 266.296L608.335 266.904C608.079 266.008 607.62 265.325 606.959 264.856C606.297 264.365 605.487 264.12 604.527 264.12C603.588 264.12 602.841 264.333 602.287 264.76C601.753 265.187 601.487 265.752 601.487 266.456C601.487 267.053 601.721 267.533 602.191 267.896C602.681 268.237 603.503 268.536 604.655 268.792L606.447 269.176C608.324 269.603 609.711 270.2 610.607 270.968C611.503 271.736 611.951 272.835 611.951 274.264C611.951 275.288 611.663 276.195 611.087 276.984C610.532 277.773 609.743 278.392 608.719 278.84C607.716 279.267 606.575 279.48 605.295 279.48Z" fill="black"/>
<path d="M588.058 279.48C586.501 279.48 585.125 279.139 583.93 278.456C582.757 277.752 581.84 276.749 581.178 275.448C580.517 274.147 580.186 272.621 580.186 270.872C580.186 269.187 580.506 267.661 581.146 266.296C581.808 264.931 582.725 263.853 583.898 263.064C585.072 262.275 586.416 261.88 587.93 261.88C589.552 261.88 590.938 262.275 592.09 263.064C593.264 263.853 594.138 264.941 594.714 266.328C595.29 267.715 595.536 269.283 595.45 271.032H583.706C583.792 272.952 584.282 274.424 585.178 275.448C586.074 276.451 587.173 276.952 588.474 276.952C589.52 276.952 590.384 276.696 591.066 276.184C591.749 275.651 592.272 274.915 592.634 273.976H595.322C594.789 275.896 593.872 277.293 592.57 278.168C591.269 279.043 589.765 279.48 588.058 279.48ZM591.834 268.92C591.728 267.384 591.312 266.2 590.586 265.368C589.882 264.536 588.954 264.12 587.802 264.12C586.693 264.12 585.776 264.547 585.05 265.4C584.346 266.232 583.909 267.405 583.738 268.92H591.834Z" fill="black"/>
<path d="M562.275 262.36H565.795V265.848C566.222 264.739 566.936 263.821 567.939 263.096C568.963 262.349 570.126 261.976 571.427 261.976C573.048 261.976 574.318 262.467 575.235 263.448C576.152 264.408 576.611 265.805 576.611 267.64V279H573.091V268.472C573.091 265.869 572.099 264.568 570.115 264.568C569.368 264.568 568.664 264.792 568.003 265.24C567.342 265.688 566.808 266.349 566.403 267.224C565.998 268.077 565.795 269.091 565.795 270.264V279H562.275V262.36Z" fill="black"/>
<path d="M548.781 279.48C546.711 279.48 545.079 278.701 543.885 277.144C542.711 275.587 542.125 273.453 542.125 270.744C542.125 268.952 542.402 267.395 542.957 266.072C543.511 264.728 544.301 263.693 545.325 262.968C546.37 262.243 547.575 261.88 548.941 261.88C550.05 261.88 551.031 262.157 551.885 262.712C552.738 263.267 553.431 264.067 553.965 265.112V255.96H557.485V279H554.125V275.96C553.591 277.091 552.866 277.965 551.949 278.584C551.031 279.181 549.975 279.48 548.781 279.48ZM545.805 270.616C545.805 272.685 546.157 274.285 546.861 275.416C547.586 276.547 548.599 277.112 549.901 277.112C551.202 277.112 552.226 276.557 552.973 275.448C553.719 274.339 554.093 272.781 554.093 270.776C554.093 268.749 553.698 267.16 552.909 266.008C552.141 264.835 551.106 264.248 549.805 264.248C548.525 264.248 547.533 264.803 546.829 265.912C546.146 267 545.805 268.568 545.805 270.616Z" fill="black"/>
<path d="M532.152 279.48C530.595 279.48 529.219 279.139 528.024 278.456C526.851 277.752 525.933 276.749 525.272 275.448C524.611 274.147 524.28 272.621 524.28 270.872C524.28 269.187 524.6 267.661 525.24 266.296C525.901 264.931 526.819 263.853 527.992 263.064C529.165 262.275 530.509 261.88 532.024 261.88C533.645 261.88 535.032 262.275 536.184 263.064C537.357 263.853 538.232 264.941 538.808 266.328C539.384 267.715 539.629 269.283 539.544 271.032H527.8C527.885 272.952 528.376 274.424 529.272 275.448C530.168 276.451 531.267 276.952 532.568 276.952C533.613 276.952 534.477 276.696 535.16 276.184C535.843 275.651 536.365 274.915 536.728 273.976H539.416C538.883 275.896 537.965 277.293 536.664 278.168C535.363 279.043 533.859 279.48 532.152 279.48ZM535.928 268.92C535.821 267.384 535.405 266.2 534.68 265.368C533.976 264.536 533.048 264.12 531.896 264.12C530.787 264.12 529.869 264.547 529.144 265.4C528.44 266.232 528.003 267.405 527.832 268.92H535.928Z" fill="black"/>
<path d="M493.879 256.92H497.655L502.263 276.344L506.775 256.92H510.743L515.383 276.376L519.959 256.92H523.127L517.527 279H512.727L508.503 261.336L504.311 279H499.415L493.879 256.92Z" fill="black"/>
<path d="M867.365 284.92C866.64 284.92 865.968 284.835 865.349 284.664V282.04C865.883 282.189 866.448 282.264 867.045 282.264C867.92 282.264 868.667 282.04 869.285 281.592C869.925 281.144 870.523 280.419 871.077 279.416L864.293 262.36H868.197L872.901 275.224L877.445 262.36H880.485L874.533 277.976C873.915 279.597 873.296 280.899 872.677 281.88C872.059 282.883 871.323 283.64 870.469 284.152C869.616 284.664 868.581 284.92 867.365 284.92Z" fill="black"/>
<path d="M853.029 279.384C851.579 279.384 850.352 279.021 849.349 278.296C848.368 277.571 847.877 276.493 847.877 275.064C847.877 272.547 849.765 270.851 853.541 269.976C854.779 269.699 855.728 269.443 856.389 269.208C857.051 268.973 857.52 268.696 857.797 268.376C858.096 268.035 858.245 267.608 858.245 267.096C858.245 266.328 857.947 265.667 857.349 265.112C856.773 264.536 855.931 264.248 854.821 264.248C853.861 264.248 853.051 264.504 852.389 265.016C851.728 265.507 851.28 266.2 851.045 267.096H848.229C848.549 265.475 849.328 264.195 850.565 263.256C851.803 262.317 853.285 261.848 855.013 261.848C857.211 261.848 858.875 262.413 860.005 263.544C861.136 264.675 861.701 266.157 861.701 267.992V275.192C861.701 275.96 861.84 276.493 862.117 276.792C862.416 277.069 862.832 277.187 863.365 277.144V278.936C862.917 279.107 862.416 279.192 861.861 279.192C859.707 279.192 858.587 278.157 858.501 276.088C858.117 276.941 857.456 277.709 856.517 278.392C855.6 279.053 854.437 279.384 853.029 279.384ZM851.429 274.776C851.429 275.437 851.675 275.971 852.165 276.376C852.656 276.76 853.328 276.952 854.181 276.952C855.333 276.952 856.293 276.568 857.061 275.8C857.829 275.032 858.213 273.912 858.213 272.44V269.848C857.957 270.317 857.541 270.712 856.965 271.032C856.411 271.331 855.717 271.597 854.885 271.832C853.605 272.195 852.709 272.611 852.197 273.08C851.685 273.528 851.429 274.093 851.429 274.776Z" fill="black"/>
<path d="M835.343 279.48C833.274 279.48 831.642 278.701 830.447 277.144C829.274 275.587 828.687 273.453 828.687 270.744C828.687 268.952 828.964 267.395 829.519 266.072C830.074 264.728 830.863 263.693 831.887 262.968C832.932 262.243 834.138 261.88 835.503 261.88C836.612 261.88 837.594 262.157 838.447 262.712C839.3 263.267 839.994 264.067 840.527 265.112V255.96H844.047V279H840.687V275.96C840.154 277.091 839.428 277.965 838.511 278.584C837.594 279.181 836.538 279.48 835.343 279.48ZM832.367 270.616C832.367 272.685 832.719 274.285 833.423 275.416C834.148 276.547 835.162 277.112 836.463 277.112C837.764 277.112 838.788 276.557 839.535 275.448C840.282 274.339 840.655 272.781 840.655 270.776C840.655 268.749 840.26 267.16 839.471 266.008C838.703 264.835 837.668 264.248 836.367 264.248C835.087 264.248 834.095 264.803 833.391 265.912C832.708 267 832.367 268.568 832.367 270.616Z" fill="black"/>
<path d="M819.67 279.48C817.622 279.48 815.926 278.989 814.582 278.008C813.238 277.005 812.47 275.587 812.278 273.752H815.03C815.2 274.84 815.713 275.693 816.566 276.312C817.441 276.909 818.464 277.208 819.638 277.208C820.726 277.208 821.579 276.984 822.198 276.536C822.817 276.067 823.126 275.437 823.126 274.648C823.126 273.944 822.87 273.411 822.358 273.048C821.846 272.664 821.057 272.365 819.99 272.152L818.07 271.736C816.342 271.352 815.019 270.787 814.102 270.04C813.185 269.293 812.726 268.259 812.726 266.936C812.726 266.04 812.982 265.208 813.494 264.44C814.006 263.651 814.731 263.032 815.67 262.584C816.63 262.115 817.75 261.88 819.03 261.88C820.715 261.88 822.155 262.264 823.35 263.032C824.544 263.8 825.355 264.888 825.782 266.296L822.71 266.904C822.454 266.008 821.995 265.325 821.334 264.856C820.672 264.365 819.862 264.12 818.902 264.12C817.963 264.12 817.217 264.333 816.662 264.76C816.129 265.187 815.862 265.752 815.862 266.456C815.862 267.053 816.097 267.533 816.566 267.896C817.057 268.237 817.878 268.536 819.03 268.792L820.822 269.176C822.699 269.603 824.086 270.2 824.982 270.968C825.878 271.736 826.326 272.835 826.326 274.264C826.326 275.288 826.038 276.195 825.462 276.984C824.907 277.773 824.118 278.392 823.094 278.84C822.091 279.267 820.95 279.48 819.67 279.48Z" fill="black"/>
<path d="M801.244 262.36H804.764V266.2H804.828C805.148 265.112 805.702 264.162 806.492 263.352C807.281 262.541 808.252 262.136 809.404 262.136C809.852 262.136 810.15 262.168 810.3 262.232V265.432C810.044 265.368 809.67 265.336 809.18 265.336C807.985 265.336 806.95 265.837 806.076 266.84C805.201 267.821 804.764 269.474 804.764 271.8V279H801.244V262.36Z" fill="black"/>
<path d="M787.361 279.384C785.761 279.384 784.503 278.904 783.585 277.944C782.689 276.963 782.241 275.555 782.241 273.72V262.36H785.761V272.888C785.761 274.253 786.007 275.245 786.497 275.864C787.009 276.483 787.735 276.792 788.673 276.792C789.42 276.792 790.113 276.568 790.753 276.12C791.415 275.672 791.937 275.021 792.321 274.168C792.727 273.293 792.929 272.269 792.929 271.096V262.36H796.449V279H792.929V275.512C792.481 276.621 791.756 277.549 790.753 278.296C789.772 279.021 788.641 279.384 787.361 279.384Z" fill="black"/>
<path d="M763.369 255.96H766.889V265.848C767.337 264.739 768.062 263.821 769.065 263.096C770.067 262.349 771.209 261.976 772.489 261.976C774.089 261.976 775.347 262.467 776.265 263.448C777.182 264.408 777.641 265.805 777.641 267.64V279H774.121V268.472C774.121 267.107 773.865 266.115 773.353 265.496C772.862 264.877 772.137 264.568 771.177 264.568C770.43 264.568 769.726 264.792 769.065 265.24C768.425 265.688 767.902 266.349 767.497 267.224C767.091 268.077 766.889 269.091 766.889 270.264V279H763.369V255.96Z" fill="black"/>
<path d="M749.68 259.576H742.96V256.92H760.016V259.576H753.328V279H749.68V259.576Z" fill="black"/>
<path d="M1075.99 284.92C1075.26 284.92 1074.59 284.835 1073.97 284.664V282.04C1074.51 282.19 1075.07 282.264 1075.67 282.264C1076.54 282.264 1077.29 282.04 1077.91 281.592C1078.55 281.144 1079.15 280.419 1079.7 279.416L1072.92 262.36H1076.82L1081.53 275.224L1086.07 262.36H1089.11L1083.16 277.976C1082.54 279.598 1081.92 280.899 1081.3 281.88C1080.68 282.883 1079.95 283.64 1079.09 284.152C1078.24 284.664 1077.21 284.92 1075.99 284.92Z" fill="black"/>
<path d="M1061.65 279.384C1060.2 279.384 1058.98 279.021 1057.97 278.296C1056.99 277.571 1056.5 276.493 1056.5 275.064C1056.5 272.547 1058.39 270.851 1062.17 269.976C1063.4 269.699 1064.35 269.443 1065.01 269.208C1065.68 268.973 1066.15 268.696 1066.42 268.376C1066.72 268.035 1066.87 267.608 1066.87 267.096C1066.87 266.328 1066.57 265.667 1065.97 265.112C1065.4 264.536 1064.56 264.248 1063.45 264.248C1062.49 264.248 1061.68 264.504 1061.01 265.016C1060.35 265.507 1059.91 266.2 1059.67 267.096H1056.85C1057.17 265.475 1057.95 264.195 1059.19 263.256C1060.43 262.317 1061.91 261.848 1063.64 261.848C1065.84 261.848 1067.5 262.413 1068.63 263.544C1069.76 264.675 1070.33 266.157 1070.33 267.992V275.192C1070.33 275.96 1070.47 276.493 1070.74 276.792C1071.04 277.069 1071.46 277.187 1071.99 277.144V278.936C1071.54 279.107 1071.04 279.192 1070.49 279.192C1068.33 279.192 1067.21 278.157 1067.13 276.088C1066.74 276.941 1066.08 277.709 1065.14 278.392C1064.23 279.053 1063.06 279.384 1061.65 279.384ZM1060.05 274.776C1060.05 275.437 1060.3 275.971 1060.79 276.376C1061.28 276.76 1061.95 276.952 1062.81 276.952C1063.96 276.952 1064.92 276.568 1065.69 275.8C1066.45 275.032 1066.84 273.912 1066.84 272.44V269.848C1066.58 270.317 1066.17 270.712 1065.59 271.032C1065.04 271.331 1064.34 271.597 1063.51 271.832C1062.23 272.195 1061.33 272.611 1060.82 273.08C1060.31 273.528 1060.05 274.093 1060.05 274.776Z" fill="black"/>
<path d="M1043.97 279.48C1041.9 279.48 1040.27 278.702 1039.07 277.144C1037.9 275.587 1037.31 273.454 1037.31 270.744C1037.31 268.952 1037.59 267.395 1038.14 266.072C1038.7 264.728 1039.49 263.694 1040.51 262.968C1041.56 262.243 1042.76 261.88 1044.13 261.88C1045.24 261.88 1046.22 262.158 1047.07 262.712C1047.93 263.267 1048.62 264.067 1049.15 265.112V255.96H1052.67V279H1049.31V275.96C1048.78 277.091 1048.05 277.966 1047.14 278.584C1046.22 279.182 1045.16 279.48 1043.97 279.48ZM1040.99 270.616C1040.99 272.686 1041.34 274.286 1042.05 275.416C1042.77 276.547 1043.79 277.112 1045.09 277.112C1046.39 277.112 1047.41 276.558 1048.16 275.448C1048.91 274.339 1049.28 272.782 1049.28 270.776C1049.28 268.75 1048.89 267.16 1048.1 266.008C1047.33 264.835 1046.29 264.248 1044.99 264.248C1043.71 264.248 1042.72 264.803 1042.02 265.912C1041.33 267 1040.99 268.568 1040.99 270.616Z" fill="black"/>
<path d="M1030.06 262.36H1033.58V279H1030.06V262.36ZM1031.85 259.448C1031.25 259.448 1030.74 259.256 1030.31 258.872C1029.91 258.467 1029.7 257.987 1029.7 257.432C1029.7 256.878 1029.91 256.408 1030.31 256.024C1030.74 255.64 1031.25 255.448 1031.85 255.448C1032.42 255.448 1032.91 255.651 1033.32 256.056C1033.75 256.44 1033.96 256.899 1033.96 257.432C1033.96 257.987 1033.75 258.467 1033.32 258.872C1032.91 259.256 1032.42 259.448 1031.85 259.448Z" fill="black"/>
<path d="M1017.81 262.36H1021.33V266.2H1021.39C1021.71 265.112 1022.26 264.163 1023.05 263.352C1023.84 262.542 1024.81 262.136 1025.97 262.136C1026.41 262.136 1026.71 262.168 1026.86 262.232V265.432C1026.61 265.368 1026.23 265.336 1025.74 265.336C1024.55 265.336 1023.51 265.838 1022.64 266.84C1021.76 267.822 1021.33 269.475 1021.33 271.8V279H1017.81V262.36Z" fill="black"/>
<path d="M1000.09 256.92H1014.59V259.576H1003.74V266.232H1013.79V268.888H1003.74V279H1000.09V256.92Z" fill="black"/>
<path d="M1329.33 284.92C1328.61 284.92 1327.94 284.835 1327.32 284.664V282.04C1327.85 282.189 1328.42 282.264 1329.01 282.264C1329.89 282.264 1330.64 282.04 1331.25 281.592C1331.89 281.144 1332.49 280.419 1333.05 279.416L1326.26 262.36H1330.17L1334.87 275.224L1339.41 262.36H1342.45L1336.5 277.976C1335.88 279.597 1335.26 280.899 1334.65 281.88C1334.03 282.883 1333.29 283.64 1332.44 284.152C1331.58 284.664 1330.55 284.92 1329.33 284.92Z" fill="black"/>
<path d="M1315 279.384C1313.55 279.384 1312.32 279.021 1311.32 278.296C1310.34 277.571 1309.85 276.493 1309.85 275.064C1309.85 272.547 1311.73 270.851 1315.51 269.976C1316.75 269.699 1317.7 269.443 1318.36 269.208C1319.02 268.973 1319.49 268.696 1319.77 268.376C1320.06 268.035 1320.21 267.608 1320.21 267.096C1320.21 266.328 1319.92 265.667 1319.32 265.112C1318.74 264.536 1317.9 264.248 1316.79 264.248C1315.83 264.248 1315.02 264.504 1314.36 265.016C1313.7 265.507 1313.25 266.2 1313.01 267.096H1310.2C1310.52 265.475 1311.3 264.195 1312.53 263.256C1313.77 262.317 1315.25 261.848 1316.98 261.848C1319.18 261.848 1320.84 262.413 1321.97 263.544C1323.1 264.675 1323.67 266.157 1323.67 267.992V275.192C1323.67 275.96 1323.81 276.493 1324.09 276.792C1324.38 277.069 1324.8 277.187 1325.33 277.144V278.936C1324.89 279.107 1324.38 279.192 1323.83 279.192C1321.68 279.192 1320.56 278.157 1320.47 276.088C1320.09 276.941 1319.42 277.709 1318.49 278.392C1317.57 279.053 1316.41 279.384 1315 279.384ZM1313.4 274.776C1313.4 275.437 1313.64 275.971 1314.13 276.376C1314.62 276.76 1315.3 276.952 1316.15 276.952C1317.3 276.952 1318.26 276.568 1319.03 275.8C1319.8 275.032 1320.18 273.912 1320.18 272.44V269.848C1319.93 270.317 1319.51 270.712 1318.93 271.032C1318.38 271.331 1317.69 271.597 1316.85 271.832C1315.57 272.195 1314.68 272.611 1314.17 273.08C1313.65 273.528 1313.4 274.093 1313.4 274.776Z" fill="black"/>
<path d="M1297.31 279.48C1295.24 279.48 1293.61 278.701 1292.42 277.144C1291.24 275.587 1290.66 273.453 1290.66 270.744C1290.66 268.952 1290.93 267.395 1291.49 266.072C1292.04 264.728 1292.83 263.693 1293.86 262.968C1294.9 262.243 1296.11 261.88 1297.47 261.88C1298.58 261.88 1299.56 262.157 1300.42 262.712C1301.27 263.267 1301.96 264.067 1302.5 265.112V255.96H1306.02V279H1302.66V275.96C1302.12 277.091 1301.4 277.965 1300.48 278.584C1299.56 279.181 1298.51 279.48 1297.31 279.48ZM1294.34 270.616C1294.34 272.685 1294.69 274.285 1295.39 275.416C1296.12 276.547 1297.13 277.112 1298.43 277.112C1299.73 277.112 1300.76 276.557 1301.5 275.448C1302.25 274.339 1302.62 272.781 1302.62 270.776C1302.62 268.749 1302.23 267.16 1301.44 266.008C1300.67 264.835 1299.64 264.248 1298.34 264.248C1297.06 264.248 1296.06 264.803 1295.36 265.912C1294.68 267 1294.34 268.568 1294.34 270.616Z" fill="black"/>
<path d="M1279.99 262.36H1283.51V266.2H1283.58C1283.9 265.112 1284.45 264.162 1285.24 263.352C1286.03 262.541 1287 262.136 1288.15 262.136C1288.6 262.136 1288.9 262.168 1289.05 262.232V265.432C1288.79 265.368 1288.42 265.336 1287.93 265.336C1286.73 265.336 1285.7 265.837 1284.83 266.84C1283.95 267.821 1283.51 269.474 1283.51 271.8V279H1279.99V262.36Z" fill="black"/>
<path d="M1266.11 279.384C1264.51 279.384 1263.25 278.904 1262.34 277.944C1261.44 276.963 1260.99 275.555 1260.99 273.72V262.36H1264.51V272.888C1264.51 274.253 1264.76 275.245 1265.25 275.864C1265.76 276.483 1266.48 276.792 1267.42 276.792C1268.17 276.792 1268.86 276.568 1269.5 276.12C1270.16 275.672 1270.69 275.021 1271.07 274.168C1271.48 273.293 1271.68 272.269 1271.68 271.096V262.36H1275.2V279H1271.68V275.512C1271.23 276.621 1270.51 277.549 1269.5 278.296C1268.52 279.021 1267.39 279.384 1266.11 279.384Z" fill="black"/>
<path d="M1255.17 279.256C1253.47 279.256 1252.16 278.872 1251.27 278.104C1250.39 277.336 1249.96 275.96 1249.96 273.976V264.6H1247.24V262.872C1248.45 262.808 1249.36 262.403 1249.96 261.656C1250.55 260.91 1250.91 259.758 1251.01 258.2H1253.44V262.36H1257.48V264.6H1253.44V274.072C1253.44 275.118 1253.68 275.854 1254.15 276.28C1254.62 276.686 1255.28 276.888 1256.13 276.888C1256.73 276.888 1257.22 276.814 1257.6 276.664V278.84C1257.35 278.968 1257 279.064 1256.55 279.128C1256.1 279.214 1255.64 279.256 1255.17 279.256Z" fill="black"/>
<path d="M1235.5 279.384C1234.05 279.384 1232.82 279.021 1231.82 278.296C1230.84 277.571 1230.35 276.493 1230.35 275.064C1230.35 272.547 1232.23 270.851 1236.01 269.976C1237.25 269.699 1238.2 269.443 1238.86 269.208C1239.52 268.973 1239.99 268.696 1240.27 268.376C1240.56 268.035 1240.71 267.608 1240.71 267.096C1240.71 266.328 1240.42 265.667 1239.82 265.112C1239.24 264.536 1238.4 264.248 1237.29 264.248C1236.33 264.248 1235.52 264.504 1234.86 265.016C1234.2 265.507 1233.75 266.2 1233.51 267.096H1230.7C1231.02 265.475 1231.8 264.195 1233.03 263.256C1234.27 262.317 1235.75 261.848 1237.48 261.848C1239.68 261.848 1241.34 262.413 1242.47 263.544C1243.6 264.675 1244.17 266.157 1244.17 267.992V275.192C1244.17 275.96 1244.31 276.493 1244.59 276.792C1244.88 277.069 1245.3 277.187 1245.83 277.144V278.936C1245.39 279.107 1244.88 279.192 1244.33 279.192C1242.18 279.192 1241.06 278.157 1240.97 276.088C1240.59 276.941 1239.92 277.709 1238.99 278.392C1238.07 279.053 1236.91 279.384 1235.5 279.384ZM1233.9 274.776C1233.9 275.437 1234.14 275.971 1234.63 276.376C1235.12 276.76 1235.8 276.952 1236.65 276.952C1237.8 276.952 1238.76 276.568 1239.53 275.8C1240.3 275.032 1240.68 273.912 1240.68 272.44V269.848C1240.43 270.317 1240.01 270.712 1239.43 271.032C1238.88 271.331 1238.19 271.597 1237.35 271.832C1236.07 272.195 1235.18 272.611 1234.67 273.08C1234.15 273.528 1233.9 274.093 1233.9 274.776Z" fill="black"/>
<path d="M1218.88 279.512C1217.19 279.512 1215.66 279.235 1214.27 278.68C1212.88 278.104 1211.74 277.24 1210.85 276.088C1209.95 274.936 1209.43 273.507 1209.28 271.8H1212.38C1212.6 273.421 1213.31 274.68 1214.53 275.576C1215.74 276.472 1217.19 276.92 1218.88 276.92C1220.48 276.92 1221.71 276.579 1222.56 275.896C1223.43 275.213 1223.87 274.296 1223.87 273.144C1223.87 272.099 1223.51 271.309 1222.78 270.776C1222.08 270.243 1221.03 269.837 1219.65 269.56L1216.8 268.984C1214.62 268.536 1212.95 267.832 1211.78 266.872C1210.62 265.891 1210.05 264.557 1210.05 262.872C1210.05 261.72 1210.37 260.653 1211.01 259.672C1211.67 258.691 1212.61 257.912 1213.82 257.336C1215.06 256.739 1216.5 256.44 1218.14 256.44C1220.34 256.44 1222.22 256.952 1223.78 257.976C1225.33 259 1226.36 260.472 1226.85 262.392L1223.42 263.064C1223.08 261.699 1222.42 260.664 1221.44 259.96C1220.48 259.256 1219.31 258.904 1217.92 258.904C1216.55 258.904 1215.49 259.224 1214.72 259.864C1213.95 260.483 1213.57 261.304 1213.57 262.328C1213.57 263.203 1213.89 263.917 1214.53 264.472C1215.19 265.005 1216.24 265.421 1217.7 265.72L1220.45 266.296C1222.86 266.787 1224.62 267.533 1225.73 268.536C1226.86 269.539 1227.42 270.915 1227.42 272.664C1227.42 273.987 1227.07 275.171 1226.37 276.216C1225.66 277.24 1224.66 278.051 1223.36 278.648C1222.08 279.224 1220.59 279.512 1218.88 279.512Z" fill="black"/>
<path d="M1549.08 284.92C1548.36 284.92 1547.69 284.835 1547.07 284.664V282.04C1547.6 282.189 1548.17 282.264 1548.76 282.264C1549.64 282.264 1550.39 282.04 1551 281.592C1551.64 281.144 1552.24 280.419 1552.8 279.416L1546.01 262.36H1549.92L1554.62 275.224L1559.16 262.36H1562.2L1556.25 277.976C1555.63 279.597 1555.01 280.899 1554.4 281.88C1553.78 282.883 1553.04 283.64 1552.19 284.152C1551.33 284.664 1550.3 284.92 1549.08 284.92Z" fill="black"/>
<path d="M1534.75 279.384C1533.3 279.384 1532.07 279.021 1531.07 278.296C1530.09 277.571 1529.6 276.493 1529.6 275.064C1529.6 272.547 1531.48 270.851 1535.26 269.976C1536.5 269.699 1537.45 269.443 1538.11 269.208C1538.77 268.973 1539.24 268.696 1539.52 268.376C1539.81 268.035 1539.96 267.608 1539.96 267.096C1539.96 266.328 1539.67 265.667 1539.07 265.112C1538.49 264.536 1537.65 264.248 1536.54 264.248C1535.58 264.248 1534.77 264.504 1534.11 265.016C1533.45 265.507 1533 266.2 1532.76 267.096H1529.95C1530.27 265.475 1531.05 264.195 1532.28 263.256C1533.52 262.317 1535 261.848 1536.73 261.848C1538.93 261.848 1540.59 262.413 1541.72 263.544C1542.85 264.675 1543.42 266.157 1543.42 267.992V275.192C1543.42 275.96 1543.56 276.493 1543.84 276.792C1544.13 277.069 1544.55 277.187 1545.08 277.144V278.936C1544.64 279.107 1544.13 279.192 1543.58 279.192C1541.43 279.192 1540.31 278.157 1540.22 276.088C1539.84 276.941 1539.17 277.709 1538.24 278.392C1537.32 279.053 1536.16 279.384 1534.75 279.384ZM1533.15 274.776C1533.15 275.437 1533.39 275.971 1533.88 276.376C1534.37 276.76 1535.05 276.952 1535.9 276.952C1537.05 276.952 1538.01 276.568 1538.78 275.8C1539.55 275.032 1539.93 273.912 1539.93 272.44V269.848C1539.68 270.317 1539.26 270.712 1538.68 271.032C1538.13 271.331 1537.44 271.597 1536.6 271.832C1535.32 272.195 1534.43 272.611 1533.92 273.08C1533.4 273.528 1533.15 274.093 1533.15 274.776Z" fill="black"/>
<path d="M1517.06 279.48C1514.99 279.48 1513.36 278.701 1512.17 277.144C1510.99 275.587 1510.41 273.453 1510.41 270.744C1510.41 268.952 1510.68 267.395 1511.24 266.072C1511.79 264.728 1512.58 263.693 1513.61 262.968C1514.65 262.243 1515.86 261.88 1517.22 261.88C1518.33 261.88 1519.31 262.157 1520.17 262.712C1521.02 263.267 1521.71 264.067 1522.25 265.112V255.96H1525.77V279H1522.41V275.96C1521.87 277.091 1521.15 277.965 1520.23 278.584C1519.31 279.181 1518.26 279.48 1517.06 279.48ZM1514.09 270.616C1514.09 272.685 1514.44 274.285 1515.14 275.416C1515.87 276.547 1516.88 277.112 1518.18 277.112C1519.48 277.112 1520.51 276.557 1521.25 275.448C1522 274.339 1522.37 272.781 1522.37 270.776C1522.37 268.749 1521.98 267.16 1521.19 266.008C1520.42 264.835 1519.39 264.248 1518.09 264.248C1516.81 264.248 1515.81 264.803 1515.11 265.912C1514.43 267 1514.09 268.568 1514.09 270.616Z" fill="black"/>
<path d="M1492.46 262.36H1495.98V265.848C1496.41 264.739 1497.12 263.821 1498.13 263.096C1499.15 262.349 1500.31 261.976 1501.61 261.976C1503.24 261.976 1504.51 262.467 1505.42 263.448C1506.34 264.408 1506.8 265.805 1506.8 267.64V279H1503.28V268.472C1503.28 265.869 1502.29 264.568 1500.3 264.568C1499.56 264.568 1498.85 264.792 1498.19 265.24C1497.53 265.688 1497 266.349 1496.59 267.224C1496.19 268.077 1495.98 269.091 1495.98 270.264V279H1492.46V262.36Z" fill="black"/>
<path d="M1478.58 279.384C1476.98 279.384 1475.72 278.904 1474.8 277.944C1473.91 276.963 1473.46 275.555 1473.46 273.72V262.36H1476.98V272.888C1476.98 274.253 1477.23 275.245 1477.72 275.864C1478.23 276.483 1478.95 276.792 1479.89 276.792C1480.64 276.792 1481.33 276.568 1481.97 276.12C1482.63 275.672 1483.16 275.021 1483.54 274.168C1483.95 273.293 1484.15 272.269 1484.15 271.096V262.36H1487.67V279H1484.15V275.512C1483.7 276.621 1482.97 277.549 1481.97 278.296C1480.99 279.021 1479.86 279.384 1478.58 279.384Z" fill="black"/>
<path d="M1461.13 279.512C1459.44 279.512 1457.91 279.235 1456.52 278.68C1455.13 278.104 1453.99 277.24 1453.1 276.088C1452.2 274.936 1451.68 273.507 1451.53 271.8H1454.63C1454.85 273.421 1455.56 274.68 1456.78 275.576C1457.99 276.472 1459.44 276.92 1461.13 276.92C1462.73 276.92 1463.96 276.579 1464.81 275.896C1465.68 275.213 1466.12 274.296 1466.12 273.144C1466.12 272.099 1465.76 271.309 1465.03 270.776C1464.33 270.243 1463.28 269.837 1461.9 269.56L1459.05 268.984C1456.87 268.536 1455.2 267.832 1454.03 266.872C1452.87 265.891 1452.3 264.557 1452.3 262.872C1452.3 261.72 1452.62 260.653 1453.26 259.672C1453.92 258.691 1454.86 257.912 1456.07 257.336C1457.31 256.739 1458.75 256.44 1460.39 256.44C1462.59 256.44 1464.47 256.952 1466.03 257.976C1467.58 259 1468.61 260.472 1469.1 262.392L1465.67 263.064C1465.33 261.699 1464.67 260.664 1463.69 259.96C1462.73 259.256 1461.56 258.904 1460.17 258.904C1458.8 258.904 1457.74 259.224 1456.97 259.864C1456.2 260.483 1455.82 261.304 1455.82 262.328C1455.82 263.203 1456.14 263.917 1456.78 264.472C1457.44 265.005 1458.49 265.421 1459.95 265.72L1462.7 266.296C1465.11 266.787 1466.87 267.533 1467.98 268.536C1469.11 269.539 1469.67 270.915 1469.67 272.664C1469.67 273.987 1469.32 275.171 1468.62 276.216C1467.91 277.24 1466.91 278.051 1465.61 278.648C1464.33 279.224 1462.84 279.512 1461.13 279.512Z" fill="black"/>
</g>
<defs>
<clipPath id="clip0_101_2893">
<rect width="1620" height="2160" fill="white"/>
</clipPath>
</defs>
</svg>
