<svg width="1404" height="1872" viewBox="0 0 1404 1872" fill="none" xmlns="http://www.w3.org/2000/svg">
<g clip-path="url(#clip0_128_3106)">
<path d="M1404 0L0 0L0 1872L1404 1872L1404 0Z" fill="white"/>
<path fill-rule="evenodd" clip-rule="evenodd" d="M153 0L153 1872H152L152 0L153 0Z" fill="black"/>
<path fill-rule="evenodd" clip-rule="evenodd" d="M317.6 1872L317 0.000320516L318 0L318.6 1872L317.6 1872Z" fill="black"/>
<path fill-rule="evenodd" clip-rule="evenodd" d="M230 0L230 1872H229L229 0L230 0Z" fill="black"/>
<path fill-rule="evenodd" clip-rule="evenodd" d="M1410 1485L230 1485V1484L1410 1484V1485Z" fill="black"/>
<path fill-rule="evenodd" clip-rule="evenodd" d="M230.5 1733H230V1732H230.5V1733Z" fill="black"/>
<path fill-rule="evenodd" clip-rule="evenodd" d="M232 1733H231.5V1732H232V1733ZM233.999 1733H232.999V1732H233.999V1733ZM235.998 1733H234.999V1732H235.998V1733ZM237.997 1733H236.998V1732H237.997V1733ZM239.996 1733H238.997V1732H239.996V1733ZM241.996 1733H240.996V1732H241.996V1733ZM243.995 1733H242.995V1732H243.995V1733ZM245.994 1733H244.994V1732H245.994V1733ZM247.993 1733H246.993V1732H247.993V1733ZM249.992 1733H248.993V1732H249.992V1733ZM251.991 1733H250.992V1732H251.991V1733ZM253.99 1733H252.991V1732H253.99V1733ZM255.99 1733H254.99V1732H255.99V1733ZM257.989 1733H256.989V1732H257.989V1733ZM259.988 1733H258.988V1732H259.988V1733ZM261.987 1733H260.987V1732H261.987V1733ZM263.986 1733H262.987V1732H263.986V1733ZM265.985 1733H264.986V1732H265.985V1733ZM267.984 1733H266.985V1732H267.984V1733ZM269.984 1733H268.984V1732H269.984V1733ZM271.983 1733H270.983V1732H271.983V1733ZM273.982 1733H272.982V1732H273.982V1733ZM275.981 1733H274.982V1732H275.981V1733ZM277.98 1733H276.981V1732H277.98V1733ZM279.979 1733H278.98V1732H279.979V1733ZM281.979 1733H280.979V1732H281.979V1733ZM283.978 1733H282.978V1732H283.978V1733ZM285.977 1733H284.977V1732H285.977V1733ZM287.976 1733H286.976V1732H287.976V1733ZM289.975 1733H288.976V1732H289.975V1733ZM291.974 1733H290.975V1732H291.974V1733ZM293.973 1733H292.974V1732H293.973V1733ZM295.973 1733H294.973V1732H295.973V1733ZM297.972 1733H296.972V1732H297.972V1733ZM299.971 1733H298.971V1732H299.971V1733ZM301.97 1733H300.971V1732H301.97V1733ZM303.969 1733H302.97V1732H303.969V1733ZM305.968 1733H304.969V1732H305.968V1733ZM307.968 1733H306.968V1732H307.968V1733ZM309.967 1733H308.967V1732H309.967V1733ZM311.966 1733H310.966V1732H311.966V1733ZM313.965 1733H312.965V1732H313.965V1733ZM315.964 1733H314.965V1732H315.964V1733ZM317.963 1733H316.964V1732H317.963V1733ZM319.962 1733H318.963V1732H319.962V1733ZM321.962 1733H320.962V1732H321.962V1733ZM323.961 1733H322.961V1732H323.961V1733ZM325.96 1733H324.96V1732H325.96V1733ZM327.959 1733H326.959V1732H327.959V1733ZM329.958 1733H328.959V1732H329.958V1733ZM331.957 1733H330.958V1732H331.957V1733ZM333.956 1733H332.957V1732H333.956V1733ZM335.956 1733H334.956V1732H335.956V1733ZM337.955 1733H336.955V1732H337.955V1733ZM339.954 1733H338.954V1732H339.954V1733ZM341.953 1733H340.953V1732H341.953V1733ZM343.952 1733H342.953V1732H343.952V1733ZM345.951 1733H344.952V1732H345.951V1733ZM347.95 1733H346.951V1732H347.95V1733ZM349.95 1733H348.95V1732H349.95V1733ZM351.949 1733H350.949V1732H351.949V1733ZM353.948 1733H352.948V1732H353.948V1733ZM355.947 1733H354.947V1732H355.947V1733ZM357.946 1733H356.947V1732H357.946V1733ZM359.945 1733H358.946V1732H359.945V1733ZM361.944 1733H360.945V1732H361.944V1733ZM363.944 1733H362.944V1732H363.944V1733ZM365.943 1733H364.943V1732H365.943V1733ZM367.942 1733H366.942V1732H367.942V1733ZM369.941 1733H368.941V1732H369.941V1733ZM371.94 1733H370.941V1732H371.94V1733ZM373.939 1733H372.94V1732H373.939V1733ZM375.938 1733H374.939V1732H375.938V1733ZM377.938 1733H376.938V1732H377.938V1733ZM379.937 1733H378.937V1732H379.937V1733ZM381.936 1733H380.936V1732H381.936V1733ZM383.935 1733H382.935V1732H383.935V1733ZM385.934 1733H384.935V1732H385.934V1733ZM387.933 1733H386.934V1732H387.933V1733ZM389.932 1733H388.933V1732H389.932V1733ZM391.932 1733H390.932V1732H391.932V1733ZM393.931 1733H392.931V1732H393.931V1733ZM395.93 1733H394.93V1732H395.93V1733ZM397.929 1733H396.929V1732H397.929V1733ZM399.928 1733H398.929V1732H399.928V1733ZM401.927 1733H400.928V1732H401.927V1733ZM403.926 1733H402.927V1732H403.926V1733ZM405.926 1733H404.926V1732H405.926V1733ZM407.925 1733H406.925V1732H407.925V1733ZM409.924 1733H408.924V1732H409.924V1733ZM411.923 1733H410.924V1732H411.923V1733ZM413.922 1733H412.923V1732H413.922V1733ZM415.921 1733H414.922V1732H415.921V1733ZM417.921 1733H416.921V1732H417.921V1733ZM419.92 1733H418.92V1732H419.92V1733ZM421.919 1733H420.919V1732H421.919V1733ZM423.918 1733H422.918V1732H423.918V1733ZM425.917 1733H424.918V1732H425.917V1733ZM427.916 1733H426.917V1732H427.916V1733ZM429.915 1733H428.916V1732H429.915V1733ZM431.915 1733H430.915V1732H431.915V1733ZM433.914 1733H432.914V1732H433.914V1733ZM435.913 1733H434.913V1732H435.913V1733ZM437.912 1733H436.912V1732H437.912V1733ZM439.911 1733H438.912V1732H439.911V1733ZM441.91 1733H440.911V1732H441.91V1733ZM443.909 1733H442.91V1732H443.909V1733ZM445.909 1733H444.909V1732H445.909V1733ZM447.908 1733H446.908V1732H447.908V1733ZM449.907 1733H448.907V1732H449.907V1733ZM451.906 1733H450.906V1732H451.906V1733ZM453.905 1733H452.906V1732H453.905V1733ZM455.904 1733H454.905V1732H455.904V1733ZM457.903 1733H456.904V1732H457.903V1733ZM459.903 1733H458.903V1732H459.903V1733ZM461.902 1733H460.902V1732H461.902V1733ZM463.901 1733H462.901V1732H463.901V1733ZM465.9 1733H464.9V1732H465.9V1733ZM467.899 1733H466.9V1732H467.899V1733ZM469.898 1733H468.899V1732H469.898V1733ZM471.897 1733H470.898V1732H471.897V1733ZM473.897 1733H472.897V1732H473.897V1733ZM475.896 1733H474.896V1732H475.896V1733ZM477.895 1733H476.895V1732H477.895V1733ZM479.894 1733H478.894V1732H479.894V1733ZM481.893 1733H480.894V1732H481.893V1733ZM483.892 1733H482.893V1732H483.892V1733ZM485.891 1733H484.892V1732H485.891V1733ZM487.891 1733H486.891V1732H487.891V1733ZM489.89 1733H488.89V1732H489.89V1733ZM491.889 1733H490.889V1732H491.889V1733ZM493.888 1733H492.888V1732H493.888V1733ZM495.887 1733H494.888V1732H495.887V1733ZM497.886 1733H496.887V1732H497.886V1733ZM499.885 1733H498.886V1732H499.885V1733ZM501.885 1733H500.885V1732H501.885V1733ZM503.884 1733H502.884V1732H503.884V1733ZM505.883 1733H504.883V1732H505.883V1733ZM507.882 1733H506.883V1732H507.882V1733ZM509.881 1733H508.882V1732H509.881V1733ZM511.88 1733H510.881V1732H511.88V1733ZM513.88 1733H512.88V1732H513.88V1733ZM515.879 1733H514.879V1732H515.879V1733ZM517.878 1733H516.878V1732H517.878V1733ZM519.877 1733H518.877V1732H519.877V1733ZM521.876 1733H520.877V1732H521.876V1733ZM523.875 1733H522.876V1732H523.875V1733ZM525.874 1733H524.875V1732H525.874V1733ZM527.874 1733H526.874V1732H527.874V1733ZM529.873 1733H528.873V1732H529.873V1733ZM531.872 1733H530.872V1732H531.872V1733ZM533.871 1733H532.871V1732H533.871V1733ZM535.87 1733H534.871V1732H535.87V1733ZM537.869 1733H536.87V1732H537.869V1733ZM539.868 1733H538.869V1732H539.868V1733ZM541.868 1733H540.868V1732H541.868V1733ZM543.867 1733H542.867V1732H543.867V1733ZM545.866 1733H544.866V1732H545.866V1733ZM547.865 1733H546.865V1732H547.865V1733ZM549.864 1733H548.865V1732H549.864V1733ZM551.863 1733H550.864V1732H551.863V1733ZM553.862 1733H552.863V1732H553.862V1733ZM555.862 1733H554.862V1732H555.862V1733ZM557.861 1733H556.861V1732H557.861V1733ZM559.86 1733H558.86V1732H559.86V1733ZM561.859 1733H560.859V1732H561.859V1733ZM563.858 1733H562.859V1732H563.858V1733ZM565.857 1733H564.858V1732H565.857V1733ZM567.856 1733H566.857V1732H567.856V1733ZM569.856 1733H568.856V1732H569.856V1733ZM571.855 1733H570.855V1732H571.855V1733ZM573.854 1733H572.854V1732H573.854V1733ZM575.853 1733H574.853V1732H575.853V1733ZM577.852 1733H576.853V1732H577.852V1733ZM579.851 1733H578.852V1732H579.851V1733ZM581.85 1733H580.851V1732H581.85V1733ZM583.85 1733H582.85V1732H583.85V1733ZM585.849 1733H584.849V1732H585.849V1733ZM587.848 1733H586.848V1732H587.848V1733ZM589.847 1733H588.848V1732H589.847V1733ZM591.846 1733H590.847V1732H591.846V1733ZM593.845 1733H592.846V1732H593.845V1733ZM595.844 1733H594.845V1732H595.844V1733ZM597.844 1733H596.844V1732H597.844V1733ZM599.843 1733H598.843V1732H599.843V1733ZM601.842 1733H600.842V1732H601.842V1733ZM603.841 1733H602.841V1732H603.841V1733ZM605.84 1733H604.841V1732H605.84V1733ZM607.839 1733H606.84V1732H607.839V1733ZM609.839 1733H608.839V1732H609.839V1733ZM611.838 1733H610.838V1732H611.838V1733ZM613.837 1733H612.837V1732H613.837V1733ZM615.836 1733H614.836V1732H615.836V1733ZM617.835 1733H616.836V1732H617.835V1733ZM619.834 1733H618.835V1732H619.834V1733ZM621.833 1733H620.834V1732H621.833V1733ZM623.833 1733H622.833V1732H623.833V1733ZM625.832 1733H624.832V1732H625.832V1733ZM627.831 1733H626.831V1732H627.831V1733ZM629.83 1733H628.83V1732H629.83V1733ZM631.829 1733H630.83V1732H631.829V1733ZM633.828 1733H632.829V1732H633.828V1733ZM635.827 1733H634.828V1732H635.827V1733ZM637.827 1733H636.827V1732H637.827V1733ZM639.826 1733H638.826V1732H639.826V1733ZM641.825 1733H640.825V1732H641.825V1733ZM643.824 1733H642.824V1732H643.824V1733ZM645.823 1733H644.824V1732H645.823V1733ZM647.822 1733H646.823V1732H647.822V1733ZM649.821 1733H648.822V1732H649.821V1733ZM651.821 1733H650.821V1732H651.821V1733ZM653.82 1733H652.82V1732H653.82V1733ZM655.819 1733H654.819V1732H655.819V1733ZM657.818 1733H656.818V1732H657.818V1733ZM659.817 1733H658.818V1732H659.817V1733ZM661.816 1733H660.817V1732H661.816V1733ZM663.815 1733H662.816V1732H663.815V1733ZM665.815 1733H664.815V1732H665.815V1733ZM667.814 1733H666.814V1732H667.814V1733ZM669.813 1733H668.813V1732H669.813V1733ZM671.812 1733H670.812V1732H671.812V1733ZM673.811 1733H672.812V1732H673.811V1733ZM675.81 1733H674.811V1732H675.81V1733ZM677.809 1733H676.81V1732H677.809V1733ZM679.809 1733H678.809V1732H679.809V1733ZM681.808 1733H680.808V1732H681.808V1733ZM683.807 1733H682.807V1732H683.807V1733ZM685.806 1733H684.806V1732H685.806V1733ZM687.805 1733H686.806V1732H687.805V1733ZM689.804 1733H688.805V1732H689.804V1733ZM691.803 1733H690.804V1732H691.803V1733ZM693.803 1733H692.803V1732H693.803V1733ZM695.802 1733H694.802V1732H695.802V1733ZM697.801 1733H696.801V1732H697.801V1733ZM699.8 1733H698.8V1732H699.8V1733ZM701.799 1733H700.8V1732H701.799V1733ZM703.798 1733H702.799V1732H703.798V1733ZM705.797 1733H704.798V1732H705.797V1733ZM707.797 1733H706.797V1732H707.797V1733ZM709.796 1733H708.796V1732H709.796V1733ZM711.795 1733H710.795V1732H711.795V1733ZM713.794 1733H712.794V1732H713.794V1733ZM715.793 1733H714.794V1732H715.793V1733ZM717.792 1733H716.793V1732H717.792V1733ZM719.792 1733H718.792V1732H719.792V1733ZM721.791 1733H720.791V1732H721.791V1733ZM723.79 1733H722.79V1732H723.79V1733ZM725.789 1733H724.789V1732H725.789V1733ZM727.788 1733H726.789V1732H727.788V1733ZM729.787 1733H728.788V1732H729.787V1733ZM731.786 1733H730.787V1732H731.786V1733ZM733.785 1733H732.786V1732H733.785V1733ZM735.785 1733H734.785V1732H735.785V1733ZM737.784 1733H736.784V1732H737.784V1733ZM739.783 1733H738.783V1732H739.783V1733ZM741.782 1733H740.783V1732H741.782V1733ZM743.781 1733H742.782V1732H743.781V1733ZM745.78 1733H744.781V1732H745.78V1733ZM747.78 1733H746.78V1732H747.78V1733ZM749.779 1733H748.779V1732H749.779V1733ZM751.778 1733H750.778V1732H751.778V1733ZM753.777 1733H752.777V1732H753.777V1733ZM755.776 1733H754.777V1732H755.776V1733ZM757.775 1733H756.776V1732H757.775V1733ZM759.774 1733H758.775V1732H759.774V1733ZM761.774 1733H760.774V1732H761.774V1733ZM763.773 1733H762.773V1732H763.773V1733ZM765.772 1733H764.772V1732H765.772V1733ZM767.771 1733H766.771V1732H767.771V1733ZM769.77 1733H768.771V1732H769.77V1733ZM771.769 1733H770.77V1732H771.769V1733ZM773.768 1733H772.769V1732H773.768V1733ZM775.768 1733H774.768V1732H775.768V1733ZM777.767 1733H776.767V1732H777.767V1733ZM779.766 1733H778.766V1732H779.766V1733ZM781.765 1733H780.765V1732H781.765V1733ZM783.764 1733H782.765V1732H783.764V1733ZM785.763 1733H784.764V1732H785.763V1733ZM787.762 1733H786.763V1732H787.762V1733ZM789.762 1733H788.762V1732H789.762V1733ZM791.761 1733H790.761V1732H791.761V1733ZM793.76 1733H792.76V1732H793.76V1733ZM795.759 1733H794.759V1732H795.759V1733ZM797.758 1733H796.759V1732H797.758V1733ZM799.757 1733H798.758V1732H799.757V1733ZM801.756 1733H800.757V1732H801.756V1733ZM803.756 1733H802.756V1732H803.756V1733ZM805.755 1733H804.755V1732H805.755V1733ZM807.754 1733H806.754V1732H807.754V1733ZM809.753 1733H808.753V1732H809.753V1733ZM811.752 1733H810.753V1732H811.752V1733ZM813.751 1733H812.752V1732H813.751V1733ZM815.75 1733H814.751V1732H815.75V1733ZM817.75 1733H816.75V1732H817.75V1733ZM819.749 1733H818.749V1732H819.749V1733ZM821.748 1733H820.748V1732H821.748V1733ZM823.747 1733H822.747V1732H823.747V1733ZM825.746 1733H824.747V1732H825.746V1733ZM827.745 1733H826.746V1732H827.745V1733ZM829.745 1733H828.745V1732H829.745V1733ZM831.744 1733H830.744V1732H831.744V1733ZM833.743 1733H832.743V1732H833.743V1733ZM835.742 1733H834.742V1732H835.742V1733ZM837.741 1733H836.742V1732H837.741V1733ZM839.74 1733H838.741V1732H839.74V1733ZM841.739 1733H840.74V1732H841.739V1733ZM843.739 1733H842.739V1732H843.739V1733ZM845.738 1733H844.738V1732H845.738V1733ZM847.737 1733H846.737V1732H847.737V1733ZM849.736 1733H848.736V1732H849.736V1733ZM851.735 1733H850.736V1732H851.735V1733ZM853.734 1733H852.735V1732H853.734V1733ZM855.733 1733H854.734V1732H855.733V1733ZM857.733 1733H856.733V1732H857.733V1733ZM859.732 1733H858.732V1732H859.732V1733ZM861.731 1733H860.731V1732H861.731V1733ZM863.73 1733H862.73V1732H863.73V1733ZM865.729 1733H864.73V1732H865.729V1733ZM867.728 1733H866.729V1732H867.728V1733ZM869.727 1733H868.728V1732H869.727V1733ZM871.727 1733H870.727V1732H871.727V1733ZM873.726 1733H872.726V1732H873.726V1733ZM875.725 1733H874.725V1732H875.725V1733ZM877.724 1733H876.724V1732H877.724V1733ZM879.723 1733H878.724V1732H879.723V1733ZM881.722 1733H880.723V1732H881.722V1733ZM883.721 1733H882.722V1732H883.721V1733ZM885.721 1733H884.721V1732H885.721V1733ZM887.72 1733H886.72V1732H887.72V1733ZM889.719 1733H888.719V1732H889.719V1733ZM891.718 1733H890.718V1732H891.718V1733ZM893.717 1733H892.718V1732H893.717V1733ZM895.716 1733H894.717V1732H895.716V1733ZM897.715 1733H896.716V1732H897.715V1733ZM899.715 1733H898.715V1732H899.715V1733ZM901.714 1733H900.714V1732H901.714V1733ZM903.713 1733H902.713V1732H903.713V1733ZM905.712 1733H904.712V1732H905.712V1733ZM907.711 1733H906.712V1732H907.711V1733ZM909.71 1733H908.711V1732H909.71V1733ZM911.709 1733H910.71V1732H911.709V1733ZM913.709 1733H912.709V1732H913.709V1733ZM915.708 1733H914.708V1732H915.708V1733ZM917.707 1733H916.707V1732H917.707V1733ZM919.706 1733H918.706V1732H919.706V1733ZM921.705 1733H920.706V1732H921.705V1733ZM923.704 1733H922.705V1732H923.704V1733ZM925.703 1733H924.704V1732H925.703V1733ZM927.703 1733H926.703V1732H927.703V1733ZM929.702 1733H928.702V1732H929.702V1733ZM931.701 1733H930.701V1732H931.701V1733ZM933.7 1733H932.7V1732H933.7V1733ZM935.699 1733H934.7V1732H935.699V1733ZM937.698 1733H936.699V1732H937.698V1733ZM939.698 1733L938.698 1733V1732H939.698V1733ZM941.697 1733H940.697V1732H941.697V1733ZM943.696 1733H942.696V1732H943.696V1733ZM945.695 1733H944.695V1732H945.695V1733ZM947.694 1733H946.695V1732H947.694V1733ZM949.693 1733H948.694V1732H949.693V1733ZM951.692 1733H950.693V1732H951.692V1733ZM953.692 1733H952.692V1732H953.692V1733ZM955.691 1733H954.691V1732H955.691V1733ZM957.69 1733H956.69V1732H957.69V1733ZM959.689 1733H958.689V1732H959.689V1733ZM961.688 1733H960.689V1732H961.688V1733ZM963.687 1733H962.688V1732H963.687V1733ZM965.686 1733H964.687V1732H965.686V1733ZM967.686 1733H966.686V1732H967.686V1733ZM969.685 1733H968.685V1732H969.685V1733ZM971.684 1733H970.684V1732H971.684V1733ZM973.683 1733H972.683V1732H973.683V1733ZM975.682 1733H974.683V1732H975.682V1733ZM977.681 1733H976.682V1732H977.681V1733ZM979.68 1733H978.681V1732H979.68V1733ZM981.68 1733H980.68V1732H981.68V1733ZM983.679 1733H982.679V1732H983.679V1733ZM985.678 1733H984.678V1732H985.678V1733ZM987.677 1733H986.677V1732H987.677V1733ZM989.676 1733H988.677V1732H989.676V1733ZM991.675 1733H990.676V1732H991.675V1733ZM993.674 1733H992.675V1732H993.674V1733ZM995.674 1733H994.674V1732H995.674V1733ZM997.673 1733H996.673V1732H997.673V1733ZM999.672 1733H998.672V1732H999.672V1733ZM1001.67 1733H1000.67V1732H1001.67V1733ZM1003.67 1733H1002.67V1732H1003.67V1733ZM1005.67 1733H1004.67V1732H1005.67V1733ZM1007.67 1733H1006.67V1732H1007.67V1733ZM1009.67 1733H1008.67V1732H1009.67V1733ZM1011.67 1733H1010.67V1732H1011.67V1733ZM1013.67 1733H1012.67V1732H1013.67V1733ZM1015.67 1733H1014.67V1732H1015.67V1733ZM1017.66 1733H1016.66V1732H1017.66V1733ZM1019.66 1733H1018.66V1732H1019.66V1733ZM1021.66 1733H1020.66V1732H1021.66V1733ZM1023.66 1733H1022.66V1732H1023.66V1733ZM1025.66 1733H1024.66V1732H1025.66V1733ZM1027.66 1733H1026.66V1732H1027.66V1733ZM1029.66 1733H1028.66V1732H1029.66V1733ZM1031.66 1733H1030.66V1732H1031.66V1733ZM1033.66 1733H1032.66V1732H1033.66V1733ZM1035.66 1733H1034.66V1732H1035.66V1733ZM1037.66 1733H1036.66V1732H1037.66V1733ZM1039.65 1733H1038.66V1732H1039.65V1733ZM1041.65 1733H1040.65V1732H1041.65V1733ZM1043.65 1733H1042.65V1732H1043.65V1733ZM1045.65 1733H1044.65V1732H1045.65V1733ZM1047.65 1733H1046.65V1732H1047.65V1733ZM1049.65 1733H1048.65V1732H1049.65V1733ZM1051.65 1733H1050.65V1732H1051.65V1733ZM1053.65 1733H1052.65V1732H1053.65V1733ZM1055.65 1733H1054.65V1732H1055.65V1733ZM1057.65 1733H1056.65V1732H1057.65V1733ZM1059.65 1733H1058.65V1732H1059.65V1733ZM1061.65 1733H1060.65V1732H1061.65V1733ZM1063.64 1733H1062.64V1732H1063.64V1733ZM1065.64 1733H1064.64V1732H1065.64V1733ZM1067.64 1733H1066.64V1732H1067.64V1733ZM1069.64 1733H1068.64V1732H1069.64V1733ZM1071.64 1733H1070.64V1732H1071.64V1733ZM1073.64 1733H1072.64V1732H1073.64V1733ZM1075.64 1733H1074.64V1732H1075.64V1733ZM1077.64 1733H1076.64V1732H1077.64V1733ZM1079.64 1733H1078.64V1732H1079.64V1733ZM1081.64 1733H1080.64V1732H1081.64V1733ZM1083.64 1733H1082.64V1732H1083.64V1733ZM1085.64 1733H1084.64V1732H1085.64V1733ZM1087.63 1733H1086.63V1732H1087.63V1733ZM1089.63 1733H1088.63V1732H1089.63V1733ZM1091.63 1733H1090.63V1732H1091.63V1733ZM1093.63 1733H1092.63V1732H1093.63V1733ZM1095.63 1733H1094.63V1732H1095.63V1733ZM1097.63 1733H1096.63V1732H1097.63V1733ZM1099.63 1733H1098.63V1732H1099.63V1733ZM1101.63 1733H1100.63V1732H1101.63V1733ZM1103.63 1733H1102.63V1732H1103.63V1733ZM1105.63 1733H1104.63V1732H1105.63V1733ZM1107.63 1733H1106.63V1732H1107.63V1733ZM1109.62 1733H1108.63V1732H1109.62V1733ZM1111.62 1733H1110.62V1732H1111.62V1733ZM1113.62 1733H1112.62V1732H1113.62V1733ZM1115.62 1733H1114.62V1732H1115.62V1733ZM1117.62 1733H1116.62V1732H1117.62V1733ZM1119.62 1733H1118.62V1732H1119.62V1733ZM1121.62 1733H1120.62V1732H1121.62V1733ZM1123.62 1733H1122.62V1732H1123.62V1733ZM1125.62 1733H1124.62V1732H1125.62V1733ZM1127.62 1733H1126.62V1732H1127.62V1733ZM1129.62 1733H1128.62V1732H1129.62V1733ZM1131.62 1733H1130.62V1732H1131.62V1733ZM1133.61 1733H1132.62V1732H1133.61V1733ZM1135.61 1733H1134.61V1732H1135.61V1733ZM1137.61 1733H1136.61V1732H1137.61V1733ZM1139.61 1733H1138.61V1732H1139.61V1733ZM1141.61 1733H1140.61V1732H1141.61V1733ZM1143.61 1733H1142.61V1732H1143.61V1733ZM1145.61 1733H1144.61V1732H1145.61V1733ZM1147.61 1733H1146.61V1732H1147.61V1733ZM1149.61 1733H1148.61V1732H1149.61V1733ZM1151.61 1733H1150.61V1732H1151.61V1733ZM1153.61 1733H1152.61V1732H1153.61V1733ZM1155.61 1733H1154.61V1732H1155.61V1733ZM1157.6 1733H1156.6V1732H1157.6V1733ZM1159.6 1733H1158.6V1732H1159.6V1733ZM1161.6 1733H1160.6V1732H1161.6V1733ZM1163.6 1733H1162.6V1732H1163.6V1733ZM1165.6 1733H1164.6V1732H1165.6V1733ZM1167.6 1733H1166.6V1732H1167.6V1733ZM1169.6 1733H1168.6V1732H1169.6V1733ZM1171.6 1733H1170.6V1732H1171.6V1733ZM1173.6 1733H1172.6V1732H1173.6V1733ZM1175.6 1733H1174.6V1732H1175.6V1733ZM1177.6 1733H1176.6V1732H1177.6V1733ZM1179.59 1733H1178.6V1732H1179.59V1733ZM1181.59 1733H1180.59V1732H1181.59V1733ZM1183.59 1733H1182.59V1732H1183.59V1733ZM1185.59 1733H1184.59V1732H1185.59V1733ZM1187.59 1733H1186.59V1732H1187.59V1733ZM1189.59 1733H1188.59V1732H1189.59V1733ZM1191.59 1733H1190.59V1732H1191.59V1733ZM1193.59 1733H1192.59V1732H1193.59V1733ZM1195.59 1733H1194.59V1732H1195.59V1733ZM1197.59 1733H1196.59V1732H1197.59V1733ZM1199.59 1733H1198.59V1732H1199.59V1733ZM1201.59 1733H1200.59V1732H1201.59V1733ZM1203.58 1733H1202.59V1732H1203.58V1733ZM1205.58 1733H1204.58V1732H1205.58V1733ZM1207.58 1733H1206.58V1732H1207.58V1733ZM1209.58 1733H1208.58V1732H1209.58V1733ZM1211.58 1733H1210.58V1732H1211.58V1733ZM1213.58 1733H1212.58V1732H1213.58V1733ZM1215.58 1733H1214.58V1732H1215.58V1733ZM1217.58 1733H1216.58V1732H1217.58V1733ZM1219.58 1733H1218.58V1732H1219.58V1733ZM1221.58 1733H1220.58V1732H1221.58V1733ZM1223.58 1733H1222.58V1732H1223.58V1733ZM1225.58 1733H1224.58V1732H1225.58V1733ZM1227.57 1733H1226.57V1732H1227.57V1733ZM1229.57 1733H1228.57V1732H1229.57V1733ZM1231.57 1733H1230.57V1732H1231.57V1733ZM1233.57 1733H1232.57V1732H1233.57V1733ZM1235.57 1733H1234.57V1732H1235.57V1733ZM1237.57 1733H1236.57V1732H1237.57V1733ZM1239.57 1733H1238.57V1732H1239.57V1733ZM1241.57 1733H1240.57V1732H1241.57V1733ZM1243.57 1733H1242.57V1732H1243.57V1733ZM1245.57 1733H1244.57V1732H1245.57V1733ZM1247.57 1733H1246.57V1732H1247.57V1733ZM1249.57 1733H1248.57V1732H1249.57V1733ZM1251.56 1733H1250.56V1732H1251.56V1733ZM1253.56 1733H1252.56V1732H1253.56V1733ZM1255.56 1733H1254.56V1732H1255.56V1733ZM1257.56 1733H1256.56V1732H1257.56V1733ZM1259.56 1733H1258.56V1732H1259.56V1733ZM1261.56 1733H1260.56V1732H1261.56V1733ZM1263.56 1733H1262.56V1732H1263.56V1733ZM1265.56 1733H1264.56V1732H1265.56V1733ZM1267.56 1733H1266.56V1732H1267.56V1733ZM1269.56 1733H1268.56V1732H1269.56V1733ZM1271.56 1733H1270.56V1732H1271.56V1733ZM1273.56 1733H1272.56V1732H1273.56V1733ZM1275.56 1733H1274.56V1732H1275.56V1733ZM1277.55 1733H1276.55V1732H1277.55V1733ZM1279.55 1733H1278.55V1732H1279.55V1733ZM1281.55 1733H1280.55V1732H1281.55V1733ZM1283.55 1733H1282.55V1732H1283.55V1733ZM1285.55 1733H1284.55V1732H1285.55V1733ZM1287.55 1733H1286.55V1732H1287.55V1733ZM1289.55 1733H1288.55V1732H1289.55V1733ZM1291.55 1733H1290.55V1732H1291.55V1733ZM1293.55 1733H1292.55V1732H1293.55V1733ZM1295.55 1733H1294.55V1732H1295.55V1733ZM1297.55 1733H1296.55V1732H1297.55V1733ZM1299.55 1733H1298.55V1732H1299.55V1733ZM1301.55 1733H1300.55V1732H1301.55V1733ZM1303.54 1733H1302.55V1732H1303.54V1733ZM1305.54 1733H1304.54V1732H1305.54V1733ZM1307.54 1733H1306.54V1732H1307.54V1733ZM1309.54 1733H1308.54V1732H1309.54V1733ZM1311.54 1733H1310.54V1732H1311.54V1733ZM1313.54 1733H1312.54V1732H1313.54V1733ZM1315.54 1733H1314.54V1732H1315.54V1733ZM1317.54 1733H1316.54V1732H1317.54V1733ZM1319.54 1733H1318.54V1732H1319.54V1733ZM1321.54 1733H1320.54V1732H1321.54V1733ZM1323.54 1733H1322.54V1732H1323.54V1733ZM1325.54 1733H1324.54V1732H1325.54V1733ZM1327.54 1733H1326.54V1732H1327.54V1733ZM1329.54 1733H1328.54V1732H1329.54V1733ZM1331.53 1733H1330.54V1732H1331.53V1733ZM1333.53 1733H1332.53V1732H1333.53V1733ZM1335.53 1733H1334.53V1732H1335.53V1733ZM1337.53 1733H1336.53V1732H1337.53V1733ZM1339.53 1733H1338.53V1732H1339.53V1733ZM1341.53 1733H1340.53V1732H1341.53V1733ZM1343.53 1733H1342.53V1732H1343.53V1733ZM1345.53 1733H1344.53V1732H1345.53V1733ZM1347.53 1733H1346.53V1732H1347.53V1733ZM1349.53 1733H1348.53V1732H1349.53V1733ZM1351.53 1733H1350.53V1732H1351.53V1733ZM1353.53 1733H1352.53V1732H1353.53V1733ZM1355.53 1733H1354.53V1732H1355.53V1733ZM1357.53 1733H1356.53V1732H1357.53V1733ZM1359.52 1733H1358.52V1732H1359.52V1733ZM1361.52 1733H1360.52V1732H1361.52V1733ZM1363.52 1733H1362.52V1732H1363.52V1733ZM1365.52 1733H1364.52V1732H1365.52V1733ZM1367.52 1733H1366.52V1732H1367.52V1733ZM1369.52 1733H1368.52V1732H1369.52V1733ZM1371.52 1733H1370.52V1732H1371.52V1733ZM1373.52 1733H1372.52V1732H1373.52V1733ZM1375.52 1733H1374.52V1732H1375.52V1733ZM1377.52 1733H1376.52V1732H1377.52V1733ZM1379.52 1733H1378.52V1732H1379.52V1733ZM1381.52 1733H1380.52V1732H1381.52V1733ZM1383.52 1733H1382.52V1732H1383.52V1733ZM1385.51 1733H1384.52V1732H1385.51V1733ZM1387.51 1733H1386.51V1732H1387.51V1733ZM1389.51 1733H1388.51V1732H1389.51V1733ZM1391.51 1733H1390.51V1732H1391.51V1733ZM1393.51 1733H1392.51V1732H1393.51V1733ZM1395.51 1733H1394.51V1732H1395.51V1733ZM1397.51 1733H1396.51V1732H1397.51V1733ZM1399.51 1733H1398.51V1732H1399.51V1733ZM1401.51 1733H1400.51V1732H1401.51V1733ZM1403.51 1733H1402.51V1732H1403.51V1733ZM1405.51 1733H1404.51V1732H1405.51V1733ZM1407.51 1733H1406.51V1732H1407.51V1733ZM1409 1733H1408.51V1732H1409V1733Z" fill="black"/>
<path fill-rule="evenodd" clip-rule="evenodd" d="M1410 1238L230 1238V1237L1410 1237V1238Z" fill="black"/>
<path fill-rule="evenodd" clip-rule="evenodd" d="M1410 990L230 990V989L1410 989V990Z" fill="black"/>
<path fill-rule="evenodd" clip-rule="evenodd" d="M1410 743L230 743V742L1410 742V743Z" fill="black"/>
<path fill-rule="evenodd" clip-rule="evenodd" d="M1410 496L230 496V495L1410 495V496Z" fill="black"/>
<path fill-rule="evenodd" clip-rule="evenodd" d="M1410 248L230 248V247L1410 247V248Z" fill="black"/>
<path d="M100.721 1094.7C100.721 1096.09 100.241 1097.29 99.2805 1098.3C98.3205 1099.26 97.1685 1099.74 95.8245 1099.74C94.4325 1099.74 93.2565 1099.26 92.2965 1098.3C91.3365 1097.29 90.8565 1096.09 90.8565 1094.7C90.8565 1093.3 91.3365 1092.13 92.2965 1091.17C93.2565 1090.16 94.4325 1089.66 95.8245 1089.66C97.1685 1089.66 98.3205 1090.16 99.2805 1091.17C100.241 1092.13 100.721 1093.3 100.721 1094.7ZM74.0085 1094.7C74.0085 1096.09 73.5285 1097.29 72.5685 1098.3C71.6085 1099.26 70.4565 1099.74 69.1125 1099.74C67.7205 1099.74 66.5445 1099.26 65.5845 1098.3C64.6245 1097.29 64.1445 1096.09 64.1445 1094.7C64.1445 1093.3 64.6245 1092.13 65.5845 1091.17C66.5445 1090.16 67.7205 1089.66 69.1125 1089.66C70.4565 1089.66 71.6085 1090.16 72.5685 1091.17C73.5285 1092.13 74.0085 1093.3 74.0085 1094.7Z" fill="black"/>
<path d="M48.1602 1138.46L48.1602 1130.54L81.0642 1130.54L62.5602 1114.27L62.5602 1106.2L77.6802 1120.03L100 1104.55L100 1113.4L83.0082 1124.92L89.1282 1130.54L100 1130.54L100 1138.46L48.1602 1138.46Z" fill="black"/>
<path d="M101.08 1163.35C101.08 1166.85 100.312 1169.95 98.7765 1172.63C97.1925 1175.27 94.9365 1177.34 92.0085 1178.83C89.0805 1180.31 85.6485 1181.06 81.7125 1181.06C77.9205 1181.06 74.4885 1180.34 71.4165 1178.9C68.3445 1177.41 65.9205 1175.35 64.1445 1172.71C62.3685 1170.07 61.4805 1167.04 61.4805 1163.63C61.4805 1159.99 62.3685 1156.87 64.1445 1154.27C65.9205 1151.63 68.3685 1149.67 71.4885 1148.37C74.6085 1147.07 78.1365 1146.52 82.0725 1146.71L82.0725 1173.14C86.3925 1172.95 89.7045 1171.84 92.0085 1169.83C94.2645 1167.81 95.3925 1165.34 95.3925 1162.41C95.3925 1160.06 94.8165 1158.11 93.6645 1156.58C92.4645 1155.04 90.8085 1153.87 88.6965 1153.05L88.6965 1147C93.0165 1148.2 96.1605 1150.27 98.1285 1153.19C100.096 1156.12 101.08 1159.51 101.08 1163.35ZM77.3205 1154.85C73.8645 1155.09 71.2005 1156.03 69.3285 1157.66C67.4565 1159.24 66.5205 1161.33 66.5205 1163.92C66.5205 1166.42 67.4805 1168.48 69.4005 1170.11C71.2725 1171.7 73.9125 1172.68 77.3205 1173.07L77.3205 1154.85Z" fill="black"/>
<path d="M101.08 1203.42C101.08 1206.93 100.312 1210.02 98.7765 1212.71C97.1925 1215.35 94.9365 1217.42 92.0085 1218.9C89.0805 1220.39 85.6485 1221.14 81.7125 1221.14C77.9205 1221.14 74.4885 1220.42 71.4165 1218.98C68.3445 1217.49 65.9205 1215.42 64.1445 1212.78C62.3685 1210.14 61.4805 1207.12 61.4805 1203.71C61.4805 1200.06 62.3685 1196.94 64.1445 1194.35C65.9205 1191.71 68.3685 1189.74 71.4885 1188.45C74.6085 1187.15 78.1365 1186.6 82.0725 1186.79L82.0725 1213.22C86.3925 1213.02 89.7045 1211.92 92.0085 1209.9C94.2645 1207.89 95.3925 1205.42 95.3925 1202.49C95.3925 1200.14 94.8165 1198.19 93.6645 1196.66C92.4645 1195.12 90.8085 1193.94 88.6965 1193.13L88.6965 1187.08C93.0165 1188.28 96.1605 1190.34 98.1285 1193.27C100.096 1196.2 101.08 1199.58 101.08 1203.42ZM77.3205 1194.93C73.8645 1195.17 71.2005 1196.1 69.3285 1197.74C67.4565 1199.32 66.5205 1201.41 66.5205 1204C66.5205 1206.5 67.4805 1208.56 69.4005 1210.19C71.2725 1211.78 73.9125 1212.76 77.3205 1213.14L77.3205 1194.93Z" fill="black"/>
<path d="M50.3203 1289.54L50.3203 1281.04L94.0243 1270.67L50.3203 1260.52L50.3203 1251.59L94.0963 1241.15L50.3203 1230.86L50.3203 1223.73L100 1236.33L100 1247.13L60.2563 1256.63L100 1266.07L100 1277.08L50.3203 1289.54Z" fill="black"/>
<path d="M200.241 1654.54C200.241 1655.01 200.081 1655.41 199.761 1655.74C199.441 1656.06 199.057 1656.22 198.609 1656.22C198.145 1656.22 197.753 1656.06 197.433 1655.74C197.113 1655.41 196.953 1655.01 196.953 1654.54C196.953 1654.08 197.113 1653.69 197.433 1653.37C197.753 1653.03 198.145 1652.86 198.609 1652.86C199.057 1652.86 199.441 1653.03 199.761 1653.37C200.081 1653.69 200.241 1654.08 200.241 1654.54ZM191.337 1654.54C191.337 1655.01 191.177 1655.41 190.857 1655.74C190.537 1656.06 190.153 1656.22 189.705 1656.22C189.241 1656.22 188.849 1656.06 188.529 1655.74C188.209 1655.41 188.049 1655.01 188.049 1654.54C188.049 1654.08 188.209 1653.69 188.529 1653.37C188.849 1653.03 189.241 1652.86 189.705 1652.86C190.153 1652.86 190.537 1653.03 190.857 1653.37C191.177 1653.69 191.337 1654.08 191.337 1654.54Z" fill="black"/>
<path d="M183.44 1671.63L183.44 1664.11C183.44 1663.14 183.64 1662.26 184.04 1661.47C184.424 1660.69 184.96 1660.07 185.648 1659.63C186.336 1659.18 187.104 1658.95 187.952 1658.95C189.056 1658.95 190 1659.33 190.784 1660.08C191.568 1660.83 192.04 1661.83 192.2 1663.06C192.328 1662.43 192.6 1661.91 193.016 1661.5C193.416 1661.08 193.88 1660.75 194.408 1660.49C194.936 1660.22 195.64 1659.92 196.52 1659.6L200 1658.33L200 1661.35L196.976 1662.29C195.968 1662.59 195.208 1662.88 194.696 1663.15C194.168 1663.41 193.776 1663.75 193.52 1664.19C193.248 1664.6 193.112 1665.18 193.112 1665.91L193.112 1668.91L200 1668.91L200 1671.63L183.44 1671.63ZM191.144 1664.81C191.144 1663.96 190.904 1663.23 190.424 1662.63C189.928 1662.02 189.216 1661.71 188.288 1661.71C187.344 1661.71 186.632 1662.01 186.152 1662.6C185.656 1663.18 185.408 1663.91 185.408 1664.79L185.408 1668.91L191.144 1668.91L191.144 1664.81Z" fill="black"/>
<path d="M183.44 1685.8L183.44 1674.93L185.432 1674.93L185.432 1683.06L190.424 1683.06L190.424 1675.53L192.416 1675.53L192.416 1683.06L198.008 1683.06L198.008 1674.69L200 1674.69L200 1685.8L183.44 1685.8Z" fill="black"/>
<path d="M183.44 1701.47L183.44 1694.15C183.44 1693.18 183.616 1692.32 183.968 1691.59C184.304 1690.85 184.784 1690.28 185.408 1689.88C186.016 1689.48 186.696 1689.28 187.448 1689.28C188.36 1689.28 189.136 1689.58 189.776 1690.17C190.4 1690.75 190.808 1691.51 191 1692.47C191.256 1691.31 191.76 1690.39 192.512 1689.71C193.264 1689.04 194.2 1688.71 195.32 1688.71C196.2 1688.71 197 1688.92 197.72 1689.35C198.424 1689.77 198.984 1690.39 199.4 1691.2C199.8 1692 200 1692.94 200 1694.01L200 1701.47L183.44 1701.47ZM198.104 1694.66C198.104 1693.68 197.848 1692.91 197.336 1692.33C196.824 1691.75 196.08 1691.47 195.104 1691.47C194.224 1691.47 193.536 1691.78 193.04 1692.4C192.528 1693.01 192.272 1693.78 192.272 1694.71L192.272 1698.83L198.104 1698.83L198.104 1694.66ZM190.352 1694.85C190.352 1694.03 190.144 1693.36 189.728 1692.83C189.296 1692.29 188.672 1692.02 187.856 1692.02C187.024 1692.02 186.4 1692.27 185.984 1692.79C185.552 1693.3 185.336 1693.99 185.336 1694.85L185.336 1698.83L190.352 1698.83L190.352 1694.85Z" fill="black"/>
<path d="M183.44 1722.45L183.44 1718.41L196.328 1713.95L183.44 1709.49L183.44 1705.31L200 1705.31L200 1708.05L185.552 1708.05L200 1712.99L200 1715.27L185.624 1720.21L200 1720.21L200 1722.45L183.44 1722.45Z" fill="black"/>
<path d="M200.36 1732.83C200.36 1734.22 200.096 1735.42 199.568 1736.43C199.04 1737.44 198.304 1738.21 197.36 1738.74C196.416 1739.25 195.328 1739.5 194.096 1739.5L183.44 1739.5L183.44 1736.77L194.096 1736.77C195.376 1736.77 196.416 1736.44 197.216 1735.78C198 1735.13 198.392 1734.14 198.392 1732.83C198.392 1731.52 198 1730.54 197.216 1729.9C196.416 1729.25 195.376 1728.92 194.096 1728.92L183.44 1728.92L183.44 1726.18L194.096 1726.18C195.328 1726.18 196.416 1726.45 197.36 1726.98C198.304 1727.49 199.04 1728.25 199.568 1729.26C200.096 1730.25 200.36 1731.44 200.36 1732.83Z" fill="black"/>
<path d="M183.44 1757.03L183.44 1753.12L197.624 1745.51L183.44 1745.51L183.44 1743.25L200 1743.25L200 1747.12L185.696 1754.8L200 1754.8L200 1757.03L183.44 1757.03Z" fill="black"/>
<path d="M183.44 1777.64L183.44 1774.91L192.368 1774.91L183.44 1767.2L183.44 1764.32L189.92 1770.2L200 1763.84L200 1767.11L191.96 1772.07L195.128 1774.91L200 1774.91L200 1777.64L183.44 1777.64Z" fill="black"/>
<path d="M183.44 1791.82L183.44 1780.94L185.432 1780.94L185.432 1789.08L190.424 1789.08L190.424 1781.54L192.416 1781.54L192.416 1789.08L198.008 1789.08L198.008 1780.7L200 1780.7L200 1791.82L183.44 1791.82Z" fill="black"/>
<path d="M183.44 1805.99L183.44 1795.12L185.432 1795.12L185.432 1803.25L190.424 1803.25L190.424 1795.72L192.416 1795.72L192.416 1803.25L198.008 1803.25L198.008 1794.88L200 1794.88L200 1805.99L183.44 1805.99Z" fill="black"/>
<path d="M183.44 1830.87L183.44 1828.04L198.008 1824.58L183.44 1821.2L183.44 1818.22L198.032 1814.74L183.44 1811.31L183.44 1808.94L200 1813.14L200 1816.74L186.752 1819.9L200 1823.05L200 1826.72L183.44 1830.87Z" fill="black"/>
<path d="M265.44 1788.45L265.44 1777.57L267.432 1777.57L267.432 1785.71L272.424 1785.71L272.424 1778.17L274.416 1778.17L274.416 1785.71L280.008 1785.71L280.008 1777.33L282 1777.33L282 1788.45L265.44 1788.45Z" fill="black"/>
<path d="M265.44 1809.42L265.44 1805.38L278.328 1800.92L265.44 1796.46L265.44 1792.28L282 1792.28L282 1795.02L267.552 1795.02L282 1799.96L282 1802.24L267.624 1807.18L282 1807.18L282 1809.42L265.44 1809.42Z" fill="black"/>
<path d="M265.44 1815.97L265.44 1813.24L282 1813.24L282 1815.97L265.44 1815.97Z" fill="black"/>
<path d="M267.432 1826.24L267.432 1831.28L265.44 1831.28L265.44 1818.49L267.432 1818.49L267.432 1823.5L282 1823.5L282 1826.24L267.432 1826.24Z" fill="black"/>
<path d="M289.92 1312.09C289.92 1312.81 289.835 1313.49 289.664 1314.1L287.04 1314.1C287.19 1313.57 287.264 1313.01 287.264 1312.41C287.264 1311.53 287.04 1310.79 286.592 1310.17C286.144 1309.53 285.419 1308.93 284.416 1308.38L267.36 1315.16L267.36 1311.26L280.224 1306.55L267.36 1302.01L267.36 1298.97L282.976 1304.92C284.598 1305.54 285.899 1306.16 286.88 1306.78C287.883 1307.39 288.64 1308.13 289.152 1308.98C289.664 1309.84 289.92 1310.87 289.92 1312.09Z" fill="black"/>
<path d="M284.384 1326.42C284.384 1327.87 284.021 1329.1 283.296 1330.1C282.57 1331.08 281.493 1331.58 280.064 1331.58C277.546 1331.58 275.85 1329.69 274.976 1325.91C274.698 1324.67 274.442 1323.72 274.208 1323.06C273.973 1322.4 273.696 1321.93 273.376 1321.66C273.034 1321.36 272.608 1321.21 272.096 1321.21C271.328 1321.21 270.666 1321.51 270.112 1322.1C269.536 1322.68 269.248 1323.52 269.248 1324.63C269.248 1325.59 269.504 1326.4 270.016 1327.06C270.506 1327.72 271.2 1328.17 272.096 1328.41L272.096 1331.22C270.474 1330.9 269.194 1330.12 268.256 1328.89C267.317 1327.65 266.848 1326.17 266.848 1324.44C266.848 1322.24 267.413 1320.58 268.544 1319.45C269.674 1318.32 271.157 1317.75 272.992 1317.75L280.192 1317.75C280.96 1317.75 281.493 1317.61 281.792 1317.34C282.069 1317.04 282.186 1316.62 282.144 1316.09L283.936 1316.09C284.106 1316.54 284.192 1317.04 284.192 1317.59C284.192 1319.75 283.157 1320.87 281.088 1320.95C281.941 1321.34 282.709 1322 283.392 1322.94C284.053 1323.85 284.384 1325.02 284.384 1326.42ZM279.776 1328.02C280.437 1328.02 280.97 1327.78 281.376 1327.29C281.76 1326.8 281.952 1326.12 281.952 1325.27C281.952 1324.12 281.568 1323.16 280.8 1322.39C280.032 1321.62 278.912 1321.24 277.44 1321.24L274.848 1321.24C275.317 1321.5 275.712 1321.91 276.032 1322.49C276.33 1323.04 276.597 1323.74 276.832 1324.57C277.194 1325.85 277.61 1326.74 278.08 1327.26C278.528 1327.77 279.093 1328.02 279.776 1328.02Z" fill="black"/>
<path d="M284.48 1344.11C284.48 1346.18 283.701 1347.81 282.144 1349.01C280.587 1350.18 278.453 1350.77 275.744 1350.77C273.952 1350.77 272.395 1350.49 271.072 1349.93C269.728 1349.38 268.693 1348.59 267.968 1347.57C267.243 1346.52 266.88 1345.32 266.88 1343.95C266.88 1342.84 267.157 1341.86 267.712 1341.01C268.267 1340.15 269.067 1339.46 270.112 1338.93L260.96 1338.93L260.96 1335.41L284 1335.41L284 1338.77L280.96 1338.77C282.091 1339.3 282.965 1340.02 283.584 1340.94C284.181 1341.86 284.48 1342.92 284.48 1344.11ZM275.616 1347.09C277.685 1347.09 279.285 1346.73 280.416 1346.03C281.547 1345.3 282.112 1344.29 282.112 1342.99C282.112 1341.69 281.557 1340.66 280.448 1339.92C279.339 1339.17 277.781 1338.8 275.776 1338.8C273.749 1338.8 272.16 1339.19 271.008 1339.98C269.835 1340.75 269.248 1341.78 269.248 1343.09C269.248 1344.37 269.803 1345.36 270.912 1346.06C272 1346.74 273.568 1347.09 275.616 1347.09Z" fill="black"/>
<path d="M284.48 1359.78C284.48 1361.83 283.989 1363.53 283.008 1364.87C282.005 1366.22 280.587 1366.98 278.752 1367.18L278.752 1364.42C279.84 1364.25 280.693 1363.74 281.312 1362.89C281.909 1362.01 282.208 1360.99 282.208 1359.82C282.208 1358.73 281.984 1357.87 281.536 1357.26C281.067 1356.64 280.437 1356.33 279.648 1356.33C278.944 1356.33 278.411 1356.58 278.048 1357.1C277.664 1357.61 277.365 1358.4 277.152 1359.46L276.736 1361.38C276.352 1363.11 275.787 1364.43 275.04 1365.35C274.293 1366.27 273.259 1366.73 271.936 1366.73C271.04 1366.73 270.208 1366.47 269.44 1365.96C268.651 1365.45 268.032 1364.72 267.584 1363.78C267.115 1362.82 266.88 1361.7 266.88 1360.42C266.88 1358.74 267.264 1357.3 268.032 1356.1C268.8 1354.91 269.888 1354.1 271.296 1353.67L271.904 1356.74C271.008 1357 270.325 1357.46 269.856 1358.12C269.365 1358.78 269.12 1359.59 269.12 1360.55C269.12 1361.49 269.333 1362.24 269.76 1362.79C270.187 1363.32 270.752 1363.59 271.456 1363.59C272.053 1363.59 272.533 1363.36 272.896 1362.89C273.237 1362.4 273.536 1361.58 273.792 1360.42L274.176 1358.63C274.603 1356.75 275.2 1355.37 275.968 1354.47C276.736 1353.58 277.835 1353.13 279.264 1353.13C280.288 1353.13 281.195 1353.42 281.984 1353.99C282.773 1354.55 283.392 1355.34 283.84 1356.36C284.267 1357.36 284.48 1358.5 284.48 1359.78Z" fill="black"/>
<path d="M284.48 1377.02C284.48 1378.58 284.139 1379.95 283.456 1381.15C282.752 1382.32 281.749 1383.24 280.448 1383.9C279.147 1384.56 277.621 1384.89 275.872 1384.89C274.187 1384.89 272.661 1384.57 271.296 1383.93C269.931 1383.27 268.853 1382.35 268.064 1381.18C267.275 1380.01 266.88 1378.66 266.88 1377.15C266.88 1375.53 267.275 1374.14 268.064 1372.99C268.853 1371.81 269.941 1370.94 271.328 1370.36C272.715 1369.79 274.283 1369.54 276.032 1369.63L276.032 1381.37C277.952 1381.29 279.424 1380.8 280.448 1379.9C281.451 1379 281.952 1377.9 281.952 1376.6C281.952 1375.56 281.696 1374.69 281.184 1374.01C280.651 1373.33 279.915 1372.81 278.976 1372.44L278.976 1369.76C280.896 1370.29 282.293 1371.21 283.168 1372.51C284.043 1373.81 284.48 1375.31 284.48 1377.02ZM273.92 1373.24C272.384 1373.35 271.2 1373.77 270.368 1374.49C269.536 1375.2 269.12 1376.12 269.12 1377.28C269.12 1378.38 269.547 1379.3 270.4 1380.03C271.232 1380.73 272.405 1381.17 273.92 1381.34L273.92 1373.24Z" fill="black"/>
<path d="M284.384 1397.65C284.384 1399.25 283.904 1400.51 282.944 1401.43C281.963 1402.33 280.555 1402.77 278.72 1402.77L267.36 1402.77L267.36 1399.25L277.888 1399.25C279.254 1399.25 280.246 1399.01 280.864 1398.52C281.483 1398.01 281.792 1397.28 281.792 1396.34C281.792 1395.6 281.568 1394.9 281.12 1394.26C280.672 1393.6 280.022 1393.08 279.168 1392.69C278.294 1392.29 277.27 1392.09 276.096 1392.09L267.36 1392.09L267.36 1388.57L284 1388.57L284 1392.09L280.512 1392.09C281.622 1392.53 282.55 1393.26 283.296 1394.26C284.022 1395.24 284.384 1396.37 284.384 1397.65Z" fill="black"/>
<path d="M264.576 1414.87L264.576 1421.59L261.92 1421.59L261.92 1404.53L264.576 1404.53L264.576 1411.22L284 1411.22L284 1414.87L264.576 1414.87Z" fill="black"/>
<path d="M289.92 1562.96C289.92 1563.69 289.835 1564.36 289.664 1564.98L287.04 1564.98C287.19 1564.45 287.264 1563.88 287.264 1563.28C287.264 1562.41 287.04 1561.66 286.592 1561.04C286.144 1560.4 285.419 1559.81 284.416 1559.25L267.36 1566.03L267.36 1562.13L280.224 1557.43L267.36 1552.88L267.36 1549.84L282.976 1555.79C284.598 1556.41 285.899 1557.03 286.88 1557.65C287.883 1558.27 288.64 1559.01 289.152 1559.86C289.664 1560.71 289.92 1561.75 289.92 1562.96Z" fill="black"/>
<path d="M284.384 1577.3C284.384 1578.75 284.021 1579.98 283.296 1580.98C282.57 1581.96 281.493 1582.45 280.064 1582.45C277.546 1582.45 275.85 1580.56 274.976 1576.79C274.698 1575.55 274.442 1574.6 274.208 1573.94C273.973 1573.28 273.696 1572.81 273.376 1572.53C273.034 1572.23 272.608 1572.08 272.096 1572.08C271.328 1572.08 270.666 1572.38 270.112 1572.98C269.536 1573.55 269.248 1574.4 269.248 1575.51C269.248 1576.47 269.504 1577.28 270.016 1577.94C270.506 1578.6 271.2 1579.05 272.096 1579.28L272.096 1582.1C270.474 1581.78 269.194 1581 268.256 1579.76C267.317 1578.52 266.848 1577.04 266.848 1575.31C266.848 1573.12 267.413 1571.45 268.544 1570.32C269.674 1569.19 271.157 1568.63 272.992 1568.63L280.192 1568.63C280.96 1568.63 281.493 1568.49 281.792 1568.21C282.069 1567.91 282.186 1567.5 282.144 1566.96L283.936 1566.96C284.106 1567.41 284.192 1567.91 284.192 1568.47C284.192 1570.62 283.157 1571.74 281.088 1571.83C281.941 1572.21 282.709 1572.87 283.392 1573.81C284.053 1574.73 284.384 1575.89 284.384 1577.3ZM279.776 1578.9C280.437 1578.9 280.97 1578.65 281.376 1578.16C281.76 1577.67 281.952 1577 281.952 1576.15C281.952 1574.99 281.568 1574.03 280.8 1573.27C280.032 1572.5 278.912 1572.11 277.44 1572.11L274.848 1572.11C275.317 1572.37 275.712 1572.79 276.032 1573.36C276.33 1573.92 276.597 1574.61 276.832 1575.44C277.194 1576.72 277.61 1577.62 278.08 1578.13C278.528 1578.64 279.093 1578.9 279.776 1578.9Z" fill="black"/>
<path d="M284.48 1594.99C284.48 1597.05 283.701 1598.69 282.144 1599.88C280.587 1601.05 278.453 1601.64 275.744 1601.64C273.952 1601.64 272.395 1601.36 271.072 1600.81C269.728 1600.25 268.693 1599.47 267.968 1598.44C267.243 1597.4 266.88 1596.19 266.88 1594.83C266.88 1593.72 267.157 1592.73 267.712 1591.88C268.267 1591.03 269.067 1590.33 270.112 1589.8L260.96 1589.8L260.96 1586.28L284 1586.28L284 1589.64L280.96 1589.64C282.091 1590.17 282.965 1590.9 283.584 1591.82C284.181 1592.73 284.48 1593.79 284.48 1594.99ZM275.616 1597.96C277.685 1597.96 279.285 1597.61 280.416 1596.91C281.547 1596.18 282.112 1595.17 282.112 1593.87C282.112 1592.56 281.557 1591.54 280.448 1590.79C279.339 1590.05 277.781 1589.67 275.776 1589.67C273.749 1589.67 272.16 1590.07 271.008 1590.86C269.835 1591.63 269.248 1592.66 269.248 1593.96C269.248 1595.24 269.803 1596.23 270.912 1596.94C272 1597.62 273.568 1597.96 275.616 1597.96Z" fill="black"/>
<path d="M267.36 1619.58L267.36 1616.06L270.848 1616.06C269.738 1615.64 268.821 1614.92 268.096 1613.92C267.349 1612.9 266.976 1611.73 266.976 1610.43C266.976 1608.81 267.466 1607.54 268.448 1606.62C269.408 1605.71 270.805 1605.25 272.64 1605.25L284 1605.25L284 1608.77L273.472 1608.77C270.869 1608.77 269.568 1609.76 269.568 1611.74C269.568 1612.49 269.792 1613.19 270.24 1613.86C270.688 1614.52 271.349 1615.05 272.224 1615.46C273.077 1615.86 274.09 1616.06 275.264 1616.06L284 1616.06L284 1619.58L267.36 1619.58Z" fill="black"/>
<path d="M284.48 1631.21C284.48 1632.79 284.128 1634.17 283.424 1635.37C282.699 1636.56 281.675 1637.49 280.352 1638.15C279.029 1638.79 277.493 1639.11 275.744 1639.11C273.995 1639.11 272.448 1638.79 271.104 1638.15C269.76 1637.49 268.725 1636.56 268 1635.37C267.253 1634.17 266.88 1632.79 266.88 1631.21C266.88 1629.63 267.243 1628.24 267.968 1627.05C268.693 1625.85 269.717 1624.92 271.04 1624.26C272.363 1623.6 273.899 1623.27 275.648 1623.27C277.397 1623.27 278.944 1623.6 280.288 1624.26C281.611 1624.92 282.645 1625.85 283.392 1627.05C284.117 1628.24 284.48 1629.63 284.48 1631.21ZM275.584 1635.43C277.632 1635.43 279.253 1635.06 280.448 1634.31C281.621 1633.54 282.208 1632.5 282.208 1631.17C282.208 1629.87 281.653 1628.85 280.544 1628.1C279.413 1627.33 277.835 1626.95 275.808 1626.95C273.739 1626.95 272.117 1627.33 270.944 1628.1C269.749 1628.87 269.152 1629.92 269.152 1631.24C269.152 1632.56 269.717 1633.6 270.848 1634.34C271.979 1635.07 273.557 1635.43 275.584 1635.43Z" fill="black"/>
<path d="M261.92 1665.95L261.92 1660.58L279.104 1654.62L261.92 1648.67L261.92 1643.1L284 1643.1L284 1646.75L264.736 1646.75L284 1653.34L284 1656.38L264.832 1662.98L284 1662.98L284 1665.95L261.92 1665.95Z" fill="black"/>
<path d="M289.92 1040.01C289.92 1040.73 289.835 1041.41 289.664 1042.03L287.04 1042.03C287.19 1041.49 287.264 1040.93 287.264 1040.33C287.264 1039.45 287.04 1038.71 286.592 1038.09C286.144 1037.45 285.419 1036.85 284.416 1036.3L267.36 1043.08L267.36 1039.18L280.224 1034.47L267.36 1029.93L267.36 1026.89L282.976 1032.84C284.598 1033.46 285.899 1034.08 286.88 1034.7C287.883 1035.32 288.64 1036.05 289.152 1036.91C289.664 1037.76 289.92 1038.79 289.92 1040.01Z" fill="black"/>
<path d="M284.384 1054.35C284.384 1055.8 284.021 1057.02 283.296 1058.03C282.57 1059.01 281.493 1059.5 280.064 1059.5C277.546 1059.5 275.85 1057.61 274.976 1053.83C274.698 1052.6 274.442 1051.65 274.208 1050.99C273.973 1050.32 273.696 1049.85 273.376 1049.58C273.034 1049.28 272.608 1049.13 272.096 1049.13C271.328 1049.13 270.666 1049.43 270.112 1050.03C269.536 1050.6 269.248 1051.44 269.248 1052.55C269.248 1053.51 269.504 1054.32 270.016 1054.99C270.506 1055.65 271.2 1056.09 272.096 1056.33L272.096 1059.15C270.474 1058.83 269.194 1058.05 268.256 1056.81C267.317 1055.57 266.848 1054.09 266.848 1052.36C266.848 1050.16 267.413 1048.5 268.544 1047.37C269.674 1046.24 271.157 1045.67 272.992 1045.67L280.192 1045.67C280.96 1045.67 281.493 1045.53 281.792 1045.26C282.069 1044.96 282.186 1044.54 282.144 1044.01L283.936 1044.01C284.106 1044.46 284.192 1044.96 284.192 1045.51C284.192 1047.67 283.157 1048.79 281.088 1048.87C281.941 1049.26 282.709 1049.92 283.392 1050.86C284.053 1051.77 284.384 1052.94 284.384 1054.35ZM279.776 1055.95C280.437 1055.95 280.97 1055.7 281.376 1055.21C281.76 1054.72 281.952 1054.05 281.952 1053.19C281.952 1052.04 281.568 1051.08 280.8 1050.31C280.032 1049.55 278.912 1049.16 277.44 1049.16L274.848 1049.16C275.317 1049.42 275.712 1049.83 276.032 1050.41C276.33 1050.96 276.597 1051.66 276.832 1052.49C277.194 1053.77 277.61 1054.67 278.08 1055.18C278.528 1055.69 279.093 1055.95 279.776 1055.95Z" fill="black"/>
<path d="M284.48 1072.03C284.48 1074.1 283.701 1075.73 282.144 1076.93C280.587 1078.1 278.453 1078.69 275.744 1078.69C273.952 1078.69 272.395 1078.41 271.072 1077.86C269.728 1077.3 268.693 1076.51 267.968 1075.49C267.243 1074.44 266.88 1073.24 266.88 1071.87C266.88 1070.76 267.157 1069.78 267.712 1068.93C268.267 1068.07 269.067 1067.38 270.112 1066.85L260.96 1066.85L260.96 1063.33L284 1063.33L284 1066.69L280.96 1066.69C282.091 1067.22 282.965 1067.95 283.584 1068.86C284.181 1069.78 284.48 1070.84 284.48 1072.03ZM275.616 1075.01C277.685 1075.01 279.285 1074.66 280.416 1073.95C281.547 1073.23 282.112 1072.21 282.112 1070.91C282.112 1069.61 281.557 1068.59 280.448 1067.84C279.339 1067.09 277.781 1066.72 275.776 1066.72C273.749 1066.72 272.16 1067.11 271.008 1067.9C269.835 1068.67 269.248 1069.71 269.248 1071.01C269.248 1072.29 269.803 1073.28 270.912 1073.98C272 1074.67 273.568 1075.01 275.616 1075.01Z" fill="black"/>
<path d="M284.48 1087.71C284.48 1089.75 283.989 1091.45 283.008 1092.79C282.005 1094.14 280.587 1094.91 278.752 1095.1L278.752 1092.35C279.84 1092.17 280.693 1091.66 281.312 1090.81C281.909 1089.93 282.208 1088.91 282.208 1087.74C282.208 1086.65 281.984 1085.8 281.536 1085.18C281.067 1084.56 280.437 1084.25 279.648 1084.25C278.944 1084.25 278.411 1084.51 278.048 1085.02C277.664 1085.53 277.365 1086.32 277.152 1087.39L276.736 1089.31C276.352 1091.03 275.787 1092.36 275.04 1093.27C274.293 1094.19 273.259 1094.65 271.936 1094.65C271.04 1094.65 270.208 1094.39 269.44 1093.88C268.651 1093.37 268.032 1092.64 267.584 1091.71C267.115 1090.75 266.88 1089.63 266.88 1088.35C266.88 1086.66 267.264 1085.22 268.032 1084.03C268.8 1082.83 269.888 1082.02 271.296 1081.59L271.904 1084.67C271.008 1084.92 270.325 1085.38 269.856 1086.04C269.365 1086.7 269.12 1087.51 269.12 1088.47C269.12 1089.41 269.333 1090.16 269.76 1090.71C270.187 1091.25 270.752 1091.51 271.456 1091.51C272.053 1091.51 272.533 1091.28 272.896 1090.81C273.237 1090.32 273.536 1089.5 273.792 1088.35L274.176 1086.55C274.603 1084.68 275.2 1083.29 275.968 1082.39C276.736 1081.5 277.835 1081.05 279.264 1081.05C280.288 1081.05 281.195 1081.34 281.984 1081.91C282.773 1082.47 283.392 1083.26 283.84 1084.28C284.267 1085.28 284.48 1086.43 284.48 1087.71Z" fill="black"/>
<path d="M284.48 1104.94C284.48 1106.5 284.139 1107.87 283.456 1109.07C282.752 1110.24 281.749 1111.16 280.448 1111.82C279.147 1112.48 277.621 1112.81 275.872 1112.81C274.187 1112.81 272.661 1112.49 271.296 1111.85C269.931 1111.19 268.853 1110.27 268.064 1109.1C267.275 1107.93 266.88 1106.58 266.88 1105.07C266.88 1103.45 267.275 1102.06 268.064 1100.91C268.853 1099.74 269.941 1098.86 271.328 1098.29C272.715 1097.71 274.283 1097.46 276.032 1097.55L276.032 1109.29C277.952 1109.21 279.424 1108.72 280.448 1107.82C281.451 1106.93 281.952 1105.83 281.952 1104.53C281.952 1103.48 281.696 1102.62 281.184 1101.93C280.651 1101.25 279.915 1100.73 278.976 1100.37L278.976 1097.68C280.896 1098.21 282.293 1099.13 283.168 1100.43C284.043 1101.73 284.48 1103.23 284.48 1104.94ZM273.92 1101.17C272.384 1101.27 271.2 1101.69 270.368 1102.41C269.536 1103.12 269.12 1104.05 269.12 1105.2C269.12 1106.31 269.547 1107.22 270.4 1107.95C271.232 1108.65 272.405 1109.09 273.92 1109.26L273.92 1101.17Z" fill="black"/>
<path d="M267.36 1130.72L267.36 1127.2L270.848 1127.2C269.738 1126.78 268.821 1126.06 268.096 1125.06C267.349 1124.04 266.976 1122.87 266.976 1121.57C266.976 1119.95 267.466 1118.68 268.448 1117.76C269.408 1116.85 270.805 1116.39 272.64 1116.39L284 1116.39L284 1119.91L273.472 1119.91C270.869 1119.91 269.568 1120.9 269.568 1122.88C269.568 1123.63 269.792 1124.34 270.24 1125C270.688 1125.66 271.349 1126.19 272.224 1126.6C273.077 1127 274.09 1127.2 275.264 1127.2L284 1127.2L284 1130.72L267.36 1130.72Z" fill="black"/>
<path d="M284.48 1144.22C284.48 1146.29 283.701 1147.92 282.144 1149.12C280.587 1150.29 278.453 1150.88 275.744 1150.88C273.952 1150.88 272.395 1150.6 271.072 1150.04C269.728 1149.49 268.693 1148.7 267.968 1147.68C267.243 1146.63 266.88 1145.42 266.88 1144.06C266.88 1142.95 267.157 1141.97 267.712 1141.12C268.267 1140.26 269.067 1139.57 270.112 1139.04L260.96 1139.04L260.96 1135.52L284 1135.52L284 1138.88L280.96 1138.88C282.091 1139.41 282.965 1140.13 283.584 1141.05C284.181 1141.97 284.48 1143.02 284.48 1144.22ZM275.616 1147.2C277.685 1147.2 279.285 1146.84 280.416 1146.14C281.547 1145.41 282.112 1144.4 282.112 1143.1C282.112 1141.8 281.557 1140.77 280.448 1140.03C279.339 1139.28 277.781 1138.91 275.776 1138.91C273.749 1138.91 272.16 1139.3 271.008 1140.09C269.835 1140.86 269.248 1141.89 269.248 1143.2C269.248 1144.48 269.803 1145.47 270.912 1146.17C272 1146.85 273.568 1147.2 275.616 1147.2Z" fill="black"/>
<path d="M284.48 1160.85C284.48 1162.41 284.139 1163.78 283.456 1164.98C282.752 1166.15 281.749 1167.07 280.448 1167.73C279.147 1168.39 277.621 1168.72 275.872 1168.72C274.187 1168.72 272.661 1168.4 271.296 1167.76C269.931 1167.1 268.853 1166.18 268.064 1165.01C267.275 1163.83 266.88 1162.49 266.88 1160.98C266.88 1159.35 267.275 1157.97 268.064 1156.82C268.853 1155.64 269.941 1154.77 271.328 1154.19C272.715 1153.62 274.283 1153.37 276.032 1153.46L276.032 1165.2C277.952 1165.11 279.424 1164.62 280.448 1163.73C281.451 1162.83 281.952 1161.73 281.952 1160.43C281.952 1159.39 281.696 1158.52 281.184 1157.84C280.651 1157.16 279.915 1156.63 278.976 1156.27L278.976 1153.58C280.896 1154.12 282.293 1155.03 283.168 1156.34C284.043 1157.64 284.48 1159.14 284.48 1160.85ZM273.92 1157.07C272.384 1157.18 271.2 1157.59 270.368 1158.32C269.536 1159.02 269.12 1159.95 269.12 1161.1C269.12 1162.21 269.547 1163.13 270.4 1163.86C271.232 1164.56 272.405 1165 273.92 1165.17L273.92 1157.07Z" fill="black"/>
<path d="M261.92 1199.12L261.92 1195.34L281.344 1190.74L261.92 1186.22L261.92 1182.26L281.376 1177.62L261.92 1173.04L261.92 1169.87L284 1175.47L284 1180.27L266.336 1184.5L284 1188.69L284 1193.58L261.92 1199.12Z" fill="black"/>
<path d="M289.92 809.635C289.92 810.36 289.835 811.032 289.664 811.651L287.04 811.651C287.19 811.117 287.264 810.552 287.264 809.955C287.264 809.08 287.04 808.333 286.592 807.715C286.144 807.075 285.419 806.477 284.416 805.923L267.36 812.707L267.36 808.803L280.224 804.099L267.36 799.555L267.36 796.515L282.976 802.467C284.598 803.085 285.899 803.704 286.88 804.323C287.883 804.941 288.64 805.677 289.152 806.531C289.664 807.384 289.92 808.419 289.92 809.635Z" fill="black"/>
<path d="M284.384 823.971C284.384 825.421 284.021 826.648 283.296 827.651C282.57 828.632 281.493 829.123 280.064 829.123C277.546 829.123 275.85 827.235 274.976 823.459C274.698 822.221 274.442 821.272 274.208 820.611C273.973 819.949 273.696 819.48 273.376 819.203C273.034 818.904 272.608 818.755 272.096 818.755C271.328 818.755 270.666 819.053 270.112 819.651C269.536 820.227 269.248 821.069 269.248 822.179C269.248 823.139 269.504 823.949 270.016 824.611C270.506 825.272 271.2 825.72 272.096 825.955L272.096 828.771C270.474 828.451 269.194 827.672 268.256 826.435C267.317 825.197 266.848 823.715 266.848 821.987C266.848 819.789 267.413 818.125 268.544 816.995C269.674 815.864 271.157 815.299 272.992 815.299L280.192 815.299C280.96 815.299 281.493 815.16 281.792 814.883C282.069 814.584 282.186 814.168 282.144 813.635L283.936 813.635C284.106 814.083 284.192 814.584 284.192 815.139C284.192 817.293 283.157 818.413 281.088 818.499C281.941 818.883 282.709 819.544 283.392 820.483C284.053 821.4 284.384 822.563 284.384 823.971ZM279.776 825.571C280.437 825.571 280.97 825.325 281.376 824.835C281.76 824.344 281.952 823.672 281.952 822.819C281.952 821.667 281.568 820.707 280.8 819.939C280.032 819.171 278.912 818.787 277.44 818.787L274.848 818.787C275.317 819.043 275.712 819.459 276.032 820.035C276.33 820.589 276.597 821.283 276.832 822.115C277.194 823.395 277.61 824.291 278.08 824.803C278.528 825.315 279.093 825.571 279.776 825.571Z" fill="black"/>
<path d="M284.48 841.657C284.48 843.726 283.701 845.358 282.144 846.553C280.587 847.726 278.453 848.313 275.744 848.313C273.952 848.313 272.395 848.036 271.072 847.481C269.728 846.926 268.693 846.137 267.968 845.113C267.243 844.068 266.88 842.862 266.88 841.497C266.88 840.388 267.157 839.406 267.712 838.553C268.267 837.7 269.067 837.006 270.112 836.473L260.96 836.473L260.96 832.953L284 832.953L284 836.313L280.96 836.313C282.091 836.846 282.965 837.572 283.584 838.489C284.181 839.406 284.48 840.462 284.48 841.657ZM275.616 844.633C277.685 844.633 279.285 844.281 280.416 843.577C281.547 842.852 282.112 841.838 282.112 840.537C282.112 839.236 281.557 838.212 280.448 837.465C279.339 836.718 277.781 836.345 275.776 836.345C273.749 836.345 272.16 836.74 271.008 837.529C269.835 838.297 269.248 839.332 269.248 840.633C269.248 841.913 269.803 842.905 270.912 843.609C272 844.292 273.568 844.633 275.616 844.633Z" fill="black"/>
<path d="M284.48 857.33C284.48 859.378 283.989 861.074 283.008 862.418C282.005 863.762 280.587 864.53 278.752 864.722L278.752 861.97C279.84 861.8 280.693 861.287 281.312 860.434C281.909 859.559 282.208 858.536 282.208 857.362C282.208 856.274 281.984 855.421 281.536 854.802C281.067 854.183 280.437 853.874 279.648 853.874C278.944 853.874 278.411 854.13 278.048 854.642C277.664 855.154 277.365 855.943 277.152 857.01L276.736 858.93C276.352 860.658 275.787 861.981 275.04 862.898C274.293 863.815 273.259 864.274 271.936 864.274C271.04 864.274 270.208 864.018 269.44 863.506C268.651 862.994 268.032 862.269 267.584 861.33C267.115 860.37 266.88 859.25 266.88 857.97C266.88 856.285 267.264 854.845 268.032 853.65C268.8 852.456 269.888 851.645 271.296 851.218L271.904 854.29C271.008 854.546 270.325 855.005 269.856 855.666C269.365 856.328 269.12 857.138 269.12 858.098C269.12 859.037 269.333 859.783 269.76 860.338C270.187 860.871 270.752 861.138 271.456 861.138C272.053 861.138 272.533 860.903 272.896 860.434C273.237 859.943 273.536 859.122 273.792 857.97L274.176 856.178C274.603 854.301 275.2 852.914 275.968 852.018C276.736 851.122 277.835 850.674 279.264 850.674C280.288 850.674 281.195 850.962 281.984 851.538C282.773 852.093 283.392 852.882 283.84 853.906C284.267 854.909 284.48 856.05 284.48 857.33Z" fill="black"/>
<path d="M267.36 875.756L267.36 872.236L271.2 872.236L271.2 872.172C270.112 871.852 269.162 871.298 268.352 870.508C267.541 869.719 267.136 868.748 267.136 867.596C267.136 867.148 267.168 866.85 267.232 866.7L270.432 866.7C270.368 866.956 270.336 867.33 270.336 867.82C270.336 869.015 270.837 870.05 271.84 870.924C272.821 871.799 274.474 872.236 276.8 872.236L284 872.236L284 875.756L267.36 875.756Z" fill="black"/>
<path d="M284.384 889.638C284.384 891.238 283.904 892.497 282.944 893.414C281.963 894.31 280.555 894.758 278.72 894.758L267.36 894.758L267.36 891.238L277.888 891.238C279.254 891.238 280.246 890.993 280.864 890.502C281.483 889.99 281.792 889.265 281.792 888.326C281.792 887.58 281.568 886.886 281.12 886.246C280.672 885.585 280.022 885.062 279.168 884.678C278.294 884.273 277.27 884.07 276.096 884.07L267.36 884.07L267.36 880.55L284 880.55L284 884.07L280.512 884.07C281.622 884.518 282.55 885.244 283.296 886.246C284.022 887.228 284.384 888.358 284.384 889.638Z" fill="black"/>
<path d="M260.96 913.631L260.96 910.111L270.848 910.111C269.739 909.663 268.821 908.938 268.096 907.935C267.349 906.933 266.976 905.791 266.976 904.511C266.976 902.911 267.467 901.653 268.448 900.735C269.408 899.818 270.805 899.359 272.64 899.359L284 899.359L284 902.879L273.472 902.879C272.107 902.879 271.115 903.135 270.496 903.647C269.877 904.138 269.568 904.863 269.568 905.823C269.568 906.57 269.792 907.274 270.24 907.935C270.688 908.575 271.349 909.098 272.224 909.503C273.077 909.909 274.091 910.111 275.264 910.111L284 910.111L284 913.631L260.96 913.631Z" fill="black"/>
<path d="M264.576 927.32L264.576 934.04L261.92 934.04L261.92 916.984L264.576 916.984L264.576 923.672L284 923.672L284 927.32L264.576 927.32Z" fill="black"/>
<path d="M289.92 587.01C289.92 587.735 289.835 588.407 289.664 589.026L287.04 589.026C287.19 588.492 287.264 587.927 287.264 587.33C287.264 586.455 287.04 585.708 286.592 585.09C286.144 584.45 285.419 583.852 284.416 583.298L267.36 590.082L267.36 586.178L280.224 581.474L267.36 576.93L267.36 573.89L282.976 579.842C284.598 580.46 285.899 581.079 286.88 581.698C287.883 582.316 288.64 583.052 289.152 583.906C289.664 584.759 289.92 585.794 289.92 587.01Z" fill="black"/>
<path d="M284.385 601.346C284.385 602.796 284.022 604.023 283.297 605.026C282.571 606.007 281.494 606.498 280.065 606.498C277.547 606.498 275.851 604.61 274.977 600.834C274.699 599.596 274.443 598.647 274.209 597.986C273.974 597.324 273.697 596.855 273.377 596.578C273.035 596.279 272.609 596.13 272.097 596.13C271.329 596.13 270.667 596.428 270.113 597.026C269.537 597.602 269.249 598.444 269.249 599.554C269.249 600.514 269.505 601.324 270.017 601.986C270.507 602.647 271.201 603.095 272.097 603.33L272.097 606.146C270.475 605.826 269.195 605.047 268.257 603.81C267.318 602.572 266.849 601.09 266.849 599.362C266.849 597.164 267.414 595.5 268.545 594.37C269.675 593.239 271.158 592.674 272.993 592.674L280.193 592.674C280.961 592.674 281.494 592.535 281.793 592.258C282.07 591.959 282.187 591.543 282.145 591.01L283.937 591.01C284.107 591.458 284.193 591.959 284.193 592.514C284.193 594.668 283.158 595.788 281.089 595.874C281.942 596.258 282.71 596.919 283.393 597.858C284.054 598.775 284.385 599.938 284.385 601.346ZM279.777 602.946C280.438 602.946 280.971 602.7 281.377 602.21C281.761 601.719 281.953 601.047 281.953 600.194C281.953 599.042 281.569 598.082 280.801 597.314C280.033 596.546 278.913 596.162 277.441 596.162L274.849 596.162C275.318 596.418 275.713 596.834 276.033 597.41C276.331 597.964 276.598 598.658 276.833 599.49C277.195 600.77 277.611 601.666 278.081 602.178C278.529 602.69 279.094 602.946 279.777 602.946Z" fill="black"/>
<path d="M284.48 619.032C284.48 621.101 283.701 622.733 282.144 623.928C280.587 625.101 278.453 625.688 275.744 625.688C273.952 625.688 272.395 625.411 271.072 624.856C269.728 624.301 268.693 623.512 267.968 622.488C267.243 621.443 266.88 620.237 266.88 618.872C266.88 617.763 267.157 616.781 267.712 615.928C268.267 615.075 269.067 614.381 270.112 613.848L260.96 613.848L260.96 610.328L284 610.328L284 613.688L280.96 613.688C282.091 614.221 282.965 614.947 283.584 615.864C284.181 616.781 284.48 617.837 284.48 619.032ZM275.616 622.008C277.685 622.008 279.285 621.656 280.416 620.952C281.547 620.227 282.112 619.213 282.112 617.912C282.112 616.611 281.557 615.587 280.448 614.84C279.339 614.093 277.781 613.72 275.776 613.72C273.749 613.72 272.16 614.115 271.008 614.904C269.835 615.672 269.248 616.707 269.248 618.008C269.248 619.288 269.803 620.28 270.912 620.984C272 621.667 273.568 622.008 275.616 622.008Z" fill="black"/>
<path d="M267.36 632.944L267.36 629.424L284 629.424L284 632.944L267.36 632.944ZM264.448 631.152C264.448 631.749 264.256 632.261 263.872 632.688C263.467 633.093 262.987 633.296 262.432 633.296C261.878 633.296 261.408 633.093 261.024 632.688C260.64 632.261 260.448 631.749 260.448 631.152C260.448 630.576 260.651 630.085 261.056 629.68C261.44 629.253 261.899 629.04 262.432 629.04C262.987 629.04 263.467 629.253 263.872 629.68C264.256 630.085 264.448 630.576 264.448 631.152Z" fill="black"/>
<path d="M267.361 645.194L267.361 641.674L271.201 641.674L271.201 641.61C270.113 641.29 269.163 640.735 268.353 639.946C267.542 639.157 267.137 638.186 267.137 637.034C267.137 636.586 267.169 636.287 267.233 636.138L270.433 636.138C270.369 636.394 270.337 636.767 270.337 637.258C270.337 638.453 270.838 639.487 271.841 640.362C272.822 641.237 274.475 641.674 276.801 641.674L284.001 641.674L284.001 645.194L267.361 645.194Z" fill="black"/>
<path d="M261.92 662.905L261.92 648.409L264.576 648.409L264.576 659.257L271.232 659.257L271.232 649.209L273.888 649.209L273.888 659.257L284 659.257L284 662.905L261.92 662.905Z" fill="black"/>
<path d="M289.92 317.666C289.92 318.391 289.835 319.063 289.664 319.682L287.04 319.682C287.19 319.148 287.264 318.583 287.264 317.986C287.264 317.111 287.04 316.364 286.592 315.746C286.144 315.106 285.419 314.508 284.416 313.954L267.36 320.738L267.36 316.834L280.224 312.13L267.36 307.586L267.36 304.546L282.976 310.498C284.598 311.116 285.899 311.735 286.88 312.354C287.883 312.972 288.64 313.708 289.152 314.562C289.664 315.415 289.92 316.45 289.92 317.666Z" fill="black"/>
<path d="M284.384 332.002C284.384 333.452 284.021 334.679 283.296 335.682C282.57 336.663 281.493 337.154 280.064 337.154C277.546 337.154 275.85 335.266 274.976 331.49C274.698 330.252 274.442 329.303 274.208 328.642C273.973 327.98 273.696 327.511 273.376 327.234C273.034 326.935 272.608 326.786 272.096 326.786C271.328 326.786 270.666 327.084 270.112 327.682C269.536 328.258 269.248 329.1 269.248 330.21C269.248 331.17 269.504 331.98 270.016 332.642C270.506 333.303 271.2 333.751 272.096 333.986L272.096 336.802C270.474 336.482 269.194 335.703 268.256 334.466C267.317 333.228 266.848 331.746 266.848 330.018C266.848 327.82 267.413 326.156 268.544 325.026C269.674 323.895 271.157 323.33 272.992 323.33L280.192 323.33C280.96 323.33 281.493 323.191 281.792 322.914C282.069 322.615 282.186 322.199 282.144 321.666L283.936 321.666C284.106 322.114 284.192 322.615 284.192 323.17C284.192 325.324 283.157 326.444 281.088 326.53C281.941 326.914 282.709 327.575 283.392 328.514C284.053 329.431 284.384 330.594 284.384 332.002ZM279.776 333.602C280.437 333.602 280.97 333.356 281.376 332.866C281.76 332.375 281.952 331.703 281.952 330.85C281.952 329.698 281.568 328.738 280.8 327.97C280.032 327.202 278.912 326.818 277.44 326.818L274.848 326.818C275.317 327.074 275.712 327.49 276.032 328.066C276.33 328.62 276.597 329.314 276.832 330.146C277.194 331.426 277.61 332.322 278.08 332.834C278.528 333.346 279.093 333.602 279.776 333.602Z" fill="black"/>
<path d="M284.48 349.688C284.48 351.758 283.701 353.39 282.144 354.584C280.587 355.758 278.453 356.344 275.744 356.344C273.952 356.344 272.395 356.067 271.072 355.512C269.728 354.958 268.693 354.168 267.968 353.144C267.243 352.099 266.88 350.894 266.88 349.528C266.88 348.419 267.157 347.438 267.712 346.584C268.267 345.731 269.067 345.038 270.112 344.504L260.96 344.504L260.96 340.984L284 340.984L284 344.344L280.96 344.344C282.091 344.878 282.965 345.603 283.584 346.52C284.181 347.438 284.48 348.494 284.48 349.688ZM275.616 352.664C277.685 352.664 279.285 352.312 280.416 351.608C281.547 350.883 282.112 349.87 282.112 348.568C282.112 347.267 281.557 346.243 280.448 345.496C279.339 344.75 277.781 344.376 275.776 344.376C273.749 344.376 272.16 344.771 271.008 345.56C269.835 346.328 269.248 347.363 269.248 348.664C269.248 349.944 269.803 350.936 270.912 351.64C272 352.323 273.568 352.664 275.616 352.664Z" fill="black"/>
<path d="M267.36 367.006L267.36 363.486L271.2 363.486L271.2 363.422C270.112 363.102 269.162 362.548 268.352 361.758C267.541 360.969 267.136 359.998 267.136 358.846C267.136 358.398 267.168 358.1 267.232 357.95L270.432 357.95C270.368 358.206 270.336 358.58 270.336 359.07C270.336 360.265 270.837 361.3 271.84 362.174C272.821 363.049 274.474 363.486 276.8 363.486L284 363.486L284 367.006L267.36 367.006Z" fill="black"/>
<path d="M284.384 380.888C284.384 382.488 283.904 383.747 282.944 384.664C281.963 385.56 280.555 386.008 278.72 386.008L267.36 386.008L267.36 382.488L277.888 382.488C279.254 382.488 280.246 382.243 280.864 381.752C281.483 381.24 281.792 380.515 281.792 379.576C281.792 378.83 281.568 378.136 281.12 377.496C280.672 376.835 280.022 376.312 279.168 375.928C278.294 375.523 277.27 375.32 276.096 375.32L267.36 375.32L267.36 371.8L284 371.8L284 375.32L280.512 375.32C281.622 375.768 282.55 376.494 283.296 377.496C284.022 378.478 284.384 379.608 284.384 380.888Z" fill="black"/>
<path d="M284.256 391.828C284.256 393.534 283.872 394.836 283.104 395.732C282.336 396.606 280.96 397.044 278.976 397.044L269.6 397.044L269.6 399.764L267.872 399.764C267.808 398.548 267.403 397.641 266.656 397.044C265.91 396.446 264.758 396.094 263.2 395.988L263.2 393.556L267.36 393.556L267.36 389.524L269.6 389.524L269.6 393.556L279.072 393.556C280.118 393.556 280.854 393.321 281.28 392.852C281.686 392.382 281.888 391.721 281.888 390.868C281.888 390.27 281.814 389.78 281.664 389.396L283.84 389.396C283.968 389.652 284.064 390.004 284.128 390.452C284.214 390.9 284.256 391.358 284.256 391.828Z" fill="black"/>
<path d="M284.384 411.502C284.384 412.952 284.021 414.179 283.296 415.182C282.57 416.163 281.493 416.654 280.064 416.654C277.546 416.654 275.85 414.766 274.976 410.99C274.698 409.752 274.442 408.803 274.208 408.142C273.973 407.48 273.696 407.011 273.376 406.734C273.034 406.435 272.608 406.286 272.096 406.286C271.328 406.286 270.666 406.584 270.112 407.182C269.536 407.758 269.248 408.6 269.248 409.71C269.248 410.67 269.504 411.48 270.016 412.142C270.506 412.803 271.2 413.251 272.096 413.486L272.096 416.302C270.474 415.982 269.194 415.203 268.256 413.966C267.317 412.728 266.848 411.246 266.848 409.518C266.848 407.32 267.413 405.656 268.544 404.526C269.674 403.395 271.157 402.83 272.992 402.83L280.192 402.83C280.96 402.83 281.493 402.691 281.792 402.414C282.069 402.115 282.186 401.699 282.144 401.166L283.936 401.166C284.106 401.614 284.192 402.115 284.192 402.67C284.192 404.824 283.157 405.944 281.088 406.03C281.941 406.414 282.709 407.075 283.392 408.014C284.053 408.931 284.384 410.094 284.384 411.502ZM279.776 413.102C280.437 413.102 280.97 412.856 281.376 412.366C281.76 411.875 281.952 411.203 281.952 410.35C281.952 409.198 281.568 408.238 280.8 407.47C280.032 406.702 278.912 406.318 277.44 406.318L274.848 406.318C275.317 406.574 275.712 406.99 276.032 407.566C276.33 408.12 276.597 408.814 276.832 409.646C277.194 410.926 277.61 411.822 278.08 412.334C278.528 412.846 279.093 413.102 279.776 413.102Z" fill="black"/>
<path d="M284.512 428.121C284.512 429.806 284.235 431.342 283.68 432.729C283.104 434.115 282.24 435.257 281.088 436.153C279.936 437.049 278.507 437.571 276.8 437.721L276.8 434.617C278.422 434.403 279.68 433.689 280.576 432.473C281.472 431.257 281.92 429.806 281.92 428.121C281.92 426.521 281.579 425.294 280.896 424.441C280.214 423.566 279.296 423.129 278.144 423.129C277.099 423.129 276.31 423.491 275.776 424.217C275.243 424.921 274.838 425.966 274.56 427.353L273.984 430.201C273.536 432.377 272.832 434.051 271.872 435.225C270.891 436.377 269.558 436.953 267.872 436.953C266.72 436.953 265.654 436.633 264.672 435.993C263.691 435.331 262.912 434.393 262.336 433.177C261.739 431.939 261.44 430.499 261.44 428.857C261.44 426.659 261.952 424.782 262.976 423.225C264 421.667 265.472 420.643 267.392 420.153L268.064 423.577C266.699 423.918 265.664 424.579 264.96 425.561C264.256 426.521 263.904 427.694 263.904 429.081C263.904 430.446 264.224 431.513 264.864 432.281C265.483 433.049 266.304 433.433 267.328 433.433C268.203 433.433 268.918 433.113 269.472 432.473C270.006 431.811 270.422 430.755 270.72 429.305L271.296 426.553C271.787 424.142 272.534 422.382 273.536 421.273C274.539 420.142 275.915 419.577 277.664 419.577C278.987 419.577 280.171 419.929 281.216 420.633C282.24 421.337 283.051 422.339 283.648 423.641C284.224 424.921 284.512 426.414 284.512 428.121Z" fill="black"/>
<path d="M289.92 80.9158C289.92 81.6411 289.835 82.3131 289.664 82.9318L287.04 82.9318C287.19 82.3985 287.264 81.8331 287.264 81.2358C287.264 80.3611 287.04 79.6145 286.592 78.9958C286.144 78.3558 285.419 77.7585 284.416 77.2038L267.36 83.9878L267.36 80.0838L280.224 75.3798L267.36 70.8358L267.36 67.7958L282.976 73.7478C284.598 74.3665 285.899 74.9851 286.88 75.6038C287.883 76.2225 288.64 76.9585 289.152 77.8118C289.664 78.6651 289.92 79.6998 289.92 80.9158Z" fill="black"/>
<path d="M284.384 95.2518C284.384 96.7025 284.021 97.9291 283.296 98.9318C282.57 99.9131 281.493 100.404 280.064 100.404C277.546 100.404 275.85 98.5158 274.976 94.7398C274.698 93.5025 274.442 92.5531 274.208 91.8918C273.973 91.2305 273.696 90.7611 273.376 90.4838C273.034 90.1851 272.608 90.0358 272.096 90.0358C271.328 90.0358 270.666 90.3345 270.112 90.9318C269.536 91.5078 269.248 92.3505 269.248 93.4598C269.248 94.4198 269.504 95.2305 270.016 95.8918C270.506 96.5531 271.2 97.0011 272.096 97.2358L272.096 100.052C270.474 99.7318 269.194 98.9531 268.256 97.7158C267.317 96.4785 266.848 94.9958 266.848 93.2678C266.848 91.0705 267.413 89.4065 268.544 88.2758C269.674 87.1451 271.157 86.5798 272.992 86.5798L280.192 86.5798C280.96 86.5798 281.493 86.4411 281.792 86.1638C282.069 85.8651 282.186 85.4491 282.144 84.9158L283.936 84.9158C284.106 85.3638 284.192 85.8651 284.192 86.4198C284.192 88.5745 283.157 89.6945 281.088 89.7798C281.941 90.1638 282.709 90.8251 283.392 91.7638C284.053 92.6811 284.384 93.8438 284.384 95.2518ZM279.776 96.8518C280.437 96.8518 280.97 96.6065 281.376 96.1158C281.76 95.6251 281.952 94.9531 281.952 94.0998C281.952 92.9478 281.568 91.9878 280.8 91.2198C280.032 90.4518 278.912 90.0678 277.44 90.0678L274.848 90.0678C275.317 90.3238 275.712 90.7398 276.032 91.3158C276.33 91.8705 276.597 92.5638 276.832 93.3958C277.194 94.6758 277.61 95.5718 278.08 96.0838C278.528 96.5958 279.093 96.8518 279.776 96.8518Z" fill="black"/>
<path d="M284.48 112.938C284.48 115.008 283.701 116.64 282.144 117.834C280.587 119.008 278.453 119.594 275.744 119.594C273.952 119.594 272.395 119.317 271.072 118.762C269.728 118.208 268.693 117.418 267.968 116.394C267.243 115.349 266.88 114.144 266.88 112.778C266.88 111.669 267.157 110.688 267.712 109.834C268.267 108.981 269.067 108.288 270.112 107.754L260.96 107.754L260.96 104.234L284 104.234L284 107.594L280.96 107.594C282.091 108.128 282.965 108.853 283.584 109.77C284.181 110.688 284.48 111.744 284.48 112.938ZM275.616 115.914C277.685 115.914 279.285 115.562 280.416 114.858C281.547 114.133 282.112 113.12 282.112 111.818C282.112 110.517 281.557 109.493 280.448 108.746C279.339 108 277.781 107.626 275.776 107.626C273.749 107.626 272.16 108.021 271.008 108.81C269.835 109.578 269.248 110.613 269.248 111.914C269.248 113.194 269.803 114.186 270.912 114.89C272 115.573 273.568 115.914 275.616 115.914Z" fill="black"/>
<path d="M267.36 137.538L267.36 134.018L270.848 134.018C269.738 133.591 268.821 132.876 268.096 131.874C267.349 130.85 266.976 129.687 266.976 128.386C266.976 126.764 267.466 125.495 268.448 124.578C269.408 123.66 270.805 123.202 272.64 123.202L284 123.202L284 126.722L273.472 126.722C270.869 126.722 269.568 127.714 269.568 129.698C269.568 130.444 269.792 131.148 270.24 131.81C270.688 132.471 271.349 133.004 272.224 133.41C273.077 133.815 274.09 134.018 275.264 134.018L284 134.018L284 137.538L267.36 137.538Z" fill="black"/>
<path d="M284.384 151.42C284.384 153.02 283.904 154.278 282.944 155.196C281.963 156.092 280.555 156.54 278.72 156.54L267.36 156.54L267.36 153.02L277.888 153.02C279.254 153.02 280.246 152.774 280.864 152.284C281.483 151.772 281.792 151.046 281.792 150.108C281.792 149.361 281.568 148.668 281.12 148.028C280.672 147.366 280.022 146.844 279.168 146.46C278.294 146.054 277.27 145.852 276.096 145.852L267.36 145.852L267.36 142.332L284 142.332L284 145.852L280.512 145.852C281.622 146.3 282.55 147.025 283.296 148.028C284.022 149.009 284.384 150.14 284.384 151.42Z" fill="black"/>
<path d="M284.512 168.871C284.512 170.556 284.235 172.092 283.68 173.479C283.104 174.865 282.24 176.007 281.088 176.903C279.936 177.799 278.507 178.321 276.8 178.471L276.8 175.367C278.422 175.153 279.68 174.439 280.576 173.223C281.472 172.007 281.92 170.556 281.92 168.871C281.92 167.271 281.579 166.044 280.896 165.191C280.214 164.316 279.296 163.879 278.144 163.879C277.099 163.879 276.31 164.241 275.776 164.967C275.243 165.671 274.838 166.716 274.56 168.103L273.984 170.951C273.536 173.127 272.832 174.801 271.872 175.975C270.891 177.127 269.558 177.703 267.872 177.703C266.72 177.703 265.654 177.383 264.672 176.743C263.691 176.081 262.912 175.143 262.336 173.927C261.739 172.689 261.44 171.249 261.44 169.607C261.44 167.409 261.952 165.532 262.976 163.975C264 162.417 265.472 161.393 267.392 160.903L268.064 164.327C266.699 164.668 265.664 165.329 264.96 166.311C264.256 167.271 263.904 168.444 263.904 169.831C263.904 171.196 264.224 172.263 264.864 173.031C265.483 173.799 266.304 174.183 267.328 174.183C268.203 174.183 268.918 173.863 269.472 173.223C270.006 172.561 270.422 171.505 270.72 170.055L271.296 167.303C271.787 164.892 272.534 163.132 273.536 162.023C274.539 160.892 275.915 160.327 277.664 160.327C278.987 160.327 280.171 160.679 281.216 161.383C282.24 162.087 283.051 163.089 283.648 164.391C284.224 165.671 284.512 167.164 284.512 168.871Z" fill="black"/>
</g>
<defs>
<clipPath id="clip0_128_3106">
<rect width="1404" height="1872" fill="white"/>
</clipPath>
</defs>
</svg>
