<svg width="1404" height="1872" viewBox="0 0 1404 1872" fill="none" xmlns="http://www.w3.org/2000/svg">
<g clip-path="url(#clip0_128_3244)">
<path d="M1404 0L0 0L0 1872L1404 1872L1404 0Z" fill="white"/>
<path fill-rule="evenodd" clip-rule="evenodd" d="M153 0L153 1872H152L152 0L153 0Z" fill="black"/>
<path fill-rule="evenodd" clip-rule="evenodd" d="M317.6 1872L317 0.000320516L318 0L318.6 1872L317.6 1872Z" fill="black"/>
<path fill-rule="evenodd" clip-rule="evenodd" d="M230 0L230 1872H229L229 0L230 0Z" fill="black"/>
<path fill-rule="evenodd" clip-rule="evenodd" d="M1410 1485L230 1485V1484L1410 1484V1485Z" fill="black"/>
<path fill-rule="evenodd" clip-rule="evenodd" d="M230.5 1733H230V1732H230.5V1733Z" fill="black"/>
<path fill-rule="evenodd" clip-rule="evenodd" d="M232 1733H231.5V1732H232V1733ZM233.999 1733H232.999V1732H233.999V1733ZM235.998 1733H234.999V1732H235.998V1733ZM237.997 1733H236.998V1732H237.997V1733ZM239.996 1733H238.997V1732H239.996V1733ZM241.996 1733H240.996V1732H241.996V1733ZM243.995 1733H242.995V1732H243.995V1733ZM245.994 1733H244.994V1732H245.994V1733ZM247.993 1733H246.993V1732H247.993V1733ZM249.992 1733H248.993V1732H249.992V1733ZM251.991 1733H250.992V1732H251.991V1733ZM253.99 1733H252.991V1732H253.99V1733ZM255.99 1733H254.99V1732H255.99V1733ZM257.989 1733H256.989V1732H257.989V1733ZM259.988 1733H258.988V1732H259.988V1733ZM261.987 1733H260.987V1732H261.987V1733ZM263.986 1733H262.987V1732H263.986V1733ZM265.985 1733H264.986V1732H265.985V1733ZM267.984 1733H266.985V1732H267.984V1733ZM269.984 1733H268.984V1732H269.984V1733ZM271.983 1733H270.983V1732H271.983V1733ZM273.982 1733H272.982V1732H273.982V1733ZM275.981 1733H274.982V1732H275.981V1733ZM277.98 1733H276.981V1732H277.98V1733ZM279.979 1733H278.98V1732H279.979V1733ZM281.979 1733H280.979V1732H281.979V1733ZM283.978 1733H282.978V1732H283.978V1733ZM285.977 1733H284.977V1732H285.977V1733ZM287.976 1733H286.976V1732H287.976V1733ZM289.975 1733H288.976V1732H289.975V1733ZM291.974 1733H290.975V1732H291.974V1733ZM293.973 1733H292.974V1732H293.973V1733ZM295.973 1733H294.973V1732H295.973V1733ZM297.972 1733H296.972V1732H297.972V1733ZM299.971 1733H298.971V1732H299.971V1733ZM301.97 1733H300.971V1732H301.97V1733ZM303.969 1733H302.97V1732H303.969V1733ZM305.968 1733H304.969V1732H305.968V1733ZM307.968 1733H306.968V1732H307.968V1733ZM309.967 1733H308.967V1732H309.967V1733ZM311.966 1733H310.966V1732H311.966V1733ZM313.965 1733H312.965V1732H313.965V1733ZM315.964 1733H314.965V1732H315.964V1733ZM317.963 1733H316.964V1732H317.963V1733ZM319.962 1733H318.963V1732H319.962V1733ZM321.962 1733H320.962V1732H321.962V1733ZM323.961 1733H322.961V1732H323.961V1733ZM325.96 1733H324.96V1732H325.96V1733ZM327.959 1733H326.959V1732H327.959V1733ZM329.958 1733H328.959V1732H329.958V1733ZM331.957 1733H330.958V1732H331.957V1733ZM333.956 1733H332.957V1732H333.956V1733ZM335.956 1733H334.956V1732H335.956V1733ZM337.955 1733H336.955V1732H337.955V1733ZM339.954 1733H338.954V1732H339.954V1733ZM341.953 1733H340.953V1732H341.953V1733ZM343.952 1733H342.953V1732H343.952V1733ZM345.951 1733H344.952V1732H345.951V1733ZM347.95 1733H346.951V1732H347.95V1733ZM349.95 1733H348.95V1732H349.95V1733ZM351.949 1733H350.949V1732H351.949V1733ZM353.948 1733H352.948V1732H353.948V1733ZM355.947 1733H354.947V1732H355.947V1733ZM357.946 1733H356.947V1732H357.946V1733ZM359.945 1733H358.946V1732H359.945V1733ZM361.944 1733H360.945V1732H361.944V1733ZM363.944 1733H362.944V1732H363.944V1733ZM365.943 1733H364.943V1732H365.943V1733ZM367.942 1733H366.942V1732H367.942V1733ZM369.941 1733H368.941V1732H369.941V1733ZM371.94 1733H370.941V1732H371.94V1733ZM373.939 1733H372.94V1732H373.939V1733ZM375.938 1733H374.939V1732H375.938V1733ZM377.938 1733H376.938V1732H377.938V1733ZM379.937 1733H378.937V1732H379.937V1733ZM381.936 1733H380.936V1732H381.936V1733ZM383.935 1733H382.935V1732H383.935V1733ZM385.934 1733H384.935V1732H385.934V1733ZM387.933 1733H386.934V1732H387.933V1733ZM389.932 1733H388.933V1732H389.932V1733ZM391.932 1733H390.932V1732H391.932V1733ZM393.931 1733H392.931V1732H393.931V1733ZM395.93 1733H394.93V1732H395.93V1733ZM397.929 1733H396.929V1732H397.929V1733ZM399.928 1733H398.929V1732H399.928V1733ZM401.927 1733H400.928V1732H401.927V1733ZM403.926 1733H402.927V1732H403.926V1733ZM405.926 1733H404.926V1732H405.926V1733ZM407.925 1733H406.925V1732H407.925V1733ZM409.924 1733H408.924V1732H409.924V1733ZM411.923 1733H410.924V1732H411.923V1733ZM413.922 1733H412.923V1732H413.922V1733ZM415.921 1733H414.922V1732H415.921V1733ZM417.921 1733H416.921V1732H417.921V1733ZM419.92 1733H418.92V1732H419.92V1733ZM421.919 1733H420.919V1732H421.919V1733ZM423.918 1733H422.918V1732H423.918V1733ZM425.917 1733H424.918V1732H425.917V1733ZM427.916 1733H426.917V1732H427.916V1733ZM429.915 1733H428.916V1732H429.915V1733ZM431.915 1733H430.915V1732H431.915V1733ZM433.914 1733H432.914V1732H433.914V1733ZM435.913 1733H434.913V1732H435.913V1733ZM437.912 1733H436.912V1732H437.912V1733ZM439.911 1733H438.912V1732H439.911V1733ZM441.91 1733H440.911V1732H441.91V1733ZM443.909 1733H442.91V1732H443.909V1733ZM445.909 1733H444.909V1732H445.909V1733ZM447.908 1733H446.908V1732H447.908V1733ZM449.907 1733H448.907V1732H449.907V1733ZM451.906 1733H450.906V1732H451.906V1733ZM453.905 1733H452.906V1732H453.905V1733ZM455.904 1733H454.905V1732H455.904V1733ZM457.903 1733H456.904V1732H457.903V1733ZM459.903 1733H458.903V1732H459.903V1733ZM461.902 1733H460.902V1732H461.902V1733ZM463.901 1733H462.901V1732H463.901V1733ZM465.9 1733H464.9V1732H465.9V1733ZM467.899 1733H466.9V1732H467.899V1733ZM469.898 1733H468.899V1732H469.898V1733ZM471.897 1733H470.898V1732H471.897V1733ZM473.897 1733H472.897V1732H473.897V1733ZM475.896 1733H474.896V1732H475.896V1733ZM477.895 1733H476.895V1732H477.895V1733ZM479.894 1733H478.894V1732H479.894V1733ZM481.893 1733H480.894V1732H481.893V1733ZM483.892 1733H482.893V1732H483.892V1733ZM485.891 1733H484.892V1732H485.891V1733ZM487.891 1733H486.891V1732H487.891V1733ZM489.89 1733H488.89V1732H489.89V1733ZM491.889 1733H490.889V1732H491.889V1733ZM493.888 1733H492.888V1732H493.888V1733ZM495.887 1733H494.888V1732H495.887V1733ZM497.886 1733H496.887V1732H497.886V1733ZM499.885 1733H498.886V1732H499.885V1733ZM501.885 1733H500.885V1732H501.885V1733ZM503.884 1733H502.884V1732H503.884V1733ZM505.883 1733H504.883V1732H505.883V1733ZM507.882 1733H506.883V1732H507.882V1733ZM509.881 1733H508.882V1732H509.881V1733ZM511.88 1733H510.881V1732H511.88V1733ZM513.88 1733H512.88V1732H513.88V1733ZM515.879 1733H514.879V1732H515.879V1733ZM517.878 1733H516.878V1732H517.878V1733ZM519.877 1733H518.877V1732H519.877V1733ZM521.876 1733H520.877V1732H521.876V1733ZM523.875 1733H522.876V1732H523.875V1733ZM525.874 1733H524.875V1732H525.874V1733ZM527.874 1733H526.874V1732H527.874V1733ZM529.873 1733H528.873V1732H529.873V1733ZM531.872 1733H530.872V1732H531.872V1733ZM533.871 1733H532.871V1732H533.871V1733ZM535.87 1733H534.871V1732H535.87V1733ZM537.869 1733H536.87V1732H537.869V1733ZM539.868 1733H538.869V1732H539.868V1733ZM541.868 1733H540.868V1732H541.868V1733ZM543.867 1733H542.867V1732H543.867V1733ZM545.866 1733H544.866V1732H545.866V1733ZM547.865 1733H546.865V1732H547.865V1733ZM549.864 1733H548.865V1732H549.864V1733ZM551.863 1733H550.864V1732H551.863V1733ZM553.862 1733H552.863V1732H553.862V1733ZM555.862 1733H554.862V1732H555.862V1733ZM557.861 1733H556.861V1732H557.861V1733ZM559.86 1733H558.86V1732H559.86V1733ZM561.859 1733H560.859V1732H561.859V1733ZM563.858 1733H562.859V1732H563.858V1733ZM565.857 1733H564.858V1732H565.857V1733ZM567.856 1733H566.857V1732H567.856V1733ZM569.856 1733H568.856V1732H569.856V1733ZM571.855 1733H570.855V1732H571.855V1733ZM573.854 1733H572.854V1732H573.854V1733ZM575.853 1733H574.853V1732H575.853V1733ZM577.852 1733H576.853V1732H577.852V1733ZM579.851 1733H578.852V1732H579.851V1733ZM581.85 1733H580.851V1732H581.85V1733ZM583.85 1733H582.85V1732H583.85V1733ZM585.849 1733H584.849V1732H585.849V1733ZM587.848 1733H586.848V1732H587.848V1733ZM589.847 1733H588.848V1732H589.847V1733ZM591.846 1733H590.847V1732H591.846V1733ZM593.845 1733H592.846V1732H593.845V1733ZM595.844 1733H594.845V1732H595.844V1733ZM597.844 1733H596.844V1732H597.844V1733ZM599.843 1733H598.843V1732H599.843V1733ZM601.842 1733H600.842V1732H601.842V1733ZM603.841 1733H602.841V1732H603.841V1733ZM605.84 1733H604.841V1732H605.84V1733ZM607.839 1733H606.84V1732H607.839V1733ZM609.839 1733H608.839V1732H609.839V1733ZM611.838 1733H610.838V1732H611.838V1733ZM613.837 1733H612.837V1732H613.837V1733ZM615.836 1733H614.836V1732H615.836V1733ZM617.835 1733H616.836V1732H617.835V1733ZM619.834 1733H618.835V1732H619.834V1733ZM621.833 1733H620.834V1732H621.833V1733ZM623.833 1733H622.833V1732H623.833V1733ZM625.832 1733H624.832V1732H625.832V1733ZM627.831 1733H626.831V1732H627.831V1733ZM629.83 1733H628.83V1732H629.83V1733ZM631.829 1733H630.83V1732H631.829V1733ZM633.828 1733H632.829V1732H633.828V1733ZM635.827 1733H634.828V1732H635.827V1733ZM637.827 1733H636.827V1732H637.827V1733ZM639.826 1733H638.826V1732H639.826V1733ZM641.825 1733H640.825V1732H641.825V1733ZM643.824 1733H642.824V1732H643.824V1733ZM645.823 1733H644.824V1732H645.823V1733ZM647.822 1733H646.823V1732H647.822V1733ZM649.821 1733H648.822V1732H649.821V1733ZM651.821 1733H650.821V1732H651.821V1733ZM653.82 1733H652.82V1732H653.82V1733ZM655.819 1733H654.819V1732H655.819V1733ZM657.818 1733H656.818V1732H657.818V1733ZM659.817 1733H658.818V1732H659.817V1733ZM661.816 1733H660.817V1732H661.816V1733ZM663.815 1733H662.816V1732H663.815V1733ZM665.815 1733H664.815V1732H665.815V1733ZM667.814 1733H666.814V1732H667.814V1733ZM669.813 1733H668.813V1732H669.813V1733ZM671.812 1733H670.812V1732H671.812V1733ZM673.811 1733H672.812V1732H673.811V1733ZM675.81 1733H674.811V1732H675.81V1733ZM677.809 1733H676.81V1732H677.809V1733ZM679.809 1733H678.809V1732H679.809V1733ZM681.808 1733H680.808V1732H681.808V1733ZM683.807 1733H682.807V1732H683.807V1733ZM685.806 1733H684.806V1732H685.806V1733ZM687.805 1733H686.806V1732H687.805V1733ZM689.804 1733H688.805V1732H689.804V1733ZM691.803 1733H690.804V1732H691.803V1733ZM693.803 1733H692.803V1732H693.803V1733ZM695.802 1733H694.802V1732H695.802V1733ZM697.801 1733H696.801V1732H697.801V1733ZM699.8 1733H698.8V1732H699.8V1733ZM701.799 1733H700.8V1732H701.799V1733ZM703.798 1733H702.799V1732H703.798V1733ZM705.797 1733H704.798V1732H705.797V1733ZM707.797 1733H706.797V1732H707.797V1733ZM709.796 1733H708.796V1732H709.796V1733ZM711.795 1733H710.795V1732H711.795V1733ZM713.794 1733H712.794V1732H713.794V1733ZM715.793 1733H714.794V1732H715.793V1733ZM717.792 1733H716.793V1732H717.792V1733ZM719.792 1733H718.792V1732H719.792V1733ZM721.791 1733H720.791V1732H721.791V1733ZM723.79 1733H722.79V1732H723.79V1733ZM725.789 1733H724.789V1732H725.789V1733ZM727.788 1733H726.789V1732H727.788V1733ZM729.787 1733H728.788V1732H729.787V1733ZM731.786 1733H730.787V1732H731.786V1733ZM733.785 1733H732.786V1732H733.785V1733ZM735.785 1733H734.785V1732H735.785V1733ZM737.784 1733H736.784V1732H737.784V1733ZM739.783 1733H738.783V1732H739.783V1733ZM741.782 1733H740.783V1732H741.782V1733ZM743.781 1733H742.782V1732H743.781V1733ZM745.78 1733H744.781V1732H745.78V1733ZM747.78 1733H746.78V1732H747.78V1733ZM749.779 1733H748.779V1732H749.779V1733ZM751.778 1733H750.778V1732H751.778V1733ZM753.777 1733H752.777V1732H753.777V1733ZM755.776 1733H754.777V1732H755.776V1733ZM757.775 1733H756.776V1732H757.775V1733ZM759.774 1733H758.775V1732H759.774V1733ZM761.774 1733H760.774V1732H761.774V1733ZM763.773 1733H762.773V1732H763.773V1733ZM765.772 1733H764.772V1732H765.772V1733ZM767.771 1733H766.771V1732H767.771V1733ZM769.77 1733H768.771V1732H769.77V1733ZM771.769 1733H770.77V1732H771.769V1733ZM773.768 1733H772.769V1732H773.768V1733ZM775.768 1733H774.768V1732H775.768V1733ZM777.767 1733H776.767V1732H777.767V1733ZM779.766 1733H778.766V1732H779.766V1733ZM781.765 1733H780.765V1732H781.765V1733ZM783.764 1733H782.765V1732H783.764V1733ZM785.763 1733H784.764V1732H785.763V1733ZM787.762 1733H786.763V1732H787.762V1733ZM789.762 1733H788.762V1732H789.762V1733ZM791.761 1733H790.761V1732H791.761V1733ZM793.76 1733H792.76V1732H793.76V1733ZM795.759 1733H794.759V1732H795.759V1733ZM797.758 1733H796.759V1732H797.758V1733ZM799.757 1733H798.758V1732H799.757V1733ZM801.756 1733H800.757V1732H801.756V1733ZM803.756 1733H802.756V1732H803.756V1733ZM805.755 1733H804.755V1732H805.755V1733ZM807.754 1733H806.754V1732H807.754V1733ZM809.753 1733H808.753V1732H809.753V1733ZM811.752 1733H810.753V1732H811.752V1733ZM813.751 1733H812.752V1732H813.751V1733ZM815.75 1733H814.751V1732H815.75V1733ZM817.75 1733H816.75V1732H817.75V1733ZM819.749 1733H818.749V1732H819.749V1733ZM821.748 1733H820.748V1732H821.748V1733ZM823.747 1733H822.747V1732H823.747V1733ZM825.746 1733H824.747V1732H825.746V1733ZM827.745 1733H826.746V1732H827.745V1733ZM829.745 1733H828.745V1732H829.745V1733ZM831.744 1733H830.744V1732H831.744V1733ZM833.743 1733H832.743V1732H833.743V1733ZM835.742 1733H834.742V1732H835.742V1733ZM837.741 1733H836.742V1732H837.741V1733ZM839.74 1733H838.741V1732H839.74V1733ZM841.739 1733H840.74V1732H841.739V1733ZM843.739 1733H842.739V1732H843.739V1733ZM845.738 1733H844.738V1732H845.738V1733ZM847.737 1733H846.737V1732H847.737V1733ZM849.736 1733H848.736V1732H849.736V1733ZM851.735 1733H850.736V1732H851.735V1733ZM853.734 1733H852.735V1732H853.734V1733ZM855.733 1733H854.734V1732H855.733V1733ZM857.733 1733H856.733V1732H857.733V1733ZM859.732 1733H858.732V1732H859.732V1733ZM861.731 1733H860.731V1732H861.731V1733ZM863.73 1733H862.73V1732H863.73V1733ZM865.729 1733H864.73V1732H865.729V1733ZM867.728 1733H866.729V1732H867.728V1733ZM869.727 1733H868.728V1732H869.727V1733ZM871.727 1733H870.727V1732H871.727V1733ZM873.726 1733H872.726V1732H873.726V1733ZM875.725 1733H874.725V1732H875.725V1733ZM877.724 1733H876.724V1732H877.724V1733ZM879.723 1733H878.724V1732H879.723V1733ZM881.722 1733H880.723V1732H881.722V1733ZM883.721 1733H882.722V1732H883.721V1733ZM885.721 1733H884.721V1732H885.721V1733ZM887.72 1733H886.72V1732H887.72V1733ZM889.719 1733H888.719V1732H889.719V1733ZM891.718 1733H890.718V1732H891.718V1733ZM893.717 1733H892.718V1732H893.717V1733ZM895.716 1733H894.717V1732H895.716V1733ZM897.715 1733H896.716V1732H897.715V1733ZM899.715 1733H898.715V1732H899.715V1733ZM901.714 1733H900.714V1732H901.714V1733ZM903.713 1733H902.713V1732H903.713V1733ZM905.712 1733H904.712V1732H905.712V1733ZM907.711 1733H906.712V1732H907.711V1733ZM909.71 1733H908.711V1732H909.71V1733ZM911.709 1733H910.71V1732H911.709V1733ZM913.709 1733H912.709V1732H913.709V1733ZM915.708 1733H914.708V1732H915.708V1733ZM917.707 1733H916.707V1732H917.707V1733ZM919.706 1733H918.706V1732H919.706V1733ZM921.705 1733H920.706V1732H921.705V1733ZM923.704 1733H922.705V1732H923.704V1733ZM925.703 1733H924.704V1732H925.703V1733ZM927.703 1733H926.703V1732H927.703V1733ZM929.702 1733H928.702V1732H929.702V1733ZM931.701 1733H930.701V1732H931.701V1733ZM933.7 1733H932.7V1732H933.7V1733ZM935.699 1733H934.7V1732H935.699V1733ZM937.698 1733H936.699V1732H937.698V1733ZM939.698 1733L938.698 1733V1732H939.698V1733ZM941.697 1733H940.697V1732H941.697V1733ZM943.696 1733H942.696V1732H943.696V1733ZM945.695 1733H944.695V1732H945.695V1733ZM947.694 1733H946.695V1732H947.694V1733ZM949.693 1733H948.694V1732H949.693V1733ZM951.692 1733H950.693V1732H951.692V1733ZM953.692 1733H952.692V1732H953.692V1733ZM955.691 1733H954.691V1732H955.691V1733ZM957.69 1733H956.69V1732H957.69V1733ZM959.689 1733H958.689V1732H959.689V1733ZM961.688 1733H960.689V1732H961.688V1733ZM963.687 1733H962.688V1732H963.687V1733ZM965.686 1733H964.687V1732H965.686V1733ZM967.686 1733H966.686V1732H967.686V1733ZM969.685 1733H968.685V1732H969.685V1733ZM971.684 1733H970.684V1732H971.684V1733ZM973.683 1733H972.683V1732H973.683V1733ZM975.682 1733H974.683V1732H975.682V1733ZM977.681 1733H976.682V1732H977.681V1733ZM979.68 1733H978.681V1732H979.68V1733ZM981.68 1733H980.68V1732H981.68V1733ZM983.679 1733H982.679V1732H983.679V1733ZM985.678 1733H984.678V1732H985.678V1733ZM987.677 1733H986.677V1732H987.677V1733ZM989.676 1733H988.677V1732H989.676V1733ZM991.675 1733H990.676V1732H991.675V1733ZM993.674 1733H992.675V1732H993.674V1733ZM995.674 1733H994.674V1732H995.674V1733ZM997.673 1733H996.673V1732H997.673V1733ZM999.672 1733H998.672V1732H999.672V1733ZM1001.67 1733H1000.67V1732H1001.67V1733ZM1003.67 1733H1002.67V1732H1003.67V1733ZM1005.67 1733H1004.67V1732H1005.67V1733ZM1007.67 1733H1006.67V1732H1007.67V1733ZM1009.67 1733H1008.67V1732H1009.67V1733ZM1011.67 1733H1010.67V1732H1011.67V1733ZM1013.67 1733H1012.67V1732H1013.67V1733ZM1015.67 1733H1014.67V1732H1015.67V1733ZM1017.66 1733H1016.66V1732H1017.66V1733ZM1019.66 1733H1018.66V1732H1019.66V1733ZM1021.66 1733H1020.66V1732H1021.66V1733ZM1023.66 1733H1022.66V1732H1023.66V1733ZM1025.66 1733H1024.66V1732H1025.66V1733ZM1027.66 1733H1026.66V1732H1027.66V1733ZM1029.66 1733H1028.66V1732H1029.66V1733ZM1031.66 1733H1030.66V1732H1031.66V1733ZM1033.66 1733H1032.66V1732H1033.66V1733ZM1035.66 1733H1034.66V1732H1035.66V1733ZM1037.66 1733H1036.66V1732H1037.66V1733ZM1039.65 1733H1038.66V1732H1039.65V1733ZM1041.65 1733H1040.65V1732H1041.65V1733ZM1043.65 1733H1042.65V1732H1043.65V1733ZM1045.65 1733H1044.65V1732H1045.65V1733ZM1047.65 1733H1046.65V1732H1047.65V1733ZM1049.65 1733H1048.65V1732H1049.65V1733ZM1051.65 1733H1050.65V1732H1051.65V1733ZM1053.65 1733H1052.65V1732H1053.65V1733ZM1055.65 1733H1054.65V1732H1055.65V1733ZM1057.65 1733H1056.65V1732H1057.65V1733ZM1059.65 1733H1058.65V1732H1059.65V1733ZM1061.65 1733H1060.65V1732H1061.65V1733ZM1063.64 1733H1062.64V1732H1063.64V1733ZM1065.64 1733H1064.64V1732H1065.64V1733ZM1067.64 1733H1066.64V1732H1067.64V1733ZM1069.64 1733H1068.64V1732H1069.64V1733ZM1071.64 1733H1070.64V1732H1071.64V1733ZM1073.64 1733H1072.64V1732H1073.64V1733ZM1075.64 1733H1074.64V1732H1075.64V1733ZM1077.64 1733H1076.64V1732H1077.64V1733ZM1079.64 1733H1078.64V1732H1079.64V1733ZM1081.64 1733H1080.64V1732H1081.64V1733ZM1083.64 1733H1082.64V1732H1083.64V1733ZM1085.64 1733H1084.64V1732H1085.64V1733ZM1087.63 1733H1086.63V1732H1087.63V1733ZM1089.63 1733H1088.63V1732H1089.63V1733ZM1091.63 1733H1090.63V1732H1091.63V1733ZM1093.63 1733H1092.63V1732H1093.63V1733ZM1095.63 1733H1094.63V1732H1095.63V1733ZM1097.63 1733H1096.63V1732H1097.63V1733ZM1099.63 1733H1098.63V1732H1099.63V1733ZM1101.63 1733H1100.63V1732H1101.63V1733ZM1103.63 1733H1102.63V1732H1103.63V1733ZM1105.63 1733H1104.63V1732H1105.63V1733ZM1107.63 1733H1106.63V1732H1107.63V1733ZM1109.62 1733H1108.63V1732H1109.62V1733ZM1111.62 1733H1110.62V1732H1111.62V1733ZM1113.62 1733H1112.62V1732H1113.62V1733ZM1115.62 1733H1114.62V1732H1115.62V1733ZM1117.62 1733H1116.62V1732H1117.62V1733ZM1119.62 1733H1118.62V1732H1119.62V1733ZM1121.62 1733H1120.62V1732H1121.62V1733ZM1123.62 1733H1122.62V1732H1123.62V1733ZM1125.62 1733H1124.62V1732H1125.62V1733ZM1127.62 1733H1126.62V1732H1127.62V1733ZM1129.62 1733H1128.62V1732H1129.62V1733ZM1131.62 1733H1130.62V1732H1131.62V1733ZM1133.61 1733H1132.62V1732H1133.61V1733ZM1135.61 1733H1134.61V1732H1135.61V1733ZM1137.61 1733H1136.61V1732H1137.61V1733ZM1139.61 1733H1138.61V1732H1139.61V1733ZM1141.61 1733H1140.61V1732H1141.61V1733ZM1143.61 1733H1142.61V1732H1143.61V1733ZM1145.61 1733H1144.61V1732H1145.61V1733ZM1147.61 1733H1146.61V1732H1147.61V1733ZM1149.61 1733H1148.61V1732H1149.61V1733ZM1151.61 1733H1150.61V1732H1151.61V1733ZM1153.61 1733H1152.61V1732H1153.61V1733ZM1155.61 1733H1154.61V1732H1155.61V1733ZM1157.6 1733H1156.6V1732H1157.6V1733ZM1159.6 1733H1158.6V1732H1159.6V1733ZM1161.6 1733H1160.6V1732H1161.6V1733ZM1163.6 1733H1162.6V1732H1163.6V1733ZM1165.6 1733H1164.6V1732H1165.6V1733ZM1167.6 1733H1166.6V1732H1167.6V1733ZM1169.6 1733H1168.6V1732H1169.6V1733ZM1171.6 1733H1170.6V1732H1171.6V1733ZM1173.6 1733H1172.6V1732H1173.6V1733ZM1175.6 1733H1174.6V1732H1175.6V1733ZM1177.6 1733H1176.6V1732H1177.6V1733ZM1179.59 1733H1178.6V1732H1179.59V1733ZM1181.59 1733H1180.59V1732H1181.59V1733ZM1183.59 1733H1182.59V1732H1183.59V1733ZM1185.59 1733H1184.59V1732H1185.59V1733ZM1187.59 1733H1186.59V1732H1187.59V1733ZM1189.59 1733H1188.59V1732H1189.59V1733ZM1191.59 1733H1190.59V1732H1191.59V1733ZM1193.59 1733H1192.59V1732H1193.59V1733ZM1195.59 1733H1194.59V1732H1195.59V1733ZM1197.59 1733H1196.59V1732H1197.59V1733ZM1199.59 1733H1198.59V1732H1199.59V1733ZM1201.59 1733H1200.59V1732H1201.59V1733ZM1203.58 1733H1202.59V1732H1203.58V1733ZM1205.58 1733H1204.58V1732H1205.58V1733ZM1207.58 1733H1206.58V1732H1207.58V1733ZM1209.58 1733H1208.58V1732H1209.58V1733ZM1211.58 1733H1210.58V1732H1211.58V1733ZM1213.58 1733H1212.58V1732H1213.58V1733ZM1215.58 1733H1214.58V1732H1215.58V1733ZM1217.58 1733H1216.58V1732H1217.58V1733ZM1219.58 1733H1218.58V1732H1219.58V1733ZM1221.58 1733H1220.58V1732H1221.58V1733ZM1223.58 1733H1222.58V1732H1223.58V1733ZM1225.58 1733H1224.58V1732H1225.58V1733ZM1227.57 1733H1226.57V1732H1227.57V1733ZM1229.57 1733H1228.57V1732H1229.57V1733ZM1231.57 1733H1230.57V1732H1231.57V1733ZM1233.57 1733H1232.57V1732H1233.57V1733ZM1235.57 1733H1234.57V1732H1235.57V1733ZM1237.57 1733H1236.57V1732H1237.57V1733ZM1239.57 1733H1238.57V1732H1239.57V1733ZM1241.57 1733H1240.57V1732H1241.57V1733ZM1243.57 1733H1242.57V1732H1243.57V1733ZM1245.57 1733H1244.57V1732H1245.57V1733ZM1247.57 1733H1246.57V1732H1247.57V1733ZM1249.57 1733H1248.57V1732H1249.57V1733ZM1251.56 1733H1250.56V1732H1251.56V1733ZM1253.56 1733H1252.56V1732H1253.56V1733ZM1255.56 1733H1254.56V1732H1255.56V1733ZM1257.56 1733H1256.56V1732H1257.56V1733ZM1259.56 1733H1258.56V1732H1259.56V1733ZM1261.56 1733H1260.56V1732H1261.56V1733ZM1263.56 1733H1262.56V1732H1263.56V1733ZM1265.56 1733H1264.56V1732H1265.56V1733ZM1267.56 1733H1266.56V1732H1267.56V1733ZM1269.56 1733H1268.56V1732H1269.56V1733ZM1271.56 1733H1270.56V1732H1271.56V1733ZM1273.56 1733H1272.56V1732H1273.56V1733ZM1275.56 1733H1274.56V1732H1275.56V1733ZM1277.55 1733H1276.55V1732H1277.55V1733ZM1279.55 1733H1278.55V1732H1279.55V1733ZM1281.55 1733H1280.55V1732H1281.55V1733ZM1283.55 1733H1282.55V1732H1283.55V1733ZM1285.55 1733H1284.55V1732H1285.55V1733ZM1287.55 1733H1286.55V1732H1287.55V1733ZM1289.55 1733H1288.55V1732H1289.55V1733ZM1291.55 1733H1290.55V1732H1291.55V1733ZM1293.55 1733H1292.55V1732H1293.55V1733ZM1295.55 1733H1294.55V1732H1295.55V1733ZM1297.55 1733H1296.55V1732H1297.55V1733ZM1299.55 1733H1298.55V1732H1299.55V1733ZM1301.55 1733H1300.55V1732H1301.55V1733ZM1303.54 1733H1302.55V1732H1303.54V1733ZM1305.54 1733H1304.54V1732H1305.54V1733ZM1307.54 1733H1306.54V1732H1307.54V1733ZM1309.54 1733H1308.54V1732H1309.54V1733ZM1311.54 1733H1310.54V1732H1311.54V1733ZM1313.54 1733H1312.54V1732H1313.54V1733ZM1315.54 1733H1314.54V1732H1315.54V1733ZM1317.54 1733H1316.54V1732H1317.54V1733ZM1319.54 1733H1318.54V1732H1319.54V1733ZM1321.54 1733H1320.54V1732H1321.54V1733ZM1323.54 1733H1322.54V1732H1323.54V1733ZM1325.54 1733H1324.54V1732H1325.54V1733ZM1327.54 1733H1326.54V1732H1327.54V1733ZM1329.54 1733H1328.54V1732H1329.54V1733ZM1331.53 1733H1330.54V1732H1331.53V1733ZM1333.53 1733H1332.53V1732H1333.53V1733ZM1335.53 1733H1334.53V1732H1335.53V1733ZM1337.53 1733H1336.53V1732H1337.53V1733ZM1339.53 1733H1338.53V1732H1339.53V1733ZM1341.53 1733H1340.53V1732H1341.53V1733ZM1343.53 1733H1342.53V1732H1343.53V1733ZM1345.53 1733H1344.53V1732H1345.53V1733ZM1347.53 1733H1346.53V1732H1347.53V1733ZM1349.53 1733H1348.53V1732H1349.53V1733ZM1351.53 1733H1350.53V1732H1351.53V1733ZM1353.53 1733H1352.53V1732H1353.53V1733ZM1355.53 1733H1354.53V1732H1355.53V1733ZM1357.53 1733H1356.53V1732H1357.53V1733ZM1359.52 1733H1358.52V1732H1359.52V1733ZM1361.52 1733H1360.52V1732H1361.52V1733ZM1363.52 1733H1362.52V1732H1363.52V1733ZM1365.52 1733H1364.52V1732H1365.52V1733ZM1367.52 1733H1366.52V1732H1367.52V1733ZM1369.52 1733H1368.52V1732H1369.52V1733ZM1371.52 1733H1370.52V1732H1371.52V1733ZM1373.52 1733H1372.52V1732H1373.52V1733ZM1375.52 1733H1374.52V1732H1375.52V1733ZM1377.52 1733H1376.52V1732H1377.52V1733ZM1379.52 1733H1378.52V1732H1379.52V1733ZM1381.52 1733H1380.52V1732H1381.52V1733ZM1383.52 1733H1382.52V1732H1383.52V1733ZM1385.51 1733H1384.52V1732H1385.51V1733ZM1387.51 1733H1386.51V1732H1387.51V1733ZM1389.51 1733H1388.51V1732H1389.51V1733ZM1391.51 1733H1390.51V1732H1391.51V1733ZM1393.51 1733H1392.51V1732H1393.51V1733ZM1395.51 1733H1394.51V1732H1395.51V1733ZM1397.51 1733H1396.51V1732H1397.51V1733ZM1399.51 1733H1398.51V1732H1399.51V1733ZM1401.51 1733H1400.51V1732H1401.51V1733ZM1403.51 1733H1402.51V1732H1403.51V1733ZM1405.51 1733H1404.51V1732H1405.51V1733ZM1407.51 1733H1406.51V1732H1407.51V1733ZM1409 1733H1408.51V1732H1409V1733Z" fill="black"/>
<path fill-rule="evenodd" clip-rule="evenodd" d="M1410 1238L230 1238V1237L1410 1237V1238Z" fill="black"/>
<path fill-rule="evenodd" clip-rule="evenodd" d="M1410 990L230 990V989L1410 989V990Z" fill="black"/>
<path fill-rule="evenodd" clip-rule="evenodd" d="M1410 743L230 743V742L1410 742V743Z" fill="black"/>
<path fill-rule="evenodd" clip-rule="evenodd" d="M1410 496L230 496V495L1410 495V496Z" fill="black"/>
<path fill-rule="evenodd" clip-rule="evenodd" d="M1410 248L230 248V247L1410 247V248Z" fill="black"/>
<path d="M100.721 1094.7C100.721 1096.09 100.241 1097.29 99.2805 1098.3C98.3205 1099.26 97.1685 1099.74 95.8245 1099.74C94.4325 1099.74 93.2565 1099.26 92.2965 1098.3C91.3365 1097.29 90.8565 1096.09 90.8565 1094.7C90.8565 1093.3 91.3365 1092.13 92.2965 1091.17C93.2565 1090.16 94.4325 1089.66 95.8245 1089.66C97.1685 1089.66 98.3205 1090.16 99.2805 1091.17C100.241 1092.13 100.721 1093.3 100.721 1094.7ZM74.0085 1094.7C74.0085 1096.09 73.5285 1097.29 72.5685 1098.3C71.6085 1099.26 70.4565 1099.74 69.1125 1099.74C67.7205 1099.74 66.5445 1099.26 65.5845 1098.3C64.6245 1097.29 64.1445 1096.09 64.1445 1094.7C64.1445 1093.3 64.6245 1092.13 65.5845 1091.17C66.5445 1090.16 67.7205 1089.66 69.1125 1089.66C70.4565 1089.66 71.6085 1090.16 72.5685 1091.17C73.5285 1092.13 74.0085 1093.3 74.0085 1094.7Z" fill="black"/>
<path d="M48.1602 1138.46L48.1602 1130.54L81.0642 1130.54L62.5602 1114.27L62.5602 1106.2L77.6802 1120.03L100 1104.55L100 1113.4L83.0082 1124.92L89.1282 1130.54L100 1130.54L100 1138.46L48.1602 1138.46Z" fill="black"/>
<path d="M101.08 1163.35C101.08 1166.85 100.312 1169.95 98.7765 1172.63C97.1925 1175.27 94.9365 1177.34 92.0085 1178.83C89.0805 1180.31 85.6485 1181.06 81.7125 1181.06C77.9205 1181.06 74.4885 1180.34 71.4165 1178.9C68.3445 1177.41 65.9205 1175.35 64.1445 1172.71C62.3685 1170.07 61.4805 1167.04 61.4805 1163.63C61.4805 1159.99 62.3685 1156.87 64.1445 1154.27C65.9205 1151.63 68.3685 1149.67 71.4885 1148.37C74.6085 1147.07 78.1365 1146.52 82.0725 1146.71L82.0725 1173.14C86.3925 1172.95 89.7045 1171.84 92.0085 1169.83C94.2645 1167.81 95.3925 1165.34 95.3925 1162.41C95.3925 1160.06 94.8165 1158.11 93.6645 1156.58C92.4645 1155.04 90.8085 1153.87 88.6965 1153.05L88.6965 1147C93.0165 1148.2 96.1605 1150.27 98.1285 1153.19C100.096 1156.12 101.08 1159.51 101.08 1163.35ZM77.3205 1154.85C73.8645 1155.09 71.2005 1156.03 69.3285 1157.66C67.4565 1159.24 66.5205 1161.33 66.5205 1163.92C66.5205 1166.42 67.4805 1168.48 69.4005 1170.11C71.2725 1171.7 73.9125 1172.68 77.3205 1173.07L77.3205 1154.85Z" fill="black"/>
<path d="M101.08 1203.42C101.08 1206.93 100.312 1210.02 98.7765 1212.71C97.1925 1215.35 94.9365 1217.42 92.0085 1218.9C89.0805 1220.39 85.6485 1221.14 81.7125 1221.14C77.9205 1221.14 74.4885 1220.42 71.4165 1218.98C68.3445 1217.49 65.9205 1215.42 64.1445 1212.78C62.3685 1210.14 61.4805 1207.12 61.4805 1203.71C61.4805 1200.06 62.3685 1196.94 64.1445 1194.35C65.9205 1191.71 68.3685 1189.74 71.4885 1188.45C74.6085 1187.15 78.1365 1186.6 82.0725 1186.79L82.0725 1213.22C86.3925 1213.02 89.7045 1211.92 92.0085 1209.9C94.2645 1207.89 95.3925 1205.42 95.3925 1202.49C95.3925 1200.14 94.8165 1198.19 93.6645 1196.66C92.4645 1195.12 90.8085 1193.94 88.6965 1193.13L88.6965 1187.08C93.0165 1188.28 96.1605 1190.34 98.1285 1193.27C100.096 1196.2 101.08 1199.58 101.08 1203.42ZM77.3205 1194.93C73.8645 1195.17 71.2005 1196.1 69.3285 1197.74C67.4565 1199.32 66.5205 1201.41 66.5205 1204C66.5205 1206.5 67.4805 1208.56 69.4005 1210.19C71.2725 1211.78 73.9125 1212.76 77.3205 1213.14L77.3205 1194.93Z" fill="black"/>
<path d="M50.3203 1289.54L50.3203 1281.04L94.0243 1270.67L50.3203 1260.52L50.3203 1251.59L94.0963 1241.15L50.3203 1230.86L50.3203 1223.73L100 1236.33L100 1247.13L60.2563 1256.63L100 1266.07L100 1277.08L50.3203 1289.54Z" fill="black"/>
<path d="M200.241 1654.54C200.241 1655.01 200.081 1655.41 199.761 1655.74C199.441 1656.06 199.057 1656.22 198.609 1656.22C198.145 1656.22 197.753 1656.06 197.433 1655.74C197.113 1655.41 196.953 1655.01 196.953 1654.54C196.953 1654.08 197.113 1653.69 197.433 1653.37C197.753 1653.03 198.145 1652.86 198.609 1652.86C199.057 1652.86 199.441 1653.03 199.761 1653.37C200.081 1653.69 200.241 1654.08 200.241 1654.54ZM191.337 1654.54C191.337 1655.01 191.177 1655.41 190.857 1655.74C190.537 1656.06 190.153 1656.22 189.705 1656.22C189.241 1656.22 188.849 1656.06 188.529 1655.74C188.209 1655.41 188.049 1655.01 188.049 1654.54C188.049 1654.08 188.209 1653.69 188.529 1653.37C188.849 1653.03 189.241 1652.86 189.705 1652.86C190.153 1652.86 190.537 1653.03 190.857 1653.37C191.177 1653.69 191.337 1654.08 191.337 1654.54Z" fill="black"/>
<path d="M183.44 1671.63L183.44 1664.11C183.44 1663.14 183.64 1662.26 184.04 1661.47C184.424 1660.69 184.96 1660.07 185.648 1659.63C186.336 1659.18 187.104 1658.95 187.952 1658.95C189.056 1658.95 190 1659.33 190.784 1660.08C191.568 1660.83 192.04 1661.83 192.2 1663.06C192.328 1662.43 192.6 1661.91 193.016 1661.5C193.416 1661.08 193.88 1660.75 194.408 1660.49C194.936 1660.22 195.64 1659.92 196.52 1659.6L200 1658.33L200 1661.35L196.976 1662.29C195.968 1662.59 195.208 1662.88 194.696 1663.15C194.168 1663.41 193.776 1663.75 193.52 1664.19C193.248 1664.6 193.112 1665.18 193.112 1665.91L193.112 1668.91L200 1668.91L200 1671.63L183.44 1671.63ZM191.144 1664.81C191.144 1663.96 190.904 1663.23 190.424 1662.63C189.928 1662.02 189.216 1661.71 188.288 1661.71C187.344 1661.71 186.632 1662.01 186.152 1662.6C185.656 1663.18 185.408 1663.91 185.408 1664.79L185.408 1668.91L191.144 1668.91L191.144 1664.81Z" fill="black"/>
<path d="M183.44 1685.8L183.44 1674.93L185.432 1674.93L185.432 1683.06L190.424 1683.06L190.424 1675.53L192.416 1675.53L192.416 1683.06L198.008 1683.06L198.008 1674.69L200 1674.69L200 1685.8L183.44 1685.8Z" fill="black"/>
<path d="M183.44 1701.47L183.44 1694.15C183.44 1693.18 183.616 1692.32 183.968 1691.59C184.304 1690.85 184.784 1690.28 185.408 1689.88C186.016 1689.48 186.696 1689.28 187.448 1689.28C188.36 1689.28 189.136 1689.58 189.776 1690.17C190.4 1690.75 190.808 1691.51 191 1692.47C191.256 1691.31 191.76 1690.39 192.512 1689.71C193.264 1689.04 194.2 1688.71 195.32 1688.71C196.2 1688.71 197 1688.92 197.72 1689.35C198.424 1689.77 198.984 1690.39 199.4 1691.2C199.8 1692 200 1692.94 200 1694.01L200 1701.47L183.44 1701.47ZM198.104 1694.66C198.104 1693.68 197.848 1692.91 197.336 1692.33C196.824 1691.75 196.08 1691.47 195.104 1691.47C194.224 1691.47 193.536 1691.78 193.04 1692.4C192.528 1693.01 192.272 1693.78 192.272 1694.71L192.272 1698.83L198.104 1698.83L198.104 1694.66ZM190.352 1694.85C190.352 1694.03 190.144 1693.36 189.728 1692.83C189.296 1692.29 188.672 1692.02 187.856 1692.02C187.024 1692.02 186.4 1692.27 185.984 1692.79C185.552 1693.3 185.336 1693.99 185.336 1694.85L185.336 1698.83L190.352 1698.83L190.352 1694.85Z" fill="black"/>
<path d="M183.44 1722.45L183.44 1718.41L196.328 1713.95L183.44 1709.49L183.44 1705.31L200 1705.31L200 1708.05L185.552 1708.05L200 1712.99L200 1715.27L185.624 1720.21L200 1720.21L200 1722.45L183.44 1722.45Z" fill="black"/>
<path d="M200.36 1732.83C200.36 1734.22 200.096 1735.42 199.568 1736.43C199.04 1737.44 198.304 1738.21 197.36 1738.74C196.416 1739.25 195.328 1739.5 194.096 1739.5L183.44 1739.5L183.44 1736.77L194.096 1736.77C195.376 1736.77 196.416 1736.44 197.216 1735.78C198 1735.13 198.392 1734.14 198.392 1732.83C198.392 1731.52 198 1730.54 197.216 1729.9C196.416 1729.25 195.376 1728.92 194.096 1728.92L183.44 1728.92L183.44 1726.18L194.096 1726.18C195.328 1726.18 196.416 1726.45 197.36 1726.98C198.304 1727.49 199.04 1728.25 199.568 1729.26C200.096 1730.25 200.36 1731.44 200.36 1732.83Z" fill="black"/>
<path d="M183.44 1757.03L183.44 1753.12L197.624 1745.51L183.44 1745.51L183.44 1743.25L200 1743.25L200 1747.12L185.696 1754.8L200 1754.8L200 1757.03L183.44 1757.03Z" fill="black"/>
<path d="M183.44 1777.64L183.44 1774.91L192.368 1774.91L183.44 1767.2L183.44 1764.32L189.92 1770.2L200 1763.84L200 1767.11L191.96 1772.07L195.128 1774.91L200 1774.91L200 1777.64L183.44 1777.64Z" fill="black"/>
<path d="M183.44 1791.82L183.44 1780.94L185.432 1780.94L185.432 1789.08L190.424 1789.08L190.424 1781.54L192.416 1781.54L192.416 1789.08L198.008 1789.08L198.008 1780.7L200 1780.7L200 1791.82L183.44 1791.82Z" fill="black"/>
<path d="M183.44 1805.99L183.44 1795.12L185.432 1795.12L185.432 1803.25L190.424 1803.25L190.424 1795.72L192.416 1795.72L192.416 1803.25L198.008 1803.25L198.008 1794.88L200 1794.88L200 1805.99L183.44 1805.99Z" fill="black"/>
<path d="M183.44 1830.87L183.44 1828.04L198.008 1824.58L183.44 1821.2L183.44 1818.22L198.032 1814.74L183.44 1811.31L183.44 1808.94L200 1813.14L200 1816.74L186.752 1819.9L200 1823.05L200 1826.72L183.44 1830.87Z" fill="black"/>
<path d="M265.44 1788.45L265.44 1777.57L267.432 1777.57L267.432 1785.71L272.424 1785.71L272.424 1778.17L274.416 1778.17L274.416 1785.71L280.008 1785.71L280.008 1777.33L282 1777.33L282 1788.45L265.44 1788.45Z" fill="black"/>
<path d="M265.44 1809.42L265.44 1805.38L278.328 1800.92L265.44 1796.46L265.44 1792.28L282 1792.28L282 1795.02L267.552 1795.02L282 1799.96L282 1802.24L267.624 1807.18L282 1807.18L282 1809.42L265.44 1809.42Z" fill="black"/>
<path d="M265.44 1815.97L265.44 1813.24L282 1813.24L282 1815.97L265.44 1815.97Z" fill="black"/>
<path d="M267.432 1826.24L267.432 1831.28L265.44 1831.28L265.44 1818.49L267.432 1818.49L267.432 1823.5L282 1823.5L282 1826.24L267.432 1826.24Z" fill="black"/>
<path d="M289.92 1314.96C289.92 1315.69 289.835 1316.36 289.664 1316.98L287.04 1316.98C287.19 1316.45 287.264 1315.88 287.264 1315.28C287.264 1314.41 287.04 1313.66 286.592 1313.04C286.144 1312.4 285.419 1311.81 284.416 1311.25L267.36 1318.03L267.36 1314.13L280.224 1309.43L267.36 1304.88L267.36 1301.84L282.976 1307.79C284.598 1308.41 285.899 1309.03 286.88 1309.65C287.883 1310.27 288.64 1311.01 289.152 1311.86C289.664 1312.71 289.92 1313.75 289.92 1314.96Z" fill="black"/>
<path d="M284.384 1329.3C284.384 1330.75 284.021 1331.98 283.296 1332.98C282.57 1333.96 281.493 1334.45 280.064 1334.45C277.546 1334.45 275.85 1332.56 274.976 1328.79C274.698 1327.55 274.442 1326.6 274.208 1325.94C273.973 1325.28 273.696 1324.81 273.376 1324.53C273.034 1324.23 272.608 1324.08 272.096 1324.08C271.328 1324.08 270.666 1324.38 270.112 1324.98C269.536 1325.55 269.248 1326.4 269.248 1327.51C269.248 1328.47 269.504 1329.28 270.016 1329.94C270.506 1330.6 271.2 1331.05 272.096 1331.28L272.096 1334.1C270.474 1333.78 269.194 1333 268.256 1331.76C267.317 1330.52 266.848 1329.04 266.848 1327.31C266.848 1325.12 267.413 1323.45 268.544 1322.32C269.674 1321.19 271.157 1320.63 272.992 1320.63L280.192 1320.63C280.96 1320.63 281.493 1320.49 281.792 1320.21C282.069 1319.91 282.186 1319.5 282.144 1318.96L283.936 1318.96C284.106 1319.41 284.192 1319.91 284.192 1320.47C284.192 1322.62 283.157 1323.74 281.088 1323.83C281.941 1324.21 282.709 1324.87 283.392 1325.81C284.053 1326.73 284.384 1327.89 284.384 1329.3ZM279.776 1330.9C280.437 1330.9 280.97 1330.65 281.376 1330.16C281.76 1329.67 281.952 1329 281.952 1328.15C281.952 1326.99 281.568 1326.03 280.8 1325.27C280.032 1324.5 278.912 1324.11 277.44 1324.11L274.848 1324.11C275.317 1324.37 275.712 1324.79 276.032 1325.36C276.33 1325.92 276.597 1326.61 276.832 1327.44C277.194 1328.72 277.61 1329.62 278.08 1330.13C278.528 1330.64 279.093 1330.9 279.776 1330.9Z" fill="black"/>
<path d="M284.48 1346.99C284.48 1349.05 283.701 1350.69 282.144 1351.88C280.587 1353.05 278.453 1353.64 275.744 1353.64C273.952 1353.64 272.395 1353.36 271.072 1352.81C269.728 1352.25 268.693 1351.47 267.968 1350.44C267.243 1349.4 266.88 1348.19 266.88 1346.83C266.88 1345.72 267.157 1344.73 267.712 1343.88C268.267 1343.03 269.067 1342.33 270.112 1341.8L260.96 1341.8L260.96 1338.28L284 1338.28L284 1341.64L280.96 1341.64C282.091 1342.17 282.965 1342.9 283.584 1343.82C284.181 1344.73 284.48 1345.79 284.48 1346.99ZM275.616 1349.96C277.685 1349.96 279.285 1349.61 280.416 1348.91C281.547 1348.18 282.112 1347.17 282.112 1345.87C282.112 1344.56 281.557 1343.54 280.448 1342.79C279.339 1342.05 277.781 1341.67 275.776 1341.67C273.749 1341.67 272.16 1342.07 271.008 1342.86C269.835 1343.63 269.248 1344.66 269.248 1345.96C269.248 1347.24 269.803 1348.23 270.912 1348.94C272 1349.62 273.568 1349.96 275.616 1349.96Z" fill="black"/>
<path d="M267.36 1371.58L267.36 1368.06L270.848 1368.06C269.738 1367.64 268.821 1366.92 268.096 1365.92C267.349 1364.9 266.976 1363.73 266.976 1362.43C266.976 1360.81 267.466 1359.54 268.448 1358.62C269.408 1357.71 270.805 1357.25 272.64 1357.25L284 1357.25L284 1360.77L273.472 1360.77C270.869 1360.77 269.568 1361.76 269.568 1363.74C269.568 1364.49 269.792 1365.19 270.24 1365.86C270.688 1366.52 271.349 1367.05 272.224 1367.46C273.077 1367.86 274.09 1368.06 275.264 1368.06L284 1368.06L284 1371.58L267.36 1371.58Z" fill="black"/>
<path d="M284.48 1383.21C284.48 1384.79 284.128 1386.17 283.424 1387.37C282.699 1388.56 281.675 1389.49 280.352 1390.15C279.029 1390.79 277.493 1391.11 275.744 1391.11C273.995 1391.11 272.448 1390.79 271.104 1390.15C269.76 1389.49 268.725 1388.56 268 1387.37C267.253 1386.17 266.88 1384.79 266.88 1383.21C266.88 1381.63 267.243 1380.24 267.968 1379.05C268.693 1377.85 269.717 1376.92 271.04 1376.26C272.363 1375.6 273.899 1375.27 275.648 1375.27C277.397 1375.27 278.944 1375.6 280.288 1376.26C281.611 1376.92 282.645 1377.85 283.392 1379.05C284.117 1380.24 284.48 1381.63 284.48 1383.21ZM275.584 1387.43C277.632 1387.43 279.253 1387.06 280.448 1386.31C281.621 1385.54 282.208 1384.5 282.208 1383.17C282.208 1381.87 281.653 1380.85 280.544 1380.1C279.413 1379.33 277.835 1378.95 275.808 1378.95C273.739 1378.95 272.117 1379.33 270.944 1380.1C269.749 1380.87 269.152 1381.92 269.152 1383.24C269.152 1384.56 269.717 1385.6 270.848 1386.34C271.979 1387.07 273.557 1387.43 275.584 1387.43Z" fill="black"/>
<path d="M261.92 1417.95L261.92 1412.58L279.104 1406.62L261.92 1400.67L261.92 1395.1L284 1395.1L284 1398.75L264.736 1398.75L284 1405.34L284 1408.38L264.832 1414.98L284 1414.98L284 1417.95L261.92 1417.95Z" fill="black"/>
<path d="M289.92 1565.92C289.92 1566.64 289.835 1567.31 289.664 1567.93L287.04 1567.93C287.19 1567.4 287.264 1566.83 287.264 1566.24C287.264 1565.36 287.04 1564.61 286.592 1564C286.144 1563.36 285.419 1562.76 284.416 1562.2L267.36 1568.99L267.36 1565.08L280.224 1560.38L267.36 1555.84L267.36 1552.8L282.976 1558.75C284.598 1559.37 285.899 1559.99 286.88 1560.6C287.883 1561.22 288.64 1561.96 289.152 1562.81C289.664 1563.67 289.92 1564.7 289.92 1565.92Z" fill="black"/>
<path d="M284.384 1580.25C284.384 1581.7 284.021 1582.93 283.296 1583.93C282.57 1584.91 281.493 1585.4 280.064 1585.4C277.546 1585.4 275.85 1583.52 274.976 1579.74C274.698 1578.5 274.442 1577.55 274.208 1576.89C273.973 1576.23 273.696 1575.76 273.376 1575.48C273.034 1575.18 272.608 1575.04 272.096 1575.04C271.328 1575.04 270.666 1575.33 270.112 1575.93C269.536 1576.51 269.248 1577.35 269.248 1578.46C269.248 1579.42 269.504 1580.23 270.016 1580.89C270.506 1581.55 271.2 1582 272.096 1582.24L272.096 1585.05C270.474 1584.73 269.194 1583.95 268.256 1582.72C267.317 1581.48 266.848 1580 266.848 1578.27C266.848 1576.07 267.413 1574.41 268.544 1573.28C269.674 1572.14 271.157 1571.58 272.992 1571.58L280.192 1571.58C280.96 1571.58 281.493 1571.44 281.792 1571.16C282.069 1570.86 282.186 1570.45 282.144 1569.92L283.936 1569.92C284.106 1570.36 284.192 1570.86 284.192 1571.42C284.192 1573.57 283.157 1574.69 281.088 1574.78C281.941 1575.16 282.709 1575.82 283.392 1576.76C284.053 1577.68 284.384 1578.84 284.384 1580.25ZM279.776 1581.85C280.437 1581.85 280.97 1581.61 281.376 1581.12C281.76 1580.62 281.952 1579.95 281.952 1579.1C281.952 1577.95 281.568 1576.99 280.8 1576.22C280.032 1575.45 278.912 1575.07 277.44 1575.07L274.848 1575.07C275.317 1575.32 275.712 1575.74 276.032 1576.32C276.33 1576.87 276.597 1577.56 276.832 1578.4C277.194 1579.68 277.61 1580.57 278.08 1581.08C278.528 1581.6 279.093 1581.85 279.776 1581.85Z" fill="black"/>
<path d="M284.48 1597.94C284.48 1600.01 283.701 1601.64 282.144 1602.83C280.587 1604.01 278.453 1604.59 275.744 1604.59C273.952 1604.59 272.395 1604.32 271.072 1603.76C269.728 1603.21 268.693 1602.42 267.968 1601.39C267.243 1600.35 266.88 1599.14 266.88 1597.78C266.88 1596.67 267.157 1595.69 267.712 1594.83C268.267 1593.98 269.067 1593.29 270.112 1592.75L260.96 1592.75L260.96 1589.23L284 1589.23L284 1592.59L280.96 1592.59C282.091 1593.13 282.965 1593.85 283.584 1594.77C284.181 1595.69 284.48 1596.74 284.48 1597.94ZM275.616 1600.91C277.685 1600.91 279.285 1600.56 280.416 1599.86C281.547 1599.13 282.112 1598.12 282.112 1596.82C282.112 1595.52 281.557 1594.49 280.448 1593.75C279.339 1593 277.781 1592.63 275.776 1592.63C273.749 1592.63 272.16 1593.02 271.008 1593.81C269.835 1594.58 269.248 1595.61 269.248 1596.91C269.248 1598.19 269.803 1599.19 270.912 1599.89C272 1600.57 273.568 1600.91 275.616 1600.91Z" fill="black"/>
<path d="M267.36 1622.54L267.36 1619.02L270.848 1619.02C269.738 1618.59 268.821 1617.88 268.096 1616.87C267.349 1615.85 266.976 1614.69 266.976 1613.39C266.976 1611.76 267.466 1610.49 268.448 1609.58C269.408 1608.66 270.805 1608.2 272.64 1608.2L284 1608.2L284 1611.72L273.472 1611.72C270.869 1611.72 269.568 1612.71 269.568 1614.7C269.568 1615.44 269.792 1616.15 270.24 1616.81C270.688 1617.47 271.349 1618 272.224 1618.41C273.077 1618.81 274.09 1619.02 275.264 1619.02L284 1619.02L284 1622.54L267.36 1622.54Z" fill="black"/>
<path d="M284.384 1636.42C284.384 1638.02 283.904 1639.28 282.944 1640.2C281.963 1641.09 280.555 1641.54 278.72 1641.54L267.36 1641.54L267.36 1638.02L277.888 1638.02C279.254 1638.02 280.246 1637.77 280.864 1637.28C281.483 1636.77 281.792 1636.05 281.792 1635.11C281.792 1634.36 281.568 1633.67 281.12 1633.03C280.672 1632.37 280.022 1631.84 279.168 1631.46C278.294 1631.05 277.27 1630.85 276.096 1630.85L267.36 1630.85L267.36 1627.33L284 1627.33L284 1630.85L280.512 1630.85C281.622 1631.3 282.55 1632.02 283.296 1633.03C284.022 1634.01 284.384 1635.14 284.384 1636.42Z" fill="black"/>
<path d="M284.512 1653.87C284.512 1655.56 284.235 1657.09 283.68 1658.48C283.104 1659.87 282.24 1661.01 281.088 1661.9C279.936 1662.8 278.507 1663.32 276.8 1663.47L276.8 1660.37C278.422 1660.15 279.68 1659.44 280.576 1658.22C281.472 1657.01 281.92 1655.56 281.92 1653.87C281.92 1652.27 281.579 1651.04 280.896 1650.19C280.214 1649.32 279.296 1648.88 278.144 1648.88C277.099 1648.88 276.31 1649.24 275.776 1649.97C275.243 1650.67 274.838 1651.72 274.56 1653.1L273.984 1655.95C273.536 1658.13 272.832 1659.8 271.872 1660.97C270.891 1662.13 269.558 1662.7 267.872 1662.7C266.72 1662.7 265.654 1662.38 264.672 1661.74C263.691 1661.08 262.912 1660.14 262.336 1658.93C261.739 1657.69 261.44 1656.25 261.44 1654.61C261.44 1652.41 261.952 1650.53 262.976 1648.97C264 1647.42 265.472 1646.39 267.392 1645.9L268.064 1649.33C266.699 1649.67 265.664 1650.33 264.96 1651.31C264.256 1652.27 263.904 1653.44 263.904 1654.83C263.904 1656.2 264.224 1657.26 264.864 1658.03C265.483 1658.8 266.304 1659.18 267.328 1659.18C268.203 1659.18 268.918 1658.86 269.472 1658.22C270.006 1657.56 270.422 1656.51 270.72 1655.05L271.296 1652.3C271.787 1649.89 272.534 1648.13 273.536 1647.02C274.539 1645.89 275.915 1645.33 277.664 1645.33C278.987 1645.33 280.171 1645.68 281.216 1646.38C282.24 1647.09 283.051 1648.09 283.648 1649.39C284.224 1650.67 284.512 1652.16 284.512 1653.87Z" fill="black"/>
<path d="M289.92 1065.09C289.92 1065.81 289.835 1066.49 289.664 1067.1L287.04 1067.1C287.19 1066.57 287.264 1066.01 287.264 1065.41C287.264 1064.53 287.04 1063.79 286.592 1063.17C286.144 1062.53 285.419 1061.93 284.416 1061.38L267.36 1068.16L267.36 1064.26L280.224 1059.55L267.36 1055.01L267.36 1051.97L282.976 1057.92C284.598 1058.54 285.899 1059.16 286.88 1059.78C287.883 1060.39 288.64 1061.13 289.152 1061.98C289.664 1062.84 289.92 1063.87 289.92 1065.09Z" fill="black"/>
<path d="M284.384 1079.42C284.384 1080.87 284.021 1082.1 283.296 1083.1C282.57 1084.08 281.493 1084.58 280.064 1084.58C277.546 1084.58 275.85 1082.69 274.976 1078.91C274.698 1077.67 274.442 1076.72 274.208 1076.06C273.973 1075.4 273.696 1074.93 273.376 1074.66C273.034 1074.36 272.608 1074.21 272.096 1074.21C271.328 1074.21 270.666 1074.51 270.112 1075.1C269.536 1075.68 269.248 1076.52 269.248 1077.63C269.248 1078.59 269.504 1079.4 270.016 1080.06C270.506 1080.72 271.2 1081.17 272.096 1081.41L272.096 1084.22C270.474 1083.9 269.194 1083.12 268.256 1081.89C267.317 1080.65 266.848 1079.17 266.848 1077.44C266.848 1075.24 267.413 1073.58 268.544 1072.45C269.674 1071.32 271.157 1070.75 272.992 1070.75L280.192 1070.75C280.96 1070.75 281.493 1070.61 281.792 1070.34C282.069 1070.04 282.186 1069.62 282.144 1069.09L283.936 1069.09C284.106 1069.54 284.192 1070.04 284.192 1070.59C284.192 1072.75 283.157 1073.87 281.088 1073.95C281.941 1074.34 282.709 1075 283.392 1075.94C284.053 1076.85 284.384 1078.02 284.384 1079.42ZM279.776 1081.02C280.437 1081.02 280.97 1080.78 281.376 1080.29C281.76 1079.8 281.952 1079.12 281.952 1078.27C281.952 1077.12 281.568 1076.16 280.8 1075.39C280.032 1074.62 278.912 1074.24 277.44 1074.24L274.848 1074.24C275.317 1074.5 275.712 1074.91 276.032 1075.49C276.33 1076.04 276.597 1076.74 276.832 1077.57C277.194 1078.85 277.61 1079.74 278.08 1080.26C278.528 1080.77 279.093 1081.02 279.776 1081.02Z" fill="black"/>
<path d="M284.48 1097.11C284.48 1099.18 283.701 1100.81 282.144 1102.01C280.587 1103.18 278.453 1103.77 275.744 1103.77C273.952 1103.77 272.395 1103.49 271.072 1102.93C269.728 1102.38 268.693 1101.59 267.968 1100.57C267.243 1099.52 266.88 1098.32 266.88 1096.95C266.88 1095.84 267.157 1094.86 267.712 1094.01C268.267 1093.15 269.067 1092.46 270.112 1091.93L260.96 1091.93L260.96 1088.41L284 1088.41L284 1091.77L280.96 1091.77C282.091 1092.3 282.965 1093.02 283.584 1093.94C284.181 1094.86 284.48 1095.92 284.48 1097.11ZM275.616 1100.09C277.685 1100.09 279.285 1099.73 280.416 1099.03C281.547 1098.3 282.112 1097.29 282.112 1095.99C282.112 1094.69 281.557 1093.66 280.448 1092.92C279.339 1092.17 277.781 1091.8 275.776 1091.8C273.749 1091.8 272.16 1092.19 271.008 1092.98C269.835 1093.75 269.248 1094.78 269.248 1096.09C269.248 1097.37 269.803 1098.36 270.912 1099.06C272 1099.74 273.568 1100.09 275.616 1100.09Z" fill="black"/>
<path d="M284.48 1112.78C284.48 1114.83 283.989 1116.53 283.008 1117.87C282.005 1119.22 280.587 1119.98 278.752 1120.18L278.752 1117.42C279.84 1117.25 280.693 1116.74 281.312 1115.89C281.909 1115.01 282.208 1113.99 282.208 1112.82C282.208 1111.73 281.984 1110.87 281.536 1110.26C281.067 1109.64 280.437 1109.33 279.648 1109.33C278.944 1109.33 278.411 1109.58 278.048 1110.1C277.664 1110.61 277.365 1111.4 277.152 1112.46L276.736 1114.38C276.352 1116.11 275.787 1117.43 275.04 1118.35C274.293 1119.27 273.259 1119.73 271.936 1119.73C271.04 1119.73 270.208 1119.47 269.44 1118.96C268.651 1118.45 268.032 1117.72 267.584 1116.78C267.115 1115.82 266.88 1114.7 266.88 1113.42C266.88 1111.74 267.264 1110.3 268.032 1109.1C268.8 1107.91 269.888 1107.1 271.296 1106.67L271.904 1109.74C271.008 1110 270.325 1110.46 269.856 1111.12C269.365 1111.78 269.12 1112.59 269.12 1113.55C269.12 1114.49 269.333 1115.24 269.76 1115.79C270.187 1116.32 270.752 1116.59 271.456 1116.59C272.053 1116.59 272.533 1116.36 272.896 1115.89C273.237 1115.4 273.536 1114.58 273.792 1113.42L274.176 1111.63C274.603 1109.75 275.2 1108.37 275.968 1107.47C276.736 1106.58 277.835 1106.13 279.264 1106.13C280.288 1106.13 281.195 1106.42 281.984 1106.99C282.773 1107.55 283.392 1108.34 283.84 1109.36C284.267 1110.36 284.48 1111.5 284.48 1112.78Z" fill="black"/>
<path d="M284.48 1130.02C284.48 1131.58 284.139 1132.95 283.456 1134.15C282.752 1135.32 281.749 1136.24 280.448 1136.9C279.147 1137.56 277.621 1137.89 275.872 1137.89C274.187 1137.89 272.661 1137.57 271.296 1136.93C269.931 1136.27 268.853 1135.35 268.064 1134.18C267.275 1133.01 266.88 1131.66 266.88 1130.15C266.88 1128.53 267.275 1127.14 268.064 1125.99C268.853 1124.81 269.941 1123.94 271.328 1123.36C272.715 1122.79 274.283 1122.54 276.032 1122.63L276.032 1134.37C277.952 1134.29 279.424 1133.8 280.448 1132.9C281.451 1132 281.952 1130.9 281.952 1129.6C281.952 1128.56 281.696 1127.69 281.184 1127.01C280.651 1126.33 279.915 1125.81 278.976 1125.44L278.976 1122.76C280.896 1123.29 282.293 1124.21 283.168 1125.51C284.043 1126.81 284.48 1128.31 284.48 1130.02ZM273.92 1126.24C272.384 1126.35 271.2 1126.77 270.368 1127.49C269.536 1128.2 269.12 1129.12 269.12 1130.28C269.12 1131.38 269.547 1132.3 270.4 1133.03C271.232 1133.73 272.405 1134.17 273.92 1134.34L273.92 1126.24Z" fill="black"/>
<path d="M284.384 1150.65C284.384 1152.25 283.904 1153.51 282.944 1154.43C281.963 1155.33 280.555 1155.77 278.72 1155.77L267.36 1155.77L267.36 1152.25L277.888 1152.25C279.254 1152.25 280.246 1152.01 280.864 1151.52C281.483 1151.01 281.792 1150.28 281.792 1149.34C281.792 1148.6 281.568 1147.9 281.12 1147.26C280.672 1146.6 280.022 1146.08 279.168 1145.69C278.294 1145.29 277.27 1145.09 276.096 1145.09L267.36 1145.09L267.36 1141.57L284 1141.57L284 1145.09L280.512 1145.09C281.622 1145.53 282.55 1146.26 283.296 1147.26C284.022 1148.24 284.384 1149.37 284.384 1150.65Z" fill="black"/>
<path d="M264.576 1167.87L264.576 1174.59L261.92 1174.59L261.92 1157.53L264.576 1157.53L264.576 1164.22L284 1164.22L284 1167.87L264.576 1167.87Z" fill="black"/>
<path d="M289.92 792.01C289.92 792.735 289.835 793.407 289.664 794.026L287.04 794.026C287.19 793.492 287.264 792.927 287.264 792.33C287.264 791.455 287.04 790.708 286.592 790.09C286.144 789.45 285.419 788.852 284.416 788.298L267.36 795.082L267.36 791.178L280.224 786.474L267.36 781.93L267.36 778.89L282.976 784.842C284.598 785.46 285.899 786.079 286.88 786.698C287.883 787.316 288.64 788.052 289.152 788.906C289.664 789.759 289.92 790.794 289.92 792.01Z" fill="black"/>
<path d="M284.384 806.346C284.384 807.796 284.021 809.023 283.296 810.026C282.57 811.007 281.493 811.498 280.064 811.498C277.546 811.498 275.85 809.61 274.976 805.834C274.698 804.596 274.442 803.647 274.208 802.986C273.973 802.324 273.696 801.855 273.376 801.578C273.034 801.279 272.608 801.13 272.096 801.13C271.328 801.13 270.666 801.428 270.112 802.026C269.536 802.602 269.248 803.444 269.248 804.554C269.248 805.514 269.504 806.324 270.016 806.986C270.506 807.647 271.2 808.095 272.096 808.33L272.096 811.146C270.474 810.826 269.194 810.047 268.256 808.81C267.317 807.572 266.848 806.09 266.848 804.362C266.848 802.164 267.413 800.5 268.544 799.37C269.674 798.239 271.157 797.674 272.992 797.674L280.192 797.674C280.96 797.674 281.493 797.535 281.792 797.258C282.069 796.959 282.186 796.543 282.144 796.01L283.936 796.01C284.106 796.458 284.192 796.959 284.192 797.514C284.192 799.668 283.157 800.788 281.088 800.874C281.941 801.258 282.709 801.919 283.392 802.858C284.053 803.775 284.384 804.938 284.384 806.346ZM279.776 807.946C280.437 807.946 280.97 807.7 281.376 807.21C281.76 806.719 281.952 806.047 281.952 805.194C281.952 804.042 281.568 803.082 280.8 802.314C280.032 801.546 278.912 801.162 277.44 801.162L274.848 801.162C275.317 801.418 275.712 801.834 276.032 802.41C276.33 802.964 276.597 803.658 276.832 804.49C277.194 805.77 277.61 806.666 278.08 807.178C278.528 807.69 279.093 807.946 279.776 807.946Z" fill="black"/>
<path d="M284.48 824.032C284.48 826.101 283.701 827.733 282.144 828.928C280.587 830.101 278.453 830.688 275.744 830.688C273.952 830.688 272.395 830.411 271.072 829.856C269.728 829.301 268.693 828.512 267.968 827.488C267.243 826.443 266.88 825.237 266.88 823.872C266.88 822.763 267.157 821.781 267.712 820.928C268.267 820.075 269.067 819.381 270.112 818.848L260.96 818.848L260.96 815.328L284 815.328L284 818.688L280.96 818.688C282.091 819.221 282.965 819.947 283.584 820.864C284.181 821.781 284.48 822.837 284.48 824.032ZM275.616 827.008C277.685 827.008 279.285 826.656 280.416 825.952C281.547 825.227 282.112 824.213 282.112 822.912C282.112 821.611 281.557 820.587 280.448 819.84C279.339 819.093 277.781 818.72 275.776 818.72C273.749 818.72 272.16 819.115 271.008 819.904C269.835 820.672 269.248 821.707 269.248 823.008C269.248 824.288 269.803 825.28 270.912 825.984C272 826.667 273.568 827.008 275.616 827.008Z" fill="black"/>
<path d="M284.48 839.705C284.48 841.753 283.989 843.449 283.008 844.793C282.005 846.137 280.587 846.905 278.752 847.097L278.752 844.345C279.84 844.175 280.693 843.662 281.312 842.809C281.909 841.934 282.208 840.911 282.208 839.737C282.208 838.649 281.984 837.796 281.536 837.177C281.067 836.558 280.437 836.249 279.648 836.249C278.944 836.249 278.411 836.505 278.048 837.017C277.664 837.529 277.365 838.318 277.152 839.385L276.736 841.305C276.352 843.033 275.787 844.356 275.04 845.273C274.293 846.19 273.259 846.649 271.936 846.649C271.04 846.649 270.208 846.393 269.44 845.881C268.651 845.369 268.032 844.644 267.584 843.705C267.115 842.745 266.88 841.625 266.88 840.345C266.88 838.66 267.264 837.22 268.032 836.025C268.8 834.831 269.888 834.02 271.296 833.593L271.904 836.665C271.008 836.921 270.325 837.38 269.856 838.041C269.365 838.703 269.12 839.513 269.12 840.473C269.12 841.412 269.333 842.158 269.76 842.713C270.187 843.246 270.752 843.513 271.456 843.513C272.053 843.513 272.533 843.278 272.896 842.809C273.237 842.318 273.536 841.497 273.792 840.345L274.176 838.553C274.603 836.676 275.2 835.289 275.968 834.393C276.736 833.497 277.835 833.049 279.264 833.049C280.288 833.049 281.195 833.337 281.984 833.913C282.773 834.468 283.392 835.257 283.84 836.281C284.267 837.284 284.48 838.425 284.48 839.705Z" fill="black"/>
<path d="M284.48 856.941C284.48 858.499 284.139 859.875 283.456 861.069C282.752 862.243 281.749 863.16 280.448 863.821C279.147 864.483 277.621 864.813 275.872 864.813C274.187 864.813 272.661 864.493 271.296 863.853C269.931 863.192 268.853 862.275 268.064 861.101C267.275 859.928 266.88 858.584 266.88 857.069C266.88 855.448 267.275 854.061 268.064 852.909C268.853 851.736 269.941 850.861 271.328 850.285C272.715 849.709 274.283 849.464 276.032 849.549L276.032 861.293C277.952 861.208 279.424 860.717 280.448 859.821C281.451 858.925 281.952 857.827 281.952 856.525C281.952 855.48 281.696 854.616 281.184 853.933C280.651 853.251 279.915 852.728 278.976 852.365L278.976 849.677C280.896 850.211 282.293 851.128 283.168 852.429C284.043 853.731 284.48 855.235 284.48 856.941ZM273.92 853.165C272.384 853.272 271.2 853.688 270.368 854.413C269.536 855.117 269.12 856.045 269.12 857.197C269.12 858.307 269.547 859.224 270.4 859.949C271.232 860.653 272.405 861.091 273.92 861.261L273.92 853.165Z" fill="black"/>
<path d="M267.36 882.725L267.36 879.205L270.848 879.205C269.738 878.778 268.821 878.064 268.096 877.061C267.349 876.037 266.976 874.874 266.976 873.573C266.976 871.952 267.466 870.682 268.448 869.765C269.408 868.848 270.805 868.389 272.64 868.389L284 868.389L284 871.909L273.472 871.909C270.869 871.909 269.568 872.901 269.568 874.885C269.568 875.632 269.792 876.336 270.24 876.997C270.688 877.658 271.349 878.192 272.224 878.597C273.077 879.002 274.09 879.205 275.264 879.205L284 879.205L284 882.725L267.36 882.725Z" fill="black"/>
<path d="M284.48 896.219C284.48 898.289 283.701 899.921 282.144 901.115C280.587 902.289 278.453 902.875 275.744 902.875C273.952 902.875 272.395 902.598 271.072 902.043C269.728 901.489 268.693 900.699 267.968 899.675C267.243 898.63 266.88 897.425 266.88 896.059C266.88 894.95 267.157 893.969 267.712 893.115C268.267 892.262 269.067 891.569 270.112 891.035L260.96 891.035L260.96 887.515L284 887.515L284 890.875L280.96 890.875C282.091 891.409 282.965 892.134 283.584 893.051C284.181 893.969 284.48 895.025 284.48 896.219ZM275.616 899.195C277.685 899.195 279.285 898.843 280.416 898.139C281.547 897.414 282.112 896.401 282.112 895.099C282.112 893.798 281.557 892.774 280.448 892.027C279.339 891.281 277.781 890.907 275.776 890.907C273.749 890.907 272.16 891.302 271.008 892.091C269.835 892.859 269.248 893.894 269.248 895.195C269.248 896.475 269.803 897.467 270.912 898.171C272 898.854 273.568 899.195 275.616 899.195Z" fill="black"/>
<path d="M284.48 912.848C284.48 914.405 284.139 915.781 283.456 916.976C282.752 918.149 281.749 919.066 280.448 919.728C279.147 920.389 277.621 920.72 275.872 920.72C274.187 920.72 272.661 920.4 271.296 919.76C269.931 919.098 268.853 918.181 268.064 917.008C267.275 915.834 266.88 914.49 266.88 912.976C266.88 911.354 267.275 909.968 268.064 908.816C268.853 907.642 269.941 906.768 271.328 906.192C272.715 905.616 274.283 905.37 276.032 905.456L276.032 917.2C277.952 917.114 279.424 916.624 280.448 915.728C281.451 914.832 281.952 913.733 281.952 912.432C281.952 911.386 281.696 910.522 281.184 909.84C280.651 909.157 279.915 908.634 278.976 908.272L278.976 905.584C280.896 906.117 282.293 907.034 283.168 908.336C284.043 909.637 284.48 911.141 284.48 912.848ZM273.92 909.072C272.384 909.178 271.2 909.594 270.368 910.32C269.536 911.024 269.12 911.952 269.12 913.104C269.12 914.213 269.547 915.13 270.4 915.856C271.232 916.56 272.405 916.997 273.92 917.168L273.92 909.072Z" fill="black"/>
<path d="M261.92 951.121L261.92 947.345L281.344 942.737L261.92 938.225L261.92 934.257L281.376 929.617L261.92 925.041L261.92 921.873L284 927.473L284 932.273L266.336 936.497L284 940.689L284 945.585L261.92 951.121Z" fill="black"/>
<path d="M289.92 563.635C289.92 564.36 289.835 565.032 289.664 565.651L287.04 565.651C287.19 565.117 287.264 564.552 287.264 563.955C287.264 563.08 287.04 562.333 286.592 561.715C286.144 561.075 285.419 560.477 284.416 559.923L267.36 566.707L267.36 562.803L280.224 558.099L267.36 553.555L267.36 550.515L282.976 556.467C284.598 557.085 285.899 557.704 286.88 558.323C287.883 558.941 288.64 559.677 289.152 560.531C289.664 561.384 289.92 562.419 289.92 563.635Z" fill="black"/>
<path d="M284.384 577.971C284.384 579.421 284.021 580.648 283.296 581.651C282.57 582.632 281.493 583.123 280.064 583.123C277.546 583.123 275.85 581.235 274.976 577.459C274.698 576.221 274.442 575.272 274.208 574.611C273.973 573.949 273.696 573.48 273.376 573.203C273.034 572.904 272.608 572.755 272.096 572.755C271.328 572.755 270.666 573.053 270.112 573.651C269.536 574.227 269.248 575.069 269.248 576.179C269.248 577.139 269.504 577.949 270.016 578.611C270.506 579.272 271.2 579.72 272.096 579.955L272.096 582.771C270.474 582.451 269.194 581.672 268.256 580.435C267.317 579.197 266.848 577.715 266.848 575.987C266.848 573.789 267.413 572.125 268.544 570.995C269.674 569.864 271.157 569.299 272.992 569.299L280.192 569.299C280.96 569.299 281.493 569.16 281.792 568.883C282.069 568.584 282.186 568.168 282.144 567.635L283.936 567.635C284.106 568.083 284.192 568.584 284.192 569.139C284.192 571.293 283.157 572.413 281.088 572.499C281.941 572.883 282.709 573.544 283.392 574.483C284.053 575.4 284.384 576.563 284.384 577.971ZM279.776 579.571C280.437 579.571 280.97 579.325 281.376 578.835C281.76 578.344 281.952 577.672 281.952 576.819C281.952 575.667 281.568 574.707 280.8 573.939C280.032 573.171 278.912 572.787 277.44 572.787L274.848 572.787C275.317 573.043 275.712 573.459 276.032 574.035C276.33 574.589 276.597 575.283 276.832 576.115C277.194 577.395 277.61 578.291 278.08 578.803C278.528 579.315 279.093 579.571 279.776 579.571Z" fill="black"/>
<path d="M284.48 595.657C284.48 597.726 283.701 599.358 282.144 600.553C280.587 601.726 278.453 602.313 275.744 602.313C273.952 602.313 272.395 602.036 271.072 601.481C269.728 600.926 268.693 600.137 267.968 599.113C267.243 598.068 266.88 596.862 266.88 595.497C266.88 594.388 267.157 593.406 267.712 592.553C268.267 591.7 269.067 591.006 270.112 590.473L260.96 590.473L260.96 586.953L284 586.953L284 590.313L280.96 590.313C282.091 590.846 282.965 591.572 283.584 592.489C284.181 593.406 284.48 594.462 284.48 595.657ZM275.616 598.633C277.685 598.633 279.285 598.281 280.416 597.577C281.547 596.852 282.112 595.838 282.112 594.537C282.112 593.236 281.557 592.212 280.448 591.465C279.339 590.718 277.781 590.345 275.776 590.345C273.749 590.345 272.16 590.74 271.008 591.529C269.835 592.297 269.248 593.332 269.248 594.633C269.248 595.913 269.803 596.905 270.912 597.609C272 598.292 273.568 598.633 275.616 598.633Z" fill="black"/>
<path d="M284.48 611.33C284.48 613.378 283.989 615.074 283.008 616.418C282.005 617.762 280.587 618.53 278.752 618.722L278.752 615.97C279.84 615.8 280.693 615.287 281.312 614.434C281.909 613.559 282.208 612.536 282.208 611.362C282.208 610.274 281.984 609.421 281.536 608.802C281.067 608.183 280.437 607.874 279.648 607.874C278.944 607.874 278.411 608.13 278.048 608.642C277.664 609.154 277.365 609.943 277.152 611.01L276.736 612.93C276.352 614.658 275.787 615.981 275.04 616.898C274.293 617.815 273.259 618.274 271.936 618.274C271.04 618.274 270.208 618.018 269.44 617.506C268.651 616.994 268.032 616.269 267.584 615.33C267.115 614.37 266.88 613.25 266.88 611.97C266.88 610.285 267.264 608.845 268.032 607.65C268.8 606.456 269.888 605.645 271.296 605.218L271.904 608.29C271.008 608.546 270.325 609.005 269.856 609.666C269.365 610.328 269.12 611.138 269.12 612.098C269.12 613.037 269.333 613.783 269.76 614.338C270.187 614.871 270.752 615.138 271.456 615.138C272.053 615.138 272.533 614.903 272.896 614.434C273.237 613.943 273.536 613.122 273.792 611.97L274.176 610.178C274.603 608.301 275.2 606.914 275.968 606.018C276.736 605.122 277.835 604.674 279.264 604.674C280.288 604.674 281.195 604.962 281.984 605.538C282.773 606.093 283.392 606.882 283.84 607.906C284.267 608.909 284.48 610.05 284.48 611.33Z" fill="black"/>
<path d="M267.36 629.756L267.36 626.236L271.2 626.236L271.2 626.172C270.112 625.852 269.162 625.298 268.352 624.508C267.541 623.719 267.136 622.748 267.136 621.596C267.136 621.148 267.168 620.85 267.232 620.7L270.432 620.7C270.368 620.956 270.336 621.33 270.336 621.82C270.336 623.015 270.837 624.05 271.84 624.924C272.821 625.799 274.474 626.236 276.8 626.236L284 626.236L284 629.756L267.36 629.756Z" fill="black"/>
<path d="M284.384 643.638C284.384 645.238 283.904 646.497 282.944 647.414C281.963 648.31 280.555 648.758 278.72 648.758L267.36 648.758L267.36 645.238L277.888 645.238C279.254 645.238 280.246 644.993 280.864 644.502C281.483 643.99 281.792 643.265 281.792 642.326C281.792 641.58 281.568 640.886 281.12 640.246C280.672 639.585 280.022 639.062 279.168 638.678C278.294 638.273 277.27 638.07 276.096 638.07L267.36 638.07L267.36 634.55L284 634.55L284 638.07L280.512 638.07C281.622 638.518 282.55 639.244 283.296 640.246C284.022 641.228 284.384 642.358 284.384 643.638Z" fill="black"/>
<path d="M260.96 667.631L260.96 664.111L270.848 664.111C269.739 663.663 268.821 662.938 268.096 661.935C267.349 660.933 266.976 659.791 266.976 658.511C266.976 656.911 267.467 655.653 268.448 654.735C269.408 653.818 270.805 653.359 272.64 653.359L284 653.359L284 656.879L273.472 656.879C272.107 656.879 271.115 657.135 270.496 657.647C269.877 658.138 269.568 658.863 269.568 659.823C269.568 660.57 269.792 661.274 270.24 661.935C270.688 662.575 271.349 663.098 272.224 663.503C273.077 663.909 274.091 664.111 275.264 664.111L284 664.111L284 667.631L260.96 667.631Z" fill="black"/>
<path d="M264.576 681.32L264.576 688.04L261.92 688.04L261.92 670.984L264.576 670.984L264.576 677.672L284 677.672L284 681.32L264.576 681.32Z" fill="black"/>
<path d="M289.92 339.01C289.92 339.735 289.835 340.407 289.664 341.026L287.04 341.026C287.19 340.492 287.264 339.927 287.264 339.33C287.264 338.455 287.04 337.708 286.592 337.09C286.144 336.45 285.419 335.852 284.416 335.298L267.36 342.082L267.36 338.178L280.224 333.474L267.36 328.93L267.36 325.89L282.976 331.842C284.598 332.46 285.899 333.079 286.88 333.698C287.883 334.316 288.64 335.052 289.152 335.906C289.664 336.759 289.92 337.794 289.92 339.01Z" fill="black"/>
<path d="M284.385 353.346C284.385 354.796 284.022 356.023 283.297 357.026C282.571 358.007 281.494 358.498 280.065 358.498C277.547 358.498 275.851 356.61 274.977 352.834C274.699 351.596 274.443 350.647 274.209 349.986C273.974 349.324 273.697 348.855 273.377 348.578C273.035 348.279 272.609 348.13 272.097 348.13C271.329 348.13 270.667 348.428 270.113 349.026C269.537 349.602 269.249 350.444 269.249 351.554C269.249 352.514 269.505 353.324 270.017 353.986C270.507 354.647 271.201 355.095 272.097 355.33L272.097 358.146C270.475 357.826 269.195 357.047 268.257 355.81C267.318 354.572 266.849 353.09 266.849 351.362C266.849 349.164 267.414 347.5 268.545 346.37C269.675 345.239 271.158 344.674 272.993 344.674L280.193 344.674C280.961 344.674 281.494 344.535 281.793 344.258C282.07 343.959 282.187 343.543 282.145 343.01L283.937 343.01C284.107 343.458 284.193 343.959 284.193 344.514C284.193 346.668 283.158 347.788 281.089 347.874C281.942 348.258 282.71 348.919 283.393 349.858C284.054 350.775 284.385 351.938 284.385 353.346ZM279.777 354.946C280.438 354.946 280.971 354.7 281.377 354.21C281.761 353.719 281.953 353.047 281.953 352.194C281.953 351.042 281.569 350.082 280.801 349.314C280.033 348.546 278.913 348.162 277.441 348.162L274.849 348.162C275.318 348.418 275.713 348.834 276.033 349.41C276.331 349.964 276.598 350.658 276.833 351.49C277.195 352.77 277.611 353.666 278.081 354.178C278.529 354.69 279.094 354.946 279.777 354.946Z" fill="black"/>
<path d="M284.48 371.032C284.48 373.101 283.701 374.733 282.144 375.928C280.587 377.101 278.453 377.688 275.744 377.688C273.952 377.688 272.395 377.411 271.072 376.856C269.728 376.301 268.693 375.512 267.968 374.488C267.243 373.443 266.88 372.237 266.88 370.872C266.88 369.763 267.157 368.781 267.712 367.928C268.267 367.075 269.067 366.381 270.112 365.848L260.96 365.848L260.96 362.328L284 362.328L284 365.688L280.96 365.688C282.091 366.221 282.965 366.947 283.584 367.864C284.181 368.781 284.48 369.837 284.48 371.032ZM275.616 374.008C277.685 374.008 279.285 373.656 280.416 372.952C281.547 372.227 282.112 371.213 282.112 369.912C282.112 368.611 281.557 367.587 280.448 366.84C279.339 366.093 277.781 365.72 275.776 365.72C273.749 365.72 272.16 366.115 271.008 366.904C269.835 367.672 269.248 368.707 269.248 370.008C269.248 371.288 269.803 372.28 270.912 372.984C272 373.667 273.568 374.008 275.616 374.008Z" fill="black"/>
<path d="M267.36 384.943L267.36 381.423L284 381.423L284 384.943L267.36 384.943ZM264.448 383.151C264.448 383.749 264.256 384.261 263.872 384.687C263.467 385.093 262.987 385.295 262.432 385.295C261.878 385.295 261.408 385.093 261.024 384.687C260.64 384.261 260.448 383.749 260.448 383.151C260.448 382.575 260.651 382.085 261.056 381.679C261.44 381.253 261.899 381.039 262.432 381.039C262.987 381.039 263.467 381.253 263.872 381.679C264.256 382.085 264.448 382.575 264.448 383.151Z" fill="black"/>
<path d="M267.361 397.194L267.361 393.674L271.201 393.674L271.201 393.61C270.113 393.29 269.163 392.735 268.353 391.946C267.542 391.157 267.137 390.186 267.137 389.034C267.137 388.586 267.169 388.287 267.233 388.138L270.433 388.138C270.369 388.394 270.337 388.767 270.337 389.258C270.337 390.453 270.838 391.487 271.841 392.362C272.822 393.237 274.475 393.674 276.801 393.674L284.001 393.674L284.001 397.194L267.361 397.194Z" fill="black"/>
<path d="M261.92 414.905L261.92 400.409L264.576 400.409L264.576 411.257L271.232 411.257L271.232 401.209L273.888 401.209L273.888 411.257L284 411.257L284 414.905L261.92 414.905Z" fill="black"/>
<path d="M289.92 69.6658C289.92 70.3911 289.835 71.0631 289.664 71.6818L287.04 71.6818C287.19 71.1485 287.264 70.5831 287.264 69.9858C287.264 69.1111 287.04 68.3645 286.592 67.7458C286.144 67.1058 285.419 66.5085 284.416 65.9538L267.36 72.7378L267.36 68.8338L280.224 64.1298L267.36 59.5858L267.36 56.5458L282.976 62.4978C284.598 63.1165 285.899 63.7351 286.88 64.3538C287.883 64.9725 288.64 65.7085 289.152 66.5618C289.664 67.4151 289.92 68.4498 289.92 69.6658Z" fill="black"/>
<path d="M284.384 84.0018C284.384 85.4525 284.021 86.6791 283.296 87.6818C282.57 88.6631 281.493 89.1538 280.064 89.1538C277.546 89.1538 275.85 87.2658 274.976 83.4898C274.698 82.2525 274.442 81.3031 274.208 80.6418C273.973 79.9805 273.696 79.5111 273.376 79.2338C273.034 78.9351 272.608 78.7858 272.096 78.7858C271.328 78.7858 270.666 79.0845 270.112 79.6818C269.536 80.2578 269.248 81.1005 269.248 82.2098C269.248 83.1698 269.504 83.9805 270.016 84.6418C270.506 85.3031 271.2 85.7511 272.096 85.9858L272.096 88.8018C270.474 88.4818 269.194 87.7031 268.256 86.4658C267.317 85.2285 266.848 83.7458 266.848 82.0178C266.848 79.8205 267.413 78.1565 268.544 77.0258C269.674 75.8951 271.157 75.3298 272.992 75.3298L280.192 75.3298C280.96 75.3298 281.493 75.1911 281.792 74.9138C282.069 74.6151 282.186 74.1991 282.144 73.6658L283.936 73.6658C284.106 74.1138 284.192 74.6151 284.192 75.1698C284.192 77.3245 283.157 78.4445 281.088 78.5298C281.941 78.9138 282.709 79.5751 283.392 80.5138C284.053 81.4311 284.384 82.5938 284.384 84.0018ZM279.776 85.6018C280.437 85.6018 280.97 85.3565 281.376 84.8658C281.76 84.3751 281.952 83.7031 281.952 82.8498C281.952 81.6978 281.568 80.7378 280.8 79.9698C280.032 79.2018 278.912 78.8178 277.44 78.8178L274.848 78.8178C275.317 79.0738 275.712 79.4898 276.032 80.0658C276.33 80.6205 276.597 81.3138 276.832 82.1458C277.194 83.4258 277.61 84.3218 278.08 84.8338C278.528 85.3458 279.093 85.6018 279.776 85.6018Z" fill="black"/>
<path d="M284.48 101.688C284.48 103.758 283.701 105.39 282.144 106.584C280.587 107.758 278.453 108.344 275.744 108.344C273.952 108.344 272.395 108.067 271.072 107.512C269.728 106.958 268.693 106.168 267.968 105.144C267.243 104.099 266.88 102.894 266.88 101.528C266.88 100.419 267.157 99.4376 267.712 98.5842C268.267 97.7309 269.067 97.0376 270.112 96.5042L260.96 96.5042L260.96 92.9842L284 92.9842L284 96.3442L280.96 96.3442C282.091 96.8776 282.965 97.6029 283.584 98.5202C284.181 99.4376 284.48 100.494 284.48 101.688ZM275.616 104.664C277.685 104.664 279.285 104.312 280.416 103.608C281.547 102.883 282.112 101.87 282.112 100.568C282.112 99.2669 281.557 98.2429 280.448 97.4962C279.339 96.7496 277.781 96.3762 275.776 96.3762C273.749 96.3762 272.16 96.7709 271.008 97.5602C269.835 98.3282 269.248 99.3629 269.248 100.664C269.248 101.944 269.803 102.936 270.912 103.64C272 104.323 273.568 104.664 275.616 104.664Z" fill="black"/>
<path d="M267.36 119.006L267.36 115.486L271.2 115.486L271.2 115.422C270.112 115.102 269.162 114.548 268.352 113.758C267.541 112.969 267.136 111.998 267.136 110.846C267.136 110.398 267.168 110.1 267.232 109.95L270.432 109.95C270.368 110.206 270.336 110.58 270.336 111.07C270.336 112.265 270.837 113.3 271.84 114.174C272.821 115.049 274.474 115.486 276.8 115.486L284 115.486L284 119.006L267.36 119.006Z" fill="black"/>
<path d="M284.384 132.888C284.384 134.488 283.904 135.747 282.944 136.664C281.963 137.56 280.555 138.008 278.72 138.008L267.36 138.008L267.36 134.488L277.888 134.488C279.254 134.488 280.246 134.243 280.864 133.752C281.483 133.24 281.792 132.515 281.792 131.576C281.792 130.83 281.568 130.136 281.12 129.496C280.672 128.835 280.022 128.312 279.168 127.928C278.294 127.523 277.27 127.32 276.096 127.32L267.36 127.32L267.36 123.8L284 123.8L284 127.32L280.512 127.32C281.622 127.768 282.55 128.494 283.296 129.496C284.022 130.478 284.384 131.608 284.384 132.888Z" fill="black"/>
<path d="M284.256 143.828C284.256 145.534 283.872 146.836 283.104 147.732C282.336 148.606 280.96 149.044 278.976 149.044L269.6 149.044L269.6 151.764L267.872 151.764C267.808 150.548 267.403 149.641 266.656 149.044C265.91 148.446 264.758 148.094 263.2 147.988L263.2 145.556L267.36 145.556L267.36 141.524L269.6 141.524L269.6 145.556L279.072 145.556C280.118 145.556 280.854 145.321 281.28 144.852C281.686 144.382 281.888 143.721 281.888 142.868C281.888 142.27 281.814 141.78 281.664 141.396L283.84 141.396C283.968 141.652 284.064 142.004 284.128 142.452C284.214 142.9 284.256 143.358 284.256 143.828Z" fill="black"/>
<path d="M284.384 163.502C284.384 164.952 284.021 166.179 283.296 167.182C282.57 168.163 281.493 168.654 280.064 168.654C277.546 168.654 275.85 166.766 274.976 162.99C274.698 161.752 274.442 160.803 274.208 160.142C273.973 159.48 273.696 159.011 273.376 158.734C273.034 158.435 272.608 158.286 272.096 158.286C271.328 158.286 270.666 158.584 270.112 159.182C269.536 159.758 269.248 160.6 269.248 161.71C269.248 162.67 269.504 163.48 270.016 164.142C270.506 164.803 271.2 165.251 272.096 165.486L272.096 168.302C270.474 167.982 269.194 167.203 268.256 165.966C267.317 164.728 266.848 163.246 266.848 161.518C266.848 159.32 267.413 157.656 268.544 156.526C269.674 155.395 271.157 154.83 272.992 154.83L280.192 154.83C280.96 154.83 281.493 154.691 281.792 154.414C282.069 154.115 282.186 153.699 282.144 153.166L283.936 153.166C284.106 153.614 284.192 154.115 284.192 154.67C284.192 156.824 283.157 157.944 281.088 158.03C281.941 158.414 282.709 159.075 283.392 160.014C284.053 160.931 284.384 162.094 284.384 163.502ZM279.776 165.102C280.437 165.102 280.97 164.856 281.376 164.366C281.76 163.875 281.952 163.203 281.952 162.35C281.952 161.198 281.568 160.238 280.8 159.47C280.032 158.702 278.912 158.318 277.44 158.318L274.848 158.318C275.317 158.574 275.712 158.99 276.032 159.566C276.33 160.12 276.597 160.814 276.832 161.646C277.194 162.926 277.61 163.822 278.08 164.334C278.528 164.846 279.093 165.102 279.776 165.102Z" fill="black"/>
<path d="M284.512 180.121C284.512 181.806 284.235 183.342 283.68 184.729C283.104 186.115 282.24 187.257 281.088 188.153C279.936 189.049 278.507 189.571 276.8 189.721L276.8 186.617C278.422 186.403 279.68 185.689 280.576 184.473C281.472 183.257 281.92 181.806 281.92 180.121C281.92 178.521 281.579 177.294 280.896 176.441C280.214 175.566 279.296 175.129 278.144 175.129C277.099 175.129 276.31 175.491 275.776 176.217C275.243 176.921 274.838 177.966 274.56 179.353L273.984 182.201C273.536 184.377 272.832 186.051 271.872 187.225C270.891 188.377 269.558 188.953 267.872 188.953C266.72 188.953 265.654 188.633 264.672 187.993C263.691 187.331 262.912 186.393 262.336 185.177C261.739 183.939 261.44 182.499 261.44 180.857C261.44 178.659 261.952 176.782 262.976 175.225C264 173.667 265.472 172.643 267.392 172.153L268.064 175.577C266.699 175.918 265.664 176.579 264.96 177.561C264.256 178.521 263.904 179.694 263.904 181.081C263.904 182.446 264.224 183.513 264.864 184.281C265.483 185.049 266.304 185.433 267.328 185.433C268.203 185.433 268.918 185.113 269.472 184.473C270.006 183.811 270.422 182.755 270.72 181.305L271.296 178.553C271.787 176.142 272.534 174.382 273.536 173.273C274.539 172.142 275.915 171.577 277.664 171.577C278.987 171.577 280.171 171.929 281.216 172.633C282.24 173.337 283.051 174.339 283.648 175.641C284.224 176.921 284.512 178.414 284.512 180.121Z" fill="black"/>
</g>
<defs>
<clipPath id="clip0_128_3244">
<rect width="1404" height="1872" fill="white"/>
</clipPath>
</defs>
</svg>
