<svg width="1620" height="2160" viewBox="0 0 1620 2160" fill="none" xmlns="http://www.w3.org/2000/svg">
<g clip-path="url(#clip0_101_3179)">
<path d="M1620 0H0V2160H1620V0Z" fill="white"/>
<path fill-rule="evenodd" clip-rule="evenodd" d="M1620 147.25H1V146.75H1620V147.25Z" fill="black"/>
<path fill-rule="evenodd" clip-rule="evenodd" d="M809.75 2160L809.75 224L810.25 224L810.25 2160L809.75 2160Z" fill="black"/>
<path fill-rule="evenodd" clip-rule="evenodd" d="M1215.75 2160V1514H1216.25V2160H1215.75Z" fill="black"/>
<path fill-rule="evenodd" clip-rule="evenodd" d="M1620 958.25H1V957.75H1620V958.25Z" fill="black"/>
<path fill-rule="evenodd" clip-rule="evenodd" d="M1620 869.25H1V868.75H1620V869.25Z" fill="black"/>
<path fill-rule="evenodd" clip-rule="evenodd" d="M1620 313.25H1V312.75H1620V313.25Z" fill="black"/>
<path fill-rule="evenodd" clip-rule="evenodd" d="M1620 224.25H1V223.75H1620V224.25Z" fill="black"/>
<path fill-rule="evenodd" clip-rule="evenodd" d="M1620 1603.25H1V1602.75H1620V1603.25Z" fill="black"/>
<path fill-rule="evenodd" clip-rule="evenodd" d="M1620 1514.25H1V1513.75H1620V1514.25Z" fill="black"/>
<path d="M869.673 43.1602H877.593V76.0642L893.865 57.5602H901.929L888.105 72.6802L903.585 95.0002H894.729L883.209 78.0082L877.593 84.1282V95.0002H869.673V43.1602Z" fill="black"/>
<path d="M844.787 96.08C841.283 96.08 838.187 95.312 835.499 93.776C832.859 92.192 830.795 89.936 829.307 87.008C827.819 84.08 827.075 80.648 827.075 76.712C827.075 72.92 827.795 69.488 829.235 66.416C830.723 63.344 832.787 60.92 835.427 59.144C838.067 57.368 841.091 56.48 844.499 56.48C848.147 56.48 851.267 57.368 853.859 59.144C856.499 60.92 858.467 63.368 859.763 66.488C861.059 69.608 861.611 73.136 861.419 77.072H834.995C835.187 81.392 836.291 84.704 838.307 87.008C840.323 89.264 842.795 90.392 845.723 90.392C848.075 90.392 850.019 89.816 851.555 88.664C853.091 87.464 854.267 85.808 855.083 83.696H861.131C859.931 88.016 857.867 91.16 854.939 93.128C852.011 95.096 848.627 96.08 844.787 96.08ZM853.283 72.32C853.043 68.864 852.107 66.2 850.475 64.328C848.891 62.456 846.803 61.52 844.211 61.52C841.715 61.52 839.651 62.48 838.019 64.4C836.435 66.272 835.451 68.912 835.067 72.32H853.283Z" fill="black"/>
<path d="M804.709 96.08C801.205 96.08 798.109 95.312 795.421 93.776C792.781 92.192 790.717 89.936 789.229 87.008C787.741 84.08 786.997 80.648 786.997 76.712C786.997 72.92 787.717 69.488 789.157 66.416C790.645 63.344 792.709 60.92 795.349 59.144C797.989 57.368 801.013 56.48 804.421 56.48C808.069 56.48 811.189 57.368 813.781 59.144C816.421 60.92 818.389 63.368 819.685 66.488C820.981 69.608 821.533 73.136 821.341 77.072H794.917C795.109 81.392 796.213 84.704 798.229 87.008C800.245 89.264 802.717 90.392 805.645 90.392C807.997 90.392 809.941 89.816 811.477 88.664C813.013 87.464 814.189 85.808 815.005 83.696H821.053C819.853 88.016 817.789 91.16 814.861 93.128C811.933 95.096 808.549 96.08 804.709 96.08ZM813.205 72.32C812.965 68.864 812.029 66.2 810.397 64.328C808.813 62.456 806.725 61.52 804.133 61.52C801.637 61.52 799.573 62.48 797.941 64.4C796.357 66.272 795.373 68.912 794.989 72.32H813.205Z" fill="black"/>
<path d="M718.595 45.3203H727.091L737.459 89.0243L747.611 45.3203H756.539L766.979 89.0963L777.275 45.3203H784.403L771.803 95.0003H761.003L751.499 55.2563L742.067 95.0003H731.051L718.595 45.3203Z" fill="black"/>
<path d="M207.459 193.24C206.995 193.24 206.595 193.08 206.259 192.76C205.939 192.44 205.779 192.056 205.779 191.608C205.779 191.144 205.939 190.752 206.259 190.432C206.595 190.112 206.995 189.952 207.459 189.952C207.923 189.952 208.315 190.112 208.635 190.432C208.971 190.752 209.139 191.144 209.139 191.608C209.139 192.056 208.971 192.44 208.635 192.76C208.315 193.08 207.923 193.24 207.459 193.24ZM207.459 184.336C206.995 184.336 206.595 184.176 206.259 183.856C205.939 183.536 205.779 183.152 205.779 182.704C205.779 182.24 205.939 181.848 206.259 181.528C206.595 181.208 206.995 181.048 207.459 181.048C207.923 181.048 208.315 181.208 208.635 181.528C208.971 181.848 209.139 182.24 209.139 182.704C209.139 183.152 208.971 183.536 208.635 183.856C208.315 184.176 207.923 184.336 207.459 184.336Z" fill="black"/>
<path d="M190.375 176.44H197.887C198.863 176.44 199.743 176.64 200.527 177.04C201.311 177.424 201.927 177.96 202.375 178.648C202.823 179.336 203.047 180.104 203.047 180.952C203.047 182.056 202.671 183 201.919 183.784C201.167 184.568 200.175 185.04 198.943 185.2C199.567 185.328 200.087 185.6 200.503 186.016C200.919 186.416 201.255 186.88 201.511 187.408C201.783 187.936 202.079 188.64 202.399 189.52L203.671 193H200.647L199.711 189.976C199.407 188.968 199.119 188.208 198.847 187.696C198.591 187.168 198.247 186.776 197.815 186.52C197.399 186.248 196.823 186.112 196.087 186.112H193.087V193H190.375V176.44ZM197.191 184.144C198.039 184.144 198.767 183.904 199.375 183.424C199.983 182.928 200.287 182.216 200.287 181.288C200.287 180.344 199.991 179.632 199.399 179.152C198.823 178.656 198.095 178.408 197.215 178.408H193.087V184.144H197.191Z" fill="black"/>
<path d="M176.2 176.44H187.072V178.432H178.936V183.424H186.472V185.416H178.936V191.008H187.312V193H176.2V176.44Z" fill="black"/>
<path d="M160.526 176.44H167.846C168.822 176.44 169.678 176.616 170.414 176.968C171.15 177.304 171.718 177.784 172.118 178.408C172.518 179.016 172.718 179.696 172.718 180.448C172.718 181.36 172.422 182.136 171.83 182.776C171.254 183.4 170.486 183.808 169.526 184C170.694 184.256 171.614 184.76 172.286 185.512C172.958 186.264 173.294 187.2 173.294 188.32C173.294 189.2 173.078 190 172.646 190.72C172.23 191.424 171.614 191.984 170.798 192.4C169.998 192.8 169.062 193 167.99 193H160.526V176.44ZM167.342 191.104C168.318 191.104 169.094 190.848 169.67 190.336C170.246 189.824 170.534 189.08 170.534 188.104C170.534 187.224 170.222 186.536 169.598 186.04C168.99 185.528 168.222 185.272 167.294 185.272H163.166V191.104H167.342ZM167.15 183.352C167.966 183.352 168.638 183.144 169.166 182.728C169.71 182.296 169.982 181.672 169.982 180.856C169.982 180.024 169.726 179.4 169.214 178.984C168.702 178.552 168.014 178.336 167.15 178.336H163.166V183.352H167.15Z" fill="black"/>
<path d="M139.555 176.44H143.587L148.051 189.328L152.515 176.44H156.691V193H153.955V178.552L149.011 193H146.731L141.787 178.624V193H139.555V176.44Z" fill="black"/>
<path d="M129.168 193.36C127.776 193.36 126.576 193.096 125.568 192.568C124.56 192.04 123.792 191.304 123.264 190.36C122.752 189.416 122.496 188.328 122.496 187.096V176.44H125.232V187.096C125.232 188.376 125.56 189.416 126.216 190.216C126.872 191 127.856 191.392 129.168 191.392C130.48 191.392 131.456 191 132.096 190.216C132.752 189.416 133.08 188.376 133.08 187.096V176.44H135.816V187.096C135.816 188.328 135.552 189.416 135.024 190.36C134.512 191.304 133.752 192.04 132.744 192.568C131.752 193.096 130.56 193.36 129.168 193.36Z" fill="black"/>
<path d="M104.973 176.44H108.885L116.493 190.624V176.44H118.749V193H114.885L107.205 178.696V193H104.973V176.44Z" fill="black"/>
<path d="M84.3589 176.44H87.0949V185.368L94.7989 176.44H97.6789L91.7989 182.92L98.1589 193H94.8949L89.9269 184.96L87.0949 188.128V193H84.3589V176.44Z" fill="black"/>
<path d="M70.1851 176.44H81.0571V178.432H72.9211V183.424H80.4571V185.416H72.9211V191.008H81.2971V193H70.1851V176.44Z" fill="black"/>
<path d="M56.0107 176.44H66.8827V178.432H58.7467V183.424H66.2827V185.416H58.7467V191.008H67.1227V193H56.0107V176.44Z" fill="black"/>
<path d="M31.1279 176.44H33.9599L37.4159 191.008L40.7999 176.44H43.7759L47.2559 191.032L50.6879 176.44H53.0639L48.8639 193H45.2639L42.0959 179.752L38.9519 193H35.2799L31.1279 176.44Z" fill="black"/>
<path d="M452.037 284.92C451.312 284.92 450.64 284.835 450.021 284.664V282.04C450.555 282.189 451.12 282.264 451.717 282.264C452.592 282.264 453.339 282.04 453.957 281.592C454.597 281.144 455.195 280.419 455.749 279.416L448.965 262.36H452.869L457.573 275.224L462.117 262.36H465.157L459.205 277.976C458.587 279.597 457.968 280.899 457.349 281.88C456.731 282.883 455.995 283.64 455.141 284.152C454.288 284.664 453.253 284.92 452.037 284.92Z" fill="black"/>
<path d="M437.702 279.384C436.251 279.384 435.024 279.021 434.022 278.296C433.04 277.571 432.55 276.493 432.55 275.064C432.55 272.547 434.438 270.851 438.214 269.976C439.451 269.699 440.4 269.443 441.062 269.208C441.723 268.973 442.192 268.696 442.47 268.376C442.768 268.035 442.918 267.608 442.918 267.096C442.918 266.328 442.619 265.667 442.022 265.112C441.446 264.536 440.603 264.248 439.494 264.248C438.534 264.248 437.723 264.504 437.062 265.016C436.4 265.507 435.952 266.2 435.718 267.096H432.902C433.222 265.475 434 264.195 435.238 263.256C436.475 262.317 437.958 261.848 439.686 261.848C441.883 261.848 443.547 262.413 444.678 263.544C445.808 264.675 446.374 266.157 446.374 267.992V275.192C446.374 275.96 446.512 276.493 446.79 276.792C447.088 277.069 447.504 277.187 448.038 277.144V278.936C447.59 279.107 447.088 279.192 446.534 279.192C444.379 279.192 443.259 278.157 443.174 276.088C442.79 276.941 442.128 277.709 441.19 278.392C440.272 279.053 439.11 279.384 437.702 279.384ZM436.102 274.776C436.102 275.437 436.347 275.971 436.838 276.376C437.328 276.76 438 276.952 438.854 276.952C440.006 276.952 440.966 276.568 441.734 275.8C442.502 275.032 442.886 273.912 442.886 272.44V269.848C442.63 270.317 442.214 270.712 441.638 271.032C441.083 271.331 440.39 271.597 439.558 271.832C438.278 272.195 437.382 272.611 436.87 273.08C436.358 273.528 436.102 274.093 436.102 274.776Z" fill="black"/>
<path d="M420.015 279.48C417.946 279.48 416.314 278.701 415.119 277.144C413.946 275.587 413.359 273.453 413.359 270.744C413.359 268.952 413.636 267.395 414.191 266.072C414.746 264.728 415.535 263.693 416.559 262.968C417.604 262.243 418.81 261.88 420.175 261.88C421.284 261.88 422.266 262.157 423.119 262.712C423.972 263.267 424.666 264.067 425.199 265.112V255.96H428.719V279H425.359V275.96C424.826 277.091 424.1 277.965 423.183 278.584C422.266 279.181 421.21 279.48 420.015 279.48ZM417.039 270.616C417.039 272.685 417.391 274.285 418.095 275.416C418.82 276.547 419.834 277.112 421.135 277.112C422.436 277.112 423.46 276.557 424.207 275.448C424.954 274.339 425.327 272.781 425.327 270.776C425.327 268.749 424.932 267.16 424.143 266.008C423.375 264.835 422.34 264.248 421.039 264.248C419.759 264.248 418.767 264.803 418.063 265.912C417.38 267 417.039 268.568 417.039 270.616Z" fill="black"/>
<path d="M395.416 262.36H398.936V265.848C399.363 264.739 400.077 263.821 401.08 263.096C402.104 262.349 403.267 261.976 404.568 261.976C406.189 261.976 407.459 262.467 408.376 263.448C409.293 264.408 409.752 265.805 409.752 267.64V279H406.232V268.472C406.232 265.869 405.24 264.568 403.256 264.568C402.509 264.568 401.805 264.792 401.144 265.24C400.483 265.688 399.949 266.349 399.544 267.224C399.139 268.077 398.936 269.091 398.936 270.264V279H395.416V262.36Z" fill="black"/>
<path d="M383.794 279.48C382.215 279.48 380.828 279.128 379.634 278.424C378.439 277.699 377.511 276.675 376.85 275.352C376.21 274.029 375.89 272.493 375.89 270.744C375.89 268.995 376.21 267.448 376.85 266.104C377.511 264.76 378.439 263.725 379.634 263C380.828 262.253 382.215 261.88 383.794 261.88C385.372 261.88 386.759 262.243 387.954 262.968C389.148 263.693 390.076 264.717 390.738 266.04C391.399 267.363 391.73 268.899 391.73 270.648C391.73 272.397 391.399 273.944 390.738 275.288C390.076 276.611 389.148 277.645 387.954 278.392C386.759 279.117 385.372 279.48 383.794 279.48ZM379.57 270.584C379.57 272.632 379.943 274.253 380.69 275.448C381.458 276.621 382.503 277.208 383.826 277.208C385.127 277.208 386.151 276.653 386.898 275.544C387.666 274.413 388.05 272.835 388.05 270.808C388.05 268.739 387.666 267.117 386.898 265.944C386.13 264.749 385.084 264.152 383.762 264.152C382.439 264.152 381.404 264.717 380.658 265.848C379.932 266.979 379.57 268.557 379.57 270.584Z" fill="black"/>
<path d="M349.048 256.92H354.424L360.376 274.104L366.328 256.92H371.896V279H368.248V259.736L361.656 279H358.616L352.024 259.832V279H349.048V256.92Z" fill="black"/>
<path d="M478.99 929.92C478.265 929.92 477.593 929.835 476.974 929.664V927.04C477.507 927.189 478.073 927.264 478.67 927.264C479.545 927.264 480.291 927.04 480.91 926.592C481.55 926.144 482.147 925.419 482.702 924.416L475.918 907.36H479.822L484.526 920.224L489.07 907.36H492.11L486.158 922.976C485.539 924.597 484.921 925.899 484.302 926.88C483.683 927.883 482.947 928.64 482.094 929.152C481.241 929.664 480.206 929.92 478.99 929.92Z" fill="black"/>
<path d="M464.654 924.384C463.204 924.384 461.977 924.021 460.974 923.296C459.993 922.571 459.502 921.493 459.502 920.064C459.502 917.547 461.39 915.851 465.166 914.976C466.404 914.699 467.353 914.443 468.014 914.208C468.676 913.973 469.145 913.696 469.422 913.376C469.721 913.035 469.87 912.608 469.87 912.096C469.87 911.328 469.572 910.667 468.974 910.112C468.398 909.536 467.556 909.248 466.446 909.248C465.486 909.248 464.676 909.504 464.014 910.016C463.353 910.507 462.905 911.2 462.67 912.096H459.854C460.174 910.475 460.953 909.195 462.19 908.256C463.428 907.317 464.91 906.848 466.638 906.848C468.836 906.848 470.5 907.413 471.63 908.544C472.761 909.675 473.326 911.157 473.326 912.992V920.192C473.326 920.96 473.465 921.493 473.742 921.792C474.041 922.069 474.457 922.187 474.99 922.144V923.936C474.542 924.107 474.041 924.192 473.486 924.192C471.332 924.192 470.212 923.157 470.126 921.088C469.742 921.941 469.081 922.709 468.142 923.392C467.225 924.053 466.062 924.384 464.654 924.384ZM463.054 919.776C463.054 920.437 463.3 920.971 463.79 921.376C464.281 921.76 464.953 921.952 465.806 921.952C466.958 921.952 467.918 921.568 468.686 920.8C469.454 920.032 469.838 918.912 469.838 917.44V914.848C469.582 915.317 469.166 915.712 468.59 916.032C468.036 916.331 467.342 916.597 466.51 916.832C465.23 917.195 464.334 917.611 463.822 918.08C463.31 918.528 463.054 919.093 463.054 919.776Z" fill="black"/>
<path d="M446.968 924.48C444.899 924.48 443.267 923.701 442.072 922.144C440.899 920.587 440.312 918.453 440.312 915.744C440.312 913.952 440.589 912.395 441.144 911.072C441.699 909.728 442.488 908.693 443.512 907.968C444.557 907.243 445.763 906.88 447.128 906.88C448.237 906.88 449.219 907.157 450.072 907.712C450.925 908.267 451.619 909.067 452.152 910.112V900.96H455.672V924H452.312V920.96C451.779 922.091 451.053 922.965 450.136 923.584C449.219 924.181 448.163 924.48 446.968 924.48ZM443.992 915.616C443.992 917.685 444.344 919.285 445.048 920.416C445.773 921.547 446.787 922.112 448.088 922.112C449.389 922.112 450.413 921.557 451.16 920.448C451.907 919.339 452.28 917.781 452.28 915.776C452.28 913.749 451.885 912.16 451.096 911.008C450.328 909.835 449.293 909.248 447.992 909.248C446.712 909.248 445.72 909.803 445.016 910.912C444.333 912 443.992 913.568 443.992 915.616Z" fill="black"/>
<path d="M431.295 924.48C429.247 924.48 427.551 923.989 426.207 923.008C424.863 922.005 424.095 920.587 423.903 918.752H426.655C426.825 919.84 427.338 920.693 428.191 921.312C429.066 921.909 430.089 922.208 431.263 922.208C432.351 922.208 433.204 921.984 433.823 921.536C434.442 921.067 434.751 920.437 434.751 919.648C434.751 918.944 434.495 918.411 433.983 918.048C433.471 917.664 432.682 917.365 431.615 917.152L429.695 916.736C427.967 916.352 426.644 915.787 425.727 915.04C424.81 914.293 424.351 913.259 424.351 911.936C424.351 911.04 424.607 910.208 425.119 909.44C425.631 908.651 426.356 908.032 427.295 907.584C428.255 907.115 429.375 906.88 430.655 906.88C432.34 906.88 433.78 907.264 434.975 908.032C436.169 908.8 436.98 909.888 437.407 911.296L434.335 911.904C434.079 911.008 433.62 910.325 432.959 909.856C432.297 909.365 431.487 909.12 430.527 909.12C429.588 909.12 428.842 909.333 428.287 909.76C427.754 910.187 427.487 910.752 427.487 911.456C427.487 912.053 427.722 912.533 428.191 912.896C428.682 913.237 429.503 913.536 430.655 913.792L432.447 914.176C434.324 914.603 435.711 915.2 436.607 915.968C437.503 916.736 437.951 917.835 437.951 919.264C437.951 920.288 437.663 921.195 437.087 921.984C436.532 922.773 435.743 923.392 434.719 923.84C433.716 924.267 432.575 924.48 431.295 924.48Z" fill="black"/>
<path d="M414.058 924.48C412.501 924.48 411.125 924.139 409.93 923.456C408.757 922.752 407.839 921.749 407.178 920.448C406.517 919.147 406.186 917.621 406.186 915.872C406.186 914.187 406.506 912.661 407.146 911.296C407.807 909.931 408.725 908.853 409.898 908.064C411.071 907.275 412.415 906.88 413.93 906.88C415.551 906.88 416.938 907.275 418.09 908.064C419.263 908.853 420.138 909.941 420.714 911.328C421.29 912.715 421.535 914.283 421.45 916.032H409.706C409.791 917.952 410.282 919.424 411.178 920.448C412.074 921.451 413.173 921.952 414.474 921.952C415.519 921.952 416.383 921.696 417.066 921.184C417.749 920.651 418.271 919.915 418.634 918.976H421.322C420.789 920.896 419.871 922.293 418.57 923.168C417.269 924.043 415.765 924.48 414.058 924.48ZM417.834 913.92C417.727 912.384 417.311 911.2 416.586 910.368C415.882 909.536 414.954 909.12 413.802 909.12C412.693 909.12 411.775 909.547 411.05 910.4C410.346 911.232 409.909 912.405 409.738 913.92H417.834Z" fill="black"/>
<path d="M388.275 907.36H391.795V910.848C392.222 909.739 392.936 908.821 393.939 908.096C394.963 907.349 396.126 906.976 397.427 906.976C399.048 906.976 400.318 907.467 401.235 908.448C402.152 909.408 402.611 910.805 402.611 912.64V924H399.091V913.472C399.091 910.869 398.099 909.568 396.115 909.568C395.368 909.568 394.664 909.792 394.003 910.24C393.342 910.688 392.808 911.349 392.403 912.224C391.998 913.077 391.795 914.091 391.795 915.264V924H388.275V907.36Z" fill="black"/>
<path d="M374.781 924.48C372.711 924.48 371.079 923.701 369.885 922.144C368.711 920.587 368.125 918.453 368.125 915.744C368.125 913.952 368.402 912.395 368.957 911.072C369.511 909.728 370.301 908.693 371.325 907.968C372.37 907.243 373.575 906.88 374.941 906.88C376.05 906.88 377.031 907.157 377.885 907.712C378.738 908.267 379.431 909.067 379.965 910.112V900.96H383.485V924H380.125V920.96C379.591 922.091 378.866 922.965 377.949 923.584C377.031 924.181 375.975 924.48 374.781 924.48ZM371.805 915.616C371.805 917.685 372.157 919.285 372.861 920.416C373.586 921.547 374.599 922.112 375.901 922.112C377.202 922.112 378.226 921.557 378.973 920.448C379.719 919.339 380.093 917.781 380.093 915.776C380.093 913.749 379.698 912.16 378.909 911.008C378.141 909.835 377.106 909.248 375.805 909.248C374.525 909.248 373.533 909.803 372.829 910.912C372.146 912 371.805 913.568 371.805 915.616Z" fill="black"/>
<path d="M358.152 924.48C356.594 924.48 355.218 924.139 354.024 923.456C352.85 922.752 351.933 921.749 351.272 920.448C350.61 919.147 350.28 917.621 350.28 915.872C350.28 914.187 350.6 912.661 351.24 911.296C351.901 909.931 352.818 908.853 353.992 908.064C355.165 907.275 356.509 906.88 358.024 906.88C359.645 906.88 361.032 907.275 362.184 908.064C363.357 908.853 364.232 909.941 364.808 911.328C365.384 912.715 365.629 914.283 365.544 916.032H353.8C353.885 917.952 354.376 919.424 355.272 920.448C356.168 921.451 357.266 921.952 358.568 921.952C359.613 921.952 360.477 921.696 361.16 921.184C361.842 920.651 362.365 919.915 362.728 918.976H365.416C364.882 920.896 363.965 922.293 362.664 923.168C361.362 924.043 359.858 924.48 358.152 924.48ZM361.928 913.92C361.821 912.384 361.405 911.2 360.68 910.368C359.976 909.536 359.048 909.12 357.896 909.12C356.786 909.12 355.869 909.547 355.144 910.4C354.44 911.232 354.002 912.405 353.832 913.92H361.928Z" fill="black"/>
<path d="M319.879 901.92H323.655L328.263 921.344L332.775 901.92H336.743L341.383 921.376L345.959 901.92H349.127L343.527 924H338.727L334.503 906.336L330.311 924H325.415L319.879 901.92Z" fill="black"/>
<path d="M437.99 1573.92C437.265 1573.92 436.593 1573.84 435.974 1573.66V1571.04C436.508 1571.19 437.073 1571.26 437.67 1571.26C438.545 1571.26 439.292 1571.04 439.91 1570.59C440.55 1570.14 441.148 1569.42 441.702 1568.42L434.918 1551.36H438.822L443.526 1564.22L448.07 1551.36H451.11L445.158 1566.98C444.54 1568.6 443.921 1569.9 443.302 1570.88C442.684 1571.88 441.948 1572.64 441.094 1573.15C440.241 1573.66 439.206 1573.92 437.99 1573.92Z" fill="black"/>
<path d="M423.655 1568.38C422.204 1568.38 420.978 1568.02 419.975 1567.3C418.994 1566.57 418.503 1565.49 418.503 1564.06C418.503 1561.55 420.391 1559.85 424.167 1558.98C425.404 1558.7 426.354 1558.44 427.015 1558.21C427.676 1557.97 428.146 1557.7 428.423 1557.38C428.722 1557.03 428.871 1556.61 428.871 1556.1C428.871 1555.33 428.572 1554.67 427.975 1554.11C427.399 1553.54 426.556 1553.25 425.447 1553.25C424.487 1553.25 423.676 1553.5 423.015 1554.02C422.354 1554.51 421.906 1555.2 421.671 1556.1H418.855C419.175 1554.47 419.954 1553.19 421.191 1552.26C422.428 1551.32 423.911 1550.85 425.639 1550.85C427.836 1550.85 429.5 1551.41 430.631 1552.54C431.762 1553.67 432.327 1555.16 432.327 1556.99V1564.19C432.327 1564.96 432.466 1565.49 432.743 1565.79C433.042 1566.07 433.458 1566.19 433.991 1566.14V1567.94C433.543 1568.11 433.042 1568.19 432.487 1568.19C430.332 1568.19 429.212 1567.16 429.127 1565.09C428.743 1565.94 428.082 1566.71 427.143 1567.39C426.226 1568.05 425.063 1568.38 423.655 1568.38ZM422.055 1563.78C422.055 1564.44 422.3 1564.97 422.791 1565.38C423.282 1565.76 423.954 1565.95 424.807 1565.95C425.959 1565.95 426.919 1565.57 427.687 1564.8C428.455 1564.03 428.839 1562.91 428.839 1561.44V1558.85C428.583 1559.32 428.167 1559.71 427.591 1560.03C427.036 1560.33 426.343 1560.6 425.511 1560.83C424.231 1561.19 423.335 1561.61 422.823 1562.08C422.311 1562.53 422.055 1563.09 422.055 1563.78Z" fill="black"/>
<path d="M405.968 1568.48C403.899 1568.48 402.267 1567.7 401.072 1566.14C399.899 1564.59 399.312 1562.45 399.312 1559.74C399.312 1557.95 399.589 1556.39 400.144 1555.07C400.699 1553.73 401.488 1552.69 402.512 1551.97C403.557 1551.24 404.763 1550.88 406.128 1550.88C407.237 1550.88 408.219 1551.16 409.072 1551.71C409.925 1552.27 410.619 1553.07 411.152 1554.11V1544.96H414.672V1568H411.312V1564.96C410.779 1566.09 410.053 1566.97 409.136 1567.58C408.219 1568.18 407.163 1568.48 405.968 1568.48ZM402.992 1559.62C402.992 1561.69 403.344 1563.29 404.048 1564.42C404.773 1565.55 405.787 1566.11 407.088 1566.11C408.389 1566.11 409.413 1565.56 410.16 1564.45C410.907 1563.34 411.28 1561.78 411.28 1559.78C411.28 1557.75 410.885 1556.16 410.096 1555.01C409.328 1553.83 408.293 1553.25 406.992 1553.25C405.712 1553.25 404.72 1553.8 404.016 1554.91C403.333 1556 402.992 1557.57 402.992 1559.62Z" fill="black"/>
<path d="M392.057 1551.36H395.577V1568H392.057V1551.36ZM393.849 1548.45C393.251 1548.45 392.739 1548.26 392.313 1547.87C391.907 1547.47 391.705 1546.99 391.705 1546.43C391.705 1545.88 391.907 1545.41 392.313 1545.02C392.739 1544.64 393.251 1544.45 393.849 1544.45C394.425 1544.45 394.915 1544.65 395.321 1545.06C395.747 1545.44 395.961 1545.9 395.961 1546.43C395.961 1546.99 395.747 1547.47 395.321 1547.87C394.915 1548.26 394.425 1548.45 393.849 1548.45Z" fill="black"/>
<path d="M379.807 1551.36H383.327V1555.2H383.391C383.711 1554.11 384.265 1553.16 385.055 1552.35C385.844 1551.54 386.815 1551.14 387.967 1551.14C388.415 1551.14 388.713 1551.17 388.863 1551.23V1554.43C388.607 1554.37 388.233 1554.34 387.743 1554.34C386.548 1554.34 385.513 1554.84 384.639 1555.84C383.764 1556.82 383.327 1558.47 383.327 1560.8V1568H379.807V1551.36Z" fill="black"/>
<path d="M362.095 1545.92H376.591V1548.58H365.743V1555.23H375.791V1557.89H365.743V1568H362.095V1545.92Z" fill="black"/>
<path d="M1263.91 284.92C1263.19 284.92 1262.51 284.835 1261.9 284.664V282.04C1262.43 282.189 1262.99 282.264 1263.59 282.264C1264.47 282.264 1265.21 282.04 1265.83 281.592C1266.47 281.144 1267.07 280.419 1267.62 279.416L1260.84 262.36H1264.74L1269.45 275.224L1273.99 262.36H1277.03L1271.08 277.976C1270.46 279.597 1269.84 280.899 1269.22 281.88C1268.61 282.883 1267.87 283.64 1267.02 284.152C1266.16 284.664 1265.13 284.92 1263.91 284.92Z" fill="black"/>
<path d="M1249.58 279.384C1248.13 279.384 1246.9 279.021 1245.9 278.296C1244.91 277.571 1244.42 276.493 1244.42 275.064C1244.42 272.547 1246.31 270.851 1250.09 269.976C1251.33 269.699 1252.27 269.443 1252.94 269.208C1253.6 268.973 1254.07 268.696 1254.34 268.376C1254.64 268.035 1254.79 267.608 1254.79 267.096C1254.79 266.328 1254.49 265.667 1253.9 265.112C1253.32 264.536 1252.48 264.248 1251.37 264.248C1250.41 264.248 1249.6 264.504 1248.94 265.016C1248.27 265.507 1247.83 266.2 1247.59 267.096H1244.78C1245.1 265.475 1245.87 264.195 1247.11 263.256C1248.35 262.317 1249.83 261.848 1251.56 261.848C1253.76 261.848 1255.42 262.413 1256.55 263.544C1257.68 264.675 1258.25 266.157 1258.25 267.992V275.192C1258.25 275.96 1258.39 276.493 1258.66 276.792C1258.96 277.069 1259.38 277.187 1259.91 277.144V278.936C1259.46 279.107 1258.96 279.192 1258.41 279.192C1256.25 279.192 1255.13 278.157 1255.05 276.088C1254.66 276.941 1254 277.709 1253.06 278.392C1252.15 279.053 1250.98 279.384 1249.58 279.384ZM1247.98 274.776C1247.98 275.437 1248.22 275.971 1248.71 276.376C1249.2 276.76 1249.87 276.952 1250.73 276.952C1251.88 276.952 1252.84 276.568 1253.61 275.8C1254.38 275.032 1254.76 273.912 1254.76 272.44V269.848C1254.5 270.317 1254.09 270.712 1253.51 271.032C1252.96 271.331 1252.26 271.597 1251.43 271.832C1250.15 272.195 1249.26 272.611 1248.74 273.08C1248.23 273.528 1247.98 274.093 1247.98 274.776Z" fill="black"/>
<path d="M1231.89 279.48C1229.82 279.48 1228.19 278.701 1226.99 277.144C1225.82 275.587 1225.23 273.453 1225.23 270.744C1225.23 268.952 1225.51 267.395 1226.07 266.072C1226.62 264.728 1227.41 263.693 1228.43 262.968C1229.48 262.243 1230.68 261.88 1232.05 261.88C1233.16 261.88 1234.14 262.157 1234.99 262.712C1235.85 263.267 1236.54 264.067 1237.07 265.112V255.96H1240.59V279H1237.23V275.96C1236.7 277.091 1235.98 277.965 1235.06 278.584C1234.14 279.181 1233.08 279.48 1231.89 279.48ZM1228.91 270.616C1228.91 272.685 1229.27 274.285 1229.97 275.416C1230.7 276.547 1231.71 277.112 1233.01 277.112C1234.31 277.112 1235.34 276.557 1236.08 275.448C1236.83 274.339 1237.2 272.781 1237.2 270.776C1237.2 268.749 1236.81 267.16 1236.02 266.008C1235.25 264.835 1234.22 264.248 1232.91 264.248C1231.63 264.248 1230.64 264.803 1229.94 265.912C1229.26 267 1228.91 268.568 1228.91 270.616Z" fill="black"/>
<path d="M1216.22 279.48C1214.17 279.48 1212.47 278.989 1211.13 278.008C1209.78 277.005 1209.02 275.587 1208.82 273.752H1211.58C1211.75 274.84 1212.26 275.693 1213.11 276.312C1213.99 276.909 1215.01 277.208 1216.18 277.208C1217.27 277.208 1218.13 276.984 1218.74 276.536C1219.36 276.067 1219.67 275.437 1219.67 274.648C1219.67 273.944 1219.42 273.411 1218.9 273.048C1218.39 272.664 1217.6 272.365 1216.54 272.152L1214.62 271.736C1212.89 271.352 1211.57 270.787 1210.65 270.04C1209.73 269.293 1209.27 268.259 1209.27 266.936C1209.27 266.04 1209.53 265.208 1210.04 264.44C1210.55 263.651 1211.28 263.032 1212.22 262.584C1213.18 262.115 1214.3 261.88 1215.58 261.88C1217.26 261.88 1218.7 262.264 1219.9 263.032C1221.09 263.8 1221.9 264.888 1222.33 266.296L1219.26 266.904C1219 266.008 1218.54 265.325 1217.88 264.856C1217.22 264.365 1216.41 264.12 1215.45 264.12C1214.51 264.12 1213.76 264.333 1213.21 264.76C1212.68 265.187 1212.41 265.752 1212.41 266.456C1212.41 267.053 1212.64 267.533 1213.11 267.896C1213.6 268.237 1214.42 268.536 1215.58 268.792L1217.37 269.176C1219.25 269.603 1220.63 270.2 1221.53 270.968C1222.42 271.736 1222.87 272.835 1222.87 274.264C1222.87 275.288 1222.58 276.195 1222.01 276.984C1221.45 277.773 1220.66 278.392 1219.64 278.84C1218.64 279.267 1217.5 279.48 1216.22 279.48Z" fill="black"/>
<path d="M1198.98 279.48C1197.42 279.48 1196.05 279.139 1194.85 278.456C1193.68 277.752 1192.76 276.749 1192.1 275.448C1191.44 274.147 1191.11 272.621 1191.11 270.872C1191.11 269.187 1191.43 267.661 1192.07 266.296C1192.73 264.931 1193.65 263.853 1194.82 263.064C1195.99 262.275 1197.34 261.88 1198.85 261.88C1200.47 261.88 1201.86 262.275 1203.01 263.064C1204.19 263.853 1205.06 264.941 1205.64 266.328C1206.21 267.715 1206.46 269.283 1206.37 271.032H1194.63C1194.71 272.952 1195.2 274.424 1196.1 275.448C1197 276.451 1198.1 276.952 1199.4 276.952C1200.44 276.952 1201.31 276.696 1201.99 276.184C1202.67 275.651 1203.19 274.915 1203.56 273.976H1206.24C1205.71 275.896 1204.79 277.293 1203.49 278.168C1202.19 279.043 1200.69 279.48 1198.98 279.48ZM1202.76 268.92C1202.65 267.384 1202.23 266.2 1201.51 265.368C1200.8 264.536 1199.88 264.12 1198.72 264.12C1197.62 264.12 1196.7 264.547 1195.97 265.4C1195.27 266.232 1194.83 267.405 1194.66 268.92H1202.76Z" fill="black"/>
<path d="M1178.35 279.384C1176.75 279.384 1175.49 278.904 1174.57 277.944C1173.67 276.963 1173.23 275.555 1173.23 273.72V262.36H1176.75V272.888C1176.75 274.253 1176.99 275.245 1177.48 275.864C1177.99 276.483 1178.72 276.792 1179.66 276.792C1180.4 276.792 1181.1 276.568 1181.74 276.12C1182.4 275.672 1182.92 275.021 1183.31 274.168C1183.71 273.293 1183.91 272.269 1183.91 271.096V262.36H1187.43V279H1183.91V275.512C1183.47 276.621 1182.74 277.549 1181.74 278.296C1180.76 279.021 1179.63 279.384 1178.35 279.384Z" fill="black"/>
<path d="M1161.13 259.576H1154.41V256.92H1171.47V259.576H1164.78V279H1161.13V259.576Z" fill="black"/>
<path d="M1271.36 929.92C1270.64 929.92 1269.97 929.835 1269.35 929.664V927.04C1269.88 927.189 1270.45 927.264 1271.04 927.264C1271.92 927.264 1272.67 927.04 1273.28 926.592C1273.92 926.144 1274.52 925.419 1275.08 924.416L1268.29 907.36H1272.2L1276.9 920.224L1281.44 907.36H1284.48L1278.53 922.976C1277.91 924.597 1277.3 925.899 1276.68 926.88C1276.06 927.883 1275.32 928.64 1274.47 929.152C1273.62 929.664 1272.58 929.92 1271.36 929.92Z" fill="black"/>
<path d="M1257.03 924.384C1255.58 924.384 1254.35 924.021 1253.35 923.296C1252.37 922.571 1251.88 921.493 1251.88 920.064C1251.88 917.547 1253.77 915.851 1257.54 914.976C1258.78 914.699 1259.73 914.443 1260.39 914.208C1261.05 913.973 1261.52 913.696 1261.8 913.376C1262.1 913.035 1262.25 912.608 1262.25 912.096C1262.25 911.328 1261.95 910.667 1261.35 910.112C1260.77 909.536 1259.93 909.248 1258.82 909.248C1257.86 909.248 1257.05 909.504 1256.39 910.016C1255.73 910.507 1255.28 911.2 1255.05 912.096H1252.23C1252.55 910.475 1253.33 909.195 1254.57 908.256C1255.8 907.317 1257.29 906.848 1259.01 906.848C1261.21 906.848 1262.87 907.413 1264.01 908.544C1265.14 909.675 1265.7 911.157 1265.7 912.992V920.192C1265.7 920.96 1265.84 921.493 1266.12 921.792C1266.42 922.069 1266.83 922.187 1267.37 922.144V923.936C1266.92 924.107 1266.42 924.192 1265.86 924.192C1263.71 924.192 1262.59 923.157 1262.5 921.088C1262.12 921.941 1261.46 922.709 1260.52 923.392C1259.6 924.053 1258.44 924.384 1257.03 924.384ZM1255.43 919.776C1255.43 920.437 1255.67 920.971 1256.17 921.376C1256.66 921.76 1257.33 921.952 1258.18 921.952C1259.33 921.952 1260.29 921.568 1261.06 920.8C1261.83 920.032 1262.21 918.912 1262.21 917.44V914.848C1261.96 915.317 1261.54 915.712 1260.97 916.032C1260.41 916.331 1259.72 916.597 1258.89 916.832C1257.61 917.195 1256.71 917.611 1256.2 918.08C1255.69 918.528 1255.43 919.093 1255.43 919.776Z" fill="black"/>
<path d="M1239.34 924.48C1237.27 924.48 1235.64 923.701 1234.45 922.144C1233.27 920.587 1232.69 918.453 1232.69 915.744C1232.69 913.952 1232.96 912.395 1233.52 911.072C1234.07 909.728 1234.86 908.693 1235.89 907.968C1236.93 907.243 1238.14 906.88 1239.5 906.88C1240.61 906.88 1241.59 907.157 1242.45 907.712C1243.3 908.267 1243.99 909.067 1244.53 910.112V900.96H1248.05V924H1244.69V920.96C1244.15 922.091 1243.43 922.965 1242.51 923.584C1241.59 924.181 1240.54 924.48 1239.34 924.48ZM1236.37 915.616C1236.37 917.685 1236.72 919.285 1237.42 920.416C1238.15 921.547 1239.16 922.112 1240.46 922.112C1241.76 922.112 1242.79 921.557 1243.54 920.448C1244.28 919.339 1244.66 917.781 1244.66 915.776C1244.66 913.749 1244.26 912.16 1243.47 911.008C1242.7 909.835 1241.67 909.248 1240.37 909.248C1239.09 909.248 1238.1 909.803 1237.39 910.912C1236.71 912 1236.37 913.568 1236.37 915.616Z" fill="black"/>
<path d="M1223.67 924.48C1221.62 924.48 1219.93 923.989 1218.58 923.008C1217.24 922.005 1216.47 920.587 1216.28 918.752H1219.03C1219.2 919.84 1219.71 920.693 1220.57 921.312C1221.44 921.909 1222.46 922.208 1223.64 922.208C1224.73 922.208 1225.58 921.984 1226.2 921.536C1226.82 921.067 1227.13 920.437 1227.13 919.648C1227.13 918.944 1226.87 918.411 1226.36 918.048C1225.85 917.664 1225.06 917.365 1223.99 917.152L1222.07 916.736C1220.34 916.352 1219.02 915.787 1218.1 915.04C1217.18 914.293 1216.73 913.259 1216.73 911.936C1216.73 911.04 1216.98 910.208 1217.49 909.44C1218.01 908.651 1218.73 908.032 1219.67 907.584C1220.63 907.115 1221.75 906.88 1223.03 906.88C1224.72 906.88 1226.16 907.264 1227.35 908.032C1228.54 908.8 1229.36 909.888 1229.78 911.296L1226.71 911.904C1226.45 911.008 1226 910.325 1225.33 909.856C1224.67 909.365 1223.86 909.12 1222.9 909.12C1221.96 909.12 1221.22 909.333 1220.66 909.76C1220.13 910.187 1219.86 910.752 1219.86 911.456C1219.86 912.053 1220.1 912.533 1220.57 912.896C1221.06 913.237 1221.88 913.536 1223.03 913.792L1224.82 914.176C1226.7 914.603 1228.09 915.2 1228.98 915.968C1229.88 916.736 1230.33 917.835 1230.33 919.264C1230.33 920.288 1230.04 921.195 1229.46 921.984C1228.91 922.773 1228.12 923.392 1227.09 923.84C1226.09 924.267 1224.95 924.48 1223.67 924.48Z" fill="black"/>
<path d="M1205.24 907.36H1208.76V911.2H1208.83C1209.15 910.112 1209.7 909.162 1210.49 908.352C1211.28 907.541 1212.25 907.136 1213.4 907.136C1213.85 907.136 1214.15 907.168 1214.3 907.232V910.432C1214.04 910.368 1213.67 910.336 1213.18 910.336C1211.98 910.336 1210.95 910.837 1210.08 911.84C1209.2 912.821 1208.76 914.474 1208.76 916.8V924H1205.24V907.36Z" fill="black"/>
<path d="M1191.36 924.384C1189.76 924.384 1188.5 923.904 1187.59 922.944C1186.69 921.963 1186.24 920.555 1186.24 918.72V907.36H1189.76V917.888C1189.76 919.253 1190.01 920.245 1190.5 920.864C1191.01 921.483 1191.73 921.792 1192.67 921.792C1193.42 921.792 1194.11 921.568 1194.75 921.12C1195.41 920.672 1195.94 920.021 1196.32 919.168C1196.73 918.293 1196.93 917.269 1196.93 916.096V907.36H1200.45V924H1196.93V920.512C1196.48 921.621 1195.76 922.549 1194.75 923.296C1193.77 924.021 1192.64 924.384 1191.36 924.384Z" fill="black"/>
<path d="M1167.37 900.96H1170.89V910.848C1171.34 909.739 1172.06 908.821 1173.06 908.096C1174.07 907.349 1175.21 906.976 1176.49 906.976C1178.09 906.976 1179.35 907.467 1180.26 908.448C1181.18 909.408 1181.64 910.805 1181.64 912.64V924H1178.12V913.472C1178.12 912.107 1177.86 911.115 1177.35 910.496C1176.86 909.877 1176.14 909.568 1175.18 909.568C1174.43 909.568 1173.73 909.792 1173.06 910.24C1172.42 910.688 1171.9 911.349 1171.5 912.224C1171.09 913.077 1170.89 914.091 1170.89 915.264V924H1167.37V900.96Z" fill="black"/>
<path d="M1153.68 904.576H1146.96V901.92H1164.02V904.576H1157.33V924H1153.68V904.576Z" fill="black"/>
<path d="M1067.33 1573.92C1066.61 1573.92 1065.94 1573.83 1065.32 1573.66V1571.04C1065.85 1571.19 1066.42 1571.26 1067.01 1571.26C1067.89 1571.26 1068.64 1571.04 1069.25 1570.59C1069.89 1570.14 1070.49 1569.42 1071.05 1568.42L1064.26 1551.36H1068.17L1072.87 1564.22L1077.41 1551.36H1080.45L1074.5 1566.98C1073.88 1568.6 1073.26 1569.9 1072.65 1570.88C1072.03 1571.88 1071.29 1572.64 1070.44 1573.15C1069.58 1573.66 1068.55 1573.92 1067.33 1573.92Z" fill="black"/>
<path d="M1053 1568.38C1051.55 1568.38 1050.32 1568.02 1049.32 1567.3C1048.34 1566.57 1047.85 1565.49 1047.85 1564.06C1047.85 1561.55 1049.73 1559.85 1053.51 1558.98C1054.75 1558.7 1055.7 1558.44 1056.36 1558.21C1057.02 1557.97 1057.49 1557.7 1057.77 1557.38C1058.06 1557.03 1058.21 1556.61 1058.21 1556.1C1058.21 1555.33 1057.92 1554.67 1057.32 1554.11C1056.74 1553.54 1055.9 1553.25 1054.79 1553.25C1053.83 1553.25 1053.02 1553.5 1052.36 1554.02C1051.7 1554.51 1051.25 1555.2 1051.01 1556.1H1048.2C1048.52 1554.47 1049.3 1553.19 1050.53 1552.26C1051.77 1551.32 1053.25 1550.85 1054.98 1550.85C1057.18 1550.85 1058.84 1551.41 1059.97 1552.54C1061.1 1553.67 1061.67 1555.16 1061.67 1556.99V1564.19C1061.67 1564.96 1061.81 1565.49 1062.09 1565.79C1062.38 1566.07 1062.8 1566.19 1063.33 1566.14V1567.94C1062.89 1568.11 1062.38 1568.19 1061.83 1568.19C1059.68 1568.19 1058.56 1567.16 1058.47 1565.09C1058.09 1565.94 1057.42 1566.71 1056.49 1567.39C1055.57 1568.05 1054.41 1568.38 1053 1568.38ZM1051.4 1563.78C1051.4 1564.44 1051.64 1564.97 1052.13 1565.38C1052.62 1565.76 1053.3 1565.95 1054.15 1565.95C1055.3 1565.95 1056.26 1565.57 1057.03 1564.8C1057.8 1564.03 1058.18 1562.91 1058.18 1561.44V1558.85C1057.93 1559.32 1057.51 1559.71 1056.93 1560.03C1056.38 1560.33 1055.69 1560.6 1054.85 1560.83C1053.57 1561.19 1052.68 1561.61 1052.17 1562.08C1051.65 1562.53 1051.4 1563.09 1051.4 1563.78Z" fill="black"/>
<path d="M1035.31 1568.48C1033.24 1568.48 1031.61 1567.7 1030.42 1566.14C1029.24 1564.59 1028.66 1562.45 1028.66 1559.74C1028.66 1557.95 1028.93 1556.39 1029.49 1555.07C1030.04 1553.73 1030.83 1552.69 1031.86 1551.97C1032.9 1551.24 1034.11 1550.88 1035.47 1550.88C1036.58 1550.88 1037.56 1551.16 1038.42 1551.71C1039.27 1552.27 1039.96 1553.07 1040.5 1554.11V1544.96H1044.02V1568H1040.66V1564.96C1040.12 1566.09 1039.4 1566.97 1038.48 1567.58C1037.56 1568.18 1036.51 1568.48 1035.31 1568.48ZM1032.34 1559.62C1032.34 1561.69 1032.69 1563.29 1033.39 1564.42C1034.12 1565.55 1035.13 1566.11 1036.43 1566.11C1037.73 1566.11 1038.76 1565.56 1039.5 1564.45C1040.25 1563.34 1040.62 1561.78 1040.62 1559.78C1040.62 1557.75 1040.23 1556.16 1039.44 1555.01C1038.67 1553.83 1037.64 1553.25 1036.34 1553.25C1035.06 1553.25 1034.06 1553.8 1033.36 1554.91C1032.68 1556 1032.34 1557.57 1032.34 1559.62Z" fill="black"/>
<path d="M1017.99 1551.36H1021.51V1555.2H1021.58C1021.9 1554.11 1022.45 1553.16 1023.24 1552.35C1024.03 1551.54 1025 1551.14 1026.15 1551.14C1026.6 1551.14 1026.9 1551.17 1027.05 1551.23V1554.43C1026.79 1554.37 1026.42 1554.34 1025.93 1554.34C1024.73 1554.34 1023.7 1554.84 1022.83 1555.84C1021.95 1556.82 1021.51 1558.47 1021.51 1560.8V1568H1017.99V1551.36Z" fill="black"/>
<path d="M1004.11 1568.38C1002.51 1568.38 1001.25 1567.9 1000.34 1566.94C999.44 1565.96 998.992 1564.55 998.992 1562.72V1551.36H1002.51V1561.89C1002.51 1563.25 1002.76 1564.25 1003.25 1564.86C1003.76 1565.48 1004.49 1565.79 1005.42 1565.79C1006.17 1565.79 1006.86 1565.57 1007.5 1565.12C1008.17 1564.67 1008.69 1564.02 1009.07 1563.17C1009.48 1562.29 1009.68 1561.27 1009.68 1560.1V1551.36H1013.2V1568H1009.68V1564.51C1009.23 1565.62 1008.51 1566.55 1007.5 1567.3C1006.52 1568.02 1005.39 1568.38 1004.11 1568.38Z" fill="black"/>
<path d="M993.172 1568.26C991.466 1568.26 990.164 1567.87 989.268 1567.1C988.394 1566.34 987.956 1564.96 987.956 1562.98V1553.6H985.236V1551.87C986.452 1551.81 987.359 1551.4 987.956 1550.66C988.554 1549.91 988.906 1548.76 989.012 1547.2H991.444V1551.36H995.476V1553.6H991.444V1563.07C991.444 1564.12 991.679 1564.85 992.148 1565.28C992.618 1565.69 993.279 1565.89 994.132 1565.89C994.73 1565.89 995.22 1565.81 995.604 1565.66V1567.84C995.348 1567.97 994.996 1568.06 994.548 1568.13C994.1 1568.21 993.642 1568.26 993.172 1568.26Z" fill="black"/>
<path d="M973.498 1568.38C972.048 1568.38 970.821 1568.02 969.818 1567.3C968.837 1566.57 968.346 1565.49 968.346 1564.06C968.346 1561.55 970.234 1559.85 974.01 1558.98C975.248 1558.7 976.197 1558.44 976.858 1558.21C977.52 1557.97 977.989 1557.7 978.266 1557.38C978.565 1557.03 978.714 1556.61 978.714 1556.1C978.714 1555.33 978.416 1554.67 977.818 1554.11C977.242 1553.54 976.4 1553.25 975.29 1553.25C974.33 1553.25 973.52 1553.5 972.858 1554.02C972.197 1554.51 971.749 1555.2 971.514 1556.1H968.698C969.018 1554.47 969.797 1553.19 971.034 1552.26C972.272 1551.32 973.754 1550.85 975.482 1550.85C977.68 1550.85 979.344 1551.41 980.474 1552.54C981.605 1553.67 982.17 1555.16 982.17 1556.99V1564.19C982.17 1564.96 982.309 1565.49 982.586 1565.79C982.885 1566.07 983.301 1566.19 983.834 1566.14V1567.94C983.386 1568.11 982.885 1568.19 982.33 1568.19C980.176 1568.19 979.056 1567.16 978.97 1565.09C978.586 1565.94 977.925 1566.71 976.986 1567.39C976.069 1568.05 974.906 1568.38 973.498 1568.38ZM971.898 1563.78C971.898 1564.44 972.144 1564.97 972.634 1565.38C973.125 1565.76 973.797 1565.95 974.65 1565.95C975.802 1565.95 976.762 1565.57 977.53 1564.8C978.298 1564.03 978.682 1562.91 978.682 1561.44V1558.85C978.426 1559.32 978.01 1559.71 977.434 1560.03C976.88 1560.33 976.186 1560.6 975.354 1560.83C974.074 1561.19 973.178 1561.61 972.666 1562.08C972.154 1562.53 971.898 1563.09 971.898 1563.78Z" fill="black"/>
<path d="M956.879 1568.51C955.194 1568.51 953.658 1568.23 952.271 1567.68C950.885 1567.1 949.743 1566.24 948.847 1565.09C947.951 1563.94 947.429 1562.51 947.279 1560.8H950.383C950.597 1562.42 951.311 1563.68 952.527 1564.58C953.743 1565.47 955.194 1565.92 956.879 1565.92C958.479 1565.92 959.706 1565.58 960.559 1564.9C961.434 1564.21 961.871 1563.3 961.871 1562.14C961.871 1561.1 961.509 1560.31 960.783 1559.78C960.079 1559.24 959.034 1558.84 957.647 1558.56L954.799 1557.98C952.623 1557.54 950.949 1556.83 949.775 1555.87C948.623 1554.89 948.047 1553.56 948.047 1551.87C948.047 1550.72 948.367 1549.65 949.007 1548.67C949.669 1547.69 950.607 1546.91 951.823 1546.34C953.061 1545.74 954.501 1545.44 956.143 1545.44C958.341 1545.44 960.218 1545.95 961.775 1546.98C963.333 1548 964.357 1549.47 964.847 1551.39L961.423 1552.06C961.082 1550.7 960.421 1549.66 959.439 1548.96C958.479 1548.26 957.306 1547.9 955.919 1547.9C954.554 1547.9 953.487 1548.22 952.719 1548.86C951.951 1549.48 951.567 1550.3 951.567 1551.33C951.567 1552.2 951.887 1552.92 952.527 1553.47C953.189 1554.01 954.245 1554.42 955.695 1554.72L958.447 1555.3C960.858 1555.79 962.618 1556.53 963.727 1557.54C964.858 1558.54 965.423 1559.91 965.423 1561.66C965.423 1562.99 965.071 1564.17 964.367 1565.22C963.663 1566.24 962.661 1567.05 961.359 1567.65C960.079 1568.22 958.586 1568.51 956.879 1568.51Z" fill="black"/>
<path d="M1459.08 1573.92C1458.36 1573.92 1457.69 1573.83 1457.07 1573.66V1571.04C1457.6 1571.19 1458.17 1571.26 1458.76 1571.26C1459.64 1571.26 1460.39 1571.04 1461 1570.59C1461.64 1570.14 1462.24 1569.42 1462.8 1568.42L1456.01 1551.36H1459.92L1464.62 1564.22L1469.16 1551.36H1472.2L1466.25 1566.98C1465.63 1568.6 1465.01 1569.9 1464.4 1570.88C1463.78 1571.88 1463.04 1572.64 1462.19 1573.15C1461.33 1573.66 1460.3 1573.92 1459.08 1573.92Z" fill="black"/>
<path d="M1444.75 1568.38C1443.3 1568.38 1442.07 1568.02 1441.07 1567.3C1440.09 1566.57 1439.6 1565.49 1439.6 1564.06C1439.6 1561.55 1441.48 1559.85 1445.26 1558.98C1446.5 1558.7 1447.45 1558.44 1448.11 1558.21C1448.77 1557.97 1449.24 1557.7 1449.52 1557.38C1449.81 1557.03 1449.96 1556.61 1449.96 1556.1C1449.96 1555.33 1449.67 1554.67 1449.07 1554.11C1448.49 1553.54 1447.65 1553.25 1446.54 1553.25C1445.58 1553.25 1444.77 1553.5 1444.11 1554.02C1443.45 1554.51 1443 1555.2 1442.76 1556.1H1439.95C1440.27 1554.47 1441.05 1553.19 1442.28 1552.26C1443.52 1551.32 1445 1550.85 1446.73 1550.85C1448.93 1550.85 1450.59 1551.41 1451.72 1552.54C1452.85 1553.67 1453.42 1555.16 1453.42 1556.99V1564.19C1453.42 1564.96 1453.56 1565.49 1453.84 1565.79C1454.13 1566.07 1454.55 1566.19 1455.08 1566.14V1567.94C1454.64 1568.11 1454.13 1568.19 1453.58 1568.19C1451.43 1568.19 1450.31 1567.16 1450.22 1565.09C1449.84 1565.94 1449.17 1566.71 1448.24 1567.39C1447.32 1568.05 1446.16 1568.38 1444.75 1568.38ZM1443.15 1563.78C1443.15 1564.44 1443.39 1564.97 1443.88 1565.38C1444.37 1565.76 1445.05 1565.95 1445.9 1565.95C1447.05 1565.95 1448.01 1565.57 1448.78 1564.8C1449.55 1564.03 1449.93 1562.91 1449.93 1561.44V1558.85C1449.68 1559.32 1449.26 1559.71 1448.68 1560.03C1448.13 1560.33 1447.44 1560.6 1446.6 1560.83C1445.32 1561.19 1444.43 1561.61 1443.92 1562.08C1443.4 1562.53 1443.15 1563.09 1443.15 1563.78Z" fill="black"/>
<path d="M1427.06 1568.48C1424.99 1568.48 1423.36 1567.7 1422.17 1566.14C1420.99 1564.59 1420.41 1562.45 1420.41 1559.74C1420.41 1557.95 1420.68 1556.39 1421.24 1555.07C1421.79 1553.73 1422.58 1552.69 1423.61 1551.97C1424.65 1551.24 1425.86 1550.88 1427.22 1550.88C1428.33 1550.88 1429.31 1551.16 1430.17 1551.71C1431.02 1552.27 1431.71 1553.07 1432.25 1554.11V1544.96H1435.77V1568H1432.41V1564.96C1431.87 1566.09 1431.15 1566.97 1430.23 1567.58C1429.31 1568.18 1428.26 1568.48 1427.06 1568.48ZM1424.09 1559.62C1424.09 1561.69 1424.44 1563.29 1425.14 1564.42C1425.87 1565.55 1426.88 1566.11 1428.18 1566.11C1429.48 1566.11 1430.51 1565.56 1431.25 1564.45C1432 1563.34 1432.37 1561.78 1432.37 1559.78C1432.37 1557.75 1431.98 1556.16 1431.19 1555.01C1430.42 1553.83 1429.39 1553.25 1428.09 1553.25C1426.81 1553.25 1425.81 1553.8 1425.11 1554.91C1424.43 1556 1424.09 1557.57 1424.09 1559.62Z" fill="black"/>
<path d="M1402.46 1551.36H1405.98V1554.85C1406.41 1553.74 1407.12 1552.82 1408.13 1552.1C1409.15 1551.35 1410.31 1550.98 1411.61 1550.98C1413.24 1550.98 1414.51 1551.47 1415.42 1552.45C1416.34 1553.41 1416.8 1554.81 1416.8 1556.64V1568H1413.28V1557.47C1413.28 1554.87 1412.29 1553.57 1410.3 1553.57C1409.56 1553.57 1408.85 1553.79 1408.19 1554.24C1407.53 1554.69 1407 1555.35 1406.59 1556.22C1406.19 1557.08 1405.98 1558.09 1405.98 1559.26V1568H1402.46V1551.36Z" fill="black"/>
<path d="M1388.58 1568.38C1386.98 1568.38 1385.72 1567.9 1384.8 1566.94C1383.91 1565.96 1383.46 1564.55 1383.46 1562.72V1551.36H1386.98V1561.89C1386.98 1563.25 1387.23 1564.25 1387.72 1564.86C1388.23 1565.48 1388.95 1565.79 1389.89 1565.79C1390.64 1565.79 1391.33 1565.57 1391.97 1565.12C1392.63 1564.67 1393.16 1564.02 1393.54 1563.17C1393.95 1562.29 1394.15 1561.27 1394.15 1560.1V1551.36H1397.67V1568H1394.15V1564.51C1393.7 1565.62 1392.97 1566.55 1391.97 1567.3C1390.99 1568.02 1389.86 1568.38 1388.58 1568.38Z" fill="black"/>
<path d="M1371.13 1568.51C1369.44 1568.51 1367.91 1568.23 1366.52 1567.68C1365.13 1567.1 1363.99 1566.24 1363.1 1565.09C1362.2 1563.94 1361.68 1562.51 1361.53 1560.8H1364.63C1364.85 1562.42 1365.56 1563.68 1366.78 1564.58C1367.99 1565.47 1369.44 1565.92 1371.13 1565.92C1372.73 1565.92 1373.96 1565.58 1374.81 1564.9C1375.68 1564.21 1376.12 1563.3 1376.12 1562.14C1376.12 1561.1 1375.76 1560.31 1375.03 1559.78C1374.33 1559.24 1373.28 1558.84 1371.9 1558.56L1369.05 1557.98C1366.87 1557.54 1365.2 1556.83 1364.03 1555.87C1362.87 1554.89 1362.3 1553.56 1362.3 1551.87C1362.3 1550.72 1362.62 1549.65 1363.26 1548.67C1363.92 1547.69 1364.86 1546.91 1366.07 1546.34C1367.31 1545.74 1368.75 1545.44 1370.39 1545.44C1372.59 1545.44 1374.47 1545.95 1376.03 1546.98C1377.58 1548 1378.61 1549.47 1379.1 1551.39L1375.67 1552.06C1375.33 1550.7 1374.67 1549.66 1373.69 1548.96C1372.73 1548.26 1371.56 1547.9 1370.17 1547.9C1368.8 1547.9 1367.74 1548.22 1366.97 1548.86C1366.2 1549.48 1365.82 1550.3 1365.82 1551.33C1365.82 1552.2 1366.14 1552.92 1366.78 1553.47C1367.44 1554.01 1368.49 1554.42 1369.95 1554.72L1372.7 1555.3C1375.11 1555.79 1376.87 1556.53 1377.98 1557.54C1379.11 1558.54 1379.67 1559.91 1379.67 1561.66C1379.67 1562.99 1379.32 1564.17 1378.62 1565.22C1377.91 1566.24 1376.91 1567.05 1375.61 1567.65C1374.33 1568.22 1372.84 1568.51 1371.13 1568.51Z" fill="black"/>
</g>
<defs>
<clipPath id="clip0_101_3179">
<rect width="1620" height="2160" fill="white"/>
</clipPath>
</defs>
</svg>
