<svg width="1404" height="1872" viewBox="0 0 1404 1872" fill="none" xmlns="http://www.w3.org/2000/svg">
<g clip-path="url(#clip0_101_3094)">
<path d="M1404 0H0V1872H1404V0Z" fill="white"/>
<path fill-rule="evenodd" clip-rule="evenodd" d="M1404 146.75H1V146.25H1404V146.75Z" fill="black"/>
<path fill-rule="evenodd" clip-rule="evenodd" d="M702.25 1872V224H702.75V1872H702.25Z" fill="black"/>
<path fill-rule="evenodd" clip-rule="evenodd" d="M1053.25 1872V1295H1053.75V1872H1053.25Z" fill="black"/>
<path fill-rule="evenodd" clip-rule="evenodd" d="M1404 847.75H1V847.25H1404V847.75Z" fill="black"/>
<path fill-rule="evenodd" clip-rule="evenodd" d="M1404 758.75H1V758.25H1404V758.75Z" fill="black"/>
<path fill-rule="evenodd" clip-rule="evenodd" d="M1404 312.75H1V312.25H1404V312.75Z" fill="black"/>
<path fill-rule="evenodd" clip-rule="evenodd" d="M1404 223.75H1V223.25H1404V223.75Z" fill="black"/>
<path fill-rule="evenodd" clip-rule="evenodd" d="M1404 1383.75H1V1383.25H1404V1383.75Z" fill="black"/>
<path fill-rule="evenodd" clip-rule="evenodd" d="M1404 1294.75H1V1294.25H1404V1294.75Z" fill="black"/>
<path d="M762.673 43.1602H770.593V76.0642L786.865 57.5602H794.929L781.105 72.6802L796.585 95.0002H787.729L776.209 78.0082L770.593 84.1282V95.0002H762.673V43.1602Z" fill="black"/>
<path d="M737.787 96.08C734.283 96.08 731.187 95.312 728.499 93.776C725.859 92.192 723.795 89.936 722.307 87.008C720.819 84.08 720.075 80.648 720.075 76.712C720.075 72.92 720.795 69.488 722.235 66.416C723.723 63.344 725.787 60.92 728.427 59.144C731.067 57.368 734.091 56.48 737.499 56.48C741.147 56.48 744.267 57.368 746.859 59.144C749.499 60.92 751.467 63.368 752.763 66.488C754.059 69.608 754.611 73.136 754.419 77.072H727.995C728.187 81.392 729.291 84.704 731.307 87.008C733.323 89.264 735.795 90.392 738.723 90.392C741.075 90.392 743.019 89.816 744.555 88.664C746.091 87.464 747.267 85.808 748.083 83.696H754.131C752.931 88.016 750.867 91.16 747.939 93.128C745.011 95.096 741.627 96.08 737.787 96.08ZM746.283 72.32C746.043 68.864 745.107 66.2 743.475 64.328C741.891 62.456 739.803 61.52 737.211 61.52C734.715 61.52 732.651 62.48 731.019 64.4C729.435 66.272 728.451 68.912 728.067 72.32H746.283Z" fill="black"/>
<path d="M697.709 96.08C694.205 96.08 691.109 95.312 688.421 93.776C685.781 92.192 683.717 89.936 682.229 87.008C680.741 84.08 679.997 80.648 679.997 76.712C679.997 72.92 680.717 69.488 682.157 66.416C683.645 63.344 685.709 60.92 688.349 59.144C690.989 57.368 694.013 56.48 697.421 56.48C701.069 56.48 704.189 57.368 706.781 59.144C709.421 60.92 711.389 63.368 712.685 66.488C713.981 69.608 714.533 73.136 714.341 77.072H687.917C688.109 81.392 689.213 84.704 691.229 87.008C693.245 89.264 695.717 90.392 698.645 90.392C700.997 90.392 702.941 89.816 704.477 88.664C706.013 87.464 707.189 85.808 708.005 83.696H714.053C712.853 88.016 710.789 91.16 707.861 93.128C704.933 95.096 701.549 96.08 697.709 96.08ZM706.205 72.32C705.965 68.864 705.029 66.2 703.397 64.328C701.813 62.456 699.725 61.52 697.133 61.52C694.637 61.52 692.573 62.48 690.941 64.4C689.357 66.272 688.373 68.912 687.989 72.32H706.205Z" fill="black"/>
<path d="M611.595 45.3203H620.091L630.459 89.0243L640.611 45.3203H649.539L659.979 89.0963L670.275 45.3203H677.403L664.803 95.0003H654.003L644.499 55.2563L635.067 95.0003H624.051L611.595 45.3203Z" fill="black"/>
<path d="M207.459 193.24C206.995 193.24 206.595 193.08 206.259 192.76C205.939 192.44 205.779 192.056 205.779 191.608C205.779 191.144 205.939 190.752 206.259 190.432C206.595 190.112 206.995 189.952 207.459 189.952C207.923 189.952 208.315 190.112 208.635 190.432C208.971 190.752 209.139 191.144 209.139 191.608C209.139 192.056 208.971 192.44 208.635 192.76C208.315 193.08 207.923 193.24 207.459 193.24ZM207.459 184.336C206.995 184.336 206.595 184.176 206.259 183.856C205.939 183.536 205.779 183.152 205.779 182.704C205.779 182.24 205.939 181.848 206.259 181.528C206.595 181.208 206.995 181.048 207.459 181.048C207.923 181.048 208.315 181.208 208.635 181.528C208.971 181.848 209.139 182.24 209.139 182.704C209.139 183.152 208.971 183.536 208.635 183.856C208.315 184.176 207.923 184.336 207.459 184.336Z" fill="black"/>
<path d="M190.374 176.44H197.886C198.862 176.44 199.742 176.64 200.526 177.04C201.31 177.424 201.926 177.96 202.374 178.648C202.822 179.336 203.046 180.104 203.046 180.952C203.046 182.056 202.67 183 201.918 183.784C201.166 184.568 200.174 185.04 198.942 185.2C199.566 185.328 200.086 185.6 200.502 186.016C200.918 186.416 201.254 186.88 201.51 187.408C201.782 187.936 202.078 188.64 202.398 189.52L203.67 193H200.646L199.71 189.976C199.406 188.968 199.118 188.208 198.846 187.696C198.59 187.168 198.246 186.776 197.814 186.52C197.398 186.248 196.822 186.112 196.086 186.112H193.086V193H190.374V176.44ZM197.19 184.144C198.038 184.144 198.766 183.904 199.374 183.424C199.982 182.928 200.286 182.216 200.286 181.288C200.286 180.344 199.99 179.632 199.398 179.152C198.822 178.656 198.094 178.408 197.214 178.408H193.086V184.144H197.19Z" fill="black"/>
<path d="M176.2 176.44H187.072V178.432H178.936V183.424H186.472V185.416H178.936V191.008H187.312V193H176.2V176.44Z" fill="black"/>
<path d="M160.526 176.44H167.846C168.822 176.44 169.678 176.616 170.414 176.968C171.15 177.304 171.718 177.784 172.118 178.408C172.518 179.016 172.718 179.696 172.718 180.448C172.718 181.36 172.422 182.136 171.83 182.776C171.254 183.4 170.486 183.808 169.526 184C170.694 184.256 171.614 184.76 172.286 185.512C172.958 186.264 173.294 187.2 173.294 188.32C173.294 189.2 173.078 190 172.646 190.72C172.23 191.424 171.614 191.984 170.798 192.4C169.998 192.8 169.062 193 167.99 193H160.526V176.44ZM167.342 191.104C168.318 191.104 169.094 190.848 169.67 190.336C170.246 189.824 170.534 189.08 170.534 188.104C170.534 187.224 170.222 186.536 169.598 186.04C168.99 185.528 168.222 185.272 167.294 185.272H163.166V191.104H167.342ZM167.15 183.352C167.966 183.352 168.638 183.144 169.166 182.728C169.71 182.296 169.982 181.672 169.982 180.856C169.982 180.024 169.726 179.4 169.214 178.984C168.702 178.552 168.014 178.336 167.15 178.336H163.166V183.352H167.15Z" fill="black"/>
<path d="M139.555 176.44H143.587L148.051 189.328L152.515 176.44H156.691V193H153.955V178.552L149.011 193H146.731L141.787 178.624V193H139.555V176.44Z" fill="black"/>
<path d="M129.168 193.36C127.776 193.36 126.576 193.096 125.568 192.568C124.56 192.04 123.792 191.304 123.264 190.36C122.752 189.416 122.496 188.328 122.496 187.096V176.44H125.232V187.096C125.232 188.376 125.56 189.416 126.216 190.216C126.872 191 127.856 191.392 129.168 191.392C130.48 191.392 131.456 191 132.096 190.216C132.752 189.416 133.08 188.376 133.08 187.096V176.44H135.816V187.096C135.816 188.328 135.552 189.416 135.024 190.36C134.512 191.304 133.752 192.04 132.744 192.568C131.752 193.096 130.56 193.36 129.168 193.36Z" fill="black"/>
<path d="M104.973 176.44H108.885L116.493 190.624V176.44H118.749V193H114.885L107.205 178.696V193H104.973V176.44Z" fill="black"/>
<path d="M84.3589 176.44H87.0949V185.368L94.7989 176.44H97.6789L91.7989 182.92L98.1589 193H94.8949L89.9269 184.96L87.0949 188.128V193H84.3589V176.44Z" fill="black"/>
<path d="M70.1848 176.44H81.0568V178.432H72.9208V183.424H80.4568V185.416H72.9208V191.008H81.2968V193H70.1848V176.44Z" fill="black"/>
<path d="M56.011 176.44H66.883V178.432H58.747V183.424H66.283V185.416H58.747V191.008H67.123V193H56.011V176.44Z" fill="black"/>
<path d="M31.1279 176.44H33.9599L37.4159 191.008L40.7999 176.44H43.7759L47.2559 191.032L50.6879 176.44H53.0639L48.8639 193H45.2639L42.0959 179.752L38.9519 193H35.2799L31.1279 176.44Z" fill="black"/>
<path d="M397.037 284.92C396.312 284.92 395.64 284.835 395.021 284.664V282.04C395.555 282.189 396.12 282.264 396.717 282.264C397.592 282.264 398.339 282.04 398.957 281.592C399.597 281.144 400.195 280.419 400.749 279.416L393.965 262.36H397.869L402.573 275.224L407.117 262.36H410.157L404.205 277.976C403.587 279.597 402.968 280.899 402.349 281.88C401.731 282.883 400.995 283.64 400.141 284.152C399.288 284.664 398.253 284.92 397.037 284.92Z" fill="black"/>
<path d="M382.702 279.384C381.251 279.384 380.024 279.021 379.022 278.296C378.04 277.571 377.55 276.493 377.55 275.064C377.55 272.547 379.438 270.851 383.214 269.976C384.451 269.699 385.4 269.443 386.062 269.208C386.723 268.973 387.192 268.696 387.47 268.376C387.768 268.035 387.918 267.608 387.918 267.096C387.918 266.328 387.619 265.667 387.022 265.112C386.446 264.536 385.603 264.248 384.494 264.248C383.534 264.248 382.723 264.504 382.062 265.016C381.4 265.507 380.952 266.2 380.718 267.096H377.902C378.222 265.475 379 264.195 380.238 263.256C381.475 262.317 382.958 261.848 384.686 261.848C386.883 261.848 388.547 262.413 389.678 263.544C390.808 264.675 391.374 266.157 391.374 267.992V275.192C391.374 275.96 391.512 276.493 391.79 276.792C392.088 277.069 392.504 277.187 393.038 277.144V278.936C392.59 279.107 392.088 279.192 391.534 279.192C389.379 279.192 388.259 278.157 388.174 276.088C387.79 276.941 387.128 277.709 386.19 278.392C385.272 279.053 384.11 279.384 382.702 279.384ZM381.102 274.776C381.102 275.437 381.347 275.971 381.838 276.376C382.328 276.76 383 276.952 383.854 276.952C385.006 276.952 385.966 276.568 386.734 275.8C387.502 275.032 387.886 273.912 387.886 272.44V269.848C387.63 270.317 387.214 270.712 386.638 271.032C386.083 271.331 385.39 271.597 384.558 271.832C383.278 272.195 382.382 272.611 381.87 273.08C381.358 273.528 381.102 274.093 381.102 274.776Z" fill="black"/>
<path d="M365.015 279.48C362.946 279.48 361.314 278.701 360.119 277.144C358.946 275.587 358.359 273.453 358.359 270.744C358.359 268.952 358.636 267.395 359.191 266.072C359.746 264.728 360.535 263.693 361.559 262.968C362.604 262.243 363.81 261.88 365.175 261.88C366.284 261.88 367.266 262.157 368.119 262.712C368.972 263.267 369.666 264.067 370.199 265.112V255.96H373.719V279H370.359V275.96C369.826 277.091 369.1 277.965 368.183 278.584C367.266 279.181 366.21 279.48 365.015 279.48ZM362.039 270.616C362.039 272.685 362.391 274.285 363.095 275.416C363.82 276.547 364.834 277.112 366.135 277.112C367.436 277.112 368.46 276.557 369.207 275.448C369.954 274.339 370.327 272.781 370.327 270.776C370.327 268.749 369.932 267.16 369.143 266.008C368.375 264.835 367.34 264.248 366.039 264.248C364.759 264.248 363.767 264.803 363.063 265.912C362.38 267 362.039 268.568 362.039 270.616Z" fill="black"/>
<path d="M340.416 262.36H343.936V265.848C344.363 264.739 345.077 263.821 346.08 263.096C347.104 262.349 348.267 261.976 349.568 261.976C351.189 261.976 352.459 262.467 353.376 263.448C354.293 264.408 354.752 265.805 354.752 267.64V279H351.232V268.472C351.232 265.869 350.24 264.568 348.256 264.568C347.509 264.568 346.805 264.792 346.144 265.24C345.483 265.688 344.949 266.349 344.544 267.224C344.139 268.077 343.936 269.091 343.936 270.264V279H340.416V262.36Z" fill="black"/>
<path d="M328.794 279.48C327.215 279.48 325.828 279.128 324.634 278.424C323.439 277.699 322.511 276.675 321.85 275.352C321.21 274.029 320.89 272.493 320.89 270.744C320.89 268.995 321.21 267.448 321.85 266.104C322.511 264.76 323.439 263.725 324.634 263C325.828 262.253 327.215 261.88 328.794 261.88C330.372 261.88 331.759 262.243 332.954 262.968C334.148 263.693 335.076 264.717 335.738 266.04C336.399 267.363 336.73 268.899 336.73 270.648C336.73 272.397 336.399 273.944 335.738 275.288C335.076 276.611 334.148 277.645 332.954 278.392C331.759 279.117 330.372 279.48 328.794 279.48ZM324.57 270.584C324.57 272.632 324.943 274.253 325.69 275.448C326.458 276.621 327.503 277.208 328.826 277.208C330.127 277.208 331.151 276.653 331.898 275.544C332.666 274.413 333.05 272.835 333.05 270.808C333.05 268.739 332.666 267.117 331.898 265.944C331.13 264.749 330.084 264.152 328.762 264.152C327.439 264.152 326.404 264.717 325.658 265.848C324.932 266.979 324.57 268.557 324.57 270.584Z" fill="black"/>
<path d="M294.048 256.92H299.424L305.376 274.104L311.328 256.92H316.896V279H313.248V259.736L306.656 279H303.616L297.024 259.832V279H294.048V256.92Z" fill="black"/>
<path d="M424.99 819.92C424.265 819.92 423.593 819.835 422.974 819.664V817.04C423.507 817.189 424.073 817.264 424.67 817.264C425.545 817.264 426.291 817.04 426.91 816.592C427.55 816.144 428.147 815.419 428.702 814.416L421.918 797.36H425.822L430.526 810.224L435.07 797.36H438.11L432.158 812.976C431.539 814.597 430.921 815.899 430.302 816.88C429.683 817.883 428.947 818.64 428.094 819.152C427.241 819.664 426.206 819.92 424.99 819.92Z" fill="black"/>
<path d="M410.654 814.384C409.204 814.384 407.977 814.021 406.974 813.296C405.993 812.571 405.502 811.493 405.502 810.064C405.502 807.547 407.39 805.851 411.166 804.976C412.404 804.699 413.353 804.443 414.014 804.208C414.676 803.973 415.145 803.696 415.422 803.376C415.721 803.035 415.87 802.608 415.87 802.096C415.87 801.328 415.572 800.667 414.974 800.112C414.398 799.536 413.556 799.248 412.446 799.248C411.486 799.248 410.676 799.504 410.014 800.016C409.353 800.507 408.905 801.2 408.67 802.096H405.854C406.174 800.475 406.953 799.195 408.19 798.256C409.428 797.317 410.91 796.848 412.638 796.848C414.836 796.848 416.5 797.413 417.63 798.544C418.761 799.675 419.326 801.157 419.326 802.992V810.192C419.326 810.96 419.465 811.493 419.742 811.792C420.041 812.069 420.457 812.187 420.99 812.144V813.936C420.542 814.107 420.041 814.192 419.486 814.192C417.332 814.192 416.212 813.157 416.126 811.088C415.742 811.941 415.081 812.709 414.142 813.392C413.225 814.053 412.062 814.384 410.654 814.384ZM409.054 809.776C409.054 810.437 409.3 810.971 409.79 811.376C410.281 811.76 410.953 811.952 411.806 811.952C412.958 811.952 413.918 811.568 414.686 810.8C415.454 810.032 415.838 808.912 415.838 807.44V804.848C415.582 805.317 415.166 805.712 414.59 806.032C414.036 806.331 413.342 806.597 412.51 806.832C411.23 807.195 410.334 807.611 409.822 808.08C409.31 808.528 409.054 809.093 409.054 809.776Z" fill="black"/>
<path d="M392.968 814.48C390.899 814.48 389.267 813.701 388.072 812.144C386.899 810.587 386.312 808.453 386.312 805.744C386.312 803.952 386.589 802.395 387.144 801.072C387.699 799.728 388.488 798.693 389.512 797.968C390.557 797.243 391.763 796.88 393.128 796.88C394.237 796.88 395.219 797.157 396.072 797.712C396.925 798.267 397.619 799.067 398.152 800.112V790.96H401.672V814H398.312V810.96C397.779 812.091 397.053 812.965 396.136 813.584C395.219 814.181 394.163 814.48 392.968 814.48ZM389.992 805.616C389.992 807.685 390.344 809.285 391.048 810.416C391.773 811.547 392.787 812.112 394.088 812.112C395.389 812.112 396.413 811.557 397.16 810.448C397.907 809.339 398.28 807.781 398.28 805.776C398.28 803.749 397.885 802.16 397.096 801.008C396.328 799.835 395.293 799.248 393.992 799.248C392.712 799.248 391.72 799.803 391.016 800.912C390.333 802 389.992 803.568 389.992 805.616Z" fill="black"/>
<path d="M377.295 814.48C375.247 814.48 373.551 813.989 372.207 813.008C370.863 812.005 370.095 810.587 369.903 808.752H372.655C372.825 809.84 373.338 810.693 374.191 811.312C375.066 811.909 376.089 812.208 377.263 812.208C378.351 812.208 379.204 811.984 379.823 811.536C380.442 811.067 380.751 810.437 380.751 809.648C380.751 808.944 380.495 808.411 379.983 808.048C379.471 807.664 378.682 807.365 377.615 807.152L375.695 806.736C373.967 806.352 372.644 805.787 371.727 805.04C370.81 804.293 370.351 803.259 370.351 801.936C370.351 801.04 370.607 800.208 371.119 799.44C371.631 798.651 372.356 798.032 373.295 797.584C374.255 797.115 375.375 796.88 376.655 796.88C378.34 796.88 379.78 797.264 380.975 798.032C382.169 798.8 382.98 799.888 383.407 801.296L380.335 801.904C380.079 801.008 379.62 800.325 378.959 799.856C378.297 799.365 377.487 799.12 376.527 799.12C375.588 799.12 374.842 799.333 374.287 799.76C373.754 800.187 373.487 800.752 373.487 801.456C373.487 802.053 373.722 802.533 374.191 802.896C374.682 803.237 375.503 803.536 376.655 803.792L378.447 804.176C380.324 804.603 381.711 805.2 382.607 805.968C383.503 806.736 383.951 807.835 383.951 809.264C383.951 810.288 383.663 811.195 383.087 811.984C382.532 812.773 381.743 813.392 380.719 813.84C379.716 814.267 378.575 814.48 377.295 814.48Z" fill="black"/>
<path d="M360.058 814.48C358.501 814.48 357.125 814.139 355.93 813.456C354.757 812.752 353.839 811.749 353.178 810.448C352.517 809.147 352.186 807.621 352.186 805.872C352.186 804.187 352.506 802.661 353.146 801.296C353.807 799.931 354.725 798.853 355.898 798.064C357.071 797.275 358.415 796.88 359.93 796.88C361.551 796.88 362.938 797.275 364.09 798.064C365.263 798.853 366.138 799.941 366.714 801.328C367.29 802.715 367.535 804.283 367.45 806.032H355.706C355.791 807.952 356.282 809.424 357.178 810.448C358.074 811.451 359.173 811.952 360.474 811.952C361.519 811.952 362.383 811.696 363.066 811.184C363.749 810.651 364.271 809.915 364.634 808.976H367.322C366.789 810.896 365.871 812.293 364.57 813.168C363.269 814.043 361.765 814.48 360.058 814.48ZM363.834 803.92C363.727 802.384 363.311 801.2 362.586 800.368C361.882 799.536 360.954 799.12 359.802 799.12C358.693 799.12 357.775 799.547 357.05 800.4C356.346 801.232 355.909 802.405 355.738 803.92H363.834Z" fill="black"/>
<path d="M334.275 797.36H337.795V800.848C338.222 799.739 338.936 798.821 339.939 798.096C340.963 797.349 342.126 796.976 343.427 796.976C345.048 796.976 346.318 797.467 347.235 798.448C348.152 799.408 348.611 800.805 348.611 802.64V814H345.091V803.472C345.091 800.869 344.099 799.568 342.115 799.568C341.368 799.568 340.664 799.792 340.003 800.24C339.342 800.688 338.808 801.349 338.403 802.224C337.998 803.077 337.795 804.091 337.795 805.264V814H334.275V797.36Z" fill="black"/>
<path d="M320.781 814.48C318.711 814.48 317.079 813.701 315.885 812.144C314.711 810.587 314.125 808.453 314.125 805.744C314.125 803.952 314.402 802.395 314.957 801.072C315.511 799.728 316.301 798.693 317.325 797.968C318.37 797.243 319.575 796.88 320.941 796.88C322.05 796.88 323.031 797.157 323.885 797.712C324.738 798.267 325.431 799.067 325.965 800.112V790.96H329.485V814H326.125V810.96C325.591 812.091 324.866 812.965 323.949 813.584C323.031 814.181 321.975 814.48 320.781 814.48ZM317.805 805.616C317.805 807.685 318.157 809.285 318.861 810.416C319.586 811.547 320.599 812.112 321.901 812.112C323.202 812.112 324.226 811.557 324.973 810.448C325.719 809.339 326.093 807.781 326.093 805.776C326.093 803.749 325.698 802.16 324.909 801.008C324.141 799.835 323.106 799.248 321.805 799.248C320.525 799.248 319.533 799.803 318.829 800.912C318.146 802 317.805 803.568 317.805 805.616Z" fill="black"/>
<path d="M304.152 814.48C302.594 814.48 301.218 814.139 300.024 813.456C298.85 812.752 297.933 811.749 297.272 810.448C296.61 809.147 296.28 807.621 296.28 805.872C296.28 804.187 296.6 802.661 297.24 801.296C297.901 799.931 298.818 798.853 299.992 798.064C301.165 797.275 302.509 796.88 304.024 796.88C305.645 796.88 307.032 797.275 308.184 798.064C309.357 798.853 310.232 799.941 310.808 801.328C311.384 802.715 311.629 804.283 311.544 806.032H299.8C299.885 807.952 300.376 809.424 301.272 810.448C302.168 811.451 303.266 811.952 304.568 811.952C305.613 811.952 306.477 811.696 307.16 811.184C307.842 810.651 308.365 809.915 308.728 808.976H311.416C310.882 810.896 309.965 812.293 308.664 813.168C307.362 814.043 305.858 814.48 304.152 814.48ZM307.928 803.92C307.821 802.384 307.405 801.2 306.68 800.368C305.976 799.536 305.048 799.12 303.896 799.12C302.786 799.12 301.869 799.547 301.144 800.4C300.44 801.232 300.002 802.405 299.832 803.92H307.928Z" fill="black"/>
<path d="M265.879 791.92H269.655L274.263 811.344L278.775 791.92H282.743L287.383 811.376L291.959 791.92H295.127L289.527 814H284.727L280.503 796.336L276.311 814H271.415L265.879 791.92Z" fill="black"/>
<path d="M383.99 1354.92C383.265 1354.92 382.593 1354.84 381.974 1354.66V1352.04C382.508 1352.19 383.073 1352.26 383.67 1352.26C384.545 1352.26 385.292 1352.04 385.91 1351.59C386.55 1351.14 387.148 1350.42 387.702 1349.42L380.918 1332.36H384.822L389.526 1345.22L394.07 1332.36H397.11L391.158 1347.98C390.54 1349.6 389.921 1350.9 389.302 1351.88C388.684 1352.88 387.948 1353.64 387.094 1354.15C386.241 1354.66 385.206 1354.92 383.99 1354.92Z" fill="black"/>
<path d="M369.655 1349.38C368.204 1349.38 366.978 1349.02 365.975 1348.3C364.994 1347.57 364.503 1346.49 364.503 1345.06C364.503 1342.55 366.391 1340.85 370.167 1339.98C371.404 1339.7 372.354 1339.44 373.015 1339.21C373.676 1338.97 374.146 1338.7 374.423 1338.38C374.722 1338.03 374.871 1337.61 374.871 1337.1C374.871 1336.33 374.572 1335.67 373.975 1335.11C373.399 1334.54 372.556 1334.25 371.447 1334.25C370.487 1334.25 369.676 1334.5 369.015 1335.02C368.354 1335.51 367.906 1336.2 367.671 1337.1H364.855C365.175 1335.47 365.954 1334.19 367.191 1333.26C368.428 1332.32 369.911 1331.85 371.639 1331.85C373.836 1331.85 375.5 1332.41 376.631 1333.54C377.762 1334.67 378.327 1336.16 378.327 1337.99V1345.19C378.327 1345.96 378.466 1346.49 378.743 1346.79C379.042 1347.07 379.458 1347.19 379.991 1347.14V1348.94C379.543 1349.11 379.042 1349.19 378.487 1349.19C376.332 1349.19 375.212 1348.16 375.127 1346.09C374.743 1346.94 374.082 1347.71 373.143 1348.39C372.226 1349.05 371.063 1349.38 369.655 1349.38ZM368.055 1344.78C368.055 1345.44 368.3 1345.97 368.791 1346.38C369.282 1346.76 369.954 1346.95 370.807 1346.95C371.959 1346.95 372.919 1346.57 373.687 1345.8C374.455 1345.03 374.839 1343.91 374.839 1342.44V1339.85C374.583 1340.32 374.167 1340.71 373.591 1341.03C373.036 1341.33 372.343 1341.6 371.511 1341.83C370.231 1342.19 369.335 1342.61 368.823 1343.08C368.311 1343.53 368.055 1344.09 368.055 1344.78Z" fill="black"/>
<path d="M351.968 1349.48C349.899 1349.48 348.267 1348.7 347.072 1347.14C345.899 1345.59 345.312 1343.45 345.312 1340.74C345.312 1338.95 345.589 1337.39 346.144 1336.07C346.699 1334.73 347.488 1333.69 348.512 1332.97C349.557 1332.24 350.763 1331.88 352.128 1331.88C353.237 1331.88 354.219 1332.16 355.072 1332.71C355.925 1333.27 356.619 1334.07 357.152 1335.11V1325.96H360.672V1349H357.312V1345.96C356.779 1347.09 356.053 1347.97 355.136 1348.58C354.219 1349.18 353.163 1349.48 351.968 1349.48ZM348.992 1340.62C348.992 1342.69 349.344 1344.29 350.048 1345.42C350.773 1346.55 351.787 1347.11 353.088 1347.11C354.389 1347.11 355.413 1346.56 356.16 1345.45C356.907 1344.34 357.28 1342.78 357.28 1340.78C357.28 1338.75 356.885 1337.16 356.096 1336.01C355.328 1334.83 354.293 1334.25 352.992 1334.25C351.712 1334.25 350.72 1334.8 350.016 1335.91C349.333 1337 348.992 1338.57 348.992 1340.62Z" fill="black"/>
<path d="M338.057 1332.36H341.577V1349H338.057V1332.36ZM339.849 1329.45C339.251 1329.45 338.739 1329.26 338.313 1328.87C337.907 1328.47 337.705 1327.99 337.705 1327.43C337.705 1326.88 337.907 1326.41 338.313 1326.02C338.739 1325.64 339.251 1325.45 339.849 1325.45C340.425 1325.45 340.915 1325.65 341.321 1326.06C341.747 1326.44 341.961 1326.9 341.961 1327.43C341.961 1327.99 341.747 1328.47 341.321 1328.87C340.915 1329.26 340.425 1329.45 339.849 1329.45Z" fill="black"/>
<path d="M325.807 1332.36H329.327V1336.2H329.391C329.711 1335.11 330.265 1334.16 331.055 1333.35C331.844 1332.54 332.815 1332.14 333.967 1332.14C334.415 1332.14 334.713 1332.17 334.863 1332.23V1335.43C334.607 1335.37 334.233 1335.34 333.743 1335.34C332.548 1335.34 331.513 1335.84 330.639 1336.84C329.764 1337.82 329.327 1339.47 329.327 1341.8V1349H325.807V1332.36Z" fill="black"/>
<path d="M308.095 1326.92H322.591V1329.58H311.743V1336.23H321.791V1338.89H311.743V1349H308.095V1326.92Z" fill="black"/>
<path d="M1101.91 284.92C1101.19 284.92 1100.51 284.835 1099.9 284.664V282.04C1100.43 282.189 1100.99 282.264 1101.59 282.264C1102.47 282.264 1103.21 282.04 1103.83 281.592C1104.47 281.144 1105.07 280.419 1105.62 279.416L1098.84 262.36H1102.74L1107.45 275.224L1111.99 262.36H1115.03L1109.08 277.976C1108.46 279.597 1107.84 280.899 1107.22 281.88C1106.61 282.883 1105.87 283.64 1105.02 284.152C1104.16 284.664 1103.13 284.92 1101.91 284.92Z" fill="black"/>
<path d="M1087.58 279.384C1086.13 279.384 1084.9 279.021 1083.9 278.296C1082.91 277.571 1082.42 276.493 1082.42 275.064C1082.42 272.547 1084.31 270.851 1088.09 269.976C1089.33 269.699 1090.27 269.443 1090.94 269.208C1091.6 268.973 1092.07 268.696 1092.34 268.376C1092.64 268.035 1092.79 267.608 1092.79 267.096C1092.79 266.328 1092.49 265.667 1091.9 265.112C1091.32 264.536 1090.48 264.248 1089.37 264.248C1088.41 264.248 1087.6 264.504 1086.94 265.016C1086.27 265.507 1085.83 266.2 1085.59 267.096H1082.78C1083.1 265.475 1083.87 264.195 1085.11 263.256C1086.35 262.317 1087.83 261.848 1089.56 261.848C1091.76 261.848 1093.42 262.413 1094.55 263.544C1095.68 264.675 1096.25 266.157 1096.25 267.992V275.192C1096.25 275.96 1096.39 276.493 1096.66 276.792C1096.96 277.069 1097.38 277.187 1097.91 277.144V278.936C1097.46 279.107 1096.96 279.192 1096.41 279.192C1094.25 279.192 1093.13 278.157 1093.05 276.088C1092.66 276.941 1092 277.709 1091.06 278.392C1090.15 279.053 1088.98 279.384 1087.58 279.384ZM1085.98 274.776C1085.98 275.437 1086.22 275.971 1086.71 276.376C1087.2 276.76 1087.87 276.952 1088.73 276.952C1089.88 276.952 1090.84 276.568 1091.61 275.8C1092.38 275.032 1092.76 273.912 1092.76 272.44V269.848C1092.5 270.317 1092.09 270.712 1091.51 271.032C1090.96 271.331 1090.26 271.597 1089.43 271.832C1088.15 272.195 1087.26 272.611 1086.74 273.08C1086.23 273.528 1085.98 274.093 1085.98 274.776Z" fill="black"/>
<path d="M1069.89 279.48C1067.82 279.48 1066.19 278.701 1064.99 277.144C1063.82 275.587 1063.23 273.453 1063.23 270.744C1063.23 268.952 1063.51 267.395 1064.07 266.072C1064.62 264.728 1065.41 263.693 1066.43 262.968C1067.48 262.243 1068.68 261.88 1070.05 261.88C1071.16 261.88 1072.14 262.157 1072.99 262.712C1073.85 263.267 1074.54 264.067 1075.07 265.112V255.96H1078.59V279H1075.23V275.96C1074.7 277.091 1073.98 277.965 1073.06 278.584C1072.14 279.181 1071.08 279.48 1069.89 279.48ZM1066.91 270.616C1066.91 272.685 1067.27 274.285 1067.97 275.416C1068.7 276.547 1069.71 277.112 1071.01 277.112C1072.31 277.112 1073.34 276.557 1074.08 275.448C1074.83 274.339 1075.2 272.781 1075.2 270.776C1075.2 268.749 1074.81 267.16 1074.02 266.008C1073.25 264.835 1072.22 264.248 1070.91 264.248C1069.63 264.248 1068.64 264.803 1067.94 265.912C1067.26 267 1066.91 268.568 1066.91 270.616Z" fill="black"/>
<path d="M1054.22 279.48C1052.17 279.48 1050.47 278.989 1049.13 278.008C1047.78 277.005 1047.02 275.587 1046.82 273.752H1049.58C1049.75 274.84 1050.26 275.693 1051.11 276.312C1051.99 276.909 1053.01 277.208 1054.18 277.208C1055.27 277.208 1056.13 276.984 1056.74 276.536C1057.36 276.067 1057.67 275.437 1057.67 274.648C1057.67 273.944 1057.42 273.411 1056.9 273.048C1056.39 272.664 1055.6 272.365 1054.54 272.152L1052.62 271.736C1050.89 271.352 1049.57 270.787 1048.65 270.04C1047.73 269.293 1047.27 268.259 1047.27 266.936C1047.27 266.04 1047.53 265.208 1048.04 264.44C1048.55 263.651 1049.28 263.032 1050.22 262.584C1051.18 262.115 1052.3 261.88 1053.58 261.88C1055.26 261.88 1056.7 262.264 1057.9 263.032C1059.09 263.8 1059.9 264.888 1060.33 266.296L1057.26 266.904C1057 266.008 1056.54 265.325 1055.88 264.856C1055.22 264.365 1054.41 264.12 1053.45 264.12C1052.51 264.12 1051.76 264.333 1051.21 264.76C1050.68 265.187 1050.41 265.752 1050.41 266.456C1050.41 267.053 1050.64 267.533 1051.11 267.896C1051.6 268.237 1052.42 268.536 1053.58 268.792L1055.37 269.176C1057.25 269.603 1058.63 270.2 1059.53 270.968C1060.42 271.736 1060.87 272.835 1060.87 274.264C1060.87 275.288 1060.58 276.195 1060.01 276.984C1059.45 277.773 1058.66 278.392 1057.64 278.84C1056.64 279.267 1055.5 279.48 1054.22 279.48Z" fill="black"/>
<path d="M1036.98 279.48C1035.42 279.48 1034.05 279.139 1032.85 278.456C1031.68 277.752 1030.76 276.749 1030.1 275.448C1029.44 274.147 1029.11 272.621 1029.11 270.872C1029.11 269.187 1029.43 267.661 1030.07 266.296C1030.73 264.931 1031.65 263.853 1032.82 263.064C1033.99 262.275 1035.34 261.88 1036.85 261.88C1038.47 261.88 1039.86 262.275 1041.01 263.064C1042.19 263.853 1043.06 264.941 1043.64 266.328C1044.21 267.715 1044.46 269.283 1044.37 271.032H1032.63C1032.71 272.952 1033.2 274.424 1034.1 275.448C1035 276.451 1036.09 276.952 1037.4 276.952C1038.44 276.952 1039.31 276.696 1039.99 276.184C1040.67 275.651 1041.19 274.915 1041.56 273.976H1044.24C1043.71 275.896 1042.79 277.293 1041.49 278.168C1040.19 279.043 1038.69 279.48 1036.98 279.48ZM1040.76 268.92C1040.65 267.384 1040.23 266.2 1039.51 265.368C1038.8 264.536 1037.88 264.12 1036.72 264.12C1035.61 264.12 1034.7 264.547 1033.97 265.4C1033.27 266.232 1032.83 267.405 1032.66 268.92H1040.76Z" fill="black"/>
<path d="M1016.35 279.384C1014.75 279.384 1013.49 278.904 1012.57 277.944C1011.67 276.963 1011.23 275.555 1011.23 273.72V262.36H1014.75V272.888C1014.75 274.253 1014.99 275.245 1015.48 275.864C1015.99 276.483 1016.72 276.792 1017.66 276.792C1018.4 276.792 1019.1 276.568 1019.74 276.12C1020.4 275.672 1020.92 275.021 1021.31 274.168C1021.71 273.293 1021.91 272.269 1021.91 271.096V262.36H1025.43V279H1021.91V275.512C1021.47 276.621 1020.74 277.549 1019.74 278.296C1018.76 279.021 1017.63 279.384 1016.35 279.384Z" fill="black"/>
<path d="M999.133 259.576H992.413V256.92H1009.47V259.576H1002.78V279H999.133V259.576Z" fill="black"/>
<path d="M1109.36 819.92C1108.64 819.92 1107.97 819.835 1107.35 819.664V817.04C1107.88 817.189 1108.45 817.264 1109.04 817.264C1109.92 817.264 1110.67 817.04 1111.28 816.592C1111.92 816.144 1112.52 815.419 1113.08 814.416L1106.29 797.36H1110.2L1114.9 810.224L1119.44 797.36H1122.48L1116.53 812.976C1115.91 814.597 1115.3 815.899 1114.68 816.88C1114.06 817.883 1113.32 818.64 1112.47 819.152C1111.62 819.664 1110.58 819.92 1109.36 819.92Z" fill="black"/>
<path d="M1095.03 814.384C1093.58 814.384 1092.35 814.021 1091.35 813.296C1090.37 812.571 1089.88 811.493 1089.88 810.064C1089.88 807.547 1091.77 805.851 1095.54 804.976C1096.78 804.699 1097.73 804.443 1098.39 804.208C1099.05 803.973 1099.52 803.696 1099.8 803.376C1100.1 803.035 1100.25 802.608 1100.25 802.096C1100.25 801.328 1099.95 800.667 1099.35 800.112C1098.77 799.536 1097.93 799.248 1096.82 799.248C1095.86 799.248 1095.05 799.504 1094.39 800.016C1093.73 800.507 1093.28 801.2 1093.05 802.096H1090.23C1090.55 800.475 1091.33 799.195 1092.57 798.256C1093.8 797.317 1095.29 796.848 1097.01 796.848C1099.21 796.848 1100.87 797.413 1102.01 798.544C1103.14 799.675 1103.7 801.157 1103.7 802.992V810.192C1103.7 810.96 1103.84 811.493 1104.12 811.792C1104.42 812.069 1104.83 812.187 1105.37 812.144V813.936C1104.92 814.107 1104.42 814.192 1103.86 814.192C1101.71 814.192 1100.59 813.157 1100.5 811.088C1100.12 811.941 1099.46 812.709 1098.52 813.392C1097.6 814.053 1096.44 814.384 1095.03 814.384ZM1093.43 809.776C1093.43 810.437 1093.67 810.971 1094.17 811.376C1094.66 811.76 1095.33 811.952 1096.18 811.952C1097.33 811.952 1098.29 811.568 1099.06 810.8C1099.83 810.032 1100.21 808.912 1100.21 807.44V804.848C1099.96 805.317 1099.54 805.712 1098.97 806.032C1098.41 806.331 1097.72 806.597 1096.89 806.832C1095.61 807.195 1094.71 807.611 1094.2 808.08C1093.69 808.528 1093.43 809.093 1093.43 809.776Z" fill="black"/>
<path d="M1077.34 814.48C1075.27 814.48 1073.64 813.701 1072.45 812.144C1071.27 810.587 1070.69 808.453 1070.69 805.744C1070.69 803.952 1070.96 802.395 1071.52 801.072C1072.07 799.728 1072.86 798.693 1073.89 797.968C1074.93 797.243 1076.14 796.88 1077.5 796.88C1078.61 796.88 1079.59 797.157 1080.45 797.712C1081.3 798.267 1081.99 799.067 1082.53 800.112V790.96H1086.05V814H1082.69V810.96C1082.15 812.091 1081.43 812.965 1080.51 813.584C1079.59 814.181 1078.54 814.48 1077.34 814.48ZM1074.37 805.616C1074.37 807.685 1074.72 809.285 1075.42 810.416C1076.15 811.547 1077.16 812.112 1078.46 812.112C1079.76 812.112 1080.79 811.557 1081.54 810.448C1082.28 809.339 1082.66 807.781 1082.66 805.776C1082.66 803.749 1082.26 802.16 1081.47 801.008C1080.7 799.835 1079.67 799.248 1078.37 799.248C1077.09 799.248 1076.1 799.803 1075.39 800.912C1074.71 802 1074.37 803.568 1074.37 805.616Z" fill="black"/>
<path d="M1061.67 814.48C1059.62 814.48 1057.93 813.989 1056.58 813.008C1055.24 812.005 1054.47 810.587 1054.28 808.752H1057.03C1057.2 809.84 1057.71 810.693 1058.57 811.312C1059.44 811.909 1060.46 812.208 1061.64 812.208C1062.73 812.208 1063.58 811.984 1064.2 811.536C1064.82 811.067 1065.13 810.437 1065.13 809.648C1065.13 808.944 1064.87 808.411 1064.36 808.048C1063.85 807.664 1063.06 807.365 1061.99 807.152L1060.07 806.736C1058.34 806.352 1057.02 805.787 1056.1 805.04C1055.18 804.293 1054.73 803.259 1054.73 801.936C1054.73 801.04 1054.98 800.208 1055.49 799.44C1056.01 798.651 1056.73 798.032 1057.67 797.584C1058.63 797.115 1059.75 796.88 1061.03 796.88C1062.72 796.88 1064.16 797.264 1065.35 798.032C1066.54 798.8 1067.36 799.888 1067.78 801.296L1064.71 801.904C1064.45 801.008 1064 800.325 1063.33 799.856C1062.67 799.365 1061.86 799.12 1060.9 799.12C1059.96 799.12 1059.22 799.333 1058.66 799.76C1058.13 800.187 1057.86 800.752 1057.86 801.456C1057.86 802.053 1058.1 802.533 1058.57 802.896C1059.06 803.237 1059.88 803.536 1061.03 803.792L1062.82 804.176C1064.7 804.603 1066.09 805.2 1066.98 805.968C1067.88 806.736 1068.33 807.835 1068.33 809.264C1068.33 810.288 1068.04 811.195 1067.46 811.984C1066.91 812.773 1066.12 813.392 1065.09 813.84C1064.09 814.267 1062.95 814.48 1061.67 814.48Z" fill="black"/>
<path d="M1043.24 797.36H1046.76V801.2H1046.83C1047.15 800.112 1047.7 799.162 1048.49 798.352C1049.28 797.541 1050.25 797.136 1051.4 797.136C1051.85 797.136 1052.15 797.168 1052.3 797.232V800.432C1052.04 800.368 1051.67 800.336 1051.18 800.336C1049.98 800.336 1048.95 800.837 1048.08 801.84C1047.2 802.821 1046.76 804.474 1046.76 806.8V814H1043.24V797.36Z" fill="black"/>
<path d="M1029.36 814.384C1027.76 814.384 1026.5 813.904 1025.59 812.944C1024.69 811.963 1024.24 810.555 1024.24 808.72V797.36H1027.76V807.888C1027.76 809.253 1028.01 810.245 1028.5 810.864C1029.01 811.483 1029.73 811.792 1030.67 811.792C1031.42 811.792 1032.11 811.568 1032.75 811.12C1033.41 810.672 1033.94 810.021 1034.32 809.168C1034.73 808.293 1034.93 807.269 1034.93 806.096V797.36H1038.45V814H1034.93V810.512C1034.48 811.621 1033.76 812.549 1032.75 813.296C1031.77 814.021 1030.64 814.384 1029.36 814.384Z" fill="black"/>
<path d="M1005.37 790.96H1008.89V800.848C1009.34 799.739 1010.06 798.821 1011.06 798.096C1012.07 797.349 1013.21 796.976 1014.49 796.976C1016.09 796.976 1017.35 797.467 1018.26 798.448C1019.18 799.408 1019.64 800.805 1019.64 802.64V814H1016.12V803.472C1016.12 802.107 1015.86 801.115 1015.35 800.496C1014.86 799.877 1014.14 799.568 1013.18 799.568C1012.43 799.568 1011.73 799.792 1011.06 800.24C1010.42 800.688 1009.9 801.349 1009.5 802.224C1009.09 803.077 1008.89 804.091 1008.89 805.264V814H1005.37V790.96Z" fill="black"/>
<path d="M991.68 794.576H984.96V791.92H1002.02V794.576H995.328V814H991.68V794.576Z" fill="black"/>
<path d="M932.334 1354.92C931.609 1354.92 930.937 1354.83 930.318 1354.66V1352.04C930.852 1352.19 931.417 1352.26 932.014 1352.26C932.889 1352.26 933.636 1352.04 934.254 1351.59C934.894 1351.14 935.492 1350.42 936.046 1349.42L929.262 1332.36H933.166L937.87 1345.22L942.414 1332.36H945.454L939.502 1347.98C938.884 1349.6 938.265 1350.9 937.646 1351.88C937.028 1352.88 936.292 1353.64 935.438 1354.15C934.585 1354.66 933.55 1354.92 932.334 1354.92Z" fill="black"/>
<path d="M917.998 1349.38C916.548 1349.38 915.321 1349.02 914.318 1348.3C913.337 1347.57 912.846 1346.49 912.846 1345.06C912.846 1342.55 914.734 1340.85 918.51 1339.98C919.748 1339.7 920.697 1339.44 921.358 1339.21C922.02 1338.97 922.489 1338.7 922.766 1338.38C923.065 1338.03 923.214 1337.61 923.214 1337.1C923.214 1336.33 922.916 1335.67 922.318 1335.11C921.742 1334.54 920.9 1334.25 919.79 1334.25C918.83 1334.25 918.02 1334.5 917.358 1335.02C916.697 1335.51 916.249 1336.2 916.014 1337.1H913.198C913.518 1335.47 914.297 1334.19 915.534 1333.26C916.772 1332.32 918.254 1331.85 919.982 1331.85C922.18 1331.85 923.844 1332.41 924.974 1333.54C926.105 1334.67 926.67 1336.16 926.67 1337.99V1345.19C926.67 1345.96 926.809 1346.49 927.086 1346.79C927.385 1347.07 927.801 1347.19 928.334 1347.14V1348.94C927.886 1349.11 927.385 1349.19 926.83 1349.19C924.676 1349.19 923.556 1348.16 923.47 1346.09C923.086 1346.94 922.425 1347.71 921.486 1348.39C920.569 1349.05 919.406 1349.38 917.998 1349.38ZM916.398 1344.78C916.398 1345.44 916.644 1345.97 917.134 1346.38C917.625 1346.76 918.297 1346.95 919.15 1346.95C920.302 1346.95 921.262 1346.57 922.03 1345.8C922.798 1345.03 923.182 1343.91 923.182 1342.44V1339.85C922.926 1340.32 922.51 1340.71 921.934 1341.03C921.38 1341.33 920.686 1341.6 919.854 1341.83C918.574 1342.19 917.678 1342.61 917.166 1343.08C916.654 1343.53 916.398 1344.09 916.398 1344.78Z" fill="black"/>
<path d="M900.312 1349.48C898.242 1349.48 896.61 1348.7 895.416 1347.14C894.242 1345.59 893.656 1343.45 893.656 1340.74C893.656 1338.95 893.933 1337.39 894.488 1336.07C895.042 1334.73 895.832 1333.69 896.856 1332.97C897.901 1332.24 899.106 1331.88 900.472 1331.88C901.581 1331.88 902.562 1332.16 903.416 1332.71C904.269 1333.27 904.962 1334.07 905.496 1335.11V1325.96H909.016V1349H905.656V1345.96C905.122 1347.09 904.397 1347.97 903.48 1348.58C902.562 1349.18 901.506 1349.48 900.312 1349.48ZM897.336 1340.62C897.336 1342.69 897.688 1344.29 898.392 1345.42C899.117 1346.55 900.13 1347.11 901.432 1347.11C902.733 1347.11 903.757 1346.56 904.504 1345.45C905.25 1344.34 905.624 1342.78 905.624 1340.78C905.624 1338.75 905.229 1337.16 904.44 1336.01C903.672 1334.83 902.637 1334.25 901.336 1334.25C900.056 1334.25 899.064 1334.8 898.36 1335.91C897.677 1337 897.336 1338.57 897.336 1340.62Z" fill="black"/>
<path d="M882.994 1332.36H886.514V1336.2H886.578C886.898 1335.11 887.452 1334.16 888.242 1333.35C889.031 1332.54 890.002 1332.14 891.154 1332.14C891.602 1332.14 891.9 1332.17 892.05 1332.23V1335.43C891.794 1335.37 891.42 1335.34 890.93 1335.34C889.735 1335.34 888.7 1335.84 887.826 1336.84C886.951 1337.82 886.514 1339.47 886.514 1341.8V1349H882.994V1332.36Z" fill="black"/>
<path d="M869.112 1349.38C867.512 1349.38 866.253 1348.9 865.336 1347.94C864.44 1346.96 863.992 1345.55 863.992 1343.72V1332.36H867.512V1342.89C867.512 1344.25 867.757 1345.25 868.248 1345.86C868.76 1346.48 869.485 1346.79 870.424 1346.79C871.17 1346.79 871.864 1346.57 872.504 1346.12C873.165 1345.67 873.688 1345.02 874.072 1344.17C874.477 1343.29 874.68 1342.27 874.68 1341.1V1332.36H878.2V1349H874.68V1345.51C874.232 1346.62 873.506 1347.55 872.504 1348.3C871.522 1349.02 870.392 1349.38 869.112 1349.38Z" fill="black"/>
<path d="M858.172 1349.26C856.466 1349.26 855.164 1348.87 854.268 1348.1C853.394 1347.34 852.956 1345.96 852.956 1343.98V1334.6H850.236V1332.87C851.452 1332.81 852.359 1332.4 852.956 1331.66C853.554 1330.91 853.906 1329.76 854.012 1328.2H856.444V1332.36H860.476V1334.6H856.444V1344.07C856.444 1345.12 856.679 1345.85 857.148 1346.28C857.618 1346.69 858.279 1346.89 859.132 1346.89C859.73 1346.89 860.22 1346.81 860.604 1346.66V1348.84C860.348 1348.97 859.996 1349.06 859.548 1349.13C859.1 1349.21 858.642 1349.26 858.172 1349.26Z" fill="black"/>
<path d="M838.498 1349.38C837.048 1349.38 835.821 1349.02 834.818 1348.3C833.837 1347.57 833.346 1346.49 833.346 1345.06C833.346 1342.55 835.234 1340.85 839.01 1339.98C840.248 1339.7 841.197 1339.44 841.858 1339.21C842.52 1338.97 842.989 1338.7 843.266 1338.38C843.565 1338.03 843.714 1337.61 843.714 1337.1C843.714 1336.33 843.416 1335.67 842.818 1335.11C842.242 1334.54 841.4 1334.25 840.29 1334.25C839.33 1334.25 838.52 1334.5 837.858 1335.02C837.197 1335.51 836.749 1336.2 836.514 1337.1H833.698C834.018 1335.47 834.797 1334.19 836.034 1333.26C837.272 1332.32 838.754 1331.85 840.482 1331.85C842.68 1331.85 844.344 1332.41 845.474 1333.54C846.605 1334.67 847.17 1336.16 847.17 1337.99V1345.19C847.17 1345.96 847.309 1346.49 847.586 1346.79C847.885 1347.07 848.301 1347.19 848.834 1347.14V1348.94C848.386 1349.11 847.885 1349.19 847.33 1349.19C845.176 1349.19 844.056 1348.16 843.97 1346.09C843.586 1346.94 842.925 1347.71 841.986 1348.39C841.069 1349.05 839.906 1349.38 838.498 1349.38ZM836.898 1344.78C836.898 1345.44 837.144 1345.97 837.634 1346.38C838.125 1346.76 838.797 1346.95 839.65 1346.95C840.802 1346.95 841.762 1346.57 842.53 1345.8C843.298 1345.03 843.682 1343.91 843.682 1342.44V1339.85C843.426 1340.32 843.01 1340.71 842.434 1341.03C841.88 1341.33 841.186 1341.6 840.354 1341.83C839.074 1342.19 838.178 1342.61 837.666 1343.08C837.154 1343.53 836.898 1344.09 836.898 1344.78Z" fill="black"/>
<path d="M821.879 1349.51C820.194 1349.51 818.658 1349.23 817.271 1348.68C815.885 1348.1 814.743 1347.24 813.847 1346.09C812.951 1344.94 812.429 1343.51 812.279 1341.8H815.383C815.597 1343.42 816.311 1344.68 817.527 1345.58C818.743 1346.47 820.194 1346.92 821.879 1346.92C823.479 1346.92 824.706 1346.58 825.559 1345.9C826.434 1345.21 826.871 1344.3 826.871 1343.14C826.871 1342.1 826.509 1341.31 825.783 1340.78C825.079 1340.24 824.034 1339.84 822.647 1339.56L819.799 1338.98C817.623 1338.54 815.949 1337.83 814.775 1336.87C813.623 1335.89 813.047 1334.56 813.047 1332.87C813.047 1331.72 813.367 1330.65 814.007 1329.67C814.669 1328.69 815.607 1327.91 816.823 1327.34C818.061 1326.74 819.501 1326.44 821.143 1326.44C823.341 1326.44 825.218 1326.95 826.775 1327.98C828.333 1329 829.357 1330.47 829.847 1332.39L826.423 1333.06C826.082 1331.7 825.421 1330.66 824.439 1329.96C823.479 1329.26 822.306 1328.9 820.919 1328.9C819.554 1328.9 818.487 1329.22 817.719 1329.86C816.951 1330.48 816.567 1331.3 816.567 1332.33C816.567 1333.2 816.887 1333.92 817.527 1334.47C818.189 1335.01 819.245 1335.42 820.695 1335.72L823.447 1336.3C825.858 1336.79 827.618 1337.53 828.727 1338.54C829.858 1339.54 830.423 1340.91 830.423 1342.66C830.423 1343.99 830.071 1345.17 829.367 1346.22C828.663 1347.24 827.661 1348.05 826.359 1348.65C825.079 1349.22 823.586 1349.51 821.879 1349.51Z" fill="black"/>
<path d="M1272.08 1354.92C1271.36 1354.92 1270.69 1354.83 1270.07 1354.66V1352.04C1270.6 1352.19 1271.17 1352.26 1271.76 1352.26C1272.64 1352.26 1273.39 1352.04 1274 1351.59C1274.64 1351.14 1275.24 1350.42 1275.8 1349.42L1269.01 1332.36H1272.92L1277.62 1345.22L1282.16 1332.36H1285.2L1279.25 1347.98C1278.63 1349.6 1278.01 1350.9 1277.4 1351.88C1276.78 1352.88 1276.04 1353.64 1275.19 1354.15C1274.33 1354.66 1273.3 1354.92 1272.08 1354.92Z" fill="black"/>
<path d="M1257.75 1349.38C1256.3 1349.38 1255.07 1349.02 1254.07 1348.3C1253.09 1347.57 1252.6 1346.49 1252.6 1345.06C1252.6 1342.55 1254.48 1340.85 1258.26 1339.98C1259.5 1339.7 1260.45 1339.44 1261.11 1339.21C1261.77 1338.97 1262.24 1338.7 1262.52 1338.38C1262.81 1338.03 1262.96 1337.61 1262.96 1337.1C1262.96 1336.33 1262.67 1335.67 1262.07 1335.11C1261.49 1334.54 1260.65 1334.25 1259.54 1334.25C1258.58 1334.25 1257.77 1334.5 1257.11 1335.02C1256.45 1335.51 1256 1336.2 1255.76 1337.1H1252.95C1253.27 1335.47 1254.05 1334.19 1255.28 1333.26C1256.52 1332.32 1258 1331.85 1259.73 1331.85C1261.93 1331.85 1263.59 1332.41 1264.72 1333.54C1265.85 1334.67 1266.42 1336.16 1266.42 1337.99V1345.19C1266.42 1345.96 1266.56 1346.49 1266.84 1346.79C1267.13 1347.07 1267.55 1347.19 1268.08 1347.14V1348.94C1267.64 1349.11 1267.13 1349.19 1266.58 1349.19C1264.43 1349.19 1263.31 1348.16 1263.22 1346.09C1262.84 1346.94 1262.17 1347.71 1261.24 1348.39C1260.32 1349.05 1259.16 1349.38 1257.75 1349.38ZM1256.15 1344.78C1256.15 1345.44 1256.39 1345.97 1256.88 1346.38C1257.37 1346.76 1258.05 1346.95 1258.9 1346.95C1260.05 1346.95 1261.01 1346.57 1261.78 1345.8C1262.55 1345.03 1262.93 1343.91 1262.93 1342.44V1339.85C1262.68 1340.32 1262.26 1340.71 1261.68 1341.03C1261.13 1341.33 1260.44 1341.6 1259.6 1341.83C1258.32 1342.19 1257.43 1342.61 1256.92 1343.08C1256.4 1343.53 1256.15 1344.09 1256.15 1344.78Z" fill="black"/>
<path d="M1240.06 1349.48C1237.99 1349.48 1236.36 1348.7 1235.17 1347.14C1233.99 1345.59 1233.41 1343.45 1233.41 1340.74C1233.41 1338.95 1233.68 1337.39 1234.24 1336.07C1234.79 1334.73 1235.58 1333.69 1236.61 1332.97C1237.65 1332.24 1238.86 1331.88 1240.22 1331.88C1241.33 1331.88 1242.31 1332.16 1243.17 1332.71C1244.02 1333.27 1244.71 1334.07 1245.25 1335.11V1325.96H1248.77V1349H1245.41V1345.96C1244.87 1347.09 1244.15 1347.97 1243.23 1348.58C1242.31 1349.18 1241.26 1349.48 1240.06 1349.48ZM1237.09 1340.62C1237.09 1342.69 1237.44 1344.29 1238.14 1345.42C1238.87 1346.55 1239.88 1347.11 1241.18 1347.11C1242.48 1347.11 1243.51 1346.56 1244.25 1345.45C1245 1344.34 1245.37 1342.78 1245.37 1340.78C1245.37 1338.75 1244.98 1337.16 1244.19 1336.01C1243.42 1334.83 1242.39 1334.25 1241.09 1334.25C1239.81 1334.25 1238.81 1334.8 1238.11 1335.91C1237.43 1337 1237.09 1338.57 1237.09 1340.62Z" fill="black"/>
<path d="M1215.46 1332.36H1218.98V1335.85C1219.41 1334.74 1220.12 1333.82 1221.13 1333.1C1222.15 1332.35 1223.31 1331.98 1224.61 1331.98C1226.24 1331.98 1227.51 1332.47 1228.42 1333.45C1229.34 1334.41 1229.8 1335.81 1229.8 1337.64V1349H1226.28V1338.47C1226.28 1335.87 1225.29 1334.57 1223.3 1334.57C1222.56 1334.57 1221.85 1334.79 1221.19 1335.24C1220.53 1335.69 1220 1336.35 1219.59 1337.22C1219.19 1338.08 1218.98 1339.09 1218.98 1340.26V1349H1215.46V1332.36Z" fill="black"/>
<path d="M1201.58 1349.38C1199.98 1349.38 1198.72 1348.9 1197.8 1347.94C1196.91 1346.96 1196.46 1345.55 1196.46 1343.72V1332.36H1199.98V1342.89C1199.98 1344.25 1200.23 1345.25 1200.72 1345.86C1201.23 1346.48 1201.95 1346.79 1202.89 1346.79C1203.64 1346.79 1204.33 1346.57 1204.97 1346.12C1205.63 1345.67 1206.16 1345.02 1206.54 1344.17C1206.95 1343.29 1207.15 1342.27 1207.15 1341.1V1332.36H1210.67V1349H1207.15V1345.51C1206.7 1346.62 1205.97 1347.55 1204.97 1348.3C1203.99 1349.02 1202.86 1349.38 1201.58 1349.38Z" fill="black"/>
<path d="M1184.13 1349.51C1182.44 1349.51 1180.91 1349.23 1179.52 1348.68C1178.13 1348.1 1176.99 1347.24 1176.1 1346.09C1175.2 1344.94 1174.68 1343.51 1174.53 1341.8H1177.63C1177.85 1343.42 1178.56 1344.68 1179.78 1345.58C1180.99 1346.47 1182.44 1346.92 1184.13 1346.92C1185.73 1346.92 1186.96 1346.58 1187.81 1345.9C1188.68 1345.21 1189.12 1344.3 1189.12 1343.14C1189.12 1342.1 1188.76 1341.31 1188.03 1340.78C1187.33 1340.24 1186.28 1339.84 1184.9 1339.56L1182.05 1338.98C1179.87 1338.54 1178.2 1337.83 1177.03 1336.87C1175.87 1335.89 1175.3 1334.56 1175.3 1332.87C1175.3 1331.72 1175.62 1330.65 1176.26 1329.67C1176.92 1328.69 1177.86 1327.91 1179.07 1327.34C1180.31 1326.74 1181.75 1326.44 1183.39 1326.44C1185.59 1326.44 1187.47 1326.95 1189.03 1327.98C1190.58 1329 1191.61 1330.47 1192.1 1332.39L1188.67 1333.06C1188.33 1331.7 1187.67 1330.66 1186.69 1329.96C1185.73 1329.26 1184.56 1328.9 1183.17 1328.9C1181.8 1328.9 1180.74 1329.22 1179.97 1329.86C1179.2 1330.48 1178.82 1331.3 1178.82 1332.33C1178.82 1333.2 1179.14 1333.92 1179.78 1334.47C1180.44 1335.01 1181.49 1335.42 1182.95 1335.72L1185.7 1336.3C1188.11 1336.79 1189.87 1337.53 1190.98 1338.54C1192.11 1339.54 1192.67 1340.91 1192.67 1342.66C1192.67 1343.99 1192.32 1345.17 1191.62 1346.22C1190.91 1347.24 1189.91 1348.05 1188.61 1348.65C1187.33 1349.22 1185.84 1349.51 1184.13 1349.51Z" fill="black"/>
</g>
<defs>
<clipPath id="clip0_101_3094">
<rect width="1404" height="1872" fill="white"/>
</clipPath>
</defs>
</svg>
