<svg width="1404" height="1872" viewBox="0 0 1404 1872" fill="none" xmlns="http://www.w3.org/2000/svg">
<g clip-path="url(#clip0_101_2817)">
<path d="M1404 0H0V1872H1404V0Z" fill="white"/>
<path fill-rule="evenodd" clip-rule="evenodd" d="M1404 146.75H1V146.25H1404V146.75Z" fill="black"/>
<path fill-rule="evenodd" clip-rule="evenodd" d="M1404 312.75H1V312.25H1404V312.75Z" fill="black"/>
<path fill-rule="evenodd" clip-rule="evenodd" d="M1404 223.75H1V223.25H1404V223.75Z" fill="black"/>
<path fill-rule="evenodd" clip-rule="evenodd" d="M200.25 1872V224H200.75V1872H200.25Z" fill="black"/>
<path fill-rule="evenodd" clip-rule="evenodd" d="M401.25 1872V224H401.75V1872H401.25Z" fill="black"/>
<path fill-rule="evenodd" clip-rule="evenodd" d="M602.25 1872V224H602.75V1872H602.25Z" fill="black"/>
<path fill-rule="evenodd" clip-rule="evenodd" d="M802.25 1872V224H802.75V1872H802.25Z" fill="black"/>
<path fill-rule="evenodd" clip-rule="evenodd" d="M1003.25 1872V224H1003.75V1872H1003.25Z" fill="black"/>
<path fill-rule="evenodd" clip-rule="evenodd" d="M1203.25 1872V224H1203.75V1872H1203.25Z" fill="black"/>
<path d="M207.459 193.24C206.995 193.24 206.595 193.08 206.259 192.76C205.939 192.44 205.779 192.056 205.779 191.608C205.779 191.144 205.939 190.752 206.259 190.432C206.595 190.112 206.995 189.952 207.459 189.952C207.923 189.952 208.315 190.112 208.635 190.432C208.971 190.752 209.139 191.144 209.139 191.608C209.139 192.056 208.971 192.44 208.635 192.76C208.315 193.08 207.923 193.24 207.459 193.24ZM207.459 184.336C206.995 184.336 206.595 184.176 206.259 183.856C205.939 183.536 205.779 183.152 205.779 182.704C205.779 182.24 205.939 181.848 206.259 181.528C206.595 181.208 206.995 181.048 207.459 181.048C207.923 181.048 208.315 181.208 208.635 181.528C208.971 181.848 209.139 182.24 209.139 182.704C209.139 183.152 208.971 183.536 208.635 183.856C208.315 184.176 207.923 184.336 207.459 184.336Z" fill="black"/>
<path d="M190.374 176.44H197.886C198.862 176.44 199.742 176.64 200.526 177.04C201.31 177.424 201.926 177.96 202.374 178.648C202.822 179.336 203.046 180.104 203.046 180.952C203.046 182.056 202.67 183 201.918 183.784C201.166 184.568 200.174 185.04 198.942 185.2C199.566 185.328 200.086 185.6 200.502 186.016C200.918 186.416 201.254 186.88 201.51 187.408C201.782 187.936 202.078 188.64 202.398 189.52L203.67 193H200.646L199.71 189.976C199.406 188.968 199.118 188.208 198.846 187.696C198.59 187.168 198.246 186.776 197.814 186.52C197.398 186.248 196.822 186.112 196.086 186.112H193.086V193H190.374V176.44ZM197.19 184.144C198.038 184.144 198.766 183.904 199.374 183.424C199.982 182.928 200.286 182.216 200.286 181.288C200.286 180.344 199.99 179.632 199.398 179.152C198.822 178.656 198.094 178.408 197.214 178.408H193.086V184.144H197.19Z" fill="black"/>
<path d="M176.2 176.44H187.072V178.432H178.936V183.424H186.472V185.416H178.936V191.008H187.312V193H176.2V176.44Z" fill="black"/>
<path d="M160.526 176.44H167.846C168.822 176.44 169.678 176.616 170.414 176.968C171.15 177.304 171.718 177.784 172.118 178.408C172.518 179.016 172.718 179.696 172.718 180.448C172.718 181.36 172.422 182.136 171.83 182.776C171.254 183.4 170.486 183.808 169.526 184C170.694 184.256 171.614 184.76 172.286 185.512C172.958 186.264 173.294 187.2 173.294 188.32C173.294 189.2 173.078 190 172.646 190.72C172.23 191.424 171.614 191.984 170.798 192.4C169.998 192.8 169.062 193 167.99 193H160.526V176.44ZM167.342 191.104C168.318 191.104 169.094 190.848 169.67 190.336C170.246 189.824 170.534 189.08 170.534 188.104C170.534 187.224 170.222 186.536 169.598 186.04C168.99 185.528 168.222 185.272 167.294 185.272H163.166V191.104H167.342ZM167.15 183.352C167.966 183.352 168.638 183.144 169.166 182.728C169.71 182.296 169.982 181.672 169.982 180.856C169.982 180.024 169.726 179.4 169.214 178.984C168.702 178.552 168.014 178.336 167.15 178.336H163.166V183.352H167.15Z" fill="black"/>
<path d="M139.555 176.44H143.587L148.051 189.328L152.515 176.44H156.691V193H153.955V178.552L149.011 193H146.731L141.787 178.624V193H139.555V176.44Z" fill="black"/>
<path d="M129.168 193.36C127.776 193.36 126.576 193.096 125.568 192.568C124.56 192.04 123.792 191.304 123.264 190.36C122.752 189.416 122.496 188.328 122.496 187.096V176.44H125.232V187.096C125.232 188.376 125.56 189.416 126.216 190.216C126.872 191 127.856 191.392 129.168 191.392C130.48 191.392 131.456 191 132.096 190.216C132.752 189.416 133.08 188.376 133.08 187.096V176.44H135.816V187.096C135.816 188.328 135.552 189.416 135.024 190.36C134.512 191.304 133.752 192.04 132.744 192.568C131.752 193.096 130.56 193.36 129.168 193.36Z" fill="black"/>
<path d="M104.973 176.44H108.885L116.493 190.624V176.44H118.749V193H114.885L107.205 178.696V193H104.973V176.44Z" fill="black"/>
<path d="M84.3591 176.44H87.0951V185.368L94.7991 176.44H97.6791L91.7991 182.92L98.1591 193H94.8951L89.9271 184.96L87.0951 188.128V193H84.3591V176.44Z" fill="black"/>
<path d="M70.185 176.44H81.057V178.432H72.921V183.424H80.457V185.416H72.921V191.008H81.297V193H70.185V176.44Z" fill="black"/>
<path d="M56.0109 176.44H66.8829V178.432H58.7469V183.424H66.2829V185.416H58.7469V191.008H67.1229V193H56.0109V176.44Z" fill="black"/>
<path d="M31.128 176.44H33.96L37.416 191.008L40.8 176.44H43.776L47.256 191.032L50.688 176.44H53.064L48.864 193H45.264L42.096 179.752L38.952 193H35.28L31.128 176.44Z" fill="black"/>
<path d="M349.912 284.92C349.187 284.92 348.515 284.835 347.896 284.664V282.04C348.429 282.189 348.995 282.264 349.592 282.264C350.467 282.264 351.213 282.04 351.832 281.592C352.472 281.144 353.069 280.419 353.624 279.416L346.84 262.36H350.744L355.448 275.224L359.992 262.36H363.032L357.08 277.976C356.461 279.597 355.843 280.899 355.224 281.88C354.605 282.883 353.869 283.64 353.016 284.152C352.163 284.664 351.128 284.92 349.912 284.92Z" fill="black"/>
<path d="M335.576 279.384C334.126 279.384 332.899 279.021 331.896 278.296C330.915 277.571 330.424 276.493 330.424 275.064C330.424 272.547 332.312 270.851 336.088 269.976C337.326 269.699 338.275 269.443 338.936 269.208C339.598 268.973 340.067 268.696 340.344 268.376C340.643 268.035 340.792 267.608 340.792 267.096C340.792 266.328 340.494 265.667 339.896 265.112C339.32 264.536 338.478 264.248 337.368 264.248C336.408 264.248 335.598 264.504 334.936 265.016C334.275 265.507 333.827 266.2 333.592 267.096H330.776C331.096 265.475 331.875 264.195 333.112 263.256C334.35 262.317 335.832 261.848 337.56 261.848C339.758 261.848 341.422 262.413 342.552 263.544C343.683 264.675 344.248 266.157 344.248 267.992V275.192C344.248 275.96 344.387 276.493 344.664 276.792C344.963 277.069 345.379 277.187 345.912 277.144V278.936C345.464 279.107 344.963 279.192 344.408 279.192C342.254 279.192 341.134 278.157 341.048 276.088C340.664 276.941 340.003 277.709 339.064 278.392C338.147 279.053 336.984 279.384 335.576 279.384ZM333.976 274.776C333.976 275.437 334.222 275.971 334.712 276.376C335.203 276.76 335.875 276.952 336.728 276.952C337.88 276.952 338.84 276.568 339.608 275.8C340.376 275.032 340.76 273.912 340.76 272.44V269.848C340.504 270.317 340.088 270.712 339.512 271.032C338.958 271.331 338.264 271.597 337.432 271.832C336.152 272.195 335.256 272.611 334.744 273.08C334.232 273.528 333.976 274.093 333.976 274.776Z" fill="black"/>
<path d="M317.89 279.48C315.821 279.48 314.189 278.701 312.994 277.144C311.821 275.587 311.234 273.453 311.234 270.744C311.234 268.952 311.511 267.395 312.066 266.072C312.621 264.728 313.41 263.693 314.434 262.968C315.479 262.243 316.685 261.88 318.05 261.88C319.159 261.88 320.141 262.157 320.994 262.712C321.847 263.267 322.541 264.067 323.074 265.112V255.96H326.594V279H323.234V275.96C322.701 277.091 321.975 277.965 321.058 278.584C320.141 279.181 319.085 279.48 317.89 279.48ZM314.914 270.616C314.914 272.685 315.266 274.285 315.97 275.416C316.695 276.547 317.709 277.112 319.01 277.112C320.311 277.112 321.335 276.557 322.082 275.448C322.829 274.339 323.202 272.781 323.202 270.776C323.202 268.749 322.807 267.16 322.018 266.008C321.25 264.835 320.215 264.248 318.914 264.248C317.634 264.248 316.642 264.803 315.938 265.912C315.255 267 314.914 268.568 314.914 270.616Z" fill="black"/>
<path d="M302.217 279.48C300.169 279.48 298.473 278.989 297.129 278.008C295.785 277.005 295.017 275.587 294.825 273.752H297.577C297.747 274.84 298.259 275.693 299.113 276.312C299.987 276.909 301.011 277.208 302.185 277.208C303.273 277.208 304.126 276.984 304.745 276.536C305.363 276.067 305.673 275.437 305.673 274.648C305.673 273.944 305.417 273.411 304.905 273.048C304.393 272.664 303.603 272.365 302.537 272.152L300.617 271.736C298.889 271.352 297.566 270.787 296.649 270.04C295.731 269.293 295.273 268.259 295.273 266.936C295.273 266.04 295.529 265.208 296.041 264.44C296.553 263.651 297.278 263.032 298.217 262.584C299.177 262.115 300.297 261.88 301.577 261.88C303.262 261.88 304.702 262.264 305.897 263.032C307.091 263.8 307.902 264.888 308.329 266.296L305.257 266.904C305.001 266.008 304.542 265.325 303.881 264.856C303.219 264.365 302.409 264.12 301.449 264.12C300.51 264.12 299.763 264.333 299.209 264.76C298.675 265.187 298.409 265.752 298.409 266.456C298.409 267.053 298.643 267.533 299.113 267.896C299.603 268.237 300.425 268.536 301.577 268.792L303.369 269.176C305.246 269.603 306.633 270.2 307.529 270.968C308.425 271.736 308.873 272.835 308.873 274.264C308.873 275.288 308.585 276.195 308.009 276.984C307.454 277.773 306.665 278.392 305.641 278.84C304.638 279.267 303.497 279.48 302.217 279.48Z" fill="black"/>
<path d="M284.98 279.48C283.423 279.48 282.047 279.139 280.852 278.456C279.679 277.752 278.761 276.749 278.1 275.448C277.439 274.147 277.108 272.621 277.108 270.872C277.108 269.187 277.428 267.661 278.068 266.296C278.729 264.931 279.647 263.853 280.82 263.064C281.993 262.275 283.337 261.88 284.852 261.88C286.473 261.88 287.86 262.275 289.012 263.064C290.185 263.853 291.06 264.941 291.636 266.328C292.212 267.715 292.457 269.283 292.372 271.032H280.628C280.713 272.952 281.204 274.424 282.1 275.448C282.996 276.451 284.095 276.952 285.396 276.952C286.441 276.952 287.305 276.696 287.988 276.184C288.671 275.651 289.193 274.915 289.556 273.976H292.244C291.711 275.896 290.793 277.293 289.492 278.168C288.191 279.043 286.687 279.48 284.98 279.48ZM288.756 268.92C288.649 267.384 288.233 266.2 287.508 265.368C286.804 264.536 285.876 264.12 284.724 264.12C283.615 264.12 282.697 264.547 281.972 265.4C281.268 266.232 280.831 267.405 280.66 268.92H288.756Z" fill="black"/>
<path d="M264.346 279.384C262.746 279.384 261.487 278.904 260.57 277.944C259.674 276.963 259.226 275.555 259.226 273.72V262.36H262.746V272.888C262.746 274.253 262.991 275.245 263.482 275.864C263.994 276.483 264.719 276.792 265.658 276.792C266.405 276.792 267.098 276.568 267.738 276.12C268.399 275.672 268.922 275.021 269.306 274.168C269.711 273.293 269.914 272.269 269.914 271.096V262.36H273.434V279H269.914V275.512C269.466 276.621 268.741 277.549 267.738 278.296C266.757 279.021 265.626 279.384 264.346 279.384Z" fill="black"/>
<path d="M247.133 259.576H240.413V256.92H257.469V259.576H250.781V279H247.133V259.576Z" fill="black"/>
<path d="M147.037 284.92C146.312 284.92 145.64 284.835 145.021 284.664V282.04C145.554 282.189 146.12 282.264 146.717 282.264C147.592 282.264 148.338 282.04 148.957 281.592C149.597 281.144 150.194 280.419 150.749 279.416L143.965 262.36H147.869L152.573 275.224L157.117 262.36H160.157L154.205 277.976C153.586 279.597 152.968 280.899 152.349 281.88C151.73 282.883 150.994 283.64 150.141 284.152C149.288 284.664 148.253 284.92 147.037 284.92Z" fill="black"/>
<path d="M132.701 279.384C131.251 279.384 130.024 279.021 129.021 278.296C128.04 277.571 127.549 276.493 127.549 275.064C127.549 272.547 129.437 270.851 133.213 269.976C134.451 269.699 135.4 269.443 136.061 269.208C136.723 268.973 137.192 268.696 137.469 268.376C137.768 268.035 137.917 267.608 137.917 267.096C137.917 266.328 137.619 265.667 137.021 265.112C136.445 264.536 135.603 264.248 134.493 264.248C133.533 264.248 132.723 264.504 132.061 265.016C131.4 265.507 130.952 266.2 130.717 267.096H127.901C128.221 265.475 129 264.195 130.237 263.256C131.475 262.317 132.957 261.848 134.685 261.848C136.883 261.848 138.547 262.413 139.677 263.544C140.808 264.675 141.373 266.157 141.373 267.992V275.192C141.373 275.96 141.512 276.493 141.789 276.792C142.088 277.069 142.504 277.187 143.037 277.144V278.936C142.589 279.107 142.088 279.192 141.533 279.192C139.379 279.192 138.259 278.157 138.173 276.088C137.789 276.941 137.128 277.709 136.189 278.392C135.272 279.053 134.109 279.384 132.701 279.384ZM131.101 274.776C131.101 275.437 131.347 275.971 131.837 276.376C132.328 276.76 133 276.952 133.853 276.952C135.005 276.952 135.965 276.568 136.733 275.8C137.501 275.032 137.885 273.912 137.885 272.44V269.848C137.629 270.317 137.213 270.712 136.637 271.032C136.083 271.331 135.389 271.597 134.557 271.832C133.277 272.195 132.381 272.611 131.869 273.08C131.357 273.528 131.101 274.093 131.101 274.776Z" fill="black"/>
<path d="M115.015 279.48C112.946 279.48 111.314 278.701 110.119 277.144C108.946 275.587 108.359 273.453 108.359 270.744C108.359 268.952 108.636 267.395 109.191 266.072C109.746 264.728 110.535 263.693 111.559 262.968C112.604 262.243 113.81 261.88 115.175 261.88C116.284 261.88 117.266 262.157 118.119 262.712C118.972 263.267 119.666 264.067 120.199 265.112V255.96H123.719V279H120.359V275.96C119.826 277.091 119.1 277.965 118.183 278.584C117.266 279.181 116.21 279.48 115.015 279.48ZM112.039 270.616C112.039 272.685 112.391 274.285 113.095 275.416C113.82 276.547 114.834 277.112 116.135 277.112C117.436 277.112 118.46 276.557 119.207 275.448C119.954 274.339 120.327 272.781 120.327 270.776C120.327 268.749 119.932 267.16 119.143 266.008C118.375 264.835 117.34 264.248 116.039 264.248C114.759 264.248 113.767 264.803 113.063 265.912C112.38 267 112.039 268.568 112.039 270.616Z" fill="black"/>
<path d="M90.4156 262.36H93.9356V265.848C94.3623 264.739 95.077 263.821 96.0796 263.096C97.1036 262.349 98.2663 261.976 99.5676 261.976C101.189 261.976 102.458 262.467 103.376 263.448C104.293 264.408 104.752 265.805 104.752 267.64V279H101.232V268.472C101.232 265.869 100.24 264.568 98.2556 264.568C97.509 264.568 96.8049 264.792 96.1436 265.24C95.4823 265.688 94.949 266.349 94.5436 267.224C94.1383 268.077 93.9356 269.091 93.9356 270.264V279H90.4156V262.36Z" fill="black"/>
<path d="M78.7934 279.48C77.2147 279.48 75.828 279.128 74.6334 278.424C73.4387 277.699 72.5107 276.675 71.8494 275.352C71.2094 274.029 70.8894 272.493 70.8894 270.744C70.8894 268.995 71.2094 267.448 71.8494 266.104C72.5107 264.76 73.4387 263.725 74.6334 263C75.828 262.253 77.2147 261.88 78.7934 261.88C80.372 261.88 81.7587 262.243 82.9534 262.968C84.148 263.693 85.076 264.717 85.7374 266.04C86.3987 267.363 86.7294 268.899 86.7294 270.648C86.7294 272.397 86.3987 273.944 85.7374 275.288C85.076 276.611 84.148 277.645 82.9534 278.392C81.7587 279.117 80.372 279.48 78.7934 279.48ZM74.5694 270.584C74.5694 272.632 74.9427 274.253 75.6894 275.448C76.4574 276.621 77.5027 277.208 78.8254 277.208C80.1267 277.208 81.1507 276.653 81.8974 275.544C82.6654 274.413 83.0494 272.835 83.0494 270.808C83.0494 268.739 82.6654 267.117 81.8974 265.944C81.1294 264.749 80.084 264.152 78.7614 264.152C77.4387 264.152 76.404 264.717 75.6574 265.848C74.932 266.979 74.5694 268.557 74.5694 270.584Z" fill="black"/>
<path d="M44.0481 256.92H49.4241L55.3761 274.104L61.3281 256.92H66.8961V279H63.2481V259.736L56.6561 279H53.6161L47.0241 259.832V279H44.0481V256.92Z" fill="black"/>
<path d="M575.99 284.92C575.265 284.92 574.593 284.835 573.974 284.664V282.04C574.508 282.189 575.073 282.264 575.67 282.264C576.545 282.264 577.292 282.04 577.91 281.592C578.55 281.144 579.148 280.419 579.702 279.416L572.918 262.36H576.822L581.526 275.224L586.07 262.36H589.11L583.158 277.976C582.54 279.597 581.921 280.899 581.302 281.88C580.684 282.883 579.948 283.64 579.094 284.152C578.241 284.664 577.206 284.92 575.99 284.92Z" fill="black"/>
<path d="M561.654 279.384C560.204 279.384 558.977 279.021 557.975 278.296C556.993 277.571 556.503 276.493 556.503 275.064C556.503 272.547 558.391 270.851 562.167 269.976C563.404 269.699 564.353 269.443 565.014 269.208C565.676 268.973 566.145 268.696 566.423 268.376C566.721 268.035 566.87 267.608 566.87 267.096C566.87 266.328 566.572 265.667 565.975 265.112C565.399 264.536 564.556 264.248 563.447 264.248C562.487 264.248 561.676 264.504 561.014 265.016C560.353 265.507 559.905 266.2 559.671 267.096H556.855C557.175 265.475 557.953 264.195 559.191 263.256C560.428 262.317 561.911 261.848 563.639 261.848C565.836 261.848 567.5 262.413 568.63 263.544C569.761 264.675 570.327 266.157 570.327 267.992V275.192C570.327 275.96 570.465 276.493 570.742 276.792C571.041 277.069 571.457 277.187 571.991 277.144V278.936C571.543 279.107 571.041 279.192 570.486 279.192C568.332 279.192 567.212 278.157 567.126 276.088C566.742 276.941 566.081 277.709 565.143 278.392C564.225 279.053 563.062 279.384 561.654 279.384ZM560.055 274.776C560.055 275.437 560.3 275.971 560.79 276.376C561.281 276.76 561.953 276.952 562.807 276.952C563.959 276.952 564.918 276.568 565.686 275.8C566.454 275.032 566.839 273.912 566.839 272.44V269.848C566.583 270.317 566.166 270.712 565.59 271.032C565.036 271.331 564.342 271.597 563.51 271.832C562.23 272.195 561.334 272.611 560.822 273.08C560.31 273.528 560.055 274.093 560.055 274.776Z" fill="black"/>
<path d="M543.968 279.48C541.899 279.48 540.267 278.701 539.072 277.144C537.899 275.587 537.312 273.453 537.312 270.744C537.312 268.952 537.589 267.395 538.144 266.072C538.699 264.728 539.488 263.693 540.512 262.968C541.557 262.243 542.763 261.88 544.128 261.88C545.237 261.88 546.219 262.157 547.072 262.712C547.925 263.267 548.619 264.067 549.152 265.112V255.96H552.672V279H549.312V275.96C548.779 277.091 548.053 277.965 547.136 278.584C546.219 279.181 545.163 279.48 543.968 279.48ZM540.992 270.616C540.992 272.685 541.344 274.285 542.048 275.416C542.773 276.547 543.787 277.112 545.088 277.112C546.389 277.112 547.413 276.557 548.16 275.448C548.907 274.339 549.28 272.781 549.28 270.776C549.28 268.749 548.885 267.16 548.096 266.008C547.328 264.835 546.293 264.248 544.992 264.248C543.712 264.248 542.72 264.803 542.016 265.912C541.333 267 540.992 268.568 540.992 270.616Z" fill="black"/>
<path d="M528.295 279.48C526.247 279.48 524.551 278.989 523.207 278.008C521.863 277.005 521.095 275.587 520.903 273.752H523.655C523.825 274.84 524.337 275.693 525.191 276.312C526.065 276.909 527.089 277.208 528.263 277.208C529.351 277.208 530.204 276.984 530.823 276.536C531.441 276.067 531.751 275.437 531.751 274.648C531.751 273.944 531.495 273.411 530.983 273.048C530.471 272.664 529.681 272.365 528.615 272.152L526.695 271.736C524.967 271.352 523.644 270.787 522.727 270.04C521.809 269.293 521.351 268.259 521.351 266.936C521.351 266.04 521.607 265.208 522.119 264.44C522.631 263.651 523.356 263.032 524.295 262.584C525.255 262.115 526.375 261.88 527.655 261.88C529.34 261.88 530.78 262.264 531.975 263.032C533.169 263.8 533.98 264.888 534.407 266.296L531.335 266.904C531.079 266.008 530.62 265.325 529.959 264.856C529.297 264.365 528.487 264.12 527.527 264.12C526.588 264.12 525.841 264.333 525.287 264.76C524.753 265.187 524.487 265.752 524.487 266.456C524.487 267.053 524.721 267.533 525.191 267.896C525.681 268.237 526.503 268.536 527.655 268.792L529.447 269.176C531.324 269.603 532.711 270.2 533.607 270.968C534.503 271.736 534.951 272.835 534.951 274.264C534.951 275.288 534.663 276.195 534.087 276.984C533.532 277.773 532.743 278.392 531.719 278.84C530.716 279.267 529.575 279.48 528.295 279.48Z" fill="black"/>
<path d="M511.058 279.48C509.501 279.48 508.125 279.139 506.93 278.456C505.757 277.752 504.84 276.749 504.178 275.448C503.517 274.147 503.186 272.621 503.186 270.872C503.186 269.187 503.506 267.661 504.146 266.296C504.808 264.931 505.725 263.853 506.898 263.064C508.072 262.275 509.416 261.88 510.93 261.88C512.552 261.88 513.938 262.275 515.09 263.064C516.264 263.853 517.138 264.941 517.714 266.328C518.29 267.715 518.536 269.283 518.45 271.032H506.706C506.792 272.952 507.282 274.424 508.178 275.448C509.074 276.451 510.173 276.952 511.474 276.952C512.52 276.952 513.384 276.696 514.066 276.184C514.749 275.651 515.272 274.915 515.634 273.976H518.322C517.789 275.896 516.872 277.293 515.57 278.168C514.269 279.043 512.765 279.48 511.058 279.48ZM514.834 268.92C514.728 267.384 514.312 266.2 513.586 265.368C512.882 264.536 511.954 264.12 510.802 264.12C509.693 264.12 508.776 264.547 508.05 265.4C507.346 266.232 506.909 267.405 506.738 268.92H514.834Z" fill="black"/>
<path d="M485.275 262.36H488.795V265.848C489.222 264.739 489.936 263.821 490.939 263.096C491.963 262.349 493.126 261.976 494.427 261.976C496.048 261.976 497.318 262.467 498.235 263.448C499.152 264.408 499.611 265.805 499.611 267.64V279H496.091V268.472C496.091 265.869 495.099 264.568 493.115 264.568C492.368 264.568 491.664 264.792 491.003 265.24C490.342 265.688 489.808 266.349 489.403 267.224C488.998 268.077 488.795 269.091 488.795 270.264V279H485.275V262.36Z" fill="black"/>
<path d="M471.781 279.48C469.711 279.48 468.079 278.701 466.885 277.144C465.711 275.587 465.125 273.453 465.125 270.744C465.125 268.952 465.402 267.395 465.957 266.072C466.511 264.728 467.301 263.693 468.325 262.968C469.37 262.243 470.575 261.88 471.941 261.88C473.05 261.88 474.031 262.157 474.885 262.712C475.738 263.267 476.431 264.067 476.965 265.112V255.96H480.485V279H477.125V275.96C476.591 277.091 475.866 277.965 474.949 278.584C474.031 279.181 472.975 279.48 471.781 279.48ZM468.805 270.616C468.805 272.685 469.157 274.285 469.861 275.416C470.586 276.547 471.599 277.112 472.901 277.112C474.202 277.112 475.226 276.557 475.973 275.448C476.719 274.339 477.093 272.781 477.093 270.776C477.093 268.749 476.698 267.16 475.909 266.008C475.141 264.835 474.106 264.248 472.805 264.248C471.525 264.248 470.533 264.803 469.829 265.912C469.146 267 468.805 268.568 468.805 270.616Z" fill="black"/>
<path d="M455.152 279.48C453.595 279.48 452.219 279.139 451.024 278.456C449.851 277.752 448.933 276.749 448.272 275.448C447.611 274.147 447.28 272.621 447.28 270.872C447.28 269.187 447.6 267.661 448.24 266.296C448.901 264.931 449.819 263.853 450.992 263.064C452.165 262.275 453.509 261.88 455.024 261.88C456.645 261.88 458.032 262.275 459.184 263.064C460.357 263.853 461.232 264.941 461.808 266.328C462.384 267.715 462.629 269.283 462.544 271.032H450.8C450.885 272.952 451.376 274.424 452.272 275.448C453.168 276.451 454.267 276.952 455.568 276.952C456.613 276.952 457.477 276.696 458.16 276.184C458.843 275.651 459.365 274.915 459.728 273.976H462.416C461.883 275.896 460.965 277.293 459.664 278.168C458.363 279.043 456.859 279.48 455.152 279.48ZM458.928 268.92C458.821 267.384 458.405 266.2 457.68 265.368C456.976 264.536 456.048 264.12 454.896 264.12C453.787 264.12 452.869 264.547 452.144 265.4C451.44 266.232 451.003 267.405 450.832 268.92H458.928Z" fill="black"/>
<path d="M416.879 256.92H420.655L425.263 276.344L429.775 256.92H433.743L438.383 276.376L442.959 256.92H446.127L440.527 279H435.727L431.503 261.336L427.311 279H422.415L416.879 256.92Z" fill="black"/>
<path d="M759.365 284.92C758.64 284.92 757.968 284.835 757.349 284.664V282.04C757.883 282.189 758.448 282.264 759.045 282.264C759.92 282.264 760.667 282.04 761.285 281.592C761.925 281.144 762.523 280.419 763.077 279.416L756.293 262.36H760.197L764.901 275.224L769.445 262.36H772.485L766.533 277.976C765.915 279.597 765.296 280.899 764.677 281.88C764.059 282.883 763.323 283.64 762.469 284.152C761.616 284.664 760.581 284.92 759.365 284.92Z" fill="black"/>
<path d="M745.03 279.384C743.579 279.384 742.352 279.021 741.35 278.296C740.368 277.571 739.878 276.493 739.878 275.064C739.878 272.547 741.766 270.851 745.542 269.976C746.779 269.699 747.728 269.443 748.39 269.208C749.051 268.973 749.52 268.696 749.798 268.376C750.096 268.035 750.245 267.608 750.245 267.096C750.245 266.328 749.947 265.667 749.35 265.112C748.774 264.536 747.931 264.248 746.822 264.248C745.862 264.248 745.051 264.504 744.39 265.016C743.728 265.507 743.28 266.2 743.046 267.096H740.229C740.549 265.475 741.328 264.195 742.565 263.256C743.803 262.317 745.286 261.848 747.014 261.848C749.211 261.848 750.875 262.413 752.006 263.544C753.136 264.675 753.701 266.157 753.701 267.992V275.192C753.701 275.96 753.84 276.493 754.118 276.792C754.416 277.069 754.832 277.187 755.366 277.144V278.936C754.918 279.107 754.416 279.192 753.862 279.192C751.707 279.192 750.587 278.157 750.502 276.088C750.118 276.941 749.456 277.709 748.518 278.392C747.6 279.053 746.438 279.384 745.03 279.384ZM743.429 274.776C743.429 275.437 743.675 275.971 744.165 276.376C744.656 276.76 745.328 276.952 746.182 276.952C747.334 276.952 748.294 276.568 749.062 275.8C749.83 275.032 750.214 273.912 750.214 272.44V269.848C749.958 270.317 749.541 270.712 748.965 271.032C748.411 271.331 747.717 271.597 746.885 271.832C745.605 272.195 744.71 272.611 744.198 273.08C743.686 273.528 743.429 274.093 743.429 274.776Z" fill="black"/>
<path d="M727.343 279.48C725.274 279.48 723.642 278.701 722.447 277.144C721.274 275.587 720.687 273.453 720.687 270.744C720.687 268.952 720.964 267.395 721.519 266.072C722.074 264.728 722.863 263.693 723.887 262.968C724.932 262.243 726.138 261.88 727.503 261.88C728.612 261.88 729.594 262.157 730.447 262.712C731.3 263.267 731.994 264.067 732.527 265.112V255.96H736.047V279H732.687V275.96C732.154 277.091 731.428 277.965 730.511 278.584C729.594 279.181 728.538 279.48 727.343 279.48ZM724.367 270.616C724.367 272.685 724.719 274.285 725.423 275.416C726.148 276.547 727.162 277.112 728.463 277.112C729.764 277.112 730.788 276.557 731.535 275.448C732.282 274.339 732.655 272.781 732.655 270.776C732.655 268.749 732.26 267.16 731.471 266.008C730.703 264.835 729.668 264.248 728.367 264.248C727.087 264.248 726.095 264.803 725.391 265.912C724.708 267 724.367 268.568 724.367 270.616Z" fill="black"/>
<path d="M711.67 279.48C709.622 279.48 707.926 278.989 706.582 278.008C705.238 277.005 704.47 275.587 704.278 273.752H707.03C707.2 274.84 707.712 275.693 708.566 276.312C709.44 276.909 710.464 277.208 711.638 277.208C712.726 277.208 713.579 276.984 714.198 276.536C714.816 276.067 715.126 275.437 715.126 274.648C715.126 273.944 714.87 273.411 714.358 273.048C713.846 272.664 713.056 272.365 711.99 272.152L710.07 271.736C708.342 271.352 707.019 270.787 706.102 270.04C705.184 269.293 704.726 268.259 704.726 266.936C704.726 266.04 704.982 265.208 705.494 264.44C706.006 263.651 706.731 263.032 707.67 262.584C708.63 262.115 709.75 261.88 711.03 261.88C712.715 261.88 714.155 262.264 715.35 263.032C716.544 263.8 717.355 264.888 717.782 266.296L714.71 266.904C714.454 266.008 713.995 265.325 713.334 264.856C712.672 264.365 711.862 264.12 710.902 264.12C709.963 264.12 709.216 264.333 708.662 264.76C708.128 265.187 707.862 265.752 707.862 266.456C707.862 267.053 708.096 267.533 708.566 267.896C709.056 268.237 709.878 268.536 711.03 268.792L712.822 269.176C714.699 269.603 716.086 270.2 716.982 270.968C717.878 271.736 718.326 272.835 718.326 274.264C718.326 275.288 718.038 276.195 717.462 276.984C716.907 277.773 716.118 278.392 715.094 278.84C714.091 279.267 712.95 279.48 711.67 279.48Z" fill="black"/>
<path d="M693.244 262.36H696.764V266.2H696.828C697.148 265.112 697.702 264.162 698.492 263.352C699.281 262.541 700.252 262.136 701.404 262.136C701.852 262.136 702.15 262.168 702.3 262.232V265.432C702.044 265.368 701.67 265.336 701.18 265.336C699.985 265.336 698.95 265.837 698.076 266.84C697.201 267.821 696.764 269.474 696.764 271.8V279H693.244V262.36Z" fill="black"/>
<path d="M679.362 279.384C677.762 279.384 676.503 278.904 675.586 277.944C674.69 276.963 674.242 275.555 674.242 273.72V262.36H677.762V272.888C677.762 274.253 678.007 275.245 678.498 275.864C679.01 276.483 679.735 276.792 680.674 276.792C681.42 276.792 682.114 276.568 682.754 276.12C683.415 275.672 683.938 275.021 684.322 274.168C684.727 273.293 684.93 272.269 684.93 271.096V262.36H688.45V279H684.93V275.512C684.482 276.621 683.756 277.549 682.754 278.296C681.772 279.021 680.642 279.384 679.362 279.384Z" fill="black"/>
<path d="M655.369 255.96H658.889V265.848C659.337 264.739 660.062 263.821 661.065 263.096C662.067 262.349 663.209 261.976 664.489 261.976C666.089 261.976 667.347 262.467 668.265 263.448C669.182 264.408 669.641 265.805 669.641 267.64V279H666.121V268.472C666.121 267.107 665.865 266.115 665.353 265.496C664.862 264.877 664.137 264.568 663.177 264.568C662.43 264.568 661.726 264.792 661.065 265.24C660.425 265.688 659.902 266.349 659.497 267.224C659.091 268.077 658.889 269.091 658.889 270.264V279H655.369V255.96Z" fill="black"/>
<path d="M641.68 259.576H634.96V256.92H652.016V259.576H645.328V279H641.68V259.576Z" fill="black"/>
<path d="M935.99 284.92C935.265 284.92 934.593 284.835 933.974 284.664V282.04C934.508 282.19 935.073 282.264 935.67 282.264C936.545 282.264 937.292 282.04 937.91 281.592C938.55 281.144 939.148 280.419 939.702 279.416L932.918 262.36H936.822L941.526 275.224L946.07 262.36H949.11L943.158 277.976C942.54 279.598 941.921 280.899 941.302 281.88C940.684 282.883 939.948 283.64 939.094 284.152C938.241 284.664 937.206 284.92 935.99 284.92Z" fill="black"/>
<path d="M921.655 279.384C920.204 279.384 918.977 279.021 917.975 278.296C916.993 277.571 916.503 276.493 916.503 275.064C916.503 272.547 918.391 270.851 922.167 269.976C923.404 269.699 924.353 269.443 925.015 269.208C925.676 268.973 926.145 268.696 926.423 268.376C926.721 268.035 926.871 267.608 926.871 267.096C926.871 266.328 926.572 265.667 925.975 265.112C925.399 264.536 924.556 264.248 923.447 264.248C922.487 264.248 921.676 264.504 921.015 265.016C920.353 265.507 919.905 266.2 919.671 267.096H916.855C917.175 265.475 917.953 264.195 919.191 263.256C920.428 262.317 921.911 261.848 923.639 261.848C925.836 261.848 927.5 262.413 928.631 263.544C929.761 264.675 930.327 266.157 930.327 267.992V275.192C930.327 275.96 930.465 276.493 930.743 276.792C931.041 277.069 931.457 277.187 931.991 277.144V278.936C931.543 279.107 931.041 279.192 930.487 279.192C928.332 279.192 927.212 278.157 927.127 276.088C926.743 276.941 926.081 277.709 925.143 278.392C924.225 279.053 923.063 279.384 921.655 279.384ZM920.055 274.776C920.055 275.437 920.3 275.971 920.791 276.376C921.281 276.76 921.953 276.952 922.807 276.952C923.959 276.952 924.919 276.568 925.687 275.8C926.455 275.032 926.839 273.912 926.839 272.44V269.848C926.583 270.317 926.167 270.712 925.591 271.032C925.036 271.331 924.343 271.597 923.511 271.832C922.231 272.195 921.335 272.611 920.823 273.08C920.311 273.528 920.055 274.093 920.055 274.776Z" fill="black"/>
<path d="M903.968 279.48C901.899 279.48 900.267 278.702 899.072 277.144C897.899 275.587 897.312 273.454 897.312 270.744C897.312 268.952 897.589 267.395 898.144 266.072C898.699 264.728 899.488 263.694 900.512 262.968C901.557 262.243 902.763 261.88 904.128 261.88C905.237 261.88 906.219 262.158 907.072 262.712C907.925 263.267 908.619 264.067 909.152 265.112V255.96H912.672V279H909.312V275.96C908.779 277.091 908.053 277.966 907.136 278.584C906.219 279.182 905.163 279.48 903.968 279.48ZM900.992 270.616C900.992 272.686 901.344 274.286 902.048 275.416C902.773 276.547 903.787 277.112 905.088 277.112C906.389 277.112 907.413 276.558 908.16 275.448C908.907 274.339 909.28 272.782 909.28 270.776C909.28 268.75 908.885 267.16 908.096 266.008C907.328 264.835 906.293 264.248 904.992 264.248C903.712 264.248 902.72 264.803 902.016 265.912C901.333 267 900.992 268.568 900.992 270.616Z" fill="black"/>
<path d="M890.056 262.36H893.576V279H890.056V262.36ZM891.848 259.448C891.251 259.448 890.739 259.256 890.312 258.872C889.907 258.467 889.704 257.987 889.704 257.432C889.704 256.878 889.907 256.408 890.312 256.024C890.739 255.64 891.251 255.448 891.848 255.448C892.424 255.448 892.915 255.651 893.32 256.056C893.747 256.44 893.96 256.899 893.96 257.432C893.96 257.987 893.747 258.467 893.32 258.872C892.915 259.256 892.424 259.448 891.848 259.448Z" fill="black"/>
<path d="M877.806 262.36H881.326V266.2H881.39C881.71 265.112 882.265 264.163 883.054 263.352C883.844 262.542 884.814 262.136 885.966 262.136C886.414 262.136 886.713 262.168 886.862 262.232V265.432C886.606 265.368 886.233 265.336 885.742 265.336C884.548 265.336 883.513 265.838 882.638 266.84C881.764 267.822 881.326 269.475 881.326 271.8V279H877.806V262.36Z" fill="black"/>
<path d="M860.095 256.92H874.591V259.576H863.743V266.232H873.791V268.888H863.743V279H860.095V256.92Z" fill="black"/>
<path d="M1158.33 284.92C1157.61 284.92 1156.94 284.835 1156.32 284.664V282.04C1156.85 282.189 1157.42 282.264 1158.01 282.264C1158.89 282.264 1159.64 282.04 1160.25 281.592C1160.89 281.144 1161.49 280.419 1162.05 279.416L1155.26 262.36H1159.17L1163.87 275.224L1168.41 262.36H1171.45L1165.5 277.976C1164.88 279.597 1164.26 280.899 1163.65 281.88C1163.03 282.883 1162.29 283.64 1161.44 284.152C1160.58 284.664 1159.55 284.92 1158.33 284.92Z" fill="black"/>
<path d="M1144 279.384C1142.55 279.384 1141.32 279.021 1140.32 278.296C1139.34 277.571 1138.85 276.493 1138.85 275.064C1138.85 272.547 1140.73 270.851 1144.51 269.976C1145.75 269.699 1146.7 269.443 1147.36 269.208C1148.02 268.973 1148.49 268.696 1148.77 268.376C1149.06 268.035 1149.21 267.608 1149.21 267.096C1149.21 266.328 1148.92 265.667 1148.32 265.112C1147.74 264.536 1146.9 264.248 1145.79 264.248C1144.83 264.248 1144.02 264.504 1143.36 265.016C1142.7 265.507 1142.25 266.2 1142.01 267.096H1139.2C1139.52 265.475 1140.3 264.195 1141.53 263.256C1142.77 262.317 1144.25 261.848 1145.98 261.848C1148.18 261.848 1149.84 262.413 1150.97 263.544C1152.1 264.675 1152.67 266.157 1152.67 267.992V275.192C1152.67 275.96 1152.81 276.493 1153.09 276.792C1153.38 277.069 1153.8 277.187 1154.33 277.144V278.936C1153.89 279.107 1153.38 279.192 1152.83 279.192C1150.68 279.192 1149.56 278.157 1149.47 276.088C1149.09 276.941 1148.42 277.709 1147.49 278.392C1146.57 279.053 1145.41 279.384 1144 279.384ZM1142.4 274.776C1142.4 275.437 1142.64 275.971 1143.13 276.376C1143.62 276.76 1144.3 276.952 1145.15 276.952C1146.3 276.952 1147.26 276.568 1148.03 275.8C1148.8 275.032 1149.18 273.912 1149.18 272.44V269.848C1148.93 270.317 1148.51 270.712 1147.93 271.032C1147.38 271.331 1146.69 271.597 1145.85 271.832C1144.57 272.195 1143.68 272.611 1143.17 273.08C1142.65 273.528 1142.4 274.093 1142.4 274.776Z" fill="black"/>
<path d="M1126.31 279.48C1124.24 279.48 1122.61 278.701 1121.42 277.144C1120.24 275.587 1119.66 273.453 1119.66 270.744C1119.66 268.952 1119.93 267.395 1120.49 266.072C1121.04 264.728 1121.83 263.693 1122.86 262.968C1123.9 262.243 1125.11 261.88 1126.47 261.88C1127.58 261.88 1128.56 262.157 1129.42 262.712C1130.27 263.267 1130.96 264.067 1131.5 265.112V255.96H1135.02V279H1131.66V275.96C1131.12 277.091 1130.4 277.965 1129.48 278.584C1128.56 279.181 1127.51 279.48 1126.31 279.48ZM1123.34 270.616C1123.34 272.685 1123.69 274.285 1124.39 275.416C1125.12 276.547 1126.13 277.112 1127.43 277.112C1128.73 277.112 1129.76 276.557 1130.5 275.448C1131.25 274.339 1131.62 272.781 1131.62 270.776C1131.62 268.749 1131.23 267.16 1130.44 266.008C1129.67 264.835 1128.64 264.248 1127.34 264.248C1126.06 264.248 1125.06 264.803 1124.36 265.912C1123.68 267 1123.34 268.568 1123.34 270.616Z" fill="black"/>
<path d="M1108.99 262.36H1112.51V266.2H1112.58C1112.9 265.112 1113.45 264.162 1114.24 263.352C1115.03 262.541 1116 262.136 1117.15 262.136C1117.6 262.136 1117.9 262.168 1118.05 262.232V265.432C1117.79 265.368 1117.42 265.336 1116.93 265.336C1115.74 265.336 1114.7 265.837 1113.83 266.84C1112.95 267.821 1112.51 269.474 1112.51 271.8V279H1108.99V262.36Z" fill="black"/>
<path d="M1095.11 279.384C1093.51 279.384 1092.25 278.904 1091.34 277.944C1090.44 276.963 1089.99 275.555 1089.99 273.72V262.36H1093.51V272.888C1093.51 274.253 1093.76 275.245 1094.25 275.864C1094.76 276.483 1095.48 276.792 1096.42 276.792C1097.17 276.792 1097.86 276.568 1098.5 276.12C1099.16 275.672 1099.69 275.021 1100.07 274.168C1100.48 273.293 1100.68 272.269 1100.68 271.096V262.36H1104.2V279H1100.68V275.512C1100.23 276.621 1099.51 277.549 1098.5 278.296C1097.52 279.021 1096.39 279.384 1095.11 279.384Z" fill="black"/>
<path d="M1084.17 279.256C1082.47 279.256 1081.16 278.872 1080.27 278.104C1079.39 277.336 1078.96 275.96 1078.96 273.976V264.6H1076.24V262.872C1077.45 262.808 1078.36 262.403 1078.96 261.656C1079.55 260.91 1079.91 259.758 1080.01 258.2H1082.44V262.36H1086.48V264.6H1082.44V274.072C1082.44 275.118 1082.68 275.854 1083.15 276.28C1083.62 276.686 1084.28 276.888 1085.13 276.888C1085.73 276.888 1086.22 276.814 1086.6 276.664V278.84C1086.35 278.968 1086 279.064 1085.55 279.128C1085.1 279.214 1084.64 279.256 1084.17 279.256Z" fill="black"/>
<path d="M1064.5 279.384C1063.05 279.384 1061.82 279.021 1060.82 278.296C1059.84 277.571 1059.35 276.493 1059.35 275.064C1059.35 272.547 1061.23 270.851 1065.01 269.976C1066.25 269.699 1067.2 269.443 1067.86 269.208C1068.52 268.973 1068.99 268.696 1069.27 268.376C1069.56 268.035 1069.71 267.608 1069.71 267.096C1069.71 266.328 1069.42 265.667 1068.82 265.112C1068.24 264.536 1067.4 264.248 1066.29 264.248C1065.33 264.248 1064.52 264.504 1063.86 265.016C1063.2 265.507 1062.75 266.2 1062.51 267.096H1059.7C1060.02 265.475 1060.8 264.195 1062.03 263.256C1063.27 262.317 1064.75 261.848 1066.48 261.848C1068.68 261.848 1070.34 262.413 1071.47 263.544C1072.6 264.675 1073.17 266.157 1073.17 267.992V275.192C1073.17 275.96 1073.31 276.493 1073.59 276.792C1073.88 277.069 1074.3 277.187 1074.83 277.144V278.936C1074.39 279.107 1073.88 279.192 1073.33 279.192C1071.18 279.192 1070.06 278.157 1069.97 276.088C1069.59 276.941 1068.92 277.709 1067.99 278.392C1067.07 279.053 1065.91 279.384 1064.5 279.384ZM1062.9 274.776C1062.9 275.437 1063.14 275.971 1063.63 276.376C1064.12 276.76 1064.8 276.952 1065.65 276.952C1066.8 276.952 1067.76 276.568 1068.53 275.8C1069.3 275.032 1069.68 273.912 1069.68 272.44V269.848C1069.43 270.317 1069.01 270.712 1068.43 271.032C1067.88 271.331 1067.19 271.597 1066.35 271.832C1065.07 272.195 1064.18 272.611 1063.67 273.08C1063.15 273.528 1062.9 274.093 1062.9 274.776Z" fill="black"/>
<path d="M1047.88 279.512C1046.19 279.512 1044.66 279.235 1043.27 278.68C1041.88 278.104 1040.74 277.24 1039.85 276.088C1038.95 274.936 1038.43 273.507 1038.28 271.8H1041.38C1041.6 273.421 1042.31 274.68 1043.53 275.576C1044.74 276.472 1046.19 276.92 1047.88 276.92C1049.48 276.92 1050.71 276.579 1051.56 275.896C1052.43 275.213 1052.87 274.296 1052.87 273.144C1052.87 272.099 1052.51 271.309 1051.78 270.776C1051.08 270.243 1050.03 269.837 1048.65 269.56L1045.8 268.984C1043.62 268.536 1041.95 267.832 1040.78 266.872C1039.62 265.891 1039.05 264.557 1039.05 262.872C1039.05 261.72 1039.37 260.653 1040.01 259.672C1040.67 258.691 1041.61 257.912 1042.82 257.336C1044.06 256.739 1045.5 256.44 1047.14 256.44C1049.34 256.44 1051.22 256.952 1052.78 257.976C1054.33 259 1055.36 260.472 1055.85 262.392L1052.42 263.064C1052.08 261.699 1051.42 260.664 1050.44 259.96C1049.48 259.256 1048.31 258.904 1046.92 258.904C1045.55 258.904 1044.49 259.224 1043.72 259.864C1042.95 260.483 1042.57 261.304 1042.57 262.328C1042.57 263.203 1042.89 263.917 1043.53 264.472C1044.19 265.005 1045.24 265.421 1046.7 265.72L1049.45 266.296C1051.86 266.787 1053.62 267.533 1054.73 268.536C1055.86 269.539 1056.42 270.915 1056.42 272.664C1056.42 273.987 1056.07 275.171 1055.37 276.216C1054.66 277.24 1053.66 278.051 1052.36 278.648C1051.08 279.224 1049.59 279.512 1047.88 279.512Z" fill="black"/>
<path d="M1347.08 284.92C1346.36 284.92 1345.69 284.835 1345.07 284.664V282.04C1345.6 282.189 1346.17 282.264 1346.76 282.264C1347.64 282.264 1348.39 282.04 1349 281.592C1349.64 281.144 1350.24 280.419 1350.8 279.416L1344.01 262.36H1347.92L1352.62 275.224L1357.16 262.36H1360.2L1354.25 277.976C1353.63 279.597 1353.01 280.899 1352.4 281.88C1351.78 282.883 1351.04 283.64 1350.19 284.152C1349.33 284.664 1348.3 284.92 1347.08 284.92Z" fill="black"/>
<path d="M1332.75 279.384C1331.3 279.384 1330.07 279.021 1329.07 278.296C1328.09 277.571 1327.6 276.493 1327.6 275.064C1327.6 272.547 1329.48 270.851 1333.26 269.976C1334.5 269.699 1335.45 269.443 1336.11 269.208C1336.77 268.973 1337.24 268.696 1337.52 268.376C1337.81 268.035 1337.96 267.608 1337.96 267.096C1337.96 266.328 1337.67 265.667 1337.07 265.112C1336.49 264.536 1335.65 264.248 1334.54 264.248C1333.58 264.248 1332.77 264.504 1332.11 265.016C1331.45 265.507 1331 266.2 1330.76 267.096H1327.95C1328.27 265.475 1329.05 264.195 1330.28 263.256C1331.52 262.317 1333 261.848 1334.73 261.848C1336.93 261.848 1338.59 262.413 1339.72 263.544C1340.85 264.675 1341.42 266.157 1341.42 267.992V275.192C1341.42 275.96 1341.56 276.493 1341.84 276.792C1342.13 277.069 1342.55 277.187 1343.08 277.144V278.936C1342.64 279.107 1342.13 279.192 1341.58 279.192C1339.43 279.192 1338.31 278.157 1338.22 276.088C1337.84 276.941 1337.17 277.709 1336.24 278.392C1335.32 279.053 1334.16 279.384 1332.75 279.384ZM1331.15 274.776C1331.15 275.437 1331.39 275.971 1331.88 276.376C1332.37 276.76 1333.05 276.952 1333.9 276.952C1335.05 276.952 1336.01 276.568 1336.78 275.8C1337.55 275.032 1337.93 273.912 1337.93 272.44V269.848C1337.68 270.317 1337.26 270.712 1336.68 271.032C1336.13 271.331 1335.44 271.597 1334.6 271.832C1333.32 272.195 1332.43 272.611 1331.92 273.08C1331.4 273.528 1331.15 274.093 1331.15 274.776Z" fill="black"/>
<path d="M1315.06 279.48C1312.99 279.48 1311.36 278.701 1310.17 277.144C1308.99 275.587 1308.41 273.453 1308.41 270.744C1308.41 268.952 1308.68 267.395 1309.24 266.072C1309.79 264.728 1310.58 263.693 1311.61 262.968C1312.65 262.243 1313.86 261.88 1315.22 261.88C1316.33 261.88 1317.31 262.157 1318.17 262.712C1319.02 263.267 1319.71 264.067 1320.25 265.112V255.96H1323.77V279H1320.41V275.96C1319.87 277.091 1319.15 277.965 1318.23 278.584C1317.31 279.181 1316.26 279.48 1315.06 279.48ZM1312.09 270.616C1312.09 272.685 1312.44 274.285 1313.14 275.416C1313.87 276.547 1314.88 277.112 1316.18 277.112C1317.48 277.112 1318.51 276.557 1319.25 275.448C1320 274.339 1320.37 272.781 1320.37 270.776C1320.37 268.749 1319.98 267.16 1319.19 266.008C1318.42 264.835 1317.39 264.248 1316.09 264.248C1314.81 264.248 1313.81 264.803 1313.11 265.912C1312.43 267 1312.09 268.568 1312.09 270.616Z" fill="black"/>
<path d="M1290.46 262.36H1293.98V265.848C1294.41 264.739 1295.12 263.821 1296.13 263.096C1297.15 262.349 1298.31 261.976 1299.61 261.976C1301.24 261.976 1302.51 262.467 1303.42 263.448C1304.34 264.408 1304.8 265.805 1304.8 267.64V279H1301.28V268.472C1301.28 265.869 1300.29 264.568 1298.3 264.568C1297.56 264.568 1296.85 264.792 1296.19 265.24C1295.53 265.688 1295 266.349 1294.59 267.224C1294.19 268.077 1293.98 269.091 1293.98 270.264V279H1290.46V262.36Z" fill="black"/>
<path d="M1276.58 279.384C1274.98 279.384 1273.72 278.904 1272.8 277.944C1271.91 276.963 1271.46 275.555 1271.46 273.72V262.36H1274.98V272.888C1274.98 274.253 1275.23 275.245 1275.72 275.864C1276.23 276.483 1276.95 276.792 1277.89 276.792C1278.64 276.792 1279.33 276.568 1279.97 276.12C1280.63 275.672 1281.16 275.021 1281.54 274.168C1281.95 273.293 1282.15 272.269 1282.15 271.096V262.36H1285.67V279H1282.15V275.512C1281.7 276.621 1280.97 277.549 1279.97 278.296C1278.99 279.021 1277.86 279.384 1276.58 279.384Z" fill="black"/>
<path d="M1259.13 279.512C1257.44 279.512 1255.91 279.235 1254.52 278.68C1253.13 278.104 1251.99 277.24 1251.1 276.088C1250.2 274.936 1249.68 273.507 1249.53 271.8H1252.63C1252.85 273.421 1253.56 274.68 1254.78 275.576C1255.99 276.472 1257.44 276.92 1259.13 276.92C1260.73 276.92 1261.96 276.579 1262.81 275.896C1263.68 275.213 1264.12 274.296 1264.12 273.144C1264.12 272.099 1263.76 271.309 1263.03 270.776C1262.33 270.243 1261.28 269.837 1259.9 269.56L1257.05 268.984C1254.87 268.536 1253.2 267.832 1252.03 266.872C1250.87 265.891 1250.3 264.557 1250.3 262.872C1250.3 261.72 1250.62 260.653 1251.26 259.672C1251.92 258.691 1252.86 257.912 1254.07 257.336C1255.31 256.739 1256.75 256.44 1258.39 256.44C1260.59 256.44 1262.47 256.952 1264.03 257.976C1265.58 259 1266.61 260.472 1267.1 262.392L1263.67 263.064C1263.33 261.699 1262.67 260.664 1261.69 259.96C1260.73 259.256 1259.56 258.904 1258.17 258.904C1256.8 258.904 1255.74 259.224 1254.97 259.864C1254.2 260.483 1253.82 261.304 1253.82 262.328C1253.82 263.203 1254.14 263.917 1254.78 264.472C1255.44 265.005 1256.49 265.421 1257.95 265.72L1260.7 266.296C1263.11 266.787 1264.87 267.533 1265.98 268.536C1267.11 269.539 1267.67 270.915 1267.67 272.664C1267.67 273.987 1267.32 275.171 1266.62 276.216C1265.91 277.24 1264.91 278.051 1263.61 278.648C1262.33 279.224 1260.84 279.512 1259.13 279.512Z" fill="black"/>
<path d="M762.673 43.1602H770.593V76.0642L786.865 57.5602H794.929L781.105 72.6802L796.585 95.0002H787.729L776.209 78.0082L770.593 84.1282V95.0002H762.673V43.1602Z" fill="black"/>
<path d="M737.787 96.08C734.283 96.08 731.187 95.312 728.499 93.776C725.859 92.192 723.795 89.936 722.307 87.008C720.819 84.08 720.075 80.648 720.075 76.712C720.075 72.92 720.795 69.488 722.235 66.416C723.723 63.344 725.787 60.92 728.427 59.144C731.067 57.368 734.091 56.48 737.499 56.48C741.147 56.48 744.267 57.368 746.859 59.144C749.499 60.92 751.467 63.368 752.763 66.488C754.059 69.608 754.611 73.136 754.419 77.072H727.995C728.187 81.392 729.291 84.704 731.307 87.008C733.323 89.264 735.795 90.392 738.723 90.392C741.075 90.392 743.019 89.816 744.555 88.664C746.091 87.464 747.267 85.808 748.083 83.696H754.131C752.931 88.016 750.867 91.16 747.939 93.128C745.011 95.096 741.627 96.08 737.787 96.08ZM746.283 72.32C746.043 68.864 745.107 66.2 743.475 64.328C741.891 62.456 739.803 61.52 737.211 61.52C734.715 61.52 732.651 62.48 731.019 64.4C729.435 66.272 728.451 68.912 728.067 72.32H746.283Z" fill="black"/>
<path d="M697.709 96.08C694.205 96.08 691.109 95.312 688.421 93.776C685.781 92.192 683.717 89.936 682.229 87.008C680.741 84.08 679.997 80.648 679.997 76.712C679.997 72.92 680.717 69.488 682.157 66.416C683.645 63.344 685.709 60.92 688.349 59.144C690.989 57.368 694.013 56.48 697.421 56.48C701.069 56.48 704.189 57.368 706.781 59.144C709.421 60.92 711.389 63.368 712.685 66.488C713.981 69.608 714.533 73.136 714.341 77.072H687.917C688.109 81.392 689.213 84.704 691.229 87.008C693.245 89.264 695.717 90.392 698.645 90.392C700.997 90.392 702.941 89.816 704.477 88.664C706.013 87.464 707.189 85.808 708.005 83.696H714.053C712.853 88.016 710.789 91.16 707.861 93.128C704.933 95.096 701.549 96.08 697.709 96.08ZM706.205 72.32C705.965 68.864 705.029 66.2 703.397 64.328C701.813 62.456 699.725 61.52 697.133 61.52C694.637 61.52 692.573 62.48 690.941 64.4C689.357 66.272 688.373 68.912 687.989 72.32H706.205Z" fill="black"/>
<path d="M611.595 45.3203H620.091L630.459 89.0243L640.611 45.3203H649.539L659.979 89.0963L670.275 45.3203H677.403L664.803 95.0003H654.003L644.499 55.2563L635.067 95.0003H624.051L611.595 45.3203Z" fill="black"/>
</g>
<defs>
<clipPath id="clip0_101_2817">
<rect width="1404" height="1872" fill="white"/>
</clipPath>
</defs>
</svg>
