<svg width="1404" height="1872" viewBox="0 0 1404 1872" fill="none" xmlns="http://www.w3.org/2000/svg">
<g clip-path="url(#clip0_101_3052)">
<path d="M1404 0H0V1872H1404V0Z" fill="white"/>
<path fill-rule="evenodd" clip-rule="evenodd" d="M1404 146.75H1V146.25H1404V146.75Z" fill="black"/>
<path fill-rule="evenodd" clip-rule="evenodd" d="M1404 312.75H1V312.25H1404V312.75Z" fill="black"/>
<path fill-rule="evenodd" clip-rule="evenodd" d="M1404 223.75H1V223.25H1404V223.75Z" fill="black"/>
<path fill-rule="evenodd" clip-rule="evenodd" d="M200.25 1872V224H200.75V1872H200.25Z" fill="black"/>
<path fill-rule="evenodd" clip-rule="evenodd" d="M401.25 1872V224H401.75V1872H401.25Z" fill="black"/>
<path fill-rule="evenodd" clip-rule="evenodd" d="M602.25 1872V224H602.75V1872H602.25Z" fill="black"/>
<path fill-rule="evenodd" clip-rule="evenodd" d="M802.25 1872V224H802.75V1872H802.25Z" fill="black"/>
<path fill-rule="evenodd" clip-rule="evenodd" d="M1003.25 1872V224H1003.75V1872H1003.25Z" fill="black"/>
<path fill-rule="evenodd" clip-rule="evenodd" d="M1203.25 1872V224H1203.75V1872H1203.25Z" fill="black"/>
<path d="M207.459 193.24C206.995 193.24 206.595 193.08 206.259 192.76C205.939 192.44 205.779 192.056 205.779 191.608C205.779 191.144 205.939 190.752 206.259 190.432C206.595 190.112 206.995 189.952 207.459 189.952C207.923 189.952 208.315 190.112 208.635 190.432C208.971 190.752 209.139 191.144 209.139 191.608C209.139 192.056 208.971 192.44 208.635 192.76C208.315 193.08 207.923 193.24 207.459 193.24ZM207.459 184.336C206.995 184.336 206.595 184.176 206.259 183.856C205.939 183.536 205.779 183.152 205.779 182.704C205.779 182.24 205.939 181.848 206.259 181.528C206.595 181.208 206.995 181.048 207.459 181.048C207.923 181.048 208.315 181.208 208.635 181.528C208.971 181.848 209.139 182.24 209.139 182.704C209.139 183.152 208.971 183.536 208.635 183.856C208.315 184.176 207.923 184.336 207.459 184.336Z" fill="black"/>
<path d="M190.375 176.44H197.887C198.863 176.44 199.743 176.64 200.527 177.04C201.311 177.424 201.927 177.96 202.375 178.648C202.823 179.336 203.047 180.104 203.047 180.952C203.047 182.056 202.671 183 201.919 183.784C201.167 184.568 200.175 185.04 198.943 185.2C199.567 185.328 200.087 185.6 200.503 186.016C200.919 186.416 201.255 186.88 201.511 187.408C201.783 187.936 202.079 188.64 202.399 189.52L203.671 193H200.647L199.711 189.976C199.407 188.968 199.119 188.208 198.847 187.696C198.591 187.168 198.247 186.776 197.815 186.52C197.399 186.248 196.823 186.112 196.087 186.112H193.087V193H190.375V176.44ZM197.191 184.144C198.039 184.144 198.767 183.904 199.375 183.424C199.983 182.928 200.287 182.216 200.287 181.288C200.287 180.344 199.991 179.632 199.399 179.152C198.823 178.656 198.095 178.408 197.215 178.408H193.087V184.144H197.191Z" fill="black"/>
<path d="M176.2 176.44H187.072V178.432H178.936V183.424H186.472V185.416H178.936V191.008H187.312V193H176.2V176.44Z" fill="black"/>
<path d="M160.526 176.44H167.846C168.822 176.44 169.678 176.616 170.414 176.968C171.15 177.304 171.718 177.784 172.118 178.408C172.518 179.016 172.718 179.696 172.718 180.448C172.718 181.36 172.422 182.136 171.83 182.776C171.254 183.4 170.486 183.808 169.526 184C170.694 184.256 171.614 184.76 172.286 185.512C172.958 186.264 173.294 187.2 173.294 188.32C173.294 189.2 173.078 190 172.646 190.72C172.23 191.424 171.614 191.984 170.798 192.4C169.998 192.8 169.062 193 167.99 193H160.526V176.44ZM167.342 191.104C168.318 191.104 169.094 190.848 169.67 190.336C170.246 189.824 170.534 189.08 170.534 188.104C170.534 187.224 170.222 186.536 169.598 186.04C168.99 185.528 168.222 185.272 167.294 185.272H163.166V191.104H167.342ZM167.15 183.352C167.966 183.352 168.638 183.144 169.166 182.728C169.71 182.296 169.982 181.672 169.982 180.856C169.982 180.024 169.726 179.4 169.214 178.984C168.702 178.552 168.014 178.336 167.15 178.336H163.166V183.352H167.15Z" fill="black"/>
<path d="M139.555 176.44H143.587L148.051 189.328L152.515 176.44H156.691V193H153.955V178.552L149.011 193H146.731L141.787 178.624V193H139.555V176.44Z" fill="black"/>
<path d="M129.168 193.36C127.776 193.36 126.576 193.096 125.568 192.568C124.56 192.04 123.792 191.304 123.264 190.36C122.752 189.416 122.496 188.328 122.496 187.096V176.44H125.232V187.096C125.232 188.376 125.56 189.416 126.216 190.216C126.872 191 127.856 191.392 129.168 191.392C130.48 191.392 131.456 191 132.096 190.216C132.752 189.416 133.08 188.376 133.08 187.096V176.44H135.816V187.096C135.816 188.328 135.552 189.416 135.024 190.36C134.512 191.304 133.752 192.04 132.744 192.568C131.752 193.096 130.56 193.36 129.168 193.36Z" fill="black"/>
<path d="M104.973 176.44H108.885L116.493 190.624V176.44H118.749V193H114.885L107.205 178.696V193H104.973V176.44Z" fill="black"/>
<path d="M84.3589 176.44H87.0949V185.368L94.7989 176.44H97.6789L91.7989 182.92L98.1589 193H94.8949L89.9269 184.96L87.0949 188.128V193H84.3589V176.44Z" fill="black"/>
<path d="M70.1851 176.44H81.0571V178.432H72.9211V183.424H80.4571V185.416H72.9211V191.008H81.2971V193H70.1851V176.44Z" fill="black"/>
<path d="M56.0107 176.44H66.8827V178.432H58.7467V183.424H66.2827V185.416H58.7467V191.008H67.1227V193H56.0107V176.44Z" fill="black"/>
<path d="M31.1279 176.44H33.9599L37.4159 191.008L40.7999 176.44H43.7759L47.2559 191.032L50.6879 176.44H53.0639L48.8639 193H45.2639L42.0959 179.752L38.9519 193H35.2799L31.1279 176.44Z" fill="black"/>
<path d="M347.037 284.92C346.312 284.92 345.64 284.835 345.021 284.664V282.04C345.555 282.189 346.12 282.264 346.717 282.264C347.592 282.264 348.339 282.04 348.957 281.592C349.597 281.144 350.195 280.419 350.749 279.416L343.965 262.36H347.869L352.573 275.224L357.117 262.36H360.157L354.205 277.976C353.587 279.597 352.968 280.899 352.349 281.88C351.731 282.883 350.995 283.64 350.141 284.152C349.288 284.664 348.253 284.92 347.037 284.92Z" fill="black"/>
<path d="M332.702 279.384C331.251 279.384 330.024 279.021 329.022 278.296C328.04 277.571 327.55 276.493 327.55 275.064C327.55 272.547 329.438 270.851 333.214 269.976C334.451 269.699 335.4 269.443 336.062 269.208C336.723 268.973 337.192 268.696 337.47 268.376C337.768 268.035 337.918 267.608 337.918 267.096C337.918 266.328 337.619 265.667 337.022 265.112C336.446 264.536 335.603 264.248 334.494 264.248C333.534 264.248 332.723 264.504 332.062 265.016C331.4 265.507 330.952 266.2 330.718 267.096H327.902C328.222 265.475 329 264.195 330.238 263.256C331.475 262.317 332.958 261.848 334.686 261.848C336.883 261.848 338.547 262.413 339.678 263.544C340.808 264.675 341.374 266.157 341.374 267.992V275.192C341.374 275.96 341.512 276.493 341.79 276.792C342.088 277.069 342.504 277.187 343.038 277.144V278.936C342.59 279.107 342.088 279.192 341.534 279.192C339.379 279.192 338.259 278.157 338.174 276.088C337.79 276.941 337.128 277.709 336.19 278.392C335.272 279.053 334.11 279.384 332.702 279.384ZM331.102 274.776C331.102 275.437 331.347 275.971 331.838 276.376C332.328 276.76 333 276.952 333.854 276.952C335.006 276.952 335.966 276.568 336.734 275.8C337.502 275.032 337.886 273.912 337.886 272.44V269.848C337.63 270.317 337.214 270.712 336.638 271.032C336.083 271.331 335.39 271.597 334.558 271.832C333.278 272.195 332.382 272.611 331.87 273.08C331.358 273.528 331.102 274.093 331.102 274.776Z" fill="black"/>
<path d="M315.015 279.48C312.946 279.48 311.314 278.701 310.119 277.144C308.946 275.587 308.359 273.453 308.359 270.744C308.359 268.952 308.636 267.395 309.191 266.072C309.746 264.728 310.535 263.693 311.559 262.968C312.604 262.243 313.81 261.88 315.175 261.88C316.284 261.88 317.266 262.157 318.119 262.712C318.972 263.267 319.666 264.067 320.199 265.112V255.96H323.719V279H320.359V275.96C319.826 277.091 319.1 277.965 318.183 278.584C317.266 279.181 316.21 279.48 315.015 279.48ZM312.039 270.616C312.039 272.685 312.391 274.285 313.095 275.416C313.82 276.547 314.834 277.112 316.135 277.112C317.436 277.112 318.46 276.557 319.207 275.448C319.954 274.339 320.327 272.781 320.327 270.776C320.327 268.749 319.932 267.16 319.143 266.008C318.375 264.835 317.34 264.248 316.039 264.248C314.759 264.248 313.767 264.803 313.063 265.912C312.38 267 312.039 268.568 312.039 270.616Z" fill="black"/>
<path d="M290.416 262.36H293.936V265.848C294.363 264.739 295.077 263.821 296.08 263.096C297.104 262.349 298.267 261.976 299.568 261.976C301.189 261.976 302.459 262.467 303.376 263.448C304.293 264.408 304.752 265.805 304.752 267.64V279H301.232V268.472C301.232 265.869 300.24 264.568 298.256 264.568C297.509 264.568 296.805 264.792 296.144 265.24C295.483 265.688 294.949 266.349 294.544 267.224C294.139 268.077 293.936 269.091 293.936 270.264V279H290.416V262.36Z" fill="black"/>
<path d="M278.794 279.48C277.215 279.48 275.828 279.128 274.634 278.424C273.439 277.699 272.511 276.675 271.85 275.352C271.21 274.029 270.89 272.493 270.89 270.744C270.89 268.995 271.21 267.448 271.85 266.104C272.511 264.76 273.439 263.725 274.634 263C275.828 262.253 277.215 261.88 278.794 261.88C280.372 261.88 281.759 262.243 282.954 262.968C284.148 263.693 285.076 264.717 285.738 266.04C286.399 267.363 286.73 268.899 286.73 270.648C286.73 272.397 286.399 273.944 285.738 275.288C285.076 276.611 284.148 277.645 282.954 278.392C281.759 279.117 280.372 279.48 278.794 279.48ZM274.57 270.584C274.57 272.632 274.943 274.253 275.69 275.448C276.458 276.621 277.503 277.208 278.826 277.208C280.127 277.208 281.151 276.653 281.898 275.544C282.666 274.413 283.05 272.835 283.05 270.808C283.05 268.739 282.666 267.117 281.898 265.944C281.13 264.749 280.084 264.152 278.762 264.152C277.439 264.152 276.404 264.717 275.658 265.848C274.932 266.979 274.57 268.557 274.57 270.584Z" fill="black"/>
<path d="M244.048 256.92H249.424L255.376 274.104L261.328 256.92H266.896V279H263.248V259.736L256.656 279H253.616L247.024 259.832V279H244.048V256.92Z" fill="black"/>
<path d="M144.084 284.92C143.359 284.92 142.687 284.835 142.068 284.664V282.04C142.602 282.189 143.167 282.264 143.764 282.264C144.639 282.264 145.386 282.04 146.004 281.592C146.644 281.144 147.242 280.419 147.796 279.416L141.012 262.36H144.916L149.62 275.224L154.164 262.36H157.204L151.252 277.976C150.634 279.597 150.015 280.899 149.396 281.88C148.778 282.883 148.042 283.64 147.188 284.152C146.335 284.664 145.3 284.92 144.084 284.92Z" fill="black"/>
<path d="M129.748 279.384C128.298 279.384 127.071 279.021 126.068 278.296C125.087 277.571 124.596 276.493 124.596 275.064C124.596 272.547 126.484 270.851 130.26 269.976C131.498 269.699 132.447 269.443 133.108 269.208C133.77 268.973 134.239 268.696 134.516 268.376C134.815 268.035 134.964 267.608 134.964 267.096C134.964 266.328 134.666 265.667 134.068 265.112C133.492 264.536 132.65 264.248 131.54 264.248C130.58 264.248 129.77 264.504 129.108 265.016C128.447 265.507 127.999 266.2 127.764 267.096H124.948C125.268 265.475 126.047 264.195 127.284 263.256C128.522 262.317 130.004 261.848 131.732 261.848C133.93 261.848 135.594 262.413 136.724 263.544C137.855 264.675 138.42 266.157 138.42 267.992V275.192C138.42 275.96 138.559 276.493 138.836 276.792C139.135 277.069 139.551 277.187 140.084 277.144V278.936C139.636 279.107 139.135 279.192 138.58 279.192C136.426 279.192 135.306 278.157 135.22 276.088C134.836 276.941 134.175 277.709 133.236 278.392C132.319 279.053 131.156 279.384 129.748 279.384ZM128.148 274.776C128.148 275.437 128.394 275.971 128.884 276.376C129.375 276.76 130.047 276.952 130.9 276.952C132.052 276.952 133.012 276.568 133.78 275.8C134.548 275.032 134.932 273.912 134.932 272.44V269.848C134.676 270.317 134.26 270.712 133.684 271.032C133.13 271.331 132.436 271.597 131.604 271.832C130.324 272.195 129.428 272.611 128.916 273.08C128.404 273.528 128.148 274.093 128.148 274.776Z" fill="black"/>
<path d="M112.062 279.48C109.992 279.48 108.36 278.701 107.166 277.144C105.992 275.587 105.406 273.453 105.406 270.744C105.406 268.952 105.683 267.395 106.238 266.072C106.792 264.728 107.582 263.693 108.606 262.968C109.651 262.243 110.856 261.88 112.222 261.88C113.331 261.88 114.312 262.157 115.166 262.712C116.019 263.267 116.712 264.067 117.246 265.112V255.96H120.766V279H117.406V275.96C116.872 277.091 116.147 277.965 115.23 278.584C114.312 279.181 113.256 279.48 112.062 279.48ZM109.086 270.616C109.086 272.685 109.438 274.285 110.142 275.416C110.867 276.547 111.88 277.112 113.182 277.112C114.483 277.112 115.507 276.557 116.254 275.448C117 274.339 117.374 272.781 117.374 270.776C117.374 268.749 116.979 267.16 116.19 266.008C115.422 264.835 114.387 264.248 113.086 264.248C111.806 264.248 110.814 264.803 110.11 265.912C109.427 267 109.086 268.568 109.086 270.616Z" fill="black"/>
<path d="M87.4624 262.36H90.9824V265.848C91.4091 264.739 92.1237 263.821 93.1264 263.096C94.1504 262.349 95.3131 261.976 96.6144 261.976C98.2357 261.976 99.5051 262.467 100.422 263.448C101.34 264.408 101.798 265.805 101.798 267.64V279H98.2784V268.472C98.2784 265.869 97.2864 264.568 95.3024 264.568C94.5557 264.568 93.8517 264.792 93.1904 265.24C92.5291 265.688 91.9957 266.349 91.5904 267.224C91.1851 268.077 90.9824 269.091 90.9824 270.264V279H87.4624V262.36Z" fill="black"/>
<path d="M73.5804 279.384C71.9804 279.384 70.7218 278.904 69.8044 277.944C68.9084 276.963 68.4604 275.555 68.4604 273.72V262.36H71.9804V272.888C71.9804 274.253 72.2258 275.245 72.7164 275.864C73.2284 276.483 73.9538 276.792 74.8924 276.792C75.6391 276.792 76.3325 276.568 76.9725 276.12C77.6338 275.672 78.1565 275.021 78.5405 274.168C78.9458 273.293 79.1484 272.269 79.1484 271.096V262.36H82.6684V279H79.1484V275.512C78.7004 276.621 77.9751 277.549 76.9725 278.296C75.9911 279.021 74.8604 279.384 73.5804 279.384Z" fill="black"/>
<path d="M56.1293 279.512C54.444 279.512 52.908 279.235 51.5213 278.68C50.1346 278.104 48.9933 277.24 48.0973 276.088C47.2013 274.936 46.6786 273.507 46.5293 271.8H49.6333C49.8466 273.421 50.5613 274.68 51.7773 275.576C52.9933 276.472 54.444 276.92 56.1293 276.92C57.7293 276.92 58.956 276.579 59.8093 275.896C60.684 275.213 61.1213 274.296 61.1213 273.144C61.1213 272.099 60.7586 271.309 60.0333 270.776C59.3293 270.243 58.284 269.837 56.8973 269.56L54.0493 268.984C51.8733 268.536 50.1986 267.832 49.0253 266.872C47.8733 265.891 47.2973 264.557 47.2973 262.872C47.2973 261.72 47.6173 260.653 48.2573 259.672C48.9186 258.691 49.8573 257.912 51.0733 257.336C52.3106 256.739 53.7506 256.44 55.3933 256.44C57.5906 256.44 59.468 256.952 61.0253 257.976C62.5826 259 63.6066 260.472 64.0973 262.392L60.6733 263.064C60.332 261.699 59.6706 260.664 58.6893 259.96C57.7293 259.256 56.556 258.904 55.1693 258.904C53.804 258.904 52.7373 259.224 51.9693 259.864C51.2013 260.483 50.8173 261.304 50.8173 262.328C50.8173 263.203 51.1373 263.917 51.7773 264.472C52.4386 265.005 53.4946 265.421 54.9453 265.72L57.6973 266.296C60.108 266.787 61.868 267.533 62.9773 268.536C64.108 269.539 64.6733 270.915 64.6733 272.664C64.6733 273.987 64.3213 275.171 63.6173 276.216C62.9133 277.24 61.9106 278.051 60.6093 278.648C59.3293 279.224 57.836 279.512 56.1293 279.512Z" fill="black"/>
<path d="M550.912 284.92C550.187 284.92 549.515 284.835 548.896 284.664V282.04C549.429 282.189 549.995 282.264 550.592 282.264C551.467 282.264 552.213 282.04 552.832 281.592C553.472 281.144 554.069 280.419 554.624 279.416L547.84 262.36H551.744L556.448 275.224L560.992 262.36H564.032L558.08 277.976C557.461 279.597 556.843 280.899 556.224 281.88C555.605 282.883 554.869 283.64 554.016 284.152C553.163 284.664 552.128 284.92 550.912 284.92Z" fill="black"/>
<path d="M536.577 279.384C535.126 279.384 533.899 279.021 532.897 278.296C531.915 277.571 531.425 276.493 531.425 275.064C531.425 272.547 533.313 270.851 537.089 269.976C538.326 269.699 539.275 269.443 539.937 269.208C540.598 268.973 541.067 268.696 541.345 268.376C541.643 268.035 541.793 267.608 541.793 267.096C541.793 266.328 541.494 265.667 540.897 265.112C540.321 264.536 539.478 264.248 538.369 264.248C537.409 264.248 536.598 264.504 535.937 265.016C535.275 265.507 534.827 266.2 534.593 267.096H531.777C532.097 265.475 532.875 264.195 534.113 263.256C535.35 262.317 536.833 261.848 538.561 261.848C540.758 261.848 542.422 262.413 543.553 263.544C544.683 264.675 545.249 266.157 545.249 267.992V275.192C545.249 275.96 545.387 276.493 545.665 276.792C545.963 277.069 546.379 277.187 546.913 277.144V278.936C546.465 279.107 545.963 279.192 545.409 279.192C543.254 279.192 542.134 278.157 542.049 276.088C541.665 276.941 541.003 277.709 540.065 278.392C539.147 279.053 537.985 279.384 536.577 279.384ZM534.977 274.776C534.977 275.437 535.222 275.971 535.713 276.376C536.203 276.76 536.875 276.952 537.729 276.952C538.881 276.952 539.841 276.568 540.609 275.8C541.377 275.032 541.761 273.912 541.761 272.44V269.848C541.505 270.317 541.089 270.712 540.513 271.032C539.958 271.331 539.265 271.597 538.433 271.832C537.153 272.195 536.257 272.611 535.745 273.08C535.233 273.528 534.977 274.093 534.977 274.776Z" fill="black"/>
<path d="M518.889 279.48C516.82 279.48 515.188 278.701 513.993 277.144C512.82 275.587 512.233 273.453 512.233 270.744C512.233 268.952 512.511 267.395 513.065 266.072C513.62 264.728 514.409 263.693 515.433 262.968C516.479 262.243 517.684 261.88 519.049 261.88C520.159 261.88 521.14 262.157 521.993 262.712C522.847 263.267 523.54 264.067 524.073 265.112V255.96H527.593V279H524.233V275.96C523.7 277.091 522.975 277.965 522.057 278.584C521.14 279.181 520.084 279.48 518.889 279.48ZM515.913 270.616C515.913 272.685 516.265 274.285 516.969 275.416C517.695 276.547 518.708 277.112 520.009 277.112C521.311 277.112 522.335 276.557 523.081 275.448C523.828 274.339 524.201 272.781 524.201 270.776C524.201 268.749 523.807 267.16 523.017 266.008C522.249 264.835 521.215 264.248 519.913 264.248C518.633 264.248 517.641 264.803 516.937 265.912C516.255 267 515.913 268.568 515.913 270.616Z" fill="black"/>
<path d="M503.216 279.48C501.168 279.48 499.472 278.989 498.128 278.008C496.784 277.005 496.016 275.587 495.824 273.752H498.576C498.747 274.84 499.259 275.693 500.112 276.312C500.987 276.909 502.011 277.208 503.184 277.208C504.272 277.208 505.126 276.984 505.744 276.536C506.363 276.067 506.672 275.437 506.672 274.648C506.672 273.944 506.416 273.411 505.904 273.048C505.392 272.664 504.603 272.365 503.536 272.152L501.616 271.736C499.888 271.352 498.566 270.787 497.648 270.04C496.731 269.293 496.272 268.259 496.272 266.936C496.272 266.04 496.528 265.208 497.04 264.44C497.552 263.651 498.278 263.032 499.216 262.584C500.176 262.115 501.296 261.88 502.576 261.88C504.262 261.88 505.702 262.264 506.896 263.032C508.091 263.8 508.902 264.888 509.328 266.296L506.256 266.904C506 266.008 505.542 265.325 504.88 264.856C504.219 264.365 503.408 264.12 502.448 264.12C501.51 264.12 500.763 264.333 500.208 264.76C499.675 265.187 499.408 265.752 499.408 266.456C499.408 267.053 499.643 267.533 500.112 267.896C500.603 268.237 501.424 268.536 502.576 268.792L504.368 269.176C506.246 269.603 507.632 270.2 508.528 270.968C509.424 271.736 509.872 272.835 509.872 274.264C509.872 275.288 509.584 276.195 509.008 276.984C508.454 277.773 507.664 278.392 506.64 278.84C505.638 279.267 504.496 279.48 503.216 279.48Z" fill="black"/>
<path d="M485.98 279.48C484.423 279.48 483.047 279.139 481.852 278.456C480.679 277.752 479.761 276.749 479.1 275.448C478.439 274.147 478.108 272.621 478.108 270.872C478.108 269.187 478.428 267.661 479.068 266.296C479.729 264.931 480.647 263.853 481.82 263.064C482.993 262.275 484.337 261.88 485.852 261.88C487.473 261.88 488.86 262.275 490.012 263.064C491.185 263.853 492.06 264.941 492.636 266.328C493.212 267.715 493.457 269.283 493.372 271.032H481.628C481.713 272.952 482.204 274.424 483.1 275.448C483.996 276.451 485.095 276.952 486.396 276.952C487.441 276.952 488.305 276.696 488.988 276.184C489.671 275.651 490.193 274.915 490.556 273.976H493.244C492.711 275.896 491.793 277.293 490.492 278.168C489.191 279.043 487.687 279.48 485.98 279.48ZM489.756 268.92C489.649 267.384 489.233 266.2 488.508 265.368C487.804 264.536 486.876 264.12 485.724 264.12C484.615 264.12 483.697 264.547 482.972 265.4C482.268 266.232 481.831 267.405 481.66 268.92H489.756Z" fill="black"/>
<path d="M465.346 279.384C463.746 279.384 462.487 278.904 461.57 277.944C460.674 276.963 460.226 275.555 460.226 273.72V262.36H463.746V272.888C463.746 274.253 463.991 275.245 464.482 275.864C464.994 276.483 465.719 276.792 466.658 276.792C467.405 276.792 468.098 276.568 468.738 276.12C469.399 275.672 469.922 275.021 470.306 274.168C470.711 273.293 470.914 272.269 470.914 271.096V262.36H474.434V279H470.914V275.512C470.466 276.621 469.741 277.549 468.738 278.296C467.757 279.021 466.626 279.384 465.346 279.384Z" fill="black"/>
<path d="M448.133 259.576H441.413V256.92H458.469V259.576H451.781V279H448.133V259.576Z" fill="black"/>
<path d="M776.99 284.92C776.265 284.92 775.593 284.835 774.974 284.664V282.04C775.507 282.189 776.073 282.264 776.67 282.264C777.545 282.264 778.291 282.04 778.91 281.592C779.55 281.144 780.147 280.419 780.702 279.416L773.918 262.36H777.822L782.526 275.224L787.07 262.36H790.11L784.158 277.976C783.539 279.597 782.921 280.899 782.302 281.88C781.683 282.883 780.947 283.64 780.094 284.152C779.241 284.664 778.206 284.92 776.99 284.92Z" fill="black"/>
<path d="M762.654 279.384C761.203 279.384 759.977 279.021 758.974 278.296C757.993 277.571 757.502 276.493 757.502 275.064C757.502 272.547 759.39 270.851 763.166 269.976C764.403 269.699 765.353 269.443 766.014 269.208C766.675 268.973 767.145 268.696 767.422 268.376C767.721 268.035 767.87 267.608 767.87 267.096C767.87 266.328 767.571 265.667 766.974 265.112C766.398 264.536 765.555 264.248 764.446 264.248C763.486 264.248 762.675 264.504 762.014 265.016C761.353 265.507 760.905 266.2 760.67 267.096H757.854C758.174 265.475 758.953 264.195 760.19 263.256C761.427 262.317 762.91 261.848 764.638 261.848C766.835 261.848 768.499 262.413 769.63 263.544C770.761 264.675 771.326 266.157 771.326 267.992V275.192C771.326 275.96 771.465 276.493 771.742 276.792C772.041 277.069 772.457 277.187 772.99 277.144V278.936C772.542 279.107 772.041 279.192 771.486 279.192C769.331 279.192 768.211 278.157 768.126 276.088C767.742 276.941 767.081 277.709 766.142 278.392C765.225 279.053 764.062 279.384 762.654 279.384ZM761.054 274.776C761.054 275.437 761.299 275.971 761.79 276.376C762.281 276.76 762.953 276.952 763.806 276.952C764.958 276.952 765.918 276.568 766.686 275.8C767.454 275.032 767.838 273.912 767.838 272.44V269.848C767.582 270.317 767.166 270.712 766.59 271.032C766.035 271.331 765.342 271.597 764.51 271.832C763.23 272.195 762.334 272.611 761.822 273.08C761.31 273.528 761.054 274.093 761.054 274.776Z" fill="black"/>
<path d="M744.968 279.48C742.898 279.48 741.266 278.701 740.072 277.144C738.898 275.587 738.312 273.453 738.312 270.744C738.312 268.952 738.589 267.395 739.144 266.072C739.698 264.728 740.488 263.693 741.512 262.968C742.557 262.243 743.762 261.88 745.128 261.88C746.237 261.88 747.218 262.157 748.072 262.712C748.925 263.267 749.618 264.067 750.152 265.112V255.96H753.672V279H750.312V275.96C749.778 277.091 749.053 277.965 748.136 278.584C747.218 279.181 746.162 279.48 744.968 279.48ZM741.992 270.616C741.992 272.685 742.344 274.285 743.048 275.416C743.773 276.547 744.786 277.112 746.088 277.112C747.389 277.112 748.413 276.557 749.16 275.448C749.906 274.339 750.28 272.781 750.28 270.776C750.28 268.749 749.885 267.16 749.096 266.008C748.328 264.835 747.293 264.248 745.992 264.248C744.712 264.248 743.72 264.803 743.016 265.912C742.333 267 741.992 268.568 741.992 270.616Z" fill="black"/>
<path d="M729.294 279.48C727.246 279.48 725.55 278.989 724.206 278.008C722.862 277.005 722.094 275.587 721.902 273.752H724.654C724.825 274.84 725.337 275.693 726.19 276.312C727.065 276.909 728.089 277.208 729.262 277.208C730.35 277.208 731.204 276.984 731.822 276.536C732.441 276.067 732.75 275.437 732.75 274.648C732.75 273.944 732.494 273.411 731.982 273.048C731.47 272.664 730.681 272.365 729.614 272.152L727.694 271.736C725.966 271.352 724.644 270.787 723.726 270.04C722.809 269.293 722.35 268.259 722.35 266.936C722.35 266.04 722.606 265.208 723.118 264.44C723.63 263.651 724.356 263.032 725.294 262.584C726.254 262.115 727.374 261.88 728.654 261.88C730.34 261.88 731.78 262.264 732.974 263.032C734.169 263.8 734.98 264.888 735.406 266.296L732.334 266.904C732.078 266.008 731.62 265.325 730.958 264.856C730.297 264.365 729.486 264.12 728.526 264.12C727.588 264.12 726.841 264.333 726.286 264.76C725.753 265.187 725.486 265.752 725.486 266.456C725.486 267.053 725.721 267.533 726.19 267.896C726.681 268.237 727.502 268.536 728.654 268.792L730.446 269.176C732.324 269.603 733.71 270.2 734.606 270.968C735.502 271.736 735.95 272.835 735.95 274.264C735.95 275.288 735.662 276.195 735.086 276.984C734.532 277.773 733.742 278.392 732.718 278.84C731.716 279.267 730.574 279.48 729.294 279.48Z" fill="black"/>
<path d="M712.059 279.48C710.501 279.48 709.125 279.139 707.931 278.456C706.757 277.752 705.84 276.749 705.179 275.448C704.517 274.147 704.187 272.621 704.187 270.872C704.187 269.187 704.507 267.661 705.147 266.296C705.808 264.931 706.725 263.853 707.899 263.064C709.072 262.275 710.416 261.88 711.931 261.88C713.552 261.88 714.939 262.275 716.091 263.064C717.264 263.853 718.139 264.941 718.715 266.328C719.291 267.715 719.536 269.283 719.451 271.032H707.707C707.792 272.952 708.283 274.424 709.179 275.448C710.075 276.451 711.173 276.952 712.475 276.952C713.52 276.952 714.384 276.696 715.067 276.184C715.749 275.651 716.272 274.915 716.635 273.976H719.323C718.789 275.896 717.872 277.293 716.571 278.168C715.269 279.043 713.765 279.48 712.059 279.48ZM715.835 268.92C715.728 267.384 715.312 266.2 714.587 265.368C713.883 264.536 712.955 264.12 711.803 264.12C710.693 264.12 709.776 264.547 709.051 265.4C708.347 266.232 707.909 267.405 707.739 268.92H715.835Z" fill="black"/>
<path d="M686.275 262.36H689.795V265.848C690.222 264.739 690.937 263.821 691.939 263.096C692.963 262.349 694.126 261.976 695.427 261.976C697.049 261.976 698.318 262.467 699.235 263.448C700.153 264.408 700.611 265.805 700.611 267.64V279H697.091V268.472C697.091 265.869 696.099 264.568 694.115 264.568C693.369 264.568 692.665 264.792 692.003 265.24C691.342 265.688 690.809 266.349 690.403 267.224C689.998 268.077 689.795 269.091 689.795 270.264V279H686.275V262.36Z" fill="black"/>
<path d="M672.78 279.48C670.711 279.48 669.079 278.701 667.884 277.144C666.711 275.587 666.124 273.453 666.124 270.744C666.124 268.952 666.401 267.395 666.956 266.072C667.511 264.728 668.3 263.693 669.324 262.968C670.369 262.243 671.575 261.88 672.94 261.88C674.049 261.88 675.031 262.157 675.884 262.712C676.737 263.267 677.431 264.067 677.964 265.112V255.96H681.484V279H678.124V275.96C677.591 277.091 676.865 277.965 675.948 278.584C675.031 279.181 673.975 279.48 672.78 279.48ZM669.804 270.616C669.804 272.685 670.156 274.285 670.86 275.416C671.585 276.547 672.599 277.112 673.9 277.112C675.201 277.112 676.225 276.557 676.972 275.448C677.719 274.339 678.092 272.781 678.092 270.776C678.092 268.749 677.697 267.16 676.908 266.008C676.14 264.835 675.105 264.248 673.804 264.248C672.524 264.248 671.532 264.803 670.828 265.912C670.145 267 669.804 268.568 669.804 270.616Z" fill="black"/>
<path d="M656.152 279.48C654.595 279.48 653.219 279.139 652.024 278.456C650.851 277.752 649.934 276.749 649.272 275.448C648.611 274.147 648.28 272.621 648.28 270.872C648.28 269.187 648.6 267.661 649.24 266.296C649.902 264.931 650.819 263.853 651.992 263.064C653.166 262.275 654.51 261.88 656.024 261.88C657.646 261.88 659.032 262.275 660.184 263.064C661.358 263.853 662.232 264.941 662.808 266.328C663.384 267.715 663.63 269.283 663.544 271.032H651.8C651.886 272.952 652.376 274.424 653.272 275.448C654.168 276.451 655.267 276.952 656.568 276.952C657.614 276.952 658.478 276.696 659.16 276.184C659.843 275.651 660.366 274.915 660.728 273.976H663.416C662.883 275.896 661.966 277.293 660.664 278.168C659.363 279.043 657.859 279.48 656.152 279.48ZM659.928 268.92C659.822 267.384 659.406 266.2 658.68 265.368C657.976 264.536 657.048 264.12 655.896 264.12C654.787 264.12 653.87 264.547 653.144 265.4C652.44 266.232 652.003 267.405 651.832 268.92H659.928Z" fill="black"/>
<path d="M617.879 256.92H621.655L626.263 276.344L630.775 256.92H634.743L639.383 276.376L643.959 256.92H647.127L641.527 279H636.727L632.503 261.336L628.311 279H623.415L617.879 256.92Z" fill="black"/>
<path d="M959.365 284.92C958.64 284.92 957.968 284.835 957.349 284.664V282.04C957.882 282.189 958.448 282.264 959.045 282.264C959.92 282.264 960.666 282.04 961.285 281.592C961.925 281.144 962.522 280.419 963.077 279.416L956.293 262.36H960.197L964.901 275.224L969.445 262.36H972.485L966.533 277.976C965.914 279.597 965.296 280.899 964.677 281.88C964.058 282.883 963.322 283.64 962.469 284.152C961.616 284.664 960.581 284.92 959.365 284.92Z" fill="black"/>
<path d="M945.029 279.384C943.578 279.384 942.352 279.021 941.349 278.296C940.368 277.571 939.877 276.493 939.877 275.064C939.877 272.547 941.765 270.851 945.541 269.976C946.778 269.699 947.728 269.443 948.389 269.208C949.05 268.973 949.52 268.696 949.797 268.376C950.096 268.035 950.245 267.608 950.245 267.096C950.245 266.328 949.946 265.667 949.349 265.112C948.773 264.536 947.93 264.248 946.821 264.248C945.861 264.248 945.05 264.504 944.389 265.016C943.728 265.507 943.28 266.2 943.045 267.096H940.229C940.549 265.475 941.328 264.195 942.565 263.256C943.802 262.317 945.285 261.848 947.013 261.848C949.21 261.848 950.874 262.413 952.005 263.544C953.136 264.675 953.701 266.157 953.701 267.992V275.192C953.701 275.96 953.84 276.493 954.117 276.792C954.416 277.069 954.832 277.187 955.365 277.144V278.936C954.917 279.107 954.416 279.192 953.861 279.192C951.706 279.192 950.586 278.157 950.501 276.088C950.117 276.941 949.456 277.709 948.517 278.392C947.6 279.053 946.437 279.384 945.029 279.384ZM943.429 274.776C943.429 275.437 943.674 275.971 944.165 276.376C944.656 276.76 945.328 276.952 946.181 276.952C947.333 276.952 948.293 276.568 949.061 275.8C949.829 275.032 950.213 273.912 950.213 272.44V269.848C949.957 270.317 949.541 270.712 948.965 271.032C948.41 271.331 947.717 271.597 946.885 271.832C945.605 272.195 944.709 272.611 944.197 273.08C943.685 273.528 943.429 274.093 943.429 274.776Z" fill="black"/>
<path d="M927.343 279.48C925.273 279.48 923.641 278.701 922.447 277.144C921.273 275.587 920.687 273.453 920.687 270.744C920.687 268.952 920.964 267.395 921.519 266.072C922.073 264.728 922.863 263.693 923.887 262.968C924.932 262.243 926.137 261.88 927.503 261.88C928.612 261.88 929.593 262.157 930.447 262.712C931.3 263.267 931.993 264.067 932.527 265.112V255.96H936.047V279H932.687V275.96C932.153 277.091 931.428 277.965 930.511 278.584C929.593 279.181 928.537 279.48 927.343 279.48ZM924.367 270.616C924.367 272.685 924.719 274.285 925.423 275.416C926.148 276.547 927.161 277.112 928.463 277.112C929.764 277.112 930.788 276.557 931.535 275.448C932.281 274.339 932.655 272.781 932.655 270.776C932.655 268.749 932.26 267.16 931.471 266.008C930.703 264.835 929.668 264.248 928.367 264.248C927.087 264.248 926.095 264.803 925.391 265.912C924.708 267 924.367 268.568 924.367 270.616Z" fill="black"/>
<path d="M911.669 279.48C909.621 279.48 907.925 278.989 906.581 278.008C905.237 277.005 904.469 275.587 904.277 273.752H907.029C907.2 274.84 907.712 275.693 908.565 276.312C909.44 276.909 910.464 277.208 911.637 277.208C912.725 277.208 913.579 276.984 914.197 276.536C914.816 276.067 915.125 275.437 915.125 274.648C915.125 273.944 914.869 273.411 914.357 273.048C913.845 272.664 913.056 272.365 911.989 272.152L910.069 271.736C908.341 271.352 907.019 270.787 906.101 270.04C905.184 269.293 904.725 268.259 904.725 266.936C904.725 266.04 904.981 265.208 905.493 264.44C906.005 263.651 906.731 263.032 907.669 262.584C908.629 262.115 909.749 261.88 911.029 261.88C912.715 261.88 914.155 262.264 915.349 263.032C916.544 263.8 917.355 264.888 917.781 266.296L914.709 266.904C914.453 266.008 913.995 265.325 913.333 264.856C912.672 264.365 911.861 264.12 910.901 264.12C909.963 264.12 909.216 264.333 908.661 264.76C908.128 265.187 907.861 265.752 907.861 266.456C907.861 267.053 908.096 267.533 908.565 267.896C909.056 268.237 909.877 268.536 911.029 268.792L912.821 269.176C914.699 269.603 916.085 270.2 916.981 270.968C917.877 271.736 918.325 272.835 918.325 274.264C918.325 275.288 918.037 276.195 917.461 276.984C916.907 277.773 916.117 278.392 915.093 278.84C914.091 279.267 912.949 279.48 911.669 279.48Z" fill="black"/>
<path d="M893.244 262.36H896.764V266.2H896.828C897.148 265.112 897.703 264.162 898.492 263.352C899.281 262.541 900.252 262.136 901.404 262.136C901.852 262.136 902.151 262.168 902.3 262.232V265.432C902.044 265.368 901.671 265.336 901.18 265.336C899.985 265.336 898.951 265.837 898.076 266.84C897.201 267.821 896.764 269.474 896.764 271.8V279H893.244V262.36Z" fill="black"/>
<path d="M879.361 279.384C877.761 279.384 876.503 278.904 875.585 277.944C874.689 276.963 874.241 275.555 874.241 273.72V262.36H877.761V272.888C877.761 274.253 878.007 275.245 878.497 275.864C879.009 276.483 879.735 276.792 880.673 276.792C881.42 276.792 882.113 276.568 882.753 276.12C883.415 275.672 883.937 275.021 884.321 274.168C884.727 273.293 884.929 272.269 884.929 271.096V262.36H888.449V279H884.929V275.512C884.481 276.621 883.756 277.549 882.753 278.296C881.772 279.021 880.641 279.384 879.361 279.384Z" fill="black"/>
<path d="M855.369 255.96H858.889V265.848C859.337 264.739 860.062 263.821 861.065 263.096C862.068 262.349 863.209 261.976 864.489 261.976C866.089 261.976 867.348 262.467 868.265 263.448C869.182 264.408 869.641 265.805 869.641 267.64V279H866.121V268.472C866.121 267.107 865.865 266.115 865.353 265.496C864.862 264.877 864.137 264.568 863.177 264.568C862.43 264.568 861.726 264.792 861.065 265.24C860.425 265.688 859.902 266.349 859.497 267.224C859.092 268.077 858.889 269.091 858.889 270.264V279H855.369V255.96Z" fill="black"/>
<path d="M841.68 259.576H834.96V256.92H852.016V259.576H845.328V279H841.68V259.576Z" fill="black"/>
<path d="M1136.99 284.92C1136.26 284.92 1135.59 284.835 1134.97 284.664V282.04C1135.51 282.19 1136.07 282.264 1136.67 282.264C1137.54 282.264 1138.29 282.04 1138.91 281.592C1139.55 281.144 1140.15 280.419 1140.7 279.416L1133.92 262.36H1137.82L1142.53 275.224L1147.07 262.36H1150.11L1144.16 277.976C1143.54 279.598 1142.92 280.899 1142.3 281.88C1141.68 282.883 1140.95 283.64 1140.09 284.152C1139.24 284.664 1138.21 284.92 1136.99 284.92Z" fill="black"/>
<path d="M1122.65 279.384C1121.2 279.384 1119.98 279.021 1118.97 278.296C1117.99 277.571 1117.5 276.493 1117.5 275.064C1117.5 272.547 1119.39 270.851 1123.17 269.976C1124.4 269.699 1125.35 269.443 1126.01 269.208C1126.68 268.973 1127.14 268.696 1127.42 268.376C1127.72 268.035 1127.87 267.608 1127.87 267.096C1127.87 266.328 1127.57 265.667 1126.97 265.112C1126.4 264.536 1125.56 264.248 1124.45 264.248C1123.49 264.248 1122.68 264.504 1122.01 265.016C1121.35 265.507 1120.9 266.2 1120.67 267.096H1117.85C1118.17 265.475 1118.95 264.195 1120.19 263.256C1121.43 262.317 1122.91 261.848 1124.64 261.848C1126.84 261.848 1128.5 262.413 1129.63 263.544C1130.76 264.675 1131.33 266.157 1131.33 267.992V275.192C1131.33 275.96 1131.46 276.493 1131.74 276.792C1132.04 277.069 1132.46 277.187 1132.99 277.144V278.936C1132.54 279.107 1132.04 279.192 1131.49 279.192C1129.33 279.192 1128.21 278.157 1128.13 276.088C1127.74 276.941 1127.08 277.709 1126.14 278.392C1125.22 279.053 1124.06 279.384 1122.65 279.384ZM1121.05 274.776C1121.05 275.437 1121.3 275.971 1121.79 276.376C1122.28 276.76 1122.95 276.952 1123.81 276.952C1124.96 276.952 1125.92 276.568 1126.69 275.8C1127.45 275.032 1127.84 273.912 1127.84 272.44V269.848C1127.58 270.317 1127.17 270.712 1126.59 271.032C1126.04 271.331 1125.34 271.597 1124.51 271.832C1123.23 272.195 1122.33 272.611 1121.82 273.08C1121.31 273.528 1121.05 274.093 1121.05 274.776Z" fill="black"/>
<path d="M1104.97 279.48C1102.9 279.48 1101.27 278.702 1100.07 277.144C1098.9 275.587 1098.31 273.454 1098.31 270.744C1098.31 268.952 1098.59 267.395 1099.14 266.072C1099.7 264.728 1100.49 263.694 1101.51 262.968C1102.56 262.243 1103.76 261.88 1105.13 261.88C1106.24 261.88 1107.22 262.158 1108.07 262.712C1108.92 263.267 1109.62 264.067 1110.15 265.112V255.96H1113.67V279H1110.31V275.96C1109.78 277.091 1109.05 277.966 1108.14 278.584C1107.22 279.182 1106.16 279.48 1104.97 279.48ZM1101.99 270.616C1101.99 272.686 1102.34 274.286 1103.05 275.416C1103.77 276.547 1104.79 277.112 1106.09 277.112C1107.39 277.112 1108.41 276.558 1109.16 275.448C1109.91 274.339 1110.28 272.782 1110.28 270.776C1110.28 268.75 1109.88 267.16 1109.1 266.008C1108.33 264.835 1107.29 264.248 1105.99 264.248C1104.71 264.248 1103.72 264.803 1103.02 265.912C1102.33 267 1101.99 268.568 1101.99 270.616Z" fill="black"/>
<path d="M1091.06 262.36H1094.58V279H1091.06V262.36ZM1092.85 259.448C1092.25 259.448 1091.74 259.256 1091.31 258.872C1090.91 258.467 1090.7 257.987 1090.7 257.432C1090.7 256.878 1090.91 256.408 1091.31 256.024C1091.74 255.64 1092.25 255.448 1092.85 255.448C1093.42 255.448 1093.91 255.651 1094.32 256.056C1094.75 256.44 1094.96 256.899 1094.96 257.432C1094.96 257.987 1094.75 258.467 1094.32 258.872C1093.91 259.256 1093.42 259.448 1092.85 259.448Z" fill="black"/>
<path d="M1078.81 262.36H1082.33V266.2H1082.39C1082.71 265.112 1083.26 264.163 1084.05 263.352C1084.84 262.542 1085.81 262.136 1086.97 262.136C1087.41 262.136 1087.71 262.168 1087.86 262.232V265.432C1087.61 265.368 1087.23 265.336 1086.74 265.336C1085.55 265.336 1084.51 265.838 1083.64 266.84C1082.76 267.822 1082.33 269.475 1082.33 271.8V279H1078.81V262.36Z" fill="black"/>
<path d="M1061.09 256.92H1075.59V259.576H1064.74V266.232H1074.79V268.888H1064.74V279H1061.09V256.92Z" fill="black"/>
<path d="M1358.33 284.92C1357.61 284.92 1356.94 284.835 1356.32 284.664V282.04C1356.85 282.189 1357.42 282.264 1358.01 282.264C1358.89 282.264 1359.64 282.04 1360.25 281.592C1360.89 281.144 1361.49 280.419 1362.05 279.416L1355.26 262.36H1359.17L1363.87 275.224L1368.41 262.36H1371.45L1365.5 277.976C1364.88 279.597 1364.26 280.899 1363.65 281.88C1363.03 282.883 1362.29 283.64 1361.44 284.152C1360.58 284.664 1359.55 284.92 1358.33 284.92Z" fill="black"/>
<path d="M1344 279.384C1342.55 279.384 1341.32 279.021 1340.32 278.296C1339.34 277.571 1338.85 276.493 1338.85 275.064C1338.85 272.547 1340.73 270.851 1344.51 269.976C1345.75 269.699 1346.7 269.443 1347.36 269.208C1348.02 268.973 1348.49 268.696 1348.77 268.376C1349.06 268.035 1349.21 267.608 1349.21 267.096C1349.21 266.328 1348.92 265.667 1348.32 265.112C1347.74 264.536 1346.9 264.248 1345.79 264.248C1344.83 264.248 1344.02 264.504 1343.36 265.016C1342.7 265.507 1342.25 266.2 1342.01 267.096H1339.2C1339.52 265.475 1340.3 264.195 1341.53 263.256C1342.77 262.317 1344.25 261.848 1345.98 261.848C1348.18 261.848 1349.84 262.413 1350.97 263.544C1352.1 264.675 1352.67 266.157 1352.67 267.992V275.192C1352.67 275.96 1352.81 276.493 1353.09 276.792C1353.38 277.069 1353.8 277.187 1354.33 277.144V278.936C1353.89 279.107 1353.38 279.192 1352.83 279.192C1350.68 279.192 1349.56 278.157 1349.47 276.088C1349.09 276.941 1348.42 277.709 1347.49 278.392C1346.57 279.053 1345.41 279.384 1344 279.384ZM1342.4 274.776C1342.4 275.437 1342.64 275.971 1343.13 276.376C1343.62 276.76 1344.3 276.952 1345.15 276.952C1346.3 276.952 1347.26 276.568 1348.03 275.8C1348.8 275.032 1349.18 273.912 1349.18 272.44V269.848C1348.93 270.317 1348.51 270.712 1347.93 271.032C1347.38 271.331 1346.69 271.597 1345.85 271.832C1344.57 272.195 1343.68 272.611 1343.17 273.08C1342.65 273.528 1342.4 274.093 1342.4 274.776Z" fill="black"/>
<path d="M1326.31 279.48C1324.24 279.48 1322.61 278.701 1321.42 277.144C1320.24 275.587 1319.66 273.453 1319.66 270.744C1319.66 268.952 1319.93 267.395 1320.49 266.072C1321.04 264.728 1321.83 263.693 1322.86 262.968C1323.9 262.243 1325.11 261.88 1326.47 261.88C1327.58 261.88 1328.56 262.157 1329.42 262.712C1330.27 263.267 1330.96 264.067 1331.5 265.112V255.96H1335.02V279H1331.66V275.96C1331.12 277.091 1330.4 277.965 1329.48 278.584C1328.56 279.181 1327.51 279.48 1326.31 279.48ZM1323.34 270.616C1323.34 272.685 1323.69 274.285 1324.39 275.416C1325.12 276.547 1326.13 277.112 1327.43 277.112C1328.73 277.112 1329.76 276.557 1330.5 275.448C1331.25 274.339 1331.62 272.781 1331.62 270.776C1331.62 268.749 1331.23 267.16 1330.44 266.008C1329.67 264.835 1328.64 264.248 1327.34 264.248C1326.06 264.248 1325.06 264.803 1324.36 265.912C1323.68 267 1323.34 268.568 1323.34 270.616Z" fill="black"/>
<path d="M1308.99 262.36H1312.51V266.2H1312.58C1312.9 265.112 1313.45 264.162 1314.24 263.352C1315.03 262.541 1316 262.136 1317.15 262.136C1317.6 262.136 1317.9 262.168 1318.05 262.232V265.432C1317.79 265.368 1317.42 265.336 1316.93 265.336C1315.74 265.336 1314.7 265.837 1313.83 266.84C1312.95 267.821 1312.51 269.474 1312.51 271.8V279H1308.99V262.36Z" fill="black"/>
<path d="M1295.11 279.384C1293.51 279.384 1292.25 278.904 1291.34 277.944C1290.44 276.963 1289.99 275.555 1289.99 273.72V262.36H1293.51V272.888C1293.51 274.253 1293.76 275.245 1294.25 275.864C1294.76 276.483 1295.48 276.792 1296.42 276.792C1297.17 276.792 1297.86 276.568 1298.5 276.12C1299.16 275.672 1299.69 275.021 1300.07 274.168C1300.48 273.293 1300.68 272.269 1300.68 271.096V262.36H1304.2V279H1300.68V275.512C1300.23 276.621 1299.51 277.549 1298.5 278.296C1297.52 279.021 1296.39 279.384 1295.11 279.384Z" fill="black"/>
<path d="M1284.17 279.256C1282.47 279.256 1281.16 278.872 1280.27 278.104C1279.39 277.336 1278.96 275.96 1278.96 273.976V264.6H1276.24V262.872C1277.45 262.808 1278.36 262.403 1278.96 261.656C1279.55 260.91 1279.91 259.758 1280.01 258.2H1282.44V262.36H1286.48V264.6H1282.44V274.072C1282.44 275.118 1282.68 275.854 1283.15 276.28C1283.62 276.686 1284.28 276.888 1285.13 276.888C1285.73 276.888 1286.22 276.814 1286.6 276.664V278.84C1286.35 278.968 1286 279.064 1285.55 279.128C1285.1 279.214 1284.64 279.256 1284.17 279.256Z" fill="black"/>
<path d="M1264.5 279.384C1263.05 279.384 1261.82 279.021 1260.82 278.296C1259.84 277.571 1259.35 276.493 1259.35 275.064C1259.35 272.547 1261.23 270.851 1265.01 269.976C1266.25 269.699 1267.2 269.443 1267.86 269.208C1268.52 268.973 1268.99 268.696 1269.27 268.376C1269.56 268.035 1269.71 267.608 1269.71 267.096C1269.71 266.328 1269.42 265.667 1268.82 265.112C1268.24 264.536 1267.4 264.248 1266.29 264.248C1265.33 264.248 1264.52 264.504 1263.86 265.016C1263.2 265.507 1262.75 266.2 1262.51 267.096H1259.7C1260.02 265.475 1260.8 264.195 1262.03 263.256C1263.27 262.317 1264.75 261.848 1266.48 261.848C1268.68 261.848 1270.34 262.413 1271.47 263.544C1272.6 264.675 1273.17 266.157 1273.17 267.992V275.192C1273.17 275.96 1273.31 276.493 1273.59 276.792C1273.88 277.069 1274.3 277.187 1274.83 277.144V278.936C1274.39 279.107 1273.88 279.192 1273.33 279.192C1271.18 279.192 1270.06 278.157 1269.97 276.088C1269.59 276.941 1268.92 277.709 1267.99 278.392C1267.07 279.053 1265.91 279.384 1264.5 279.384ZM1262.9 274.776C1262.9 275.437 1263.14 275.971 1263.63 276.376C1264.12 276.76 1264.8 276.952 1265.65 276.952C1266.8 276.952 1267.76 276.568 1268.53 275.8C1269.3 275.032 1269.68 273.912 1269.68 272.44V269.848C1269.43 270.317 1269.01 270.712 1268.43 271.032C1267.88 271.331 1267.19 271.597 1266.35 271.832C1265.07 272.195 1264.18 272.611 1263.67 273.08C1263.15 273.528 1262.9 274.093 1262.9 274.776Z" fill="black"/>
<path d="M1247.88 279.512C1246.19 279.512 1244.66 279.235 1243.27 278.68C1241.88 278.104 1240.74 277.24 1239.85 276.088C1238.95 274.936 1238.43 273.507 1238.28 271.8H1241.38C1241.6 273.421 1242.31 274.68 1243.53 275.576C1244.74 276.472 1246.19 276.92 1247.88 276.92C1249.48 276.92 1250.71 276.579 1251.56 275.896C1252.43 275.213 1252.87 274.296 1252.87 273.144C1252.87 272.099 1252.51 271.309 1251.78 270.776C1251.08 270.243 1250.03 269.837 1248.65 269.56L1245.8 268.984C1243.62 268.536 1241.95 267.832 1240.78 266.872C1239.62 265.891 1239.05 264.557 1239.05 262.872C1239.05 261.72 1239.37 260.653 1240.01 259.672C1240.67 258.691 1241.61 257.912 1242.82 257.336C1244.06 256.739 1245.5 256.44 1247.14 256.44C1249.34 256.44 1251.22 256.952 1252.78 257.976C1254.33 259 1255.36 260.472 1255.85 262.392L1252.42 263.064C1252.08 261.699 1251.42 260.664 1250.44 259.96C1249.48 259.256 1248.31 258.904 1246.92 258.904C1245.55 258.904 1244.49 259.224 1243.72 259.864C1242.95 260.483 1242.57 261.304 1242.57 262.328C1242.57 263.203 1242.89 263.917 1243.53 264.472C1244.19 265.005 1245.24 265.421 1246.7 265.72L1249.45 266.296C1251.86 266.787 1253.62 267.533 1254.73 268.536C1255.86 269.539 1256.42 270.915 1256.42 272.664C1256.42 273.987 1256.07 275.171 1255.37 276.216C1254.66 277.24 1253.66 278.051 1252.36 278.648C1251.08 279.224 1249.59 279.512 1247.88 279.512Z" fill="black"/>
<path d="M762.673 43.1602H770.593V76.0642L786.865 57.5602H794.929L781.105 72.6802L796.585 95.0002H787.729L776.209 78.0082L770.593 84.1282V95.0002H762.673V43.1602Z" fill="black"/>
<path d="M737.787 96.08C734.283 96.08 731.187 95.312 728.499 93.776C725.859 92.192 723.795 89.936 722.307 87.008C720.819 84.08 720.075 80.648 720.075 76.712C720.075 72.92 720.795 69.488 722.235 66.416C723.723 63.344 725.787 60.92 728.427 59.144C731.067 57.368 734.091 56.48 737.499 56.48C741.147 56.48 744.267 57.368 746.859 59.144C749.499 60.92 751.467 63.368 752.763 66.488C754.059 69.608 754.611 73.136 754.419 77.072H727.995C728.187 81.392 729.291 84.704 731.307 87.008C733.323 89.264 735.795 90.392 738.723 90.392C741.075 90.392 743.019 89.816 744.555 88.664C746.091 87.464 747.267 85.808 748.083 83.696H754.131C752.931 88.016 750.867 91.16 747.939 93.128C745.011 95.096 741.627 96.08 737.787 96.08ZM746.283 72.32C746.043 68.864 745.107 66.2 743.475 64.328C741.891 62.456 739.803 61.52 737.211 61.52C734.715 61.52 732.651 62.48 731.019 64.4C729.435 66.272 728.451 68.912 728.067 72.32H746.283Z" fill="black"/>
<path d="M697.709 96.08C694.205 96.08 691.109 95.312 688.421 93.776C685.781 92.192 683.717 89.936 682.229 87.008C680.741 84.08 679.997 80.648 679.997 76.712C679.997 72.92 680.717 69.488 682.157 66.416C683.645 63.344 685.709 60.92 688.349 59.144C690.989 57.368 694.013 56.48 697.421 56.48C701.069 56.48 704.189 57.368 706.781 59.144C709.421 60.92 711.389 63.368 712.685 66.488C713.981 69.608 714.533 73.136 714.341 77.072H687.917C688.109 81.392 689.213 84.704 691.229 87.008C693.245 89.264 695.717 90.392 698.645 90.392C700.997 90.392 702.941 89.816 704.477 88.664C706.013 87.464 707.189 85.808 708.005 83.696H714.053C712.853 88.016 710.789 91.16 707.861 93.128C704.933 95.096 701.549 96.08 697.709 96.08ZM706.205 72.32C705.965 68.864 705.029 66.2 703.397 64.328C701.813 62.456 699.725 61.52 697.133 61.52C694.637 61.52 692.573 62.48 690.941 64.4C689.357 66.272 688.373 68.912 687.989 72.32H706.205Z" fill="black"/>
<path d="M611.595 45.3203H620.091L630.459 89.0243L640.611 45.3203H649.539L659.979 89.0963L670.275 45.3203H677.403L664.803 95.0003H654.003L644.499 55.2563L635.067 95.0003H624.051L611.595 45.3203Z" fill="black"/>
</g>
<defs>
<clipPath id="clip0_101_3052">
<rect width="1404" height="1872" fill="white"/>
</clipPath>
</defs>
</svg>
