<svg width="1620" height="2160" viewBox="0 0 1620 2160" fill="none" xmlns="http://www.w3.org/2000/svg">
<g clip-path="url(#clip0_101_3073)">
<path fill-rule="evenodd" clip-rule="evenodd" d="M1621 146.75H1V146.25H1621V146.75Z" fill="black"/>
<path fill-rule="evenodd" clip-rule="evenodd" d="M1621 312.75H1V312.25H1621V312.75Z" fill="black"/>
<path fill-rule="evenodd" clip-rule="evenodd" d="M1621 223.75H1V223.25H1621V223.75Z" fill="black"/>
<path fill-rule="evenodd" clip-rule="evenodd" d="M231.75 2160V224H232.25V2160H231.75Z" fill="black"/>
<path fill-rule="evenodd" clip-rule="evenodd" d="M463.75 2160V224H464.25V2160H463.75Z" fill="black"/>
<path fill-rule="evenodd" clip-rule="evenodd" d="M695.75 2160V224H696.25V2160H695.75Z" fill="black"/>
<path fill-rule="evenodd" clip-rule="evenodd" d="M927.75 2160V224H928.25V2160H927.75Z" fill="black"/>
<path fill-rule="evenodd" clip-rule="evenodd" d="M1159.75 2160V224H1160.25V2160H1159.75Z" fill="black"/>
<path fill-rule="evenodd" clip-rule="evenodd" d="M1391.75 2160V224H1392.25V2160H1391.75Z" fill="black"/>
<path d="M870.673 43.1602H878.593V76.0642L894.865 57.5602H902.929L889.105 72.6802L904.585 95.0002H895.729L884.209 78.0082L878.593 84.1282V95.0002H870.673V43.1602Z" fill="black"/>
<path d="M845.787 96.08C842.283 96.08 839.187 95.312 836.499 93.776C833.859 92.192 831.795 89.936 830.307 87.008C828.819 84.08 828.075 80.648 828.075 76.712C828.075 72.92 828.795 69.488 830.235 66.416C831.723 63.344 833.787 60.92 836.427 59.144C839.067 57.368 842.091 56.48 845.499 56.48C849.147 56.48 852.267 57.368 854.859 59.144C857.499 60.92 859.467 63.368 860.763 66.488C862.059 69.608 862.611 73.136 862.419 77.072H835.995C836.187 81.392 837.291 84.704 839.307 87.008C841.323 89.264 843.795 90.392 846.723 90.392C849.075 90.392 851.019 89.816 852.555 88.664C854.091 87.464 855.267 85.808 856.083 83.696H862.131C860.931 88.016 858.867 91.16 855.939 93.128C853.011 95.096 849.627 96.08 845.787 96.08ZM854.283 72.32C854.043 68.864 853.107 66.2 851.475 64.328C849.891 62.456 847.803 61.52 845.211 61.52C842.715 61.52 840.651 62.48 839.019 64.4C837.435 66.272 836.451 68.912 836.067 72.32H854.283Z" fill="black"/>
<path d="M805.709 96.08C802.205 96.08 799.109 95.312 796.421 93.776C793.781 92.192 791.717 89.936 790.229 87.008C788.741 84.08 787.997 80.648 787.997 76.712C787.997 72.92 788.717 69.488 790.157 66.416C791.645 63.344 793.709 60.92 796.349 59.144C798.989 57.368 802.013 56.48 805.421 56.48C809.069 56.48 812.189 57.368 814.781 59.144C817.421 60.92 819.389 63.368 820.685 66.488C821.981 69.608 822.533 73.136 822.341 77.072H795.917C796.109 81.392 797.213 84.704 799.229 87.008C801.245 89.264 803.717 90.392 806.645 90.392C808.997 90.392 810.941 89.816 812.477 88.664C814.013 87.464 815.189 85.808 816.005 83.696H822.053C820.853 88.016 818.789 91.16 815.861 93.128C812.933 95.096 809.549 96.08 805.709 96.08ZM814.205 72.32C813.965 68.864 813.029 66.2 811.397 64.328C809.813 62.456 807.725 61.52 805.133 61.52C802.637 61.52 800.573 62.48 798.941 64.4C797.357 66.272 796.373 68.912 795.989 72.32H814.205Z" fill="black"/>
<path d="M719.595 45.3203H728.091L738.459 89.0243L748.611 45.3203H757.539L767.979 89.0963L778.275 45.3203H785.403L772.803 95.0003H762.003L752.499 55.2563L743.067 95.0003H732.051L719.595 45.3203Z" fill="black"/>
<path d="M207.458 193.24C206.994 193.24 206.594 193.08 206.258 192.76C205.938 192.44 205.778 192.056 205.778 191.608C205.778 191.144 205.938 190.752 206.258 190.432C206.594 190.112 206.994 189.952 207.458 189.952C207.922 189.952 208.314 190.112 208.634 190.432C208.97 190.752 209.138 191.144 209.138 191.608C209.138 192.056 208.97 192.44 208.634 192.76C208.314 193.08 207.922 193.24 207.458 193.24ZM207.458 184.336C206.994 184.336 206.594 184.176 206.258 183.856C205.938 183.536 205.778 183.152 205.778 182.704C205.778 182.24 205.938 181.848 206.258 181.528C206.594 181.208 206.994 181.048 207.458 181.048C207.922 181.048 208.314 181.208 208.634 181.528C208.97 181.848 209.138 182.24 209.138 182.704C209.138 183.152 208.97 183.536 208.634 183.856C208.314 184.176 207.922 184.336 207.458 184.336Z" fill="black"/>
<path d="M190.374 176.44H197.886C198.862 176.44 199.742 176.64 200.526 177.04C201.31 177.424 201.926 177.96 202.374 178.648C202.822 179.336 203.046 180.104 203.046 180.952C203.046 182.056 202.67 183 201.918 183.784C201.166 184.568 200.174 185.04 198.942 185.2C199.566 185.328 200.086 185.6 200.502 186.016C200.918 186.416 201.254 186.88 201.51 187.408C201.782 187.936 202.078 188.64 202.398 189.52L203.67 193H200.646L199.71 189.976C199.406 188.968 199.118 188.208 198.846 187.696C198.59 187.168 198.246 186.776 197.814 186.52C197.398 186.248 196.822 186.112 196.086 186.112H193.086V193H190.374V176.44ZM197.19 184.144C198.038 184.144 198.766 183.904 199.374 183.424C199.982 182.928 200.286 182.216 200.286 181.288C200.286 180.344 199.99 179.632 199.398 179.152C198.822 178.656 198.094 178.408 197.214 178.408H193.086V184.144H197.19Z" fill="black"/>
<path d="M176.2 176.44H187.072V178.432H178.936V183.424H186.472V185.416H178.936V191.008H187.312V193H176.2V176.44Z" fill="black"/>
<path d="M160.526 176.44H167.846C168.822 176.44 169.678 176.616 170.414 176.968C171.15 177.304 171.718 177.784 172.118 178.408C172.518 179.016 172.718 179.696 172.718 180.448C172.718 181.36 172.422 182.136 171.83 182.776C171.254 183.4 170.486 183.808 169.526 184C170.694 184.256 171.614 184.76 172.286 185.512C172.958 186.264 173.294 187.2 173.294 188.32C173.294 189.2 173.078 190 172.646 190.72C172.23 191.424 171.614 191.984 170.798 192.4C169.998 192.8 169.062 193 167.99 193H160.526V176.44ZM167.342 191.104C168.318 191.104 169.094 190.848 169.67 190.336C170.246 189.824 170.534 189.08 170.534 188.104C170.534 187.224 170.222 186.536 169.598 186.04C168.99 185.528 168.222 185.272 167.294 185.272H163.166V191.104H167.342ZM167.15 183.352C167.966 183.352 168.638 183.144 169.166 182.728C169.71 182.296 169.982 181.672 169.982 180.856C169.982 180.024 169.726 179.4 169.214 178.984C168.702 178.552 168.014 178.336 167.15 178.336H163.166V183.352H167.15Z" fill="black"/>
<path d="M139.556 176.44H143.588L148.052 189.328L152.516 176.44H156.692V193H153.956V178.552L149.012 193H146.732L141.788 178.624V193H139.556V176.44Z" fill="black"/>
<path d="M129.168 193.36C127.776 193.36 126.576 193.096 125.568 192.568C124.56 192.04 123.792 191.304 123.264 190.36C122.752 189.416 122.496 188.328 122.496 187.096V176.44H125.232V187.096C125.232 188.376 125.56 189.416 126.216 190.216C126.872 191 127.856 191.392 129.168 191.392C130.48 191.392 131.456 191 132.096 190.216C132.752 189.416 133.08 188.376 133.08 187.096V176.44H135.816V187.096C135.816 188.328 135.552 189.416 135.024 190.36C134.512 191.304 133.752 192.04 132.744 192.568C131.752 193.096 130.56 193.36 129.168 193.36Z" fill="black"/>
<path d="M104.973 176.44H108.885L116.493 190.624V176.44H118.749V193H114.885L107.205 178.696V193H104.973V176.44Z" fill="black"/>
<path d="M84.3594 176.44H87.0954V185.368L94.7994 176.44H97.6794L91.7994 182.92L98.1594 193H94.8954L89.9274 184.96L87.0954 188.128V193H84.3594V176.44Z" fill="black"/>
<path d="M70.1846 176.44H81.0566V178.432H72.9206V183.424H80.4566V185.416H72.9206V191.008H81.2966V193H70.1846V176.44Z" fill="black"/>
<path d="M56.0107 176.44H66.8827V178.432H58.7467V183.424H66.2827V185.416H58.7467V191.008H67.1227V193H56.0107V176.44Z" fill="black"/>
<path d="M31.1279 176.44H33.9599L37.4159 191.008L40.7999 176.44H43.7759L47.2559 191.032L50.6879 176.44H53.0639L48.8639 193H45.2639L42.0959 179.752L38.9519 193H35.2799L31.1279 176.44Z" fill="black"/>
<path d="M394.037 284.92C393.312 284.92 392.64 284.835 392.021 284.664V282.04C392.554 282.189 393.12 282.264 393.717 282.264C394.592 282.264 395.338 282.04 395.957 281.592C396.597 281.144 397.194 280.419 397.749 279.416L390.965 262.36H394.869L399.573 275.224L404.117 262.36H407.157L401.205 277.976C400.586 279.597 399.968 280.899 399.349 281.88C398.73 282.883 397.994 283.64 397.141 284.152C396.288 284.664 395.253 284.92 394.037 284.92Z" fill="black"/>
<path d="M379.701 279.384C378.25 279.384 377.023 279.021 376.021 278.296C375.039 277.571 374.549 276.493 374.549 275.064C374.549 272.547 376.437 270.851 380.213 269.976C381.45 269.699 382.399 269.443 383.061 269.208C383.722 268.973 384.191 268.696 384.469 268.376C384.767 268.035 384.917 267.608 384.917 267.096C384.917 266.328 384.618 265.667 384.021 265.112C383.445 264.536 382.602 264.248 381.493 264.248C380.533 264.248 379.722 264.504 379.061 265.016C378.399 265.507 377.951 266.2 377.717 267.096H374.901C375.221 265.475 375.999 264.195 377.237 263.256C378.474 262.317 379.957 261.848 381.685 261.848C383.882 261.848 385.546 262.413 386.677 263.544C387.807 264.675 388.373 266.157 388.373 267.992V275.192C388.373 275.96 388.511 276.493 388.789 276.792C389.087 277.069 389.503 277.187 390.037 277.144V278.936C389.589 279.107 389.087 279.192 388.533 279.192C386.378 279.192 385.258 278.157 385.173 276.088C384.789 276.941 384.127 277.709 383.189 278.392C382.271 279.053 381.109 279.384 379.701 279.384ZM378.101 274.776C378.101 275.437 378.346 275.971 378.837 276.376C379.327 276.76 379.999 276.952 380.853 276.952C382.005 276.952 382.965 276.568 383.733 275.8C384.501 275.032 384.885 273.912 384.885 272.44V269.848C384.629 270.317 384.213 270.712 383.637 271.032C383.082 271.331 382.389 271.597 381.557 271.832C380.277 272.195 379.381 272.611 378.869 273.08C378.357 273.528 378.101 274.093 378.101 274.776Z" fill="black"/>
<path d="M362.014 279.48C359.945 279.48 358.313 278.701 357.118 277.144C355.945 275.587 355.358 273.453 355.358 270.744C355.358 268.952 355.636 267.395 356.19 266.072C356.745 264.728 357.534 263.693 358.558 262.968C359.604 262.243 360.809 261.88 362.174 261.88C363.284 261.88 364.265 262.157 365.118 262.712C365.972 263.267 366.665 264.067 367.198 265.112V255.96H370.718V279H367.358V275.96C366.825 277.091 366.1 277.965 365.182 278.584C364.265 279.181 363.209 279.48 362.014 279.48ZM359.038 270.616C359.038 272.685 359.39 274.285 360.094 275.416C360.82 276.547 361.833 277.112 363.134 277.112C364.436 277.112 365.46 276.557 366.206 275.448C366.953 274.339 367.326 272.781 367.326 270.776C367.326 268.749 366.932 267.16 366.142 266.008C365.374 264.835 364.34 264.248 363.038 264.248C361.758 264.248 360.766 264.803 360.062 265.912C359.38 267 359.038 268.568 359.038 270.616Z" fill="black"/>
<path d="M337.415 262.36H340.935V265.848C341.362 264.739 342.076 263.821 343.079 263.096C344.103 262.349 345.266 261.976 346.567 261.976C348.188 261.976 349.458 262.467 350.375 263.448C351.292 264.408 351.751 265.805 351.751 267.64V279H348.231V268.472C348.231 265.869 347.239 264.568 345.255 264.568C344.508 264.568 343.804 264.792 343.143 265.24C342.482 265.688 341.948 266.349 341.543 267.224C341.138 268.077 340.935 269.091 340.935 270.264V279H337.415V262.36Z" fill="black"/>
<path d="M325.793 279.48C324.214 279.48 322.827 279.128 321.633 278.424C320.438 277.699 319.51 276.675 318.849 275.352C318.209 274.029 317.889 272.493 317.889 270.744C317.889 268.995 318.209 267.448 318.849 266.104C319.51 264.76 320.438 263.725 321.633 263C322.827 262.253 324.214 261.88 325.793 261.88C327.371 261.88 328.758 262.243 329.953 262.968C331.147 263.693 332.075 264.717 332.737 266.04C333.398 267.363 333.729 268.899 333.729 270.648C333.729 272.397 333.398 273.944 332.737 275.288C332.075 276.611 331.147 277.645 329.953 278.392C328.758 279.117 327.371 279.48 325.793 279.48ZM321.569 270.584C321.569 272.632 321.942 274.253 322.689 275.448C323.457 276.621 324.502 277.208 325.825 277.208C327.126 277.208 328.15 276.653 328.897 275.544C329.665 274.413 330.049 272.835 330.049 270.808C330.049 268.739 329.665 267.117 328.897 265.944C328.129 264.749 327.083 264.152 325.761 264.152C324.438 264.152 323.403 264.717 322.657 265.848C321.931 266.979 321.569 268.557 321.569 270.584Z" fill="black"/>
<path d="M291.048 256.92H296.424L302.376 274.104L308.328 256.92H313.896V279H310.248V259.736L303.656 279H300.616L294.024 259.832V279H291.048V256.92Z" fill="black"/>
<path d="M159.084 284.92C158.358 284.92 157.686 284.835 157.068 284.664V282.04C157.601 282.189 158.166 282.264 158.764 282.264C159.638 282.264 160.385 282.04 161.004 281.592C161.644 281.144 162.241 280.419 162.796 279.416L156.012 262.36H159.916L164.62 275.224L169.164 262.36H172.204L166.252 277.976C165.633 279.597 165.014 280.899 164.396 281.88C163.777 282.883 163.041 283.64 162.188 284.152C161.334 284.664 160.3 284.92 159.084 284.92Z" fill="black"/>
<path d="M144.749 279.384C143.298 279.384 142.071 279.021 141.069 278.296C140.087 277.571 139.597 276.493 139.597 275.064C139.597 272.547 141.485 270.851 145.261 269.976C146.498 269.699 147.447 269.443 148.109 269.208C148.77 268.973 149.239 268.696 149.517 268.376C149.815 268.035 149.965 267.608 149.965 267.096C149.965 266.328 149.666 265.667 149.069 265.112C148.493 264.536 147.65 264.248 146.541 264.248C145.581 264.248 144.77 264.504 144.109 265.016C143.447 265.507 142.999 266.2 142.765 267.096H139.949C140.269 265.475 141.047 264.195 142.285 263.256C143.522 262.317 145.005 261.848 146.733 261.848C148.93 261.848 150.594 262.413 151.725 263.544C152.855 264.675 153.421 266.157 153.421 267.992V275.192C153.421 275.96 153.559 276.493 153.837 276.792C154.135 277.069 154.551 277.187 155.085 277.144V278.936C154.637 279.107 154.135 279.192 153.581 279.192C151.426 279.192 150.306 278.157 150.221 276.088C149.837 276.941 149.175 277.709 148.237 278.392C147.319 279.053 146.157 279.384 144.749 279.384ZM143.149 274.776C143.149 275.437 143.394 275.971 143.885 276.376C144.375 276.76 145.047 276.952 145.901 276.952C147.053 276.952 148.013 276.568 148.781 275.8C149.549 275.032 149.933 273.912 149.933 272.44V269.848C149.677 270.317 149.261 270.712 148.685 271.032C148.13 271.331 147.437 271.597 146.605 271.832C145.325 272.195 144.429 272.611 143.917 273.08C143.405 273.528 143.149 274.093 143.149 274.776Z" fill="black"/>
<path d="M127.062 279.48C124.993 279.48 123.361 278.701 122.166 277.144C120.993 275.587 120.406 273.453 120.406 270.744C120.406 268.952 120.684 267.395 121.238 266.072C121.793 264.728 122.582 263.693 123.606 262.968C124.652 262.243 125.857 261.88 127.222 261.88C128.332 261.88 129.313 262.157 130.166 262.712C131.02 263.267 131.713 264.067 132.246 265.112V255.96H135.766V279H132.406V275.96C131.873 277.091 131.148 277.965 130.23 278.584C129.313 279.181 128.257 279.48 127.062 279.48ZM124.086 270.616C124.086 272.685 124.438 274.285 125.142 275.416C125.868 276.547 126.881 277.112 128.182 277.112C129.484 277.112 130.508 276.557 131.254 275.448C132.001 274.339 132.374 272.781 132.374 270.776C132.374 268.749 131.98 267.16 131.19 266.008C130.422 264.835 129.388 264.248 128.086 264.248C126.806 264.248 125.814 264.803 125.11 265.912C124.428 267 124.086 268.568 124.086 270.616Z" fill="black"/>
<path d="M102.463 262.36H105.983V265.848C106.41 264.739 107.124 263.821 108.127 263.096C109.151 262.349 110.314 261.976 111.615 261.976C113.236 261.976 114.506 262.467 115.423 263.448C116.34 264.408 116.799 265.805 116.799 267.64V279H113.279V268.472C113.279 265.869 112.287 264.568 110.303 264.568C109.556 264.568 108.852 264.792 108.191 265.24C107.53 265.688 106.996 266.349 106.591 267.224C106.186 268.077 105.983 269.091 105.983 270.264V279H102.463V262.36Z" fill="black"/>
<path d="M88.58 279.384C86.98 279.384 85.7213 278.904 84.804 277.944C83.908 276.963 83.46 275.555 83.46 273.72V262.36H86.98V272.888C86.98 274.253 87.2253 275.245 87.716 275.864C88.228 276.483 88.9533 276.792 89.892 276.792C90.6386 276.792 91.332 276.568 91.972 276.12C92.6333 275.672 93.156 275.021 93.54 274.168C93.9453 273.293 94.148 272.269 94.148 271.096V262.36H97.668V279H94.148V275.512C93.7 276.621 92.9746 277.549 91.972 278.296C90.9906 279.021 89.86 279.384 88.58 279.384Z" fill="black"/>
<path d="M71.1293 279.512C69.444 279.512 67.908 279.235 66.5213 278.68C65.1346 278.104 63.9933 277.24 63.0973 276.088C62.2013 274.936 61.6786 273.507 61.5293 271.8H64.6333C64.8466 273.421 65.5613 274.68 66.7773 275.576C67.9933 276.472 69.444 276.92 71.1293 276.92C72.7293 276.92 73.956 276.579 74.8093 275.896C75.684 275.213 76.1213 274.296 76.1213 273.144C76.1213 272.099 75.7586 271.309 75.0333 270.776C74.3293 270.243 73.284 269.837 71.8973 269.56L69.0493 268.984C66.8733 268.536 65.1986 267.832 64.0253 266.872C62.8733 265.891 62.2973 264.557 62.2973 262.872C62.2973 261.72 62.6173 260.653 63.2573 259.672C63.9186 258.691 64.8573 257.912 66.0733 257.336C67.3106 256.739 68.7506 256.44 70.3933 256.44C72.5906 256.44 74.468 256.952 76.0253 257.976C77.5826 259 78.6066 260.472 79.0973 262.392L75.6733 263.064C75.332 261.699 74.6706 260.664 73.6893 259.96C72.7293 259.256 71.556 258.904 70.1693 258.904C68.804 258.904 67.7373 259.224 66.9693 259.864C66.2013 260.483 65.8173 261.304 65.8173 262.328C65.8173 263.203 66.1373 263.917 66.7773 264.472C67.4386 265.005 68.4946 265.421 69.9453 265.72L72.6973 266.296C75.108 266.787 76.868 267.533 77.9773 268.536C79.108 269.539 79.6733 270.915 79.6733 272.664C79.6733 273.987 79.3213 275.171 78.6173 276.216C77.9133 277.24 76.9106 278.051 75.6093 278.648C74.3293 279.224 72.836 279.512 71.1293 279.512Z" fill="black"/>
<path d="M627.912 284.92C627.187 284.92 626.515 284.835 625.896 284.664V282.04C626.429 282.189 626.995 282.264 627.592 282.264C628.467 282.264 629.213 282.04 629.832 281.592C630.472 281.144 631.069 280.419 631.624 279.416L624.84 262.36H628.744L633.448 275.224L637.992 262.36H641.032L635.08 277.976C634.461 279.597 633.843 280.899 633.224 281.88C632.605 282.883 631.869 283.64 631.016 284.152C630.163 284.664 629.128 284.92 627.912 284.92Z" fill="black"/>
<path d="M613.576 279.384C612.125 279.384 610.898 279.021 609.896 278.296C608.914 277.571 608.424 276.493 608.424 275.064C608.424 272.547 610.312 270.851 614.088 269.976C615.325 269.699 616.274 269.443 616.936 269.208C617.597 268.973 618.066 268.696 618.344 268.376C618.642 268.035 618.792 267.608 618.792 267.096C618.792 266.328 618.493 265.667 617.896 265.112C617.32 264.536 616.477 264.248 615.368 264.248C614.408 264.248 613.597 264.504 612.936 265.016C612.274 265.507 611.826 266.2 611.592 267.096H608.776C609.096 265.475 609.874 264.195 611.112 263.256C612.349 262.317 613.832 261.848 615.56 261.848C617.757 261.848 619.421 262.413 620.552 263.544C621.682 264.675 622.248 266.157 622.248 267.992V275.192C622.248 275.96 622.386 276.493 622.664 276.792C622.962 277.069 623.378 277.187 623.912 277.144V278.936C623.464 279.107 622.962 279.192 622.408 279.192C620.253 279.192 619.133 278.157 619.048 276.088C618.664 276.941 618.002 277.709 617.064 278.392C616.146 279.053 614.984 279.384 613.576 279.384ZM611.976 274.776C611.976 275.437 612.221 275.971 612.712 276.376C613.202 276.76 613.874 276.952 614.728 276.952C615.88 276.952 616.84 276.568 617.608 275.8C618.376 275.032 618.76 273.912 618.76 272.44V269.848C618.504 270.317 618.088 270.712 617.512 271.032C616.957 271.331 616.264 271.597 615.432 271.832C614.152 272.195 613.256 272.611 612.744 273.08C612.232 273.528 611.976 274.093 611.976 274.776Z" fill="black"/>
<path d="M595.889 279.48C593.82 279.48 592.188 278.701 590.993 277.144C589.82 275.587 589.233 273.453 589.233 270.744C589.233 268.952 589.511 267.395 590.065 266.072C590.62 264.728 591.409 263.693 592.433 262.968C593.479 262.243 594.684 261.88 596.049 261.88C597.159 261.88 598.14 262.157 598.993 262.712C599.847 263.267 600.54 264.067 601.073 265.112V255.96H604.593V279H601.233V275.96C600.7 277.091 599.975 277.965 599.057 278.584C598.14 279.181 597.084 279.48 595.889 279.48ZM592.913 270.616C592.913 272.685 593.265 274.285 593.969 275.416C594.695 276.547 595.708 277.112 597.009 277.112C598.311 277.112 599.335 276.557 600.081 275.448C600.828 274.339 601.201 272.781 601.201 270.776C601.201 268.749 600.807 267.16 600.017 266.008C599.249 264.835 598.215 264.248 596.913 264.248C595.633 264.248 594.641 264.803 593.937 265.912C593.255 267 592.913 268.568 592.913 270.616Z" fill="black"/>
<path d="M580.216 279.48C578.168 279.48 576.472 278.989 575.128 278.008C573.784 277.005 573.016 275.587 572.824 273.752H575.576C575.747 274.84 576.259 275.693 577.112 276.312C577.987 276.909 579.011 277.208 580.184 277.208C581.272 277.208 582.126 276.984 582.744 276.536C583.363 276.067 583.672 275.437 583.672 274.648C583.672 273.944 583.416 273.411 582.904 273.048C582.392 272.664 581.603 272.365 580.536 272.152L578.616 271.736C576.888 271.352 575.566 270.787 574.648 270.04C573.731 269.293 573.272 268.259 573.272 266.936C573.272 266.04 573.528 265.208 574.04 264.44C574.552 263.651 575.278 263.032 576.216 262.584C577.176 262.115 578.296 261.88 579.576 261.88C581.262 261.88 582.702 262.264 583.896 263.032C585.091 263.8 585.902 264.888 586.328 266.296L583.256 266.904C583 266.008 582.542 265.325 581.88 264.856C581.219 264.365 580.408 264.12 579.448 264.12C578.51 264.12 577.763 264.333 577.208 264.76C576.675 265.187 576.408 265.752 576.408 266.456C576.408 267.053 576.643 267.533 577.112 267.896C577.603 268.237 578.424 268.536 579.576 268.792L581.368 269.176C583.246 269.603 584.632 270.2 585.528 270.968C586.424 271.736 586.872 272.835 586.872 274.264C586.872 275.288 586.584 276.195 586.008 276.984C585.454 277.773 584.664 278.392 583.64 278.84C582.638 279.267 581.496 279.48 580.216 279.48Z" fill="black"/>
<path d="M562.98 279.48C561.423 279.48 560.047 279.139 558.852 278.456C557.679 277.752 556.762 276.749 556.1 275.448C555.439 274.147 555.108 272.621 555.108 270.872C555.108 269.187 555.428 267.661 556.068 266.296C556.73 264.931 557.647 263.853 558.82 263.064C559.994 262.275 561.338 261.88 562.852 261.88C564.474 261.88 565.86 262.275 567.012 263.064C568.186 263.853 569.06 264.941 569.636 266.328C570.212 267.715 570.458 269.283 570.372 271.032H558.628C558.714 272.952 559.204 274.424 560.1 275.448C560.996 276.451 562.095 276.952 563.396 276.952C564.442 276.952 565.306 276.696 565.988 276.184C566.671 275.651 567.194 274.915 567.556 273.976H570.244C569.711 275.896 568.794 277.293 567.492 278.168C566.191 279.043 564.687 279.48 562.98 279.48ZM566.756 268.92C566.65 267.384 566.234 266.2 565.508 265.368C564.804 264.536 563.876 264.12 562.724 264.12C561.615 264.12 560.698 264.547 559.972 265.4C559.268 266.232 558.831 267.405 558.66 268.92H566.756Z" fill="black"/>
<path d="M542.346 279.384C540.746 279.384 539.487 278.904 538.57 277.944C537.674 276.963 537.226 275.555 537.226 273.72V262.36H540.746V272.888C540.746 274.253 540.991 275.245 541.482 275.864C541.994 276.483 542.719 276.792 543.658 276.792C544.404 276.792 545.098 276.568 545.738 276.12C546.399 275.672 546.922 275.021 547.306 274.168C547.711 273.293 547.914 272.269 547.914 271.096V262.36H551.434V279H547.914V275.512C547.466 276.621 546.74 277.549 545.738 278.296C544.756 279.021 543.626 279.384 542.346 279.384Z" fill="black"/>
<path d="M525.133 259.576H518.413V256.92H535.469V259.576H528.781V279H525.133V259.576Z" fill="black"/>
<path d="M884.99 284.92C884.265 284.92 883.593 284.835 882.974 284.664V282.04C883.507 282.189 884.073 282.264 884.67 282.264C885.545 282.264 886.291 282.04 886.91 281.592C887.55 281.144 888.147 280.419 888.702 279.416L881.918 262.36H885.822L890.526 275.224L895.07 262.36H898.11L892.158 277.976C891.539 279.597 890.921 280.899 890.302 281.88C889.683 282.883 888.947 283.64 888.094 284.152C887.241 284.664 886.206 284.92 884.99 284.92Z" fill="black"/>
<path d="M870.654 279.384C869.203 279.384 867.977 279.021 866.974 278.296C865.993 277.571 865.502 276.493 865.502 275.064C865.502 272.547 867.39 270.851 871.166 269.976C872.403 269.699 873.353 269.443 874.014 269.208C874.675 268.973 875.145 268.696 875.422 268.376C875.721 268.035 875.87 267.608 875.87 267.096C875.87 266.328 875.571 265.667 874.974 265.112C874.398 264.536 873.555 264.248 872.446 264.248C871.486 264.248 870.675 264.504 870.014 265.016C869.353 265.507 868.905 266.2 868.67 267.096H865.854C866.174 265.475 866.953 264.195 868.19 263.256C869.427 262.317 870.91 261.848 872.638 261.848C874.835 261.848 876.499 262.413 877.63 263.544C878.761 264.675 879.326 266.157 879.326 267.992V275.192C879.326 275.96 879.465 276.493 879.742 276.792C880.041 277.069 880.457 277.187 880.99 277.144V278.936C880.542 279.107 880.041 279.192 879.486 279.192C877.331 279.192 876.211 278.157 876.126 276.088C875.742 276.941 875.081 277.709 874.142 278.392C873.225 279.053 872.062 279.384 870.654 279.384ZM869.054 274.776C869.054 275.437 869.299 275.971 869.79 276.376C870.281 276.76 870.953 276.952 871.806 276.952C872.958 276.952 873.918 276.568 874.686 275.8C875.454 275.032 875.838 273.912 875.838 272.44V269.848C875.582 270.317 875.166 270.712 874.59 271.032C874.035 271.331 873.342 271.597 872.51 271.832C871.23 272.195 870.334 272.611 869.822 273.08C869.31 273.528 869.054 274.093 869.054 274.776Z" fill="black"/>
<path d="M852.968 279.48C850.898 279.48 849.266 278.701 848.072 277.144C846.898 275.587 846.312 273.453 846.312 270.744C846.312 268.952 846.589 267.395 847.144 266.072C847.698 264.728 848.488 263.693 849.512 262.968C850.557 262.243 851.762 261.88 853.128 261.88C854.237 261.88 855.218 262.157 856.072 262.712C856.925 263.267 857.618 264.067 858.152 265.112V255.96H861.672V279H858.312V275.96C857.778 277.091 857.053 277.965 856.136 278.584C855.218 279.181 854.162 279.48 852.968 279.48ZM849.992 270.616C849.992 272.685 850.344 274.285 851.048 275.416C851.773 276.547 852.786 277.112 854.088 277.112C855.389 277.112 856.413 276.557 857.16 275.448C857.906 274.339 858.28 272.781 858.28 270.776C858.28 268.749 857.885 267.16 857.096 266.008C856.328 264.835 855.293 264.248 853.992 264.248C852.712 264.248 851.72 264.803 851.016 265.912C850.333 267 849.992 268.568 849.992 270.616Z" fill="black"/>
<path d="M837.294 279.48C835.246 279.48 833.55 278.989 832.206 278.008C830.862 277.005 830.094 275.587 829.902 273.752H832.654C832.825 274.84 833.337 275.693 834.19 276.312C835.065 276.909 836.089 277.208 837.262 277.208C838.35 277.208 839.204 276.984 839.822 276.536C840.441 276.067 840.75 275.437 840.75 274.648C840.75 273.944 840.494 273.411 839.982 273.048C839.47 272.664 838.681 272.365 837.614 272.152L835.694 271.736C833.966 271.352 832.644 270.787 831.726 270.04C830.809 269.293 830.35 268.259 830.35 266.936C830.35 266.04 830.606 265.208 831.118 264.44C831.63 263.651 832.356 263.032 833.294 262.584C834.254 262.115 835.374 261.88 836.654 261.88C838.34 261.88 839.78 262.264 840.974 263.032C842.169 263.8 842.98 264.888 843.406 266.296L840.334 266.904C840.078 266.008 839.62 265.325 838.958 264.856C838.297 264.365 837.486 264.12 836.526 264.12C835.588 264.12 834.841 264.333 834.286 264.76C833.753 265.187 833.486 265.752 833.486 266.456C833.486 267.053 833.721 267.533 834.19 267.896C834.681 268.237 835.502 268.536 836.654 268.792L838.446 269.176C840.324 269.603 841.71 270.2 842.606 270.968C843.502 271.736 843.95 272.835 843.95 274.264C843.95 275.288 843.662 276.195 843.086 276.984C842.532 277.773 841.742 278.392 840.718 278.84C839.716 279.267 838.574 279.48 837.294 279.48Z" fill="black"/>
<path d="M820.059 279.48C818.501 279.48 817.125 279.139 815.931 278.456C814.757 277.752 813.84 276.749 813.179 275.448C812.517 274.147 812.187 272.621 812.187 270.872C812.187 269.187 812.507 267.661 813.147 266.296C813.808 264.931 814.725 263.853 815.899 263.064C817.072 262.275 818.416 261.88 819.931 261.88C821.552 261.88 822.939 262.275 824.091 263.064C825.264 263.853 826.139 264.941 826.715 266.328C827.291 267.715 827.536 269.283 827.451 271.032H815.707C815.792 272.952 816.283 274.424 817.179 275.448C818.075 276.451 819.173 276.952 820.475 276.952C821.52 276.952 822.384 276.696 823.067 276.184C823.749 275.651 824.272 274.915 824.635 273.976H827.323C826.789 275.896 825.872 277.293 824.571 278.168C823.269 279.043 821.765 279.48 820.059 279.48ZM823.835 268.92C823.728 267.384 823.312 266.2 822.587 265.368C821.883 264.536 820.955 264.12 819.803 264.12C818.693 264.12 817.776 264.547 817.051 265.4C816.347 266.232 815.909 267.405 815.739 268.92H823.835Z" fill="black"/>
<path d="M794.275 262.36H797.795V265.848C798.222 264.739 798.937 263.821 799.939 263.096C800.963 262.349 802.126 261.976 803.427 261.976C805.049 261.976 806.318 262.467 807.235 263.448C808.153 264.408 808.611 265.805 808.611 267.64V279H805.091V268.472C805.091 265.869 804.099 264.568 802.115 264.568C801.369 264.568 800.665 264.792 800.003 265.24C799.342 265.688 798.809 266.349 798.403 267.224C797.998 268.077 797.795 269.091 797.795 270.264V279H794.275V262.36Z" fill="black"/>
<path d="M780.78 279.48C778.711 279.48 777.079 278.701 775.884 277.144C774.711 275.587 774.124 273.453 774.124 270.744C774.124 268.952 774.401 267.395 774.956 266.072C775.511 264.728 776.3 263.693 777.324 262.968C778.369 262.243 779.575 261.88 780.94 261.88C782.049 261.88 783.031 262.157 783.884 262.712C784.737 263.267 785.431 264.067 785.964 265.112V255.96H789.484V279H786.124V275.96C785.591 277.091 784.865 277.965 783.948 278.584C783.031 279.181 781.975 279.48 780.78 279.48ZM777.804 270.616C777.804 272.685 778.156 274.285 778.86 275.416C779.585 276.547 780.599 277.112 781.9 277.112C783.201 277.112 784.225 276.557 784.972 275.448C785.719 274.339 786.092 272.781 786.092 270.776C786.092 268.749 785.697 267.16 784.908 266.008C784.14 264.835 783.105 264.248 781.804 264.248C780.524 264.248 779.532 264.803 778.828 265.912C778.145 267 777.804 268.568 777.804 270.616Z" fill="black"/>
<path d="M764.152 279.48C762.595 279.48 761.219 279.139 760.024 278.456C758.851 277.752 757.934 276.749 757.272 275.448C756.611 274.147 756.28 272.621 756.28 270.872C756.28 269.187 756.6 267.661 757.24 266.296C757.902 264.931 758.819 263.853 759.992 263.064C761.166 262.275 762.51 261.88 764.024 261.88C765.646 261.88 767.032 262.275 768.184 263.064C769.358 263.853 770.232 264.941 770.808 266.328C771.384 267.715 771.63 269.283 771.544 271.032H759.8C759.886 272.952 760.376 274.424 761.272 275.448C762.168 276.451 763.267 276.952 764.568 276.952C765.614 276.952 766.478 276.696 767.16 276.184C767.843 275.651 768.366 274.915 768.728 273.976H771.416C770.883 275.896 769.966 277.293 768.664 278.168C767.363 279.043 765.859 279.48 764.152 279.48ZM767.928 268.92C767.822 267.384 767.406 266.2 766.68 265.368C765.976 264.536 765.048 264.12 763.896 264.12C762.787 264.12 761.87 264.547 761.144 265.4C760.44 266.232 760.003 267.405 759.832 268.92H767.928Z" fill="black"/>
<path d="M725.879 256.92H729.655L734.263 276.344L738.775 256.92H742.743L747.383 276.376L751.959 256.92H755.127L749.527 279H744.727L740.503 261.336L736.311 279H731.415L725.879 256.92Z" fill="black"/>
<path d="M1099.36 284.92C1098.64 284.92 1097.97 284.835 1097.35 284.664V282.04C1097.88 282.189 1098.45 282.264 1099.04 282.264C1099.92 282.264 1100.67 282.04 1101.28 281.592C1101.92 281.144 1102.52 280.419 1103.08 279.416L1096.29 262.36H1100.2L1104.9 275.224L1109.44 262.36H1112.48L1106.53 277.976C1105.91 279.597 1105.3 280.899 1104.68 281.88C1104.06 282.883 1103.32 283.64 1102.47 284.152C1101.62 284.664 1100.58 284.92 1099.36 284.92Z" fill="black"/>
<path d="M1085.03 279.384C1083.58 279.384 1082.35 279.021 1081.35 278.296C1080.37 277.571 1079.88 276.493 1079.88 275.064C1079.88 272.547 1081.76 270.851 1085.54 269.976C1086.78 269.699 1087.73 269.443 1088.39 269.208C1089.05 268.973 1089.52 268.696 1089.8 268.376C1090.1 268.035 1090.24 267.608 1090.24 267.096C1090.24 266.328 1089.95 265.667 1089.35 265.112C1088.77 264.536 1087.93 264.248 1086.82 264.248C1085.86 264.248 1085.05 264.504 1084.39 265.016C1083.73 265.507 1083.28 266.2 1083.04 267.096H1080.23C1080.55 265.475 1081.33 264.195 1082.56 263.256C1083.8 262.317 1085.28 261.848 1087.01 261.848C1089.21 261.848 1090.87 262.413 1092 263.544C1093.14 264.675 1093.7 266.157 1093.7 267.992V275.192C1093.7 275.96 1093.84 276.493 1094.12 276.792C1094.42 277.069 1094.83 277.187 1095.36 277.144V278.936C1094.92 279.107 1094.42 279.192 1093.86 279.192C1091.71 279.192 1090.59 278.157 1090.5 276.088C1090.12 276.941 1089.46 277.709 1088.52 278.392C1087.6 279.053 1086.44 279.384 1085.03 279.384ZM1083.43 274.776C1083.43 275.437 1083.67 275.971 1084.16 276.376C1084.66 276.76 1085.33 276.952 1086.18 276.952C1087.33 276.952 1088.29 276.568 1089.06 275.8C1089.83 275.032 1090.21 273.912 1090.21 272.44V269.848C1089.96 270.317 1089.54 270.712 1088.96 271.032C1088.41 271.331 1087.72 271.597 1086.88 271.832C1085.6 272.195 1084.71 272.611 1084.2 273.08C1083.68 273.528 1083.43 274.093 1083.43 274.776Z" fill="black"/>
<path d="M1067.34 279.48C1065.27 279.48 1063.64 278.701 1062.45 277.144C1061.27 275.587 1060.69 273.453 1060.69 270.744C1060.69 268.952 1060.96 267.395 1061.52 266.072C1062.07 264.728 1062.86 263.693 1063.89 262.968C1064.93 262.243 1066.14 261.88 1067.5 261.88C1068.61 261.88 1069.59 262.157 1070.45 262.712C1071.3 263.267 1071.99 264.067 1072.53 265.112V255.96H1076.05V279H1072.69V275.96C1072.15 277.091 1071.43 277.965 1070.51 278.584C1069.59 279.181 1068.54 279.48 1067.34 279.48ZM1064.37 270.616C1064.37 272.685 1064.72 274.285 1065.42 275.416C1066.15 276.547 1067.16 277.112 1068.46 277.112C1069.76 277.112 1070.79 276.557 1071.53 275.448C1072.28 274.339 1072.65 272.781 1072.65 270.776C1072.65 268.749 1072.26 267.16 1071.47 266.008C1070.7 264.835 1069.67 264.248 1068.37 264.248C1067.09 264.248 1066.09 264.803 1065.39 265.912C1064.71 267 1064.37 268.568 1064.37 270.616Z" fill="black"/>
<path d="M1051.67 279.48C1049.62 279.48 1047.93 278.989 1046.58 278.008C1045.24 277.005 1044.47 275.587 1044.28 273.752H1047.03C1047.2 274.84 1047.71 275.693 1048.57 276.312C1049.44 276.909 1050.46 277.208 1051.64 277.208C1052.73 277.208 1053.58 276.984 1054.2 276.536C1054.82 276.067 1055.13 275.437 1055.13 274.648C1055.13 273.944 1054.87 273.411 1054.36 273.048C1053.85 272.664 1053.06 272.365 1051.99 272.152L1050.07 271.736C1048.34 271.352 1047.02 270.787 1046.1 270.04C1045.18 269.293 1044.73 268.259 1044.73 266.936C1044.73 266.04 1044.98 265.208 1045.49 264.44C1046.01 263.651 1046.73 263.032 1047.67 262.584C1048.63 262.115 1049.75 261.88 1051.03 261.88C1052.71 261.88 1054.15 262.264 1055.35 263.032C1056.54 263.8 1057.35 264.888 1057.78 266.296L1054.71 266.904C1054.45 266.008 1053.99 265.325 1053.33 264.856C1052.67 264.365 1051.86 264.12 1050.9 264.12C1049.96 264.12 1049.22 264.333 1048.66 264.76C1048.13 265.187 1047.86 265.752 1047.86 266.456C1047.86 267.053 1048.1 267.533 1048.57 267.896C1049.06 268.237 1049.88 268.536 1051.03 268.792L1052.82 269.176C1054.7 269.603 1056.09 270.2 1056.98 270.968C1057.88 271.736 1058.33 272.835 1058.33 274.264C1058.33 275.288 1058.04 276.195 1057.46 276.984C1056.91 277.773 1056.12 278.392 1055.09 278.84C1054.09 279.267 1052.95 279.48 1051.67 279.48Z" fill="black"/>
<path d="M1033.24 262.36H1036.76V266.2H1036.83C1037.15 265.112 1037.7 264.162 1038.49 263.352C1039.28 262.541 1040.25 262.136 1041.4 262.136C1041.85 262.136 1042.15 262.168 1042.3 262.232V265.432C1042.04 265.368 1041.67 265.336 1041.18 265.336C1039.99 265.336 1038.95 265.837 1038.08 266.84C1037.2 267.821 1036.76 269.474 1036.76 271.8V279H1033.24V262.36Z" fill="black"/>
<path d="M1019.36 279.384C1017.76 279.384 1016.5 278.904 1015.59 277.944C1014.69 276.963 1014.24 275.555 1014.24 273.72V262.36H1017.76V272.888C1017.76 274.253 1018.01 275.245 1018.5 275.864C1019.01 276.483 1019.73 276.792 1020.67 276.792C1021.42 276.792 1022.11 276.568 1022.75 276.12C1023.41 275.672 1023.94 275.021 1024.32 274.168C1024.73 273.293 1024.93 272.269 1024.93 271.096V262.36H1028.45V279H1024.93V275.512C1024.48 276.621 1023.76 277.549 1022.75 278.296C1021.77 279.021 1020.64 279.384 1019.36 279.384Z" fill="black"/>
<path d="M995.369 255.96H998.889V265.848C999.337 264.739 1000.06 263.821 1001.07 263.096C1002.07 262.349 1003.21 261.976 1004.49 261.976C1006.09 261.976 1007.35 262.467 1008.27 263.448C1009.18 264.408 1009.64 265.805 1009.64 267.64V279H1006.12V268.472C1006.12 267.107 1005.87 266.115 1005.35 265.496C1004.86 264.877 1004.14 264.568 1003.18 264.568C1002.43 264.568 1001.73 264.792 1001.07 265.24C1000.43 265.688 999.902 266.349 999.497 267.224C999.092 268.077 998.889 269.091 998.889 270.264V279H995.369V255.96Z" fill="black"/>
<path d="M981.68 259.576H974.96V256.92H992.016V259.576H985.328V279H981.68V259.576Z" fill="black"/>
<path d="M1307.99 284.92C1307.26 284.92 1306.59 284.835 1305.97 284.664V282.04C1306.51 282.19 1307.07 282.264 1307.67 282.264C1308.54 282.264 1309.29 282.04 1309.91 281.592C1310.55 281.144 1311.15 280.419 1311.7 279.416L1304.92 262.36H1308.82L1313.53 275.224L1318.07 262.36H1321.11L1315.16 277.976C1314.54 279.598 1313.92 280.899 1313.3 281.88C1312.68 282.883 1311.95 283.64 1311.09 284.152C1310.24 284.664 1309.21 284.92 1307.99 284.92Z" fill="black"/>
<path d="M1293.65 279.384C1292.2 279.384 1290.98 279.021 1289.97 278.296C1288.99 277.571 1288.5 276.493 1288.5 275.064C1288.5 272.547 1290.39 270.851 1294.17 269.976C1295.4 269.699 1296.35 269.443 1297.01 269.208C1297.68 268.973 1298.14 268.696 1298.42 268.376C1298.72 268.035 1298.87 267.608 1298.87 267.096C1298.87 266.328 1298.57 265.667 1297.97 265.112C1297.4 264.536 1296.56 264.248 1295.45 264.248C1294.49 264.248 1293.68 264.504 1293.01 265.016C1292.35 265.507 1291.9 266.2 1291.67 267.096H1288.85C1289.17 265.475 1289.95 264.195 1291.19 263.256C1292.43 262.317 1293.91 261.848 1295.64 261.848C1297.84 261.848 1299.5 262.413 1300.63 263.544C1301.76 264.675 1302.33 266.157 1302.33 267.992V275.192C1302.33 275.96 1302.46 276.493 1302.74 276.792C1303.04 277.069 1303.46 277.187 1303.99 277.144V278.936C1303.54 279.107 1303.04 279.192 1302.49 279.192C1300.33 279.192 1299.21 278.157 1299.13 276.088C1298.74 276.941 1298.08 277.709 1297.14 278.392C1296.22 279.053 1295.06 279.384 1293.65 279.384ZM1292.05 274.776C1292.05 275.437 1292.3 275.971 1292.79 276.376C1293.28 276.76 1293.95 276.952 1294.81 276.952C1295.96 276.952 1296.92 276.568 1297.69 275.8C1298.45 275.032 1298.84 273.912 1298.84 272.44V269.848C1298.58 270.317 1298.17 270.712 1297.59 271.032C1297.04 271.331 1296.34 271.597 1295.51 271.832C1294.23 272.195 1293.33 272.611 1292.82 273.08C1292.31 273.528 1292.05 274.093 1292.05 274.776Z" fill="black"/>
<path d="M1275.97 279.48C1273.9 279.48 1272.27 278.702 1271.07 277.144C1269.9 275.587 1269.31 273.454 1269.31 270.744C1269.31 268.952 1269.59 267.395 1270.14 266.072C1270.7 264.728 1271.49 263.694 1272.51 262.968C1273.56 262.243 1274.76 261.88 1276.13 261.88C1277.24 261.88 1278.22 262.158 1279.07 262.712C1279.92 263.267 1280.62 264.067 1281.15 265.112V255.96H1284.67V279H1281.31V275.96C1280.78 277.091 1280.05 277.966 1279.14 278.584C1278.22 279.182 1277.16 279.48 1275.97 279.48ZM1272.99 270.616C1272.99 272.686 1273.34 274.286 1274.05 275.416C1274.77 276.547 1275.79 277.112 1277.09 277.112C1278.39 277.112 1279.41 276.558 1280.16 275.448C1280.91 274.339 1281.28 272.782 1281.28 270.776C1281.28 268.75 1280.88 267.16 1280.1 266.008C1279.33 264.835 1278.29 264.248 1276.99 264.248C1275.71 264.248 1274.72 264.803 1274.02 265.912C1273.33 267 1272.99 268.568 1272.99 270.616Z" fill="black"/>
<path d="M1262.06 262.36H1265.58V279H1262.06V262.36ZM1263.85 259.448C1263.25 259.448 1262.74 259.256 1262.31 258.872C1261.91 258.467 1261.7 257.987 1261.7 257.432C1261.7 256.878 1261.91 256.408 1262.31 256.024C1262.74 255.64 1263.25 255.448 1263.85 255.448C1264.42 255.448 1264.91 255.651 1265.32 256.056C1265.75 256.44 1265.96 256.899 1265.96 257.432C1265.96 257.987 1265.75 258.467 1265.32 258.872C1264.91 259.256 1264.42 259.448 1263.85 259.448Z" fill="black"/>
<path d="M1249.81 262.36H1253.33V266.2H1253.39C1253.71 265.112 1254.26 264.163 1255.05 263.352C1255.84 262.542 1256.81 262.136 1257.97 262.136C1258.41 262.136 1258.71 262.168 1258.86 262.232V265.432C1258.61 265.368 1258.23 265.336 1257.74 265.336C1256.55 265.336 1255.51 265.838 1254.64 266.84C1253.76 267.822 1253.33 269.475 1253.33 271.8V279H1249.81V262.36Z" fill="black"/>
<path d="M1232.09 256.92H1246.59V259.576H1235.74V266.232H1245.79V268.888H1235.74V279H1232.09V256.92Z" fill="black"/>
<path d="M1562.33 284.92C1561.61 284.92 1560.94 284.835 1560.32 284.664V282.04C1560.85 282.189 1561.42 282.264 1562.01 282.264C1562.89 282.264 1563.64 282.04 1564.25 281.592C1564.89 281.144 1565.49 280.419 1566.05 279.416L1559.26 262.36H1563.17L1567.87 275.224L1572.41 262.36H1575.45L1569.5 277.976C1568.88 279.597 1568.26 280.899 1567.65 281.88C1567.03 282.883 1566.29 283.64 1565.44 284.152C1564.58 284.664 1563.55 284.92 1562.33 284.92Z" fill="black"/>
<path d="M1548 279.384C1546.55 279.384 1545.32 279.021 1544.32 278.296C1543.34 277.571 1542.85 276.493 1542.85 275.064C1542.85 272.547 1544.73 270.851 1548.51 269.976C1549.75 269.699 1550.7 269.443 1551.36 269.208C1552.02 268.973 1552.49 268.696 1552.77 268.376C1553.06 268.035 1553.21 267.608 1553.21 267.096C1553.21 266.328 1552.92 265.667 1552.32 265.112C1551.74 264.536 1550.9 264.248 1549.79 264.248C1548.83 264.248 1548.02 264.504 1547.36 265.016C1546.7 265.507 1546.25 266.2 1546.01 267.096H1543.2C1543.52 265.475 1544.3 264.195 1545.53 263.256C1546.77 262.317 1548.25 261.848 1549.98 261.848C1552.18 261.848 1553.84 262.413 1554.97 263.544C1556.1 264.675 1556.67 266.157 1556.67 267.992V275.192C1556.67 275.96 1556.81 276.493 1557.09 276.792C1557.38 277.069 1557.8 277.187 1558.33 277.144V278.936C1557.89 279.107 1557.38 279.192 1556.83 279.192C1554.68 279.192 1553.56 278.157 1553.47 276.088C1553.09 276.941 1552.42 277.709 1551.49 278.392C1550.57 279.053 1549.41 279.384 1548 279.384ZM1546.4 274.776C1546.4 275.437 1546.64 275.971 1547.13 276.376C1547.62 276.76 1548.3 276.952 1549.15 276.952C1550.3 276.952 1551.26 276.568 1552.03 275.8C1552.8 275.032 1553.18 273.912 1553.18 272.44V269.848C1552.93 270.317 1552.51 270.712 1551.93 271.032C1551.38 271.331 1550.69 271.597 1549.85 271.832C1548.57 272.195 1547.68 272.611 1547.17 273.08C1546.65 273.528 1546.4 274.093 1546.4 274.776Z" fill="black"/>
<path d="M1530.31 279.48C1528.24 279.48 1526.61 278.701 1525.42 277.144C1524.24 275.587 1523.66 273.453 1523.66 270.744C1523.66 268.952 1523.93 267.395 1524.49 266.072C1525.04 264.728 1525.83 263.693 1526.86 262.968C1527.9 262.243 1529.11 261.88 1530.47 261.88C1531.58 261.88 1532.56 262.157 1533.42 262.712C1534.27 263.267 1534.96 264.067 1535.5 265.112V255.96H1539.02V279H1535.66V275.96C1535.12 277.091 1534.4 277.965 1533.48 278.584C1532.56 279.181 1531.51 279.48 1530.31 279.48ZM1527.34 270.616C1527.34 272.685 1527.69 274.285 1528.39 275.416C1529.12 276.547 1530.13 277.112 1531.43 277.112C1532.73 277.112 1533.76 276.557 1534.5 275.448C1535.25 274.339 1535.62 272.781 1535.62 270.776C1535.62 268.749 1535.23 267.16 1534.44 266.008C1533.67 264.835 1532.64 264.248 1531.34 264.248C1530.06 264.248 1529.06 264.803 1528.36 265.912C1527.68 267 1527.34 268.568 1527.34 270.616Z" fill="black"/>
<path d="M1512.99 262.36H1516.51V266.2H1516.58C1516.9 265.112 1517.45 264.162 1518.24 263.352C1519.03 262.541 1520 262.136 1521.15 262.136C1521.6 262.136 1521.9 262.168 1522.05 262.232V265.432C1521.79 265.368 1521.42 265.336 1520.93 265.336C1519.74 265.336 1518.7 265.837 1517.83 266.84C1516.95 267.821 1516.51 269.474 1516.51 271.8V279H1512.99V262.36Z" fill="black"/>
<path d="M1499.11 279.384C1497.51 279.384 1496.25 278.904 1495.34 277.944C1494.44 276.963 1493.99 275.555 1493.99 273.72V262.36H1497.51V272.888C1497.51 274.253 1497.76 275.245 1498.25 275.864C1498.76 276.483 1499.48 276.792 1500.42 276.792C1501.17 276.792 1501.86 276.568 1502.5 276.12C1503.16 275.672 1503.69 275.021 1504.07 274.168C1504.48 273.293 1504.68 272.269 1504.68 271.096V262.36H1508.2V279H1504.68V275.512C1504.23 276.621 1503.51 277.549 1502.5 278.296C1501.52 279.021 1500.39 279.384 1499.11 279.384Z" fill="black"/>
<path d="M1488.17 279.256C1486.47 279.256 1485.16 278.872 1484.27 278.104C1483.39 277.336 1482.96 275.96 1482.96 273.976V264.6H1480.24V262.872C1481.45 262.808 1482.36 262.403 1482.96 261.656C1483.55 260.91 1483.91 259.758 1484.01 258.2H1486.44V262.36H1490.48V264.6H1486.44V274.072C1486.44 275.118 1486.68 275.854 1487.15 276.28C1487.62 276.686 1488.28 276.888 1489.13 276.888C1489.73 276.888 1490.22 276.814 1490.6 276.664V278.84C1490.35 278.968 1490 279.064 1489.55 279.128C1489.1 279.214 1488.64 279.256 1488.17 279.256Z" fill="black"/>
<path d="M1468.5 279.384C1467.05 279.384 1465.82 279.021 1464.82 278.296C1463.84 277.571 1463.35 276.493 1463.35 275.064C1463.35 272.547 1465.23 270.851 1469.01 269.976C1470.25 269.699 1471.2 269.443 1471.86 269.208C1472.52 268.973 1472.99 268.696 1473.27 268.376C1473.56 268.035 1473.71 267.608 1473.71 267.096C1473.71 266.328 1473.42 265.667 1472.82 265.112C1472.24 264.536 1471.4 264.248 1470.29 264.248C1469.33 264.248 1468.52 264.504 1467.86 265.016C1467.2 265.507 1466.75 266.2 1466.51 267.096H1463.7C1464.02 265.475 1464.8 264.195 1466.03 263.256C1467.27 262.317 1468.75 261.848 1470.48 261.848C1472.68 261.848 1474.34 262.413 1475.47 263.544C1476.6 264.675 1477.17 266.157 1477.17 267.992V275.192C1477.17 275.96 1477.31 276.493 1477.59 276.792C1477.88 277.069 1478.3 277.187 1478.83 277.144V278.936C1478.39 279.107 1477.88 279.192 1477.33 279.192C1475.18 279.192 1474.06 278.157 1473.97 276.088C1473.59 276.941 1472.92 277.709 1471.99 278.392C1471.07 279.053 1469.91 279.384 1468.5 279.384ZM1466.9 274.776C1466.9 275.437 1467.14 275.971 1467.63 276.376C1468.12 276.76 1468.8 276.952 1469.65 276.952C1470.8 276.952 1471.76 276.568 1472.53 275.8C1473.3 275.032 1473.68 273.912 1473.68 272.44V269.848C1473.43 270.317 1473.01 270.712 1472.43 271.032C1471.88 271.331 1471.19 271.597 1470.35 271.832C1469.07 272.195 1468.18 272.611 1467.67 273.08C1467.15 273.528 1466.9 274.093 1466.9 274.776Z" fill="black"/>
<path d="M1451.88 279.512C1450.19 279.512 1448.66 279.235 1447.27 278.68C1445.88 278.104 1444.74 277.24 1443.85 276.088C1442.95 274.936 1442.43 273.507 1442.28 271.8H1445.38C1445.6 273.421 1446.31 274.68 1447.53 275.576C1448.74 276.472 1450.19 276.92 1451.88 276.92C1453.48 276.92 1454.71 276.579 1455.56 275.896C1456.43 275.213 1456.87 274.296 1456.87 273.144C1456.87 272.099 1456.51 271.309 1455.78 270.776C1455.08 270.243 1454.03 269.837 1452.65 269.56L1449.8 268.984C1447.62 268.536 1445.95 267.832 1444.78 266.872C1443.62 265.891 1443.05 264.557 1443.05 262.872C1443.05 261.72 1443.37 260.653 1444.01 259.672C1444.67 258.691 1445.61 257.912 1446.82 257.336C1448.06 256.739 1449.5 256.44 1451.14 256.44C1453.34 256.44 1455.22 256.952 1456.78 257.976C1458.33 259 1459.36 260.472 1459.85 262.392L1456.42 263.064C1456.08 261.699 1455.42 260.664 1454.44 259.96C1453.48 259.256 1452.31 258.904 1450.92 258.904C1449.55 258.904 1448.49 259.224 1447.72 259.864C1446.95 260.483 1446.57 261.304 1446.57 262.328C1446.57 263.203 1446.89 263.917 1447.53 264.472C1448.19 265.005 1449.24 265.421 1450.7 265.72L1453.45 266.296C1455.86 266.787 1457.62 267.533 1458.73 268.536C1459.86 269.539 1460.42 270.915 1460.42 272.664C1460.42 273.987 1460.07 275.171 1459.37 276.216C1458.66 277.24 1457.66 278.051 1456.36 278.648C1455.08 279.224 1453.59 279.512 1451.88 279.512Z" fill="black"/>
</g>
<defs>
<clipPath id="clip0_101_3073">
<rect width="1620" height="2160" fill="white"/>
</clipPath>
</defs>
</svg>
