<svg width="1620" height="2160" viewBox="0 0 1620 2160" fill="none" xmlns="http://www.w3.org/2000/svg">
<g clip-path="url(#clip0_101_3316)">
<path d="M1621.15 0H2.30774V2160H1621.15V0Z" fill="white"/>
<path d="M1.15381 2159.42H1620" stroke="black" stroke-width="0.5" stroke-miterlimit="10"/>
<path d="M1.15381 107.885H1620" stroke="black" stroke-width="0.5" stroke-miterlimit="10"/>
<path d="M1.15381 215.885H1620" stroke="black" stroke-width="0.5" stroke-miterlimit="10"/>
<path d="M1.15381 323.885H1620" stroke="black" stroke-width="0.5" stroke-miterlimit="10"/>
<path d="M1.15381 431.885H1620" stroke="black" stroke-width="0.5" stroke-miterlimit="10"/>
<path d="M1.15381 539.77H1620" stroke="black" stroke-width="0.5" stroke-miterlimit="10"/>
<path d="M1.15381 647.77H1620" stroke="black" stroke-width="0.5" stroke-miterlimit="10"/>
<path d="M1.15381 755.77H1620" stroke="black" stroke-width="0.5" stroke-miterlimit="10"/>
<path d="M1.15381 863.77H1620" stroke="black" stroke-width="0.5" stroke-miterlimit="10"/>
<path d="M1.15381 971.77H1620" stroke="black" stroke-width="0.5" stroke-miterlimit="10"/>
<path d="M1.15381 1079.65H1620" stroke="black" stroke-width="0.5" stroke-miterlimit="10"/>
<path d="M1.15381 1187.65H1620" stroke="black" stroke-width="0.5" stroke-miterlimit="10"/>
<path d="M1.15381 1295.65H1620" stroke="black" stroke-width="0.5" stroke-miterlimit="10"/>
<path d="M1.15381 1403.65H1620" stroke="black" stroke-width="0.5" stroke-miterlimit="10"/>
<path d="M1.15381 1511.65H1620" stroke="black" stroke-width="0.5" stroke-miterlimit="10"/>
<path d="M1.15381 1619.54H1620" stroke="black" stroke-width="0.5" stroke-miterlimit="10"/>
<path d="M1.15381 1727.54H1620" stroke="black" stroke-width="0.5" stroke-miterlimit="10"/>
<path d="M1.15381 1835.54H1620" stroke="black" stroke-width="0.5" stroke-miterlimit="10"/>
<path d="M1.15381 1943.54H1620" stroke="black" stroke-width="0.5" stroke-miterlimit="10"/>
<path d="M1.15381 2051.42H1620" stroke="black" stroke-width="0.5" stroke-miterlimit="10"/>
<path d="M810.577 0V2159.42" stroke="black" stroke-width="0.5" stroke-miterlimit="10"/>
<path d="M810.577 0.230469L1620 1079.65" stroke="black" stroke-miterlimit="10"/>
<path d="M810.577 107.885L1620 1079.65" stroke="black" stroke-miterlimit="10"/>
<path d="M810.577 215.885L1620 1079.65" stroke="black" stroke-miterlimit="10"/>
<path d="M810.577 323.885L1620 1079.65" stroke="black" stroke-miterlimit="10"/>
<path d="M810.577 431.885L1620 1079.65" stroke="black" stroke-miterlimit="10"/>
<path d="M810.577 539.769L1620 1079.65" stroke="black" stroke-miterlimit="10"/>
<path d="M810.577 647.769L1620 1079.65" stroke="black" stroke-miterlimit="10"/>
<path d="M810.577 755.769L1620 1079.65" stroke="black" stroke-miterlimit="10"/>
<path d="M810.577 863.769L1620 1079.65" stroke="black" stroke-miterlimit="10"/>
<path d="M810.577 971.769L1620 1079.65" stroke="black" stroke-miterlimit="10"/>
<path d="M2.30762 1078.96L1621.15 1079.65" stroke="black" stroke-miterlimit="10"/>
<path d="M810.577 1187.65L1620 1079.65" stroke="black" stroke-miterlimit="10"/>
<path d="M810.577 1295.65L1620 1079.65" stroke="black" stroke-miterlimit="10"/>
<path d="M810.577 1403.65L1620 1079.65" stroke="black" stroke-miterlimit="10"/>
<path d="M810.577 1511.65L1620 1079.65" stroke="black" stroke-miterlimit="10"/>
<path d="M810.577 1619.54L1620 1079.65" stroke="black" stroke-miterlimit="10"/>
<path d="M810.577 1727.54L1620 1079.65" stroke="black" stroke-miterlimit="10"/>
<path d="M810.577 1835.54L1620 1079.65" stroke="black" stroke-miterlimit="10"/>
<path d="M810.577 1943.54L1620 1079.65" stroke="black" stroke-miterlimit="10"/>
<path d="M810.577 2051.42L1620 1079.65" stroke="black" stroke-miterlimit="10"/>
<path d="M810.577 2159.42L1620 1079.65" stroke="black" stroke-miterlimit="10"/>
<path d="M810.577 0.230469L1.15381 1079.65" stroke="black" stroke-miterlimit="10"/>
<path d="M810.577 107.885L1.15381 1079.65" stroke="black" stroke-miterlimit="10"/>
<path d="M810.577 215.885L1.15381 1079.65" stroke="black" stroke-miterlimit="10"/>
<path d="M810.577 323.885L1.15381 1079.65" stroke="black" stroke-miterlimit="10"/>
<path d="M810.577 431.885L1.15381 1079.65" stroke="black" stroke-miterlimit="10"/>
<path d="M810.577 539.769L1.15381 1079.65" stroke="black" stroke-miterlimit="10"/>
<path d="M810.577 647.769L1.15381 1079.65" stroke="black" stroke-miterlimit="10"/>
<path d="M810.577 755.769L1.15381 1079.65" stroke="black" stroke-miterlimit="10"/>
<path d="M810.577 863.769L1.15381 1079.65" stroke="black" stroke-miterlimit="10"/>
<path d="M810.577 971.769L1.15381 1079.65" stroke="black" stroke-miterlimit="10"/>
<path d="M810.577 1187.65L1.15381 1079.65" stroke="black" stroke-miterlimit="10"/>
<path d="M810.577 1295.65L1.15381 1079.65" stroke="black" stroke-miterlimit="10"/>
<path d="M810.577 1403.65L1.15381 1079.65" stroke="black" stroke-miterlimit="10"/>
<path d="M810.577 1511.65L1.15381 1079.65" stroke="black" stroke-miterlimit="10"/>
<path d="M810.577 1619.54L1.15381 1079.65" stroke="black" stroke-miterlimit="10"/>
<path d="M810.577 1727.54L1.15381 1079.65" stroke="black" stroke-miterlimit="10"/>
<path d="M810.577 1835.54L1.15381 1079.65" stroke="black" stroke-miterlimit="10"/>
<path d="M810.577 1943.54L1.15381 1079.65" stroke="black" stroke-miterlimit="10"/>
<path d="M810.577 2051.42L1.15381 1079.65" stroke="black" stroke-miterlimit="10"/>
<path d="M810.577 2159.42L1.15381 1079.65" stroke="black" stroke-miterlimit="10"/>
</g>
<defs>
<clipPath id="clip0_101_3316">
<rect width="1620" height="2160" fill="white"/>
</clipPath>
</defs>
</svg>
